<svg width="513" height="513" viewBox="0 0 513 513" fill="none" xmlns="http://www.w3.org/2000/svg">
<g clip-path="url(#clip0_104_840)">
<path d="M32.5 32.5C50.2 32.5 64.5 46.8 64.5 64.5V400.5C64.5 409.3 71.7 416.5 80.5 416.5H480.5C498.2 416.5 512.5 430.8 512.5 448.5C512.5 466.2 498.2 480.5 480.5 480.5H80.5C36.3 480.5 0.5 444.7 0.5 400.5V64.5C0.5 46.8 14.8 32.5 32.5 32.5ZM160.5 224.5C178.2 224.5 192.5 238.8 192.5 256.5V320.5C192.5 338.2 178.2 352.5 160.5 352.5C142.8 352.5 128.5 338.2 128.5 320.5V256.5C128.5 238.8 142.8 224.5 160.5 224.5ZM288.5 160.5V320.5C288.5 338.2 274.2 352.5 256.5 352.5C238.8 352.5 224.5 338.2 224.5 320.5V160.5C224.5 142.8 238.8 128.5 256.5 128.5C274.2 128.5 288.5 142.8 288.5 160.5ZM352.5 192.5C370.2 192.5 384.5 206.8 384.5 224.5V320.5C384.5 338.2 370.2 352.5 352.5 352.5C334.8 352.5 320.5 338.2 320.5 320.5V224.5C320.5 206.8 334.8 192.5 352.5 192.5ZM480.5 96.5V320.5C480.5 338.2 466.2 352.5 448.5 352.5C430.8 352.5 416.5 338.2 416.5 320.5V96.5C416.5 78.8 430.8 64.5 448.5 64.5C466.2 64.5 480.5 78.8 480.5 96.5Z" fill="#47535F"/>
</g>
<defs>
<clipPath id="clip0_104_840">
<rect width="512" height="512" fill="white" transform="translate(0.5 0.5)"/>
</clipPath>
</defs>
</svg>
