<svg xmlns="http://www.w3.org/2000/svg" width="38" height="38" viewBox="0 0 38 38">
  <g id="ExpenseMitraBlue" transform="translate(-84 -201)">
    <circle id="Ellipse_1" data-name="Ellipse 1" cx="19" cy="19" r="19" transform="translate(84 201)" fill="#f2f7fd"/>
    <path id="Icon_material-attach-money" data-name="Icon material-attach-money" d="M14.735,12.075c-2.177-.566-2.877-1.151-2.877-2.062,0-1.045.968-1.774,2.589-1.774,1.707,0,2.34.815,2.4,2.014h2.119A3.822,3.822,0,0,0,15.885,6.6V4.5H13.009V6.571c-1.86.4-3.356,1.611-3.356,3.462,0,2.215,1.831,3.318,4.507,3.96,2.4.575,2.877,1.419,2.877,2.311,0,.662-.47,1.716-2.589,1.716-1.975,0-2.752-.882-2.858-2.014H9.48a4.017,4.017,0,0,0,3.529,3.673V21.76h2.877V19.7c1.87-.355,3.356-1.438,3.356-3.4C19.242,13.571,16.911,12.641,14.735,12.075Z" transform="translate(88.639 206.87)" fill="#0067d2"/>
  </g>
</svg>
