<svg xmlns="http://www.w3.org/2000/svg" width="38" height="38" viewBox="0 0 38 38">
  <g id="IndemnityMitraBlue" transform="translate(-51 -233)">
    <g id="TotalMoneyMitraBlue" transform="translate(-33 32)">
      <circle id="Ellipse_1" data-name="Ellipse 1" cx="19" cy="19" r="19" transform="translate(84 201)" fill="#f2f7fd"/>
      <path id="Icon_material-attach-money" data-name="Icon material-attach-money" d="M12.276,8.531c-1.158-.3-1.531-.612-1.531-1.1,0-.556.515-.944,1.378-.944.908,0,1.245.434,1.276,1.071h1.128a2.034,2.034,0,0,0-1.638-1.944V4.5H11.358V5.6A1.991,1.991,0,0,0,9.572,7.444c0,1.179.974,1.765,2.4,2.107,1.276.306,1.531.755,1.531,1.23,0,.352-.25.913-1.378.913-1.051,0-1.464-.469-1.52-1.071H9.48a2.138,2.138,0,0,0,1.878,1.954v1.107h1.531v-1.1c.995-.189,1.786-.765,1.786-1.811C14.674,9.327,13.434,8.832,12.276,8.531Z" transform="translate(90.923 206.908)" fill="#0067d2"/>
    </g>
    <path id="Icon_awesome-hand-holding-usd" data-name="Icon awesome-hand-holding-usd" d="M18,11.061a1.012,1.012,0,0,0-1.359,0L13.7,13.552a1.961,1.961,0,0,1-1.274.472H8.66a.54.54,0,0,1,0-1.079h2.491a1.08,1.08,0,0,0,.054-2.158H6.112a3.6,3.6,0,0,0-2.356.887l-1.48,1.271H.509A.527.527,0,0,0,0,13.485v3.236a.527.527,0,0,0,.509.539H11.866a1.974,1.974,0,0,0,1.274-.472l4.814-4.079A1.12,1.12,0,0,0,18,11.061Z" transform="translate(60.831 243.37)" fill="#0067d2"/>
  </g>
</svg>
