<svg xmlns="http://www.w3.org/2000/svg" width="38" height="38" viewBox="0 0 38 38">
  <g id="TotalMoneyMitraBlue" transform="translate(-84 -201)">
    <circle id="Ellipse_1" data-name="Ellipse 1" cx="19" cy="19" r="19" transform="translate(84 201)" fill="#f2f7fd"/>
    <path id="Icon_awesome-money-check-alt" data-name="Icon awesome-money-check-alt" d="M19,2.25H1a1,1,0,0,0-1,1v12a1,1,0,0,0,1,1H19a1,1,0,0,0,1-1v-12A1,1,0,0,0,19,2.25ZM5.5,11.5V12a.25.25,0,0,1-.25.25h-.5A.25.25,0,0,1,4.5,12v-.509a1.789,1.789,0,0,1-.98-.355.25.25,0,0,1-.018-.379l.367-.35a.256.256,0,0,1,.317-.023.752.752,0,0,0,.4.116h.878a.393.393,0,0,0,.369-.412.408.408,0,0,0-.274-.4L4.153,9.268a1.414,1.414,0,0,1-.987-1.356A1.392,1.392,0,0,1,4.5,6.5V6a.25.25,0,0,1,.25-.25h.5A.25.25,0,0,1,5.5,6v.509a1.787,1.787,0,0,1,.98.355.25.25,0,0,1,.018.379l-.367.35a.256.256,0,0,1-.317.023.75.75,0,0,0-.4-.116H4.535a.393.393,0,0,0-.369.412.408.408,0,0,0,.274.4l1.406.422a1.414,1.414,0,0,1,.987,1.356A1.391,1.391,0,0,1,5.5,11.5ZM13,11a.25.25,0,0,1-.25.25H9.25A.25.25,0,0,1,9,11v-.5a.25.25,0,0,1,.25-.25h3.5a.25.25,0,0,1,.25.25Zm5,0a.25.25,0,0,1-.25.25h-2.5A.25.25,0,0,1,15,11v-.5a.25.25,0,0,1,.25-.25h2.5a.25.25,0,0,1,.25.25Zm0-3a.25.25,0,0,1-.25.25H9.25A.25.25,0,0,1,9,8V7.5a.25.25,0,0,1,.25-.25h8.5A.25.25,0,0,1,18,7.5Z" transform="translate(93 210.75)" fill="#0067d2"/>
  </g>
</svg>
