<svg width="32" height="32" viewBox="0 0 32 32" fill="none" xmlns="http://www.w3.org/2000/svg">
<mask id="mask0_30_1848" style="mask-type:alpha" maskUnits="userSpaceOnUse" x="0" y="1" width="32" height="21">
<path d="M13.4999 21.6299C13.3785 21.6224 13.2616 21.5808 13.1626 21.5101C13.0636 21.4394 12.9865 21.3423 12.9399 21.2299L9.99991 13.9999L7.72991 18.9999C7.67725 19.1124 7.59396 19.2076 7.4896 19.2749C7.38524 19.3421 7.26404 19.3785 7.13991 19.3799H4.04991C3.9539 19.38 3.85911 19.3585 3.77256 19.3169C3.68601 19.2754 3.60991 19.2149 3.54991 19.1399C2.22842 17.5149 1.29476 15.61 0.819909 13.5699C0.524756 12.5067 0.43315 11.3972 0.549909 10.2999C0.999909 5.29994 4.54991 1.68994 8.95991 1.68994C10.2774 1.69293 11.5738 2.02127 12.734 2.64581C13.8941 3.27035 14.882 4.17175 15.6099 5.26994C15.6445 5.32069 15.6907 5.36255 15.7445 5.39209C15.7984 5.42163 15.8585 5.43803 15.9199 5.43994C15.9815 5.43885 16.0419 5.4228 16.0959 5.39319C16.1499 5.36358 16.1959 5.32128 16.2299 5.26994C16.9915 4.17699 18.0033 3.28187 19.1809 2.65914C20.3585 2.03642 21.6679 1.70412 22.9999 1.68994C27.4199 1.68994 30.9999 5.30994 31.4099 10.2999C31.5267 11.3972 31.4351 12.5067 31.1399 13.5699C30.6566 15.5888 29.7233 17.4724 28.4099 19.0799C28.3499 19.1549 28.2738 19.2154 28.1873 19.2569C28.1007 19.2985 28.0059 19.32 27.9099 19.3199H22.1799C22.0252 19.3194 21.8758 19.2637 21.7585 19.1629C21.6412 19.0621 21.5637 18.9228 21.5399 18.7699L20.3499 11.2399L18.7599 18.8299C18.7316 18.9567 18.666 19.0721 18.5716 19.1612C18.4771 19.2503 18.3581 19.3091 18.2299 19.3299C18.1027 19.3485 17.9729 19.3301 17.8558 19.2769C17.7388 19.2237 17.6395 19.138 17.5699 19.0299L16.4099 17.0299L14.0599 21.2999C14.0045 21.3999 13.9234 21.4833 13.8249 21.5413C13.7264 21.5994 13.6142 21.63 13.4999 21.6299Z" fill="#2A2527"/>
</mask>
<g mask="url(#mask0_30_1848)">
<path d="M30.8601 6.82023C31.1583 6.82023 31.4001 6.57847 31.4001 6.28023C31.4001 5.982 31.1583 5.74023 30.8601 5.74023C30.5618 5.74023 30.3201 5.982 30.3201 6.28023C30.3201 6.57847 30.5618 6.82023 30.8601 6.82023Z" fill="#212529"/>
<path d="M30.8601 4.11027C31.1583 4.11027 31.4001 3.86851 31.4001 3.57027C31.4001 3.27204 31.1583 3.03027 30.8601 3.03027C30.5618 3.03027 30.3201 3.27204 30.3201 3.57027C30.3201 3.86851 30.5618 4.11027 30.8601 4.11027Z" fill="#212529"/>
<path d="M30.8601 11.9501C31.1583 11.9501 31.4001 11.7084 31.4001 11.4101C31.4001 11.1119 31.1583 10.8701 30.8601 10.8701C30.5618 10.8701 30.3201 11.1119 30.3201 11.4101C30.3201 11.7084 30.5618 11.9501 30.8601 11.9501Z" fill="#212529"/>
<path d="M30.8601 9.25017C31.1583 9.25017 31.4001 9.0084 31.4001 8.71017C31.4001 8.41193 31.1583 8.17017 30.8601 8.17017C30.5618 8.17017 30.3201 8.41193 30.3201 8.71017C30.3201 9.0084 30.5618 9.25017 30.8601 9.25017Z" fill="#212529"/>
<path d="M30.8601 17.0802C31.1583 17.0802 31.4001 16.8385 31.4001 16.5402C31.4001 16.242 31.1583 16.0002 30.8601 16.0002C30.5618 16.0002 30.3201 16.242 30.3201 16.5402C30.3201 16.8385 30.5618 17.0802 30.8601 17.0802Z" fill="#212529"/>
<path d="M30.8601 14.3803C31.1583 14.3803 31.4001 14.1385 31.4001 13.8403C31.4001 13.5421 31.1583 13.3003 30.8601 13.3003C30.5618 13.3003 30.3201 13.5421 30.3201 13.8403C30.3201 14.1385 30.5618 14.3803 30.8601 14.3803Z" fill="#212529"/>
<path d="M30.8601 22.2101C31.1583 22.2101 31.4001 21.9684 31.4001 21.6701C31.4001 21.3719 31.1583 21.1301 30.8601 21.1301C30.5618 21.1301 30.3201 21.3719 30.3201 21.6701C30.3201 21.9684 30.5618 22.2101 30.8601 22.2101Z" fill="#212529"/>
<path d="M30.8601 19.5102C31.1583 19.5102 31.4001 19.2684 31.4001 18.9702C31.4001 18.6719 31.1583 18.4302 30.8601 18.4302C30.5618 18.4302 30.3201 18.6719 30.3201 18.9702C30.3201 19.2684 30.5618 19.5102 30.8601 19.5102Z" fill="#212529"/>
<path d="M28.4299 6.82023C28.7281 6.82023 28.9699 6.57847 28.9699 6.28023C28.9699 5.982 28.7281 5.74023 28.4299 5.74023C28.1317 5.74023 27.8899 5.982 27.8899 6.28023C27.8899 6.57847 28.1317 6.82023 28.4299 6.82023Z" fill="#212529"/>
<path d="M25.7299 6.82023C26.0282 6.82023 26.2699 6.57847 26.2699 6.28023C26.2699 5.982 26.0282 5.74023 25.7299 5.74023C25.4317 5.74023 25.1899 5.982 25.1899 6.28023C25.1899 6.57847 25.4317 6.82023 25.7299 6.82023Z" fill="#212529"/>
<path d="M27.08 5.46013C27.3783 5.46013 27.62 5.21836 27.62 4.92013C27.62 4.62189 27.3783 4.38013 27.08 4.38013C26.7818 4.38013 26.54 4.62189 26.54 4.92013C26.54 5.21836 26.7818 5.46013 27.08 5.46013Z" fill="#212529"/>
<path d="M27.08 2.76018C27.3783 2.76018 27.62 2.51841 27.62 2.22018C27.62 1.92194 27.3783 1.68018 27.08 1.68018C26.7818 1.68018 26.54 1.92194 26.54 2.22018C26.54 2.51841 26.7818 2.76018 27.08 2.76018Z" fill="#212529"/>
<path d="M29.78 5.46013C30.0782 5.46013 30.32 5.21836 30.32 4.92013C30.32 4.62189 30.0782 4.38013 29.78 4.38013C29.4818 4.38013 29.24 4.62189 29.24 4.92013C29.24 5.21836 29.4818 5.46013 29.78 5.46013Z" fill="#212529"/>
<path d="M28.4299 4.11027C28.7281 4.11027 28.9699 3.86851 28.9699 3.57027C28.9699 3.27204 28.7281 3.03027 28.4299 3.03027C28.1317 3.03027 27.8899 3.27204 27.8899 3.57027C27.8899 3.86851 28.1317 4.11027 28.4299 4.11027Z" fill="#212529"/>
<path d="M25.7299 4.11027C26.0282 4.11027 26.2699 3.86851 26.2699 3.57027C26.2699 3.27204 26.0282 3.03027 25.7299 3.03027C25.4317 3.03027 25.1899 3.27204 25.1899 3.57027C25.1899 3.86851 25.4317 4.11027 25.7299 4.11027Z" fill="#212529"/>
<path d="M29.78 2.76018C30.0782 2.76018 30.32 2.51841 30.32 2.22018C30.32 1.92194 30.0782 1.68018 29.78 1.68018C29.4818 1.68018 29.24 1.92194 29.24 2.22018C29.24 2.51841 29.4818 2.76018 29.78 2.76018Z" fill="#212529"/>
<path d="M28.4299 11.9501C28.7281 11.9501 28.9699 11.7084 28.9699 11.4101C28.9699 11.1119 28.7281 10.8701 28.4299 10.8701C28.1317 10.8701 27.8899 11.1119 27.8899 11.4101C27.8899 11.7084 28.1317 11.9501 28.4299 11.9501Z" fill="#212529"/>
<path d="M25.7299 11.9501C26.0282 11.9501 26.2699 11.7084 26.2699 11.4101C26.2699 11.1119 26.0282 10.8701 25.7299 10.8701C25.4317 10.8701 25.1899 11.1119 25.1899 11.4101C25.1899 11.7084 25.4317 11.9501 25.7299 11.9501Z" fill="#212529"/>
<path d="M27.08 10.6C27.3783 10.6 27.62 10.3583 27.62 10.06C27.62 9.76179 27.3783 9.52002 27.08 9.52002C26.7818 9.52002 26.54 9.76179 26.54 10.06C26.54 10.3583 26.7818 10.6 27.08 10.6Z" fill="#212529"/>
<path d="M27.08 7.90007C27.3783 7.90007 27.62 7.6583 27.62 7.36007C27.62 7.06183 27.3783 6.82007 27.08 6.82007C26.7818 6.82007 26.54 7.06183 26.54 7.36007C26.54 7.6583 26.7818 7.90007 27.08 7.90007Z" fill="#212529"/>
<path d="M29.78 10.6C30.0782 10.6 30.32 10.3583 30.32 10.06C30.32 9.76179 30.0782 9.52002 29.78 9.52002C29.4818 9.52002 29.24 9.76179 29.24 10.06C29.24 10.3583 29.4818 10.6 29.78 10.6Z" fill="#212529"/>
<path d="M28.4299 9.25017C28.7281 9.25017 28.9699 9.0084 28.9699 8.71017C28.9699 8.41193 28.7281 8.17017 28.4299 8.17017C28.1317 8.17017 27.8899 8.41193 27.8899 8.71017C27.8899 9.0084 28.1317 9.25017 28.4299 9.25017Z" fill="#212529"/>
<path d="M25.7299 9.25017C26.0282 9.25017 26.2699 9.0084 26.2699 8.71017C26.2699 8.41193 26.0282 8.17017 25.7299 8.17017C25.4317 8.17017 25.1899 8.41193 25.1899 8.71017C25.1899 9.0084 25.4317 9.25017 25.7299 9.25017Z" fill="#212529"/>
<path d="M29.78 7.90007C30.0782 7.90007 30.32 7.6583 30.32 7.36007C30.32 7.06183 30.0782 6.82007 29.78 6.82007C29.4818 6.82007 29.24 7.06183 29.24 7.36007C29.24 7.6583 29.4818 7.90007 29.78 7.90007Z" fill="#212529"/>
<path d="M28.4299 17.0802C28.7281 17.0802 28.9699 16.8385 28.9699 16.5402C28.9699 16.242 28.7281 16.0002 28.4299 16.0002C28.1317 16.0002 27.8899 16.242 27.8899 16.5402C27.8899 16.8385 28.1317 17.0802 28.4299 17.0802Z" fill="#212529"/>
<path d="M25.7299 17.0802C26.0282 17.0802 26.2699 16.8385 26.2699 16.5402C26.2699 16.242 26.0282 16.0002 25.7299 16.0002C25.4317 16.0002 25.1899 16.242 25.1899 16.5402C25.1899 16.8385 25.4317 17.0802 25.7299 17.0802Z" fill="#212529"/>
<path d="M27.08 15.7301C27.3783 15.7301 27.62 15.4884 27.62 15.1901C27.62 14.8919 27.3783 14.6501 27.08 14.6501C26.7818 14.6501 26.54 14.8919 26.54 15.1901C26.54 15.4884 26.7818 15.7301 27.08 15.7301Z" fill="#212529"/>
<path d="M27.08 13.0302C27.3783 13.0302 27.62 12.7884 27.62 12.4902C27.62 12.192 27.3783 11.9502 27.08 11.9502C26.7818 11.9502 26.54 12.192 26.54 12.4902C26.54 12.7884 26.7818 13.0302 27.08 13.0302Z" fill="#212529"/>
<path d="M29.78 15.7301C30.0782 15.7301 30.32 15.4884 30.32 15.1901C30.32 14.8919 30.0782 14.6501 29.78 14.6501C29.4818 14.6501 29.24 14.8919 29.24 15.1901C29.24 15.4884 29.4818 15.7301 29.78 15.7301Z" fill="#212529"/>
<path d="M28.4299 14.3803C28.7281 14.3803 28.9699 14.1385 28.9699 13.8403C28.9699 13.5421 28.7281 13.3003 28.4299 13.3003C28.1317 13.3003 27.8899 13.5421 27.8899 13.8403C27.8899 14.1385 28.1317 14.3803 28.4299 14.3803Z" fill="#212529"/>
<path d="M25.7299 14.3803C26.0282 14.3803 26.2699 14.1385 26.2699 13.8403C26.2699 13.5421 26.0282 13.3003 25.7299 13.3003C25.4317 13.3003 25.1899 13.5421 25.1899 13.8403C25.1899 14.1385 25.4317 14.3803 25.7299 14.3803Z" fill="#212529"/>
<path d="M29.78 13.0302C30.0782 13.0302 30.32 12.7884 30.32 12.4902C30.32 12.192 30.0782 11.9502 29.78 11.9502C29.4818 11.9502 29.24 12.192 29.24 12.4902C29.24 12.7884 29.4818 13.0302 29.78 13.0302Z" fill="#212529"/>
<path d="M28.4299 22.2101C28.7281 22.2101 28.9699 21.9684 28.9699 21.6701C28.9699 21.3719 28.7281 21.1301 28.4299 21.1301C28.1317 21.1301 27.8899 21.3719 27.8899 21.6701C27.8899 21.9684 28.1317 22.2101 28.4299 22.2101Z" fill="#212529"/>
<path d="M25.7299 22.2101C26.0282 22.2101 26.2699 21.9684 26.2699 21.6701C26.2699 21.3719 26.0282 21.1301 25.7299 21.1301C25.4317 21.1301 25.1899 21.3719 25.1899 21.6701C25.1899 21.9684 25.4317 22.2101 25.7299 22.2101Z" fill="#212529"/>
<path d="M27.08 20.86C27.3783 20.86 27.62 20.6183 27.62 20.32C27.62 20.0218 27.3783 19.78 27.08 19.78C26.7818 19.78 26.54 20.0218 26.54 20.32C26.54 20.6183 26.7818 20.86 27.08 20.86Z" fill="#212529"/>
<path d="M27.08 18.1601C27.3783 18.1601 27.62 17.9183 27.62 17.6201C27.62 17.3218 27.3783 17.0801 27.08 17.0801C26.7818 17.0801 26.54 17.3218 26.54 17.6201C26.54 17.9183 26.7818 18.1601 27.08 18.1601Z" fill="#212529"/>
<path d="M29.78 20.86C30.0782 20.86 30.32 20.6183 30.32 20.32C30.32 20.0218 30.0782 19.78 29.78 19.78C29.4818 19.78 29.24 20.0218 29.24 20.32C29.24 20.6183 29.4818 20.86 29.78 20.86Z" fill="#212529"/>
<path d="M28.4299 19.5102C28.7281 19.5102 28.9699 19.2684 28.9699 18.9702C28.9699 18.6719 28.7281 18.4302 28.4299 18.4302C28.1317 18.4302 27.8899 18.6719 27.8899 18.9702C27.8899 19.2684 28.1317 19.5102 28.4299 19.5102Z" fill="#212529"/>
<path d="M25.7299 19.5102C26.0282 19.5102 26.2699 19.2684 26.2699 18.9702C26.2699 18.6719 26.0282 18.4302 25.7299 18.4302C25.4317 18.4302 25.1899 18.6719 25.1899 18.9702C25.1899 19.2684 25.4317 19.5102 25.7299 19.5102Z" fill="#212529"/>
<path d="M29.78 18.1601C30.0782 18.1601 30.32 17.9183 30.32 17.6201C30.32 17.3218 30.0782 17.0801 29.78 17.0801C29.4818 17.0801 29.24 17.3218 29.24 17.6201C29.24 17.9183 29.4818 18.1601 29.78 18.1601Z" fill="#212529"/>
<path d="M23.29 6.82023C23.5882 6.82023 23.83 6.57847 23.83 6.28023C23.83 5.982 23.5882 5.74023 23.29 5.74023C22.9918 5.74023 22.75 5.982 22.75 6.28023C22.75 6.57847 22.9918 6.82023 23.29 6.82023Z" fill="#212529"/>
<path d="M20.59 6.82023C20.8883 6.82023 21.13 6.57847 21.13 6.28023C21.13 5.982 20.8883 5.74023 20.59 5.74023C20.2918 5.74023 20.05 5.982 20.05 6.28023C20.05 6.57847 20.2918 6.82023 20.59 6.82023Z" fill="#212529"/>
<path d="M21.9401 5.46013C22.2384 5.46013 22.4801 5.21836 22.4801 4.92013C22.4801 4.62189 22.2384 4.38013 21.9401 4.38013C21.6419 4.38013 21.4001 4.62189 21.4001 4.92013C21.4001 5.21836 21.6419 5.46013 21.9401 5.46013Z" fill="#212529"/>
<path d="M21.9401 2.76018C22.2384 2.76018 22.4801 2.51841 22.4801 2.22018C22.4801 1.92194 22.2384 1.68018 21.9401 1.68018C21.6419 1.68018 21.4001 1.92194 21.4001 2.22018C21.4001 2.51841 21.6419 2.76018 21.9401 2.76018Z" fill="#212529"/>
<path d="M24.6401 5.46013C24.9383 5.46013 25.1801 5.21836 25.1801 4.92013C25.1801 4.62189 24.9383 4.38013 24.6401 4.38013C24.3419 4.38013 24.1001 4.62189 24.1001 4.92013C24.1001 5.21836 24.3419 5.46013 24.6401 5.46013Z" fill="#212529"/>
<path d="M23.29 4.11027C23.5882 4.11027 23.83 3.86851 23.83 3.57027C23.83 3.27204 23.5882 3.03027 23.29 3.03027C22.9918 3.03027 22.75 3.27204 22.75 3.57027C22.75 3.86851 22.9918 4.11027 23.29 4.11027Z" fill="#212529"/>
<path d="M20.59 4.11027C20.8883 4.11027 21.13 3.86851 21.13 3.57027C21.13 3.27204 20.8883 3.03027 20.59 3.03027C20.2918 3.03027 20.05 3.27204 20.05 3.57027C20.05 3.86851 20.2918 4.11027 20.59 4.11027Z" fill="#212529"/>
<path d="M24.6401 2.76018C24.9383 2.76018 25.1801 2.51841 25.1801 2.22018C25.1801 1.92194 24.9383 1.68018 24.6401 1.68018C24.3419 1.68018 24.1001 1.92194 24.1001 2.22018C24.1001 2.51841 24.3419 2.76018 24.6401 2.76018Z" fill="#212529"/>
<path d="M23.29 11.9501C23.5882 11.9501 23.83 11.7084 23.83 11.4101C23.83 11.1119 23.5882 10.8701 23.29 10.8701C22.9918 10.8701 22.75 11.1119 22.75 11.4101C22.75 11.7084 22.9918 11.9501 23.29 11.9501Z" fill="#212529"/>
<path d="M20.59 11.9501C20.8883 11.9501 21.13 11.7084 21.13 11.4101C21.13 11.1119 20.8883 10.8701 20.59 10.8701C20.2918 10.8701 20.05 11.1119 20.05 11.4101C20.05 11.7084 20.2918 11.9501 20.59 11.9501Z" fill="#212529"/>
<path d="M21.9401 10.6C22.2384 10.6 22.4801 10.3583 22.4801 10.06C22.4801 9.76179 22.2384 9.52002 21.9401 9.52002C21.6419 9.52002 21.4001 9.76179 21.4001 10.06C21.4001 10.3583 21.6419 10.6 21.9401 10.6Z" fill="#212529"/>
<path d="M21.9401 7.90007C22.2384 7.90007 22.4801 7.6583 22.4801 7.36007C22.4801 7.06183 22.2384 6.82007 21.9401 6.82007C21.6419 6.82007 21.4001 7.06183 21.4001 7.36007C21.4001 7.6583 21.6419 7.90007 21.9401 7.90007Z" fill="#212529"/>
<path d="M24.6401 10.6C24.9383 10.6 25.1801 10.3583 25.1801 10.06C25.1801 9.76179 24.9383 9.52002 24.6401 9.52002C24.3419 9.52002 24.1001 9.76179 24.1001 10.06C24.1001 10.3583 24.3419 10.6 24.6401 10.6Z" fill="#212529"/>
<path d="M23.29 9.25017C23.5882 9.25017 23.83 9.0084 23.83 8.71017C23.83 8.41193 23.5882 8.17017 23.29 8.17017C22.9918 8.17017 22.75 8.41193 22.75 8.71017C22.75 9.0084 22.9918 9.25017 23.29 9.25017Z" fill="#212529"/>
<path d="M20.59 9.25017C20.8883 9.25017 21.13 9.0084 21.13 8.71017C21.13 8.41193 20.8883 8.17017 20.59 8.17017C20.2918 8.17017 20.05 8.41193 20.05 8.71017C20.05 9.0084 20.2918 9.25017 20.59 9.25017Z" fill="#212529"/>
<path d="M24.6401 7.90007C24.9383 7.90007 25.1801 7.6583 25.1801 7.36007C25.1801 7.06183 24.9383 6.82007 24.6401 6.82007C24.3419 6.82007 24.1001 7.06183 24.1001 7.36007C24.1001 7.6583 24.3419 7.90007 24.6401 7.90007Z" fill="#212529"/>
<path d="M23.29 17.0802C23.5882 17.0802 23.83 16.8385 23.83 16.5402C23.83 16.242 23.5882 16.0002 23.29 16.0002C22.9918 16.0002 22.75 16.242 22.75 16.5402C22.75 16.8385 22.9918 17.0802 23.29 17.0802Z" fill="#212529"/>
<path d="M20.59 17.0802C20.8883 17.0802 21.13 16.8385 21.13 16.5402C21.13 16.242 20.8883 16.0002 20.59 16.0002C20.2918 16.0002 20.05 16.242 20.05 16.5402C20.05 16.8385 20.2918 17.0802 20.59 17.0802Z" fill="#212529"/>
<path d="M21.9401 15.7301C22.2384 15.7301 22.4801 15.4884 22.4801 15.1901C22.4801 14.8919 22.2384 14.6501 21.9401 14.6501C21.6419 14.6501 21.4001 14.8919 21.4001 15.1901C21.4001 15.4884 21.6419 15.7301 21.9401 15.7301Z" fill="#212529"/>
<path d="M21.9401 13.0302C22.2384 13.0302 22.4801 12.7884 22.4801 12.4902C22.4801 12.192 22.2384 11.9502 21.9401 11.9502C21.6419 11.9502 21.4001 12.192 21.4001 12.4902C21.4001 12.7884 21.6419 13.0302 21.9401 13.0302Z" fill="#212529"/>
<path d="M24.6401 15.7301C24.9383 15.7301 25.1801 15.4884 25.1801 15.1901C25.1801 14.8919 24.9383 14.6501 24.6401 14.6501C24.3419 14.6501 24.1001 14.8919 24.1001 15.1901C24.1001 15.4884 24.3419 15.7301 24.6401 15.7301Z" fill="#212529"/>
<path d="M23.29 14.3803C23.5882 14.3803 23.83 14.1385 23.83 13.8403C23.83 13.5421 23.5882 13.3003 23.29 13.3003C22.9918 13.3003 22.75 13.5421 22.75 13.8403C22.75 14.1385 22.9918 14.3803 23.29 14.3803Z" fill="#212529"/>
<path d="M20.59 14.3803C20.8883 14.3803 21.13 14.1385 21.13 13.8403C21.13 13.5421 20.8883 13.3003 20.59 13.3003C20.2918 13.3003 20.05 13.5421 20.05 13.8403C20.05 14.1385 20.2918 14.3803 20.59 14.3803Z" fill="#212529"/>
<path d="M24.6401 13.0302C24.9383 13.0302 25.1801 12.7884 25.1801 12.4902C25.1801 12.192 24.9383 11.9502 24.6401 11.9502C24.3419 11.9502 24.1001 12.192 24.1001 12.4902C24.1001 12.7884 24.3419 13.0302 24.6401 13.0302Z" fill="#212529"/>
<path d="M23.29 22.2101C23.5882 22.2101 23.83 21.9684 23.83 21.6701C23.83 21.3719 23.5882 21.1301 23.29 21.1301C22.9918 21.1301 22.75 21.3719 22.75 21.6701C22.75 21.9684 22.9918 22.2101 23.29 22.2101Z" fill="#212529"/>
<path d="M20.59 22.2101C20.8883 22.2101 21.13 21.9684 21.13 21.6701C21.13 21.3719 20.8883 21.1301 20.59 21.1301C20.2918 21.1301 20.05 21.3719 20.05 21.6701C20.05 21.9684 20.2918 22.2101 20.59 22.2101Z" fill="#212529"/>
<path d="M21.9401 20.86C22.2384 20.86 22.4801 20.6183 22.4801 20.32C22.4801 20.0218 22.2384 19.78 21.9401 19.78C21.6419 19.78 21.4001 20.0218 21.4001 20.32C21.4001 20.6183 21.6419 20.86 21.9401 20.86Z" fill="#212529"/>
<path d="M21.9401 18.1601C22.2384 18.1601 22.4801 17.9183 22.4801 17.6201C22.4801 17.3218 22.2384 17.0801 21.9401 17.0801C21.6419 17.0801 21.4001 17.3218 21.4001 17.6201C21.4001 17.9183 21.6419 18.1601 21.9401 18.1601Z" fill="#212529"/>
<path d="M24.6401 20.86C24.9383 20.86 25.1801 20.6183 25.1801 20.32C25.1801 20.0218 24.9383 19.78 24.6401 19.78C24.3419 19.78 24.1001 20.0218 24.1001 20.32C24.1001 20.6183 24.3419 20.86 24.6401 20.86Z" fill="#212529"/>
<path d="M23.29 19.5102C23.5882 19.5102 23.83 19.2684 23.83 18.9702C23.83 18.6719 23.5882 18.4302 23.29 18.4302C22.9918 18.4302 22.75 18.6719 22.75 18.9702C22.75 19.2684 22.9918 19.5102 23.29 19.5102Z" fill="#212529"/>
<path d="M20.59 19.5102C20.8883 19.5102 21.13 19.2684 21.13 18.9702C21.13 18.6719 20.8883 18.4302 20.59 18.4302C20.2918 18.4302 20.05 18.6719 20.05 18.9702C20.05 19.2684 20.2918 19.5102 20.59 19.5102Z" fill="#212529"/>
<path d="M24.6401 18.1601C24.9383 18.1601 25.1801 17.9183 25.1801 17.6201C25.1801 17.3218 24.9383 17.0801 24.6401 17.0801C24.3419 17.0801 24.1001 17.3218 24.1001 17.6201C24.1001 17.9183 24.3419 18.1601 24.6401 18.1601Z" fill="#212529"/>
<path d="M18.1599 6.82023C18.4581 6.82023 18.6999 6.57847 18.6999 6.28023C18.6999 5.982 18.4581 5.74023 18.1599 5.74023C17.8616 5.74023 17.6199 5.982 17.6199 6.28023C17.6199 6.57847 17.8616 6.82023 18.1599 6.82023Z" fill="#212529"/>
<path d="M15.4599 6.82023C15.7582 6.82023 15.9999 6.57847 15.9999 6.28023C15.9999 5.982 15.7582 5.74023 15.4599 5.74023C15.1617 5.74023 14.9199 5.982 14.9199 6.28023C14.9199 6.57847 15.1617 6.82023 15.4599 6.82023Z" fill="#212529"/>
<path d="M16.81 5.46013C17.1083 5.46013 17.35 5.21836 17.35 4.92013C17.35 4.62189 17.1083 4.38013 16.81 4.38013C16.5118 4.38013 16.27 4.62189 16.27 4.92013C16.27 5.21836 16.5118 5.46013 16.81 5.46013Z" fill="#212529"/>
<path d="M16.81 2.76018C17.1083 2.76018 17.35 2.51841 17.35 2.22018C17.35 1.92194 17.1083 1.68018 16.81 1.68018C16.5118 1.68018 16.27 1.92194 16.27 2.22018C16.27 2.51841 16.5118 2.76018 16.81 2.76018Z" fill="#212529"/>
<path d="M19.51 5.46013C19.8082 5.46013 20.05 5.21836 20.05 4.92013C20.05 4.62189 19.8082 4.38013 19.51 4.38013C19.2117 4.38013 18.97 4.62189 18.97 4.92013C18.97 5.21836 19.2117 5.46013 19.51 5.46013Z" fill="#212529"/>
<path d="M18.1599 4.11027C18.4581 4.11027 18.6999 3.86851 18.6999 3.57027C18.6999 3.27204 18.4581 3.03027 18.1599 3.03027C17.8616 3.03027 17.6199 3.27204 17.6199 3.57027C17.6199 3.86851 17.8616 4.11027 18.1599 4.11027Z" fill="#212529"/>
<path d="M15.4599 4.11027C15.7582 4.11027 15.9999 3.86851 15.9999 3.57027C15.9999 3.27204 15.7582 3.03027 15.4599 3.03027C15.1617 3.03027 14.9199 3.27204 14.9199 3.57027C14.9199 3.86851 15.1617 4.11027 15.4599 4.11027Z" fill="#212529"/>
<path d="M19.51 2.76018C19.8082 2.76018 20.05 2.51841 20.05 2.22018C20.05 1.92194 19.8082 1.68018 19.51 1.68018C19.2117 1.68018 18.97 1.92194 18.97 2.22018C18.97 2.51841 19.2117 2.76018 19.51 2.76018Z" fill="#212529"/>
<path d="M18.1599 11.9501C18.4581 11.9501 18.6999 11.7084 18.6999 11.4101C18.6999 11.1119 18.4581 10.8701 18.1599 10.8701C17.8616 10.8701 17.6199 11.1119 17.6199 11.4101C17.6199 11.7084 17.8616 11.9501 18.1599 11.9501Z" fill="#212529"/>
<path d="M15.4599 11.9501C15.7582 11.9501 15.9999 11.7084 15.9999 11.4101C15.9999 11.1119 15.7582 10.8701 15.4599 10.8701C15.1617 10.8701 14.9199 11.1119 14.9199 11.4101C14.9199 11.7084 15.1617 11.9501 15.4599 11.9501Z" fill="#212529"/>
<path d="M16.81 10.6C17.1083 10.6 17.35 10.3583 17.35 10.06C17.35 9.76179 17.1083 9.52002 16.81 9.52002C16.5118 9.52002 16.27 9.76179 16.27 10.06C16.27 10.3583 16.5118 10.6 16.81 10.6Z" fill="#212529"/>
<path d="M16.81 7.90007C17.1083 7.90007 17.35 7.6583 17.35 7.36007C17.35 7.06183 17.1083 6.82007 16.81 6.82007C16.5118 6.82007 16.27 7.06183 16.27 7.36007C16.27 7.6583 16.5118 7.90007 16.81 7.90007Z" fill="#212529"/>
<path d="M19.51 10.6C19.8082 10.6 20.05 10.3583 20.05 10.06C20.05 9.76179 19.8082 9.52002 19.51 9.52002C19.2117 9.52002 18.97 9.76179 18.97 10.06C18.97 10.3583 19.2117 10.6 19.51 10.6Z" fill="#212529"/>
<path d="M18.1599 9.25017C18.4581 9.25017 18.6999 9.0084 18.6999 8.71017C18.6999 8.41193 18.4581 8.17017 18.1599 8.17017C17.8616 8.17017 17.6199 8.41193 17.6199 8.71017C17.6199 9.0084 17.8616 9.25017 18.1599 9.25017Z" fill="#212529"/>
<path d="M15.4599 9.25017C15.7582 9.25017 15.9999 9.0084 15.9999 8.71017C15.9999 8.41193 15.7582 8.17017 15.4599 8.17017C15.1617 8.17017 14.9199 8.41193 14.9199 8.71017C14.9199 9.0084 15.1617 9.25017 15.4599 9.25017Z" fill="#212529"/>
<path d="M19.51 7.90007C19.8082 7.90007 20.05 7.6583 20.05 7.36007C20.05 7.06183 19.8082 6.82007 19.51 6.82007C19.2117 6.82007 18.97 7.06183 18.97 7.36007C18.97 7.6583 19.2117 7.90007 19.51 7.90007Z" fill="#212529"/>
<path d="M18.1599 17.0802C18.4581 17.0802 18.6999 16.8385 18.6999 16.5402C18.6999 16.242 18.4581 16.0002 18.1599 16.0002C17.8616 16.0002 17.6199 16.242 17.6199 16.5402C17.6199 16.8385 17.8616 17.0802 18.1599 17.0802Z" fill="#212529"/>
<path d="M15.4599 17.0802C15.7582 17.0802 15.9999 16.8385 15.9999 16.5402C15.9999 16.242 15.7582 16.0002 15.4599 16.0002C15.1617 16.0002 14.9199 16.242 14.9199 16.5402C14.9199 16.8385 15.1617 17.0802 15.4599 17.0802Z" fill="#212529"/>
<path d="M16.81 15.7301C17.1083 15.7301 17.35 15.4884 17.35 15.1901C17.35 14.8919 17.1083 14.6501 16.81 14.6501C16.5118 14.6501 16.27 14.8919 16.27 15.1901C16.27 15.4884 16.5118 15.7301 16.81 15.7301Z" fill="#212529"/>
<path d="M16.81 13.0302C17.1083 13.0302 17.35 12.7884 17.35 12.4902C17.35 12.192 17.1083 11.9502 16.81 11.9502C16.5118 11.9502 16.27 12.192 16.27 12.4902C16.27 12.7884 16.5118 13.0302 16.81 13.0302Z" fill="#212529"/>
<path d="M19.51 15.7301C19.8082 15.7301 20.05 15.4884 20.05 15.1901C20.05 14.8919 19.8082 14.6501 19.51 14.6501C19.2117 14.6501 18.97 14.8919 18.97 15.1901C18.97 15.4884 19.2117 15.7301 19.51 15.7301Z" fill="#212529"/>
<path d="M18.1599 14.3803C18.4581 14.3803 18.6999 14.1385 18.6999 13.8403C18.6999 13.5421 18.4581 13.3003 18.1599 13.3003C17.8616 13.3003 17.6199 13.5421 17.6199 13.8403C17.6199 14.1385 17.8616 14.3803 18.1599 14.3803Z" fill="#212529"/>
<path d="M15.4599 14.3803C15.7582 14.3803 15.9999 14.1385 15.9999 13.8403C15.9999 13.5421 15.7582 13.3003 15.4599 13.3003C15.1617 13.3003 14.9199 13.5421 14.9199 13.8403C14.9199 14.1385 15.1617 14.3803 15.4599 14.3803Z" fill="#212529"/>
<path d="M19.51 13.0302C19.8082 13.0302 20.05 12.7884 20.05 12.4902C20.05 12.192 19.8082 11.9502 19.51 11.9502C19.2117 11.9502 18.97 12.192 18.97 12.4902C18.97 12.7884 19.2117 13.0302 19.51 13.0302Z" fill="#212529"/>
<path d="M18.1599 22.2101C18.4581 22.2101 18.6999 21.9684 18.6999 21.6701C18.6999 21.3719 18.4581 21.1301 18.1599 21.1301C17.8616 21.1301 17.6199 21.3719 17.6199 21.6701C17.6199 21.9684 17.8616 22.2101 18.1599 22.2101Z" fill="#212529"/>
<path d="M15.4599 22.2101C15.7582 22.2101 15.9999 21.9684 15.9999 21.6701C15.9999 21.3719 15.7582 21.1301 15.4599 21.1301C15.1617 21.1301 14.9199 21.3719 14.9199 21.6701C14.9199 21.9684 15.1617 22.2101 15.4599 22.2101Z" fill="#212529"/>
<path d="M16.81 20.86C17.1083 20.86 17.35 20.6183 17.35 20.32C17.35 20.0218 17.1083 19.78 16.81 19.78C16.5118 19.78 16.27 20.0218 16.27 20.32C16.27 20.6183 16.5118 20.86 16.81 20.86Z" fill="#212529"/>
<path d="M16.81 18.1601C17.1083 18.1601 17.35 17.9183 17.35 17.6201C17.35 17.3218 17.1083 17.0801 16.81 17.0801C16.5118 17.0801 16.27 17.3218 16.27 17.6201C16.27 17.9183 16.5118 18.1601 16.81 18.1601Z" fill="#212529"/>
<path d="M19.51 20.86C19.8082 20.86 20.05 20.6183 20.05 20.32C20.05 20.0218 19.8082 19.78 19.51 19.78C19.2117 19.78 18.97 20.0218 18.97 20.32C18.97 20.6183 19.2117 20.86 19.51 20.86Z" fill="#212529"/>
<path d="M18.1599 19.5102C18.4581 19.5102 18.6999 19.2684 18.6999 18.9702C18.6999 18.6719 18.4581 18.4302 18.1599 18.4302C17.8616 18.4302 17.6199 18.6719 17.6199 18.9702C17.6199 19.2684 17.8616 19.5102 18.1599 19.5102Z" fill="#212529"/>
<path d="M15.4599 19.5102C15.7582 19.5102 15.9999 19.2684 15.9999 18.9702C15.9999 18.6719 15.7582 18.4302 15.4599 18.4302C15.1617 18.4302 14.9199 18.6719 14.9199 18.9702C14.9199 19.2684 15.1617 19.5102 15.4599 19.5102Z" fill="#212529"/>
<path d="M19.51 18.1601C19.8082 18.1601 20.05 17.9183 20.05 17.6201C20.05 17.3218 19.8082 17.0801 19.51 17.0801C19.2117 17.0801 18.97 17.3218 18.97 17.6201C18.97 17.9183 19.2117 18.1601 19.51 18.1601Z" fill="#212529"/>
<path d="M13.03 6.82023C13.3282 6.82023 13.57 6.57847 13.57 6.28023C13.57 5.982 13.3282 5.74023 13.03 5.74023C12.7318 5.74023 12.49 5.982 12.49 6.28023C12.49 6.57847 12.7318 6.82023 13.03 6.82023Z" fill="#212529"/>
<path d="M10.33 6.82023C10.6283 6.82023 10.87 6.57847 10.87 6.28023C10.87 5.982 10.6283 5.74023 10.33 5.74023C10.0318 5.74023 9.79004 5.982 9.79004 6.28023C9.79004 6.57847 10.0318 6.82023 10.33 6.82023Z" fill="#212529"/>
<path d="M11.6801 5.46013C11.9784 5.46013 12.2201 5.21836 12.2201 4.92013C12.2201 4.62189 11.9784 4.38013 11.6801 4.38013C11.3819 4.38013 11.1401 4.62189 11.1401 4.92013C11.1401 5.21836 11.3819 5.46013 11.6801 5.46013Z" fill="#212529"/>
<path d="M11.6801 2.76018C11.9784 2.76018 12.2201 2.51841 12.2201 2.22018C12.2201 1.92194 11.9784 1.68018 11.6801 1.68018C11.3819 1.68018 11.1401 1.92194 11.1401 2.22018C11.1401 2.51841 11.3819 2.76018 11.6801 2.76018Z" fill="#212529"/>
<path d="M14.3801 5.46013C14.6783 5.46013 14.9201 5.21836 14.9201 4.92013C14.9201 4.62189 14.6783 4.38013 14.3801 4.38013C14.0819 4.38013 13.8401 4.62189 13.8401 4.92013C13.8401 5.21836 14.0819 5.46013 14.3801 5.46013Z" fill="#212529"/>
<path d="M13.03 4.11027C13.3282 4.11027 13.57 3.86851 13.57 3.57027C13.57 3.27204 13.3282 3.03027 13.03 3.03027C12.7318 3.03027 12.49 3.27204 12.49 3.57027C12.49 3.86851 12.7318 4.11027 13.03 4.11027Z" fill="#212529"/>
<path d="M10.33 4.11027C10.6283 4.11027 10.87 3.86851 10.87 3.57027C10.87 3.27204 10.6283 3.03027 10.33 3.03027C10.0318 3.03027 9.79004 3.27204 9.79004 3.57027C9.79004 3.86851 10.0318 4.11027 10.33 4.11027Z" fill="#212529"/>
<path d="M14.3801 2.76018C14.6783 2.76018 14.9201 2.51841 14.9201 2.22018C14.9201 1.92194 14.6783 1.68018 14.3801 1.68018C14.0819 1.68018 13.8401 1.92194 13.8401 2.22018C13.8401 2.51841 14.0819 2.76018 14.3801 2.76018Z" fill="#212529"/>
<path d="M13.03 11.9501C13.3282 11.9501 13.57 11.7084 13.57 11.4101C13.57 11.1119 13.3282 10.8701 13.03 10.8701C12.7318 10.8701 12.49 11.1119 12.49 11.4101C12.49 11.7084 12.7318 11.9501 13.03 11.9501Z" fill="#212529"/>
<path d="M10.33 11.9501C10.6283 11.9501 10.87 11.7084 10.87 11.4101C10.87 11.1119 10.6283 10.8701 10.33 10.8701C10.0318 10.8701 9.79004 11.1119 9.79004 11.4101C9.79004 11.7084 10.0318 11.9501 10.33 11.9501Z" fill="#212529"/>
<path d="M11.6801 10.6C11.9784 10.6 12.2201 10.3583 12.2201 10.06C12.2201 9.76179 11.9784 9.52002 11.6801 9.52002C11.3819 9.52002 11.1401 9.76179 11.1401 10.06C11.1401 10.3583 11.3819 10.6 11.6801 10.6Z" fill="#212529"/>
<path d="M11.6801 7.90007C11.9784 7.90007 12.2201 7.6583 12.2201 7.36007C12.2201 7.06183 11.9784 6.82007 11.6801 6.82007C11.3819 6.82007 11.1401 7.06183 11.1401 7.36007C11.1401 7.6583 11.3819 7.90007 11.6801 7.90007Z" fill="#212529"/>
<path d="M14.3801 10.6C14.6783 10.6 14.9201 10.3583 14.9201 10.06C14.9201 9.76179 14.6783 9.52002 14.3801 9.52002C14.0819 9.52002 13.8401 9.76179 13.8401 10.06C13.8401 10.3583 14.0819 10.6 14.3801 10.6Z" fill="#212529"/>
<path d="M13.03 9.25017C13.3282 9.25017 13.57 9.0084 13.57 8.71017C13.57 8.41193 13.3282 8.17017 13.03 8.17017C12.7318 8.17017 12.49 8.41193 12.49 8.71017C12.49 9.0084 12.7318 9.25017 13.03 9.25017Z" fill="#212529"/>
<path d="M10.33 9.25017C10.6283 9.25017 10.87 9.0084 10.87 8.71017C10.87 8.41193 10.6283 8.17017 10.33 8.17017C10.0318 8.17017 9.79004 8.41193 9.79004 8.71017C9.79004 9.0084 10.0318 9.25017 10.33 9.25017Z" fill="#212529"/>
<path d="M14.3801 7.90007C14.6783 7.90007 14.9201 7.6583 14.9201 7.36007C14.9201 7.06183 14.6783 6.82007 14.3801 6.82007C14.0819 6.82007 13.8401 7.06183 13.8401 7.36007C13.8401 7.6583 14.0819 7.90007 14.3801 7.90007Z" fill="#212529"/>
<path d="M13.03 17.0802C13.3282 17.0802 13.57 16.8385 13.57 16.5402C13.57 16.242 13.3282 16.0002 13.03 16.0002C12.7318 16.0002 12.49 16.242 12.49 16.5402C12.49 16.8385 12.7318 17.0802 13.03 17.0802Z" fill="#212529"/>
<path d="M10.33 17.0802C10.6283 17.0802 10.87 16.8385 10.87 16.5402C10.87 16.242 10.6283 16.0002 10.33 16.0002C10.0318 16.0002 9.79004 16.242 9.79004 16.5402C9.79004 16.8385 10.0318 17.0802 10.33 17.0802Z" fill="#212529"/>
<path d="M11.6801 15.7301C11.9784 15.7301 12.2201 15.4884 12.2201 15.1901C12.2201 14.8919 11.9784 14.6501 11.6801 14.6501C11.3819 14.6501 11.1401 14.8919 11.1401 15.1901C11.1401 15.4884 11.3819 15.7301 11.6801 15.7301Z" fill="#212529"/>
<path d="M11.6801 13.0302C11.9784 13.0302 12.2201 12.7884 12.2201 12.4902C12.2201 12.192 11.9784 11.9502 11.6801 11.9502C11.3819 11.9502 11.1401 12.192 11.1401 12.4902C11.1401 12.7884 11.3819 13.0302 11.6801 13.0302Z" fill="#212529"/>
<path d="M14.3801 15.7301C14.6783 15.7301 14.9201 15.4884 14.9201 15.1901C14.9201 14.8919 14.6783 14.6501 14.3801 14.6501C14.0819 14.6501 13.8401 14.8919 13.8401 15.1901C13.8401 15.4884 14.0819 15.7301 14.3801 15.7301Z" fill="#212529"/>
<path d="M13.03 14.3803C13.3282 14.3803 13.57 14.1385 13.57 13.8403C13.57 13.5421 13.3282 13.3003 13.03 13.3003C12.7318 13.3003 12.49 13.5421 12.49 13.8403C12.49 14.1385 12.7318 14.3803 13.03 14.3803Z" fill="#212529"/>
<path d="M10.33 14.3803C10.6283 14.3803 10.87 14.1385 10.87 13.8403C10.87 13.5421 10.6283 13.3003 10.33 13.3003C10.0318 13.3003 9.79004 13.5421 9.79004 13.8403C9.79004 14.1385 10.0318 14.3803 10.33 14.3803Z" fill="#212529"/>
<path d="M14.3801 13.0302C14.6783 13.0302 14.9201 12.7884 14.9201 12.4902C14.9201 12.192 14.6783 11.9502 14.3801 11.9502C14.0819 11.9502 13.8401 12.192 13.8401 12.4902C13.8401 12.7884 14.0819 13.0302 14.3801 13.0302Z" fill="#212529"/>
<path d="M13.03 22.2101C13.3282 22.2101 13.57 21.9684 13.57 21.6701C13.57 21.3719 13.3282 21.1301 13.03 21.1301C12.7318 21.1301 12.49 21.3719 12.49 21.6701C12.49 21.9684 12.7318 22.2101 13.03 22.2101Z" fill="#212529"/>
<path d="M10.33 22.2101C10.6283 22.2101 10.87 21.9684 10.87 21.6701C10.87 21.3719 10.6283 21.1301 10.33 21.1301C10.0318 21.1301 9.79004 21.3719 9.79004 21.6701C9.79004 21.9684 10.0318 22.2101 10.33 22.2101Z" fill="#212529"/>
<path d="M11.6801 20.86C11.9784 20.86 12.2201 20.6183 12.2201 20.32C12.2201 20.0218 11.9784 19.78 11.6801 19.78C11.3819 19.78 11.1401 20.0218 11.1401 20.32C11.1401 20.6183 11.3819 20.86 11.6801 20.86Z" fill="#212529"/>
<path d="M11.6801 18.1601C11.9784 18.1601 12.2201 17.9183 12.2201 17.6201C12.2201 17.3218 11.9784 17.0801 11.6801 17.0801C11.3819 17.0801 11.1401 17.3218 11.1401 17.6201C11.1401 17.9183 11.3819 18.1601 11.6801 18.1601Z" fill="#212529"/>
<path d="M14.3801 20.86C14.6783 20.86 14.9201 20.6183 14.9201 20.32C14.9201 20.0218 14.6783 19.78 14.3801 19.78C14.0819 19.78 13.8401 20.0218 13.8401 20.32C13.8401 20.6183 14.0819 20.86 14.3801 20.86Z" fill="#212529"/>
<path d="M13.03 19.5102C13.3282 19.5102 13.57 19.2684 13.57 18.9702C13.57 18.6719 13.3282 18.4302 13.03 18.4302C12.7318 18.4302 12.49 18.6719 12.49 18.9702C12.49 19.2684 12.7318 19.5102 13.03 19.5102Z" fill="#212529"/>
<path d="M10.33 19.5102C10.6283 19.5102 10.87 19.2684 10.87 18.9702C10.87 18.6719 10.6283 18.4302 10.33 18.4302C10.0318 18.4302 9.79004 18.6719 9.79004 18.9702C9.79004 19.2684 10.0318 19.5102 10.33 19.5102Z" fill="#212529"/>
<path d="M14.3801 18.1601C14.6783 18.1601 14.9201 17.9183 14.9201 17.6201C14.9201 17.3218 14.6783 17.0801 14.3801 17.0801C14.0819 17.0801 13.8401 17.3218 13.8401 17.6201C13.8401 17.9183 14.0819 18.1601 14.3801 18.1601Z" fill="#212529"/>
<path d="M7.89986 6.82023C8.1981 6.82023 8.43986 6.57847 8.43986 6.28023C8.43986 5.982 8.1981 5.74023 7.89986 5.74023C7.60163 5.74023 7.35986 5.982 7.35986 6.28023C7.35986 6.57847 7.60163 6.82023 7.89986 6.82023Z" fill="#212529"/>
<path d="M5.1899 6.82023C5.48814 6.82023 5.7299 6.57847 5.7299 6.28023C5.7299 5.982 5.48814 5.74023 5.1899 5.74023C4.89167 5.74023 4.6499 5.982 4.6499 6.28023C4.6499 6.57847 4.89167 6.82023 5.1899 6.82023Z" fill="#212529"/>
<path d="M6.55001 5.46013C6.84824 5.46013 7.09001 5.21836 7.09001 4.92013C7.09001 4.62189 6.84824 4.38013 6.55001 4.38013C6.25178 4.38013 6.01001 4.62189 6.01001 4.92013C6.01001 5.21836 6.25178 5.46013 6.55001 5.46013Z" fill="#212529"/>
<path d="M6.55001 2.76018C6.84824 2.76018 7.09001 2.51841 7.09001 2.22018C7.09001 1.92194 6.84824 1.68018 6.55001 1.68018C6.25178 1.68018 6.01001 1.92194 6.01001 2.22018C6.01001 2.51841 6.25178 2.76018 6.55001 2.76018Z" fill="#212529"/>
<path d="M9.24996 5.46013C9.54819 5.46013 9.78996 5.21836 9.78996 4.92013C9.78996 4.62189 9.54819 4.38013 9.24996 4.38013C8.95173 4.38013 8.70996 4.62189 8.70996 4.92013C8.70996 5.21836 8.95173 5.46013 9.24996 5.46013Z" fill="#212529"/>
<path d="M7.89986 4.11027C8.1981 4.11027 8.43986 3.86851 8.43986 3.57027C8.43986 3.27204 8.1981 3.03027 7.89986 3.03027C7.60163 3.03027 7.35986 3.27204 7.35986 3.57027C7.35986 3.86851 7.60163 4.11027 7.89986 4.11027Z" fill="#212529"/>
<path d="M5.1899 4.11027C5.48814 4.11027 5.7299 3.86851 5.7299 3.57027C5.7299 3.27204 5.48814 3.03027 5.1899 3.03027C4.89167 3.03027 4.6499 3.27204 4.6499 3.57027C4.6499 3.86851 4.89167 4.11027 5.1899 4.11027Z" fill="#212529"/>
<path d="M9.24996 2.76018C9.54819 2.76018 9.78996 2.51841 9.78996 2.22018C9.78996 1.92194 9.54819 1.68018 9.24996 1.68018C8.95173 1.68018 8.70996 1.92194 8.70996 2.22018C8.70996 2.51841 8.95173 2.76018 9.24996 2.76018Z" fill="#212529"/>
<path d="M7.89986 11.9501C8.1981 11.9501 8.43986 11.7084 8.43986 11.4101C8.43986 11.1119 8.1981 10.8701 7.89986 10.8701C7.60163 10.8701 7.35986 11.1119 7.35986 11.4101C7.35986 11.7084 7.60163 11.9501 7.89986 11.9501Z" fill="#212529"/>
<path d="M5.1899 11.9501C5.48814 11.9501 5.7299 11.7084 5.7299 11.4101C5.7299 11.1119 5.48814 10.8701 5.1899 10.8701C4.89167 10.8701 4.6499 11.1119 4.6499 11.4101C4.6499 11.7084 4.89167 11.9501 5.1899 11.9501Z" fill="#212529"/>
<path d="M6.55001 10.6C6.84824 10.6 7.09001 10.3583 7.09001 10.06C7.09001 9.76179 6.84824 9.52002 6.55001 9.52002C6.25178 9.52002 6.01001 9.76179 6.01001 10.06C6.01001 10.3583 6.25178 10.6 6.55001 10.6Z" fill="#212529"/>
<path d="M6.55001 7.90007C6.84824 7.90007 7.09001 7.6583 7.09001 7.36007C7.09001 7.06183 6.84824 6.82007 6.55001 6.82007C6.25178 6.82007 6.01001 7.06183 6.01001 7.36007C6.01001 7.6583 6.25178 7.90007 6.55001 7.90007Z" fill="#212529"/>
<path d="M9.24996 10.6C9.54819 10.6 9.78996 10.3583 9.78996 10.06C9.78996 9.76179 9.54819 9.52002 9.24996 9.52002C8.95173 9.52002 8.70996 9.76179 8.70996 10.06C8.70996 10.3583 8.95173 10.6 9.24996 10.6Z" fill="#212529"/>
<path d="M7.89986 9.25017C8.1981 9.25017 8.43986 9.0084 8.43986 8.71017C8.43986 8.41193 8.1981 8.17017 7.89986 8.17017C7.60163 8.17017 7.35986 8.41193 7.35986 8.71017C7.35986 9.0084 7.60163 9.25017 7.89986 9.25017Z" fill="#212529"/>
<path d="M5.1899 9.25017C5.48814 9.25017 5.7299 9.0084 5.7299 8.71017C5.7299 8.41193 5.48814 8.17017 5.1899 8.17017C4.89167 8.17017 4.6499 8.41193 4.6499 8.71017C4.6499 9.0084 4.89167 9.25017 5.1899 9.25017Z" fill="#212529"/>
<path d="M9.24996 7.90007C9.54819 7.90007 9.78996 7.6583 9.78996 7.36007C9.78996 7.06183 9.54819 6.82007 9.24996 6.82007C8.95173 6.82007 8.70996 7.06183 8.70996 7.36007C8.70996 7.6583 8.95173 7.90007 9.24996 7.90007Z" fill="#212529"/>
<path d="M7.89986 17.0802C8.1981 17.0802 8.43986 16.8385 8.43986 16.5402C8.43986 16.242 8.1981 16.0002 7.89986 16.0002C7.60163 16.0002 7.35986 16.242 7.35986 16.5402C7.35986 16.8385 7.60163 17.0802 7.89986 17.0802Z" fill="#212529"/>
<path d="M5.1899 17.0802C5.48814 17.0802 5.7299 16.8385 5.7299 16.5402C5.7299 16.242 5.48814 16.0002 5.1899 16.0002C4.89167 16.0002 4.6499 16.242 4.6499 16.5402C4.6499 16.8385 4.89167 17.0802 5.1899 17.0802Z" fill="#212529"/>
<path d="M6.55001 15.7301C6.84824 15.7301 7.09001 15.4884 7.09001 15.1901C7.09001 14.8919 6.84824 14.6501 6.55001 14.6501C6.25178 14.6501 6.01001 14.8919 6.01001 15.1901C6.01001 15.4884 6.25178 15.7301 6.55001 15.7301Z" fill="#212529"/>
<path d="M6.55001 13.0302C6.84824 13.0302 7.09001 12.7884 7.09001 12.4902C7.09001 12.192 6.84824 11.9502 6.55001 11.9502C6.25178 11.9502 6.01001 12.192 6.01001 12.4902C6.01001 12.7884 6.25178 13.0302 6.55001 13.0302Z" fill="#212529"/>
<path d="M9.24996 15.7301C9.54819 15.7301 9.78996 15.4884 9.78996 15.1901C9.78996 14.8919 9.54819 14.6501 9.24996 14.6501C8.95173 14.6501 8.70996 14.8919 8.70996 15.1901C8.70996 15.4884 8.95173 15.7301 9.24996 15.7301Z" fill="#212529"/>
<path d="M7.89986 14.3803C8.1981 14.3803 8.43986 14.1385 8.43986 13.8403C8.43986 13.5421 8.1981 13.3003 7.89986 13.3003C7.60163 13.3003 7.35986 13.5421 7.35986 13.8403C7.35986 14.1385 7.60163 14.3803 7.89986 14.3803Z" fill="#212529"/>
<path d="M5.1899 14.3803C5.48814 14.3803 5.7299 14.1385 5.7299 13.8403C5.7299 13.5421 5.48814 13.3003 5.1899 13.3003C4.89167 13.3003 4.6499 13.5421 4.6499 13.8403C4.6499 14.1385 4.89167 14.3803 5.1899 14.3803Z" fill="#212529"/>
<path d="M9.24996 13.0302C9.54819 13.0302 9.78996 12.7884 9.78996 12.4902C9.78996 12.192 9.54819 11.9502 9.24996 11.9502C8.95173 11.9502 8.70996 12.192 8.70996 12.4902C8.70996 12.7884 8.95173 13.0302 9.24996 13.0302Z" fill="#212529"/>
<path d="M7.89986 22.2101C8.1981 22.2101 8.43986 21.9684 8.43986 21.6701C8.43986 21.3719 8.1981 21.1301 7.89986 21.1301C7.60163 21.1301 7.35986 21.3719 7.35986 21.6701C7.35986 21.9684 7.60163 22.2101 7.89986 22.2101Z" fill="#212529"/>
<path d="M5.1899 22.2101C5.48814 22.2101 5.7299 21.9684 5.7299 21.6701C5.7299 21.3719 5.48814 21.1301 5.1899 21.1301C4.89167 21.1301 4.6499 21.3719 4.6499 21.6701C4.6499 21.9684 4.89167 22.2101 5.1899 22.2101Z" fill="#212529"/>
<path d="M6.55001 20.86C6.84824 20.86 7.09001 20.6183 7.09001 20.32C7.09001 20.0218 6.84824 19.78 6.55001 19.78C6.25178 19.78 6.01001 20.0218 6.01001 20.32C6.01001 20.6183 6.25178 20.86 6.55001 20.86Z" fill="#212529"/>
<path d="M6.55001 18.1601C6.84824 18.1601 7.09001 17.9183 7.09001 17.6201C7.09001 17.3218 6.84824 17.0801 6.55001 17.0801C6.25178 17.0801 6.01001 17.3218 6.01001 17.6201C6.01001 17.9183 6.25178 18.1601 6.55001 18.1601Z" fill="#212529"/>
<path d="M9.24996 20.86C9.54819 20.86 9.78996 20.6183 9.78996 20.32C9.78996 20.0218 9.54819 19.78 9.24996 19.78C8.95173 19.78 8.70996 20.0218 8.70996 20.32C8.70996 20.6183 8.95173 20.86 9.24996 20.86Z" fill="#212529"/>
<path d="M7.89986 19.5102C8.1981 19.5102 8.43986 19.2684 8.43986 18.9702C8.43986 18.6719 8.1981 18.4302 7.89986 18.4302C7.60163 18.4302 7.35986 18.6719 7.35986 18.9702C7.35986 19.2684 7.60163 19.5102 7.89986 19.5102Z" fill="#212529"/>
<path d="M5.1899 19.5102C5.48814 19.5102 5.7299 19.2684 5.7299 18.9702C5.7299 18.6719 5.48814 18.4302 5.1899 18.4302C4.89167 18.4302 4.6499 18.6719 4.6499 18.9702C4.6499 19.2684 4.89167 19.5102 5.1899 19.5102Z" fill="#212529"/>
<path d="M9.24996 18.1601C9.54819 18.1601 9.78996 17.9183 9.78996 17.6201C9.78996 17.3218 9.54819 17.0801 9.24996 17.0801C8.95173 17.0801 8.70996 17.3218 8.70996 17.6201C8.70996 17.9183 8.95173 18.1601 9.24996 18.1601Z" fill="#212529"/>
<path d="M2.75997 6.82023C3.0582 6.82023 3.29997 6.57847 3.29997 6.28023C3.29997 5.982 3.0582 5.74023 2.75997 5.74023C2.46174 5.74023 2.21997 5.982 2.21997 6.28023C2.21997 6.57847 2.46174 6.82023 2.75997 6.82023Z" fill="#212529"/>
<path d="M0.0600195 6.82023C0.358253 6.82023 0.60002 6.57847 0.60002 6.28023C0.60002 5.982 0.358253 5.74023 0.0600195 5.74023C-0.238214 5.74023 -0.47998 5.982 -0.47998 6.28023C-0.47998 6.57847 -0.238214 6.82023 0.0600195 6.82023Z" fill="#212529"/>
<path d="M1.41012 5.46013C1.70835 5.46013 1.95012 5.21836 1.95012 4.92013C1.95012 4.62189 1.70835 4.38013 1.41012 4.38013C1.11188 4.38013 0.870117 4.62189 0.870117 4.92013C0.870117 5.21836 1.11188 5.46013 1.41012 5.46013Z" fill="#212529"/>
<path d="M1.41012 2.76018C1.70835 2.76018 1.95012 2.51841 1.95012 2.22018C1.95012 1.92194 1.70835 1.68018 1.41012 1.68018C1.11188 1.68018 0.870117 1.92194 0.870117 2.22018C0.870117 2.51841 1.11188 2.76018 1.41012 2.76018Z" fill="#212529"/>
<path d="M4.11007 5.46013C4.4083 5.46013 4.65007 5.21836 4.65007 4.92013C4.65007 4.62189 4.4083 4.38013 4.11007 4.38013C3.81183 4.38013 3.57007 4.62189 3.57007 4.92013C3.57007 5.21836 3.81183 5.46013 4.11007 5.46013Z" fill="#212529"/>
<path d="M2.75997 4.11027C3.0582 4.11027 3.29997 3.86851 3.29997 3.57027C3.29997 3.27204 3.0582 3.03027 2.75997 3.03027C2.46174 3.03027 2.21997 3.27204 2.21997 3.57027C2.21997 3.86851 2.46174 4.11027 2.75997 4.11027Z" fill="#212529"/>
<path d="M0.0600195 4.11027C0.358253 4.11027 0.60002 3.86851 0.60002 3.57027C0.60002 3.27204 0.358253 3.03027 0.0600195 3.03027C-0.238214 3.03027 -0.47998 3.27204 -0.47998 3.57027C-0.47998 3.86851 -0.238214 4.11027 0.0600195 4.11027Z" fill="#212529"/>
<path d="M4.11007 2.76018C4.4083 2.76018 4.65007 2.51841 4.65007 2.22018C4.65007 1.92194 4.4083 1.68018 4.11007 1.68018C3.81183 1.68018 3.57007 1.92194 3.57007 2.22018C3.57007 2.51841 3.81183 2.76018 4.11007 2.76018Z" fill="#212529"/>
<path d="M2.75997 11.9501C3.0582 11.9501 3.29997 11.7084 3.29997 11.4101C3.29997 11.1119 3.0582 10.8701 2.75997 10.8701C2.46174 10.8701 2.21997 11.1119 2.21997 11.4101C2.21997 11.7084 2.46174 11.9501 2.75997 11.9501Z" fill="#212529"/>
<path d="M0.0600195 11.9501C0.358253 11.9501 0.60002 11.7084 0.60002 11.4101C0.60002 11.1119 0.358253 10.8701 0.0600195 10.8701C-0.238214 10.8701 -0.47998 11.1119 -0.47998 11.4101C-0.47998 11.7084 -0.238214 11.9501 0.0600195 11.9501Z" fill="#212529"/>
<path d="M1.41012 10.6C1.70835 10.6 1.95012 10.3583 1.95012 10.06C1.95012 9.76179 1.70835 9.52002 1.41012 9.52002C1.11188 9.52002 0.870117 9.76179 0.870117 10.06C0.870117 10.3583 1.11188 10.6 1.41012 10.6Z" fill="#212529"/>
<path d="M1.41012 7.90007C1.70835 7.90007 1.95012 7.6583 1.95012 7.36007C1.95012 7.06183 1.70835 6.82007 1.41012 6.82007C1.11188 6.82007 0.870117 7.06183 0.870117 7.36007C0.870117 7.6583 1.11188 7.90007 1.41012 7.90007Z" fill="#212529"/>
<path d="M4.11007 10.6C4.4083 10.6 4.65007 10.3583 4.65007 10.06C4.65007 9.76179 4.4083 9.52002 4.11007 9.52002C3.81183 9.52002 3.57007 9.76179 3.57007 10.06C3.57007 10.3583 3.81183 10.6 4.11007 10.6Z" fill="#212529"/>
<path d="M2.75997 9.25017C3.0582 9.25017 3.29997 9.0084 3.29997 8.71017C3.29997 8.41193 3.0582 8.17017 2.75997 8.17017C2.46174 8.17017 2.21997 8.41193 2.21997 8.71017C2.21997 9.0084 2.46174 9.25017 2.75997 9.25017Z" fill="#212529"/>
<path d="M0.0600195 9.25017C0.358253 9.25017 0.60002 9.0084 0.60002 8.71017C0.60002 8.41193 0.358253 8.17017 0.0600195 8.17017C-0.238214 8.17017 -0.47998 8.41193 -0.47998 8.71017C-0.47998 9.0084 -0.238214 9.25017 0.0600195 9.25017Z" fill="#212529"/>
<path d="M4.11007 7.90007C4.4083 7.90007 4.65007 7.6583 4.65007 7.36007C4.65007 7.06183 4.4083 6.82007 4.11007 6.82007C3.81183 6.82007 3.57007 7.06183 3.57007 7.36007C3.57007 7.6583 3.81183 7.90007 4.11007 7.90007Z" fill="#212529"/>
<path d="M2.75997 17.0802C3.0582 17.0802 3.29997 16.8385 3.29997 16.5402C3.29997 16.242 3.0582 16.0002 2.75997 16.0002C2.46174 16.0002 2.21997 16.242 2.21997 16.5402C2.21997 16.8385 2.46174 17.0802 2.75997 17.0802Z" fill="#212529"/>
<path d="M0.0600195 17.0802C0.358253 17.0802 0.60002 16.8385 0.60002 16.5402C0.60002 16.242 0.358253 16.0002 0.0600195 16.0002C-0.238214 16.0002 -0.47998 16.242 -0.47998 16.5402C-0.47998 16.8385 -0.238214 17.0802 0.0600195 17.0802Z" fill="#212529"/>
<path d="M1.41012 15.7301C1.70835 15.7301 1.95012 15.4884 1.95012 15.1901C1.95012 14.8919 1.70835 14.6501 1.41012 14.6501C1.11188 14.6501 0.870117 14.8919 0.870117 15.1901C0.870117 15.4884 1.11188 15.7301 1.41012 15.7301Z" fill="#212529"/>
<path d="M1.41012 13.0302C1.70835 13.0302 1.95012 12.7884 1.95012 12.4902C1.95012 12.192 1.70835 11.9502 1.41012 11.9502C1.11188 11.9502 0.870117 12.192 0.870117 12.4902C0.870117 12.7884 1.11188 13.0302 1.41012 13.0302Z" fill="#212529"/>
<path d="M4.11007 15.7301C4.4083 15.7301 4.65007 15.4884 4.65007 15.1901C4.65007 14.8919 4.4083 14.6501 4.11007 14.6501C3.81183 14.6501 3.57007 14.8919 3.57007 15.1901C3.57007 15.4884 3.81183 15.7301 4.11007 15.7301Z" fill="#212529"/>
<path d="M2.75997 14.3803C3.0582 14.3803 3.29997 14.1385 3.29997 13.8403C3.29997 13.5421 3.0582 13.3003 2.75997 13.3003C2.46174 13.3003 2.21997 13.5421 2.21997 13.8403C2.21997 14.1385 2.46174 14.3803 2.75997 14.3803Z" fill="#212529"/>
<path d="M0.0600195 14.3803C0.358253 14.3803 0.60002 14.1385 0.60002 13.8403C0.60002 13.5421 0.358253 13.3003 0.0600195 13.3003C-0.238214 13.3003 -0.47998 13.5421 -0.47998 13.8403C-0.47998 14.1385 -0.238214 14.3803 0.0600195 14.3803Z" fill="#212529"/>
<path d="M4.11007 13.0302C4.4083 13.0302 4.65007 12.7884 4.65007 12.4902C4.65007 12.192 4.4083 11.9502 4.11007 11.9502C3.81183 11.9502 3.57007 12.192 3.57007 12.4902C3.57007 12.7884 3.81183 13.0302 4.11007 13.0302Z" fill="#212529"/>
<path d="M2.75997 22.2101C3.0582 22.2101 3.29997 21.9684 3.29997 21.6701C3.29997 21.3719 3.0582 21.1301 2.75997 21.1301C2.46174 21.1301 2.21997 21.3719 2.21997 21.6701C2.21997 21.9684 2.46174 22.2101 2.75997 22.2101Z" fill="#212529"/>
<path d="M0.0600195 22.2101C0.358253 22.2101 0.60002 21.9684 0.60002 21.6701C0.60002 21.3719 0.358253 21.1301 0.0600195 21.1301C-0.238214 21.1301 -0.47998 21.3719 -0.47998 21.6701C-0.47998 21.9684 -0.238214 22.2101 0.0600195 22.2101Z" fill="#212529"/>
<path d="M1.41012 20.86C1.70835 20.86 1.95012 20.6183 1.95012 20.32C1.95012 20.0218 1.70835 19.78 1.41012 19.78C1.11188 19.78 0.870117 20.0218 0.870117 20.32C0.870117 20.6183 1.11188 20.86 1.41012 20.86Z" fill="#212529"/>
<path d="M1.41012 18.1601C1.70835 18.1601 1.95012 17.9183 1.95012 17.6201C1.95012 17.3218 1.70835 17.0801 1.41012 17.0801C1.11188 17.0801 0.870117 17.3218 0.870117 17.6201C0.870117 17.9183 1.11188 18.1601 1.41012 18.1601Z" fill="#212529"/>
<path d="M4.11007 20.86C4.4083 20.86 4.65007 20.6183 4.65007 20.32C4.65007 20.0218 4.4083 19.78 4.11007 19.78C3.81183 19.78 3.57007 20.0218 3.57007 20.32C3.57007 20.6183 3.81183 20.86 4.11007 20.86Z" fill="#212529"/>
<path d="M2.75997 19.5102C3.0582 19.5102 3.29997 19.2684 3.29997 18.9702C3.29997 18.6719 3.0582 18.4302 2.75997 18.4302C2.46174 18.4302 2.21997 18.6719 2.21997 18.9702C2.21997 19.2684 2.46174 19.5102 2.75997 19.5102Z" fill="#212529"/>
<path d="M0.0600195 19.5102C0.358253 19.5102 0.60002 19.2684 0.60002 18.9702C0.60002 18.6719 0.358253 18.4302 0.0600195 18.4302C-0.238214 18.4302 -0.47998 18.6719 -0.47998 18.9702C-0.47998 19.2684 -0.238214 19.5102 0.0600195 19.5102Z" fill="#212529"/>
<path d="M4.11007 18.1601C4.4083 18.1601 4.65007 17.9183 4.65007 17.6201C4.65007 17.3218 4.4083 17.0801 4.11007 17.0801C3.81183 17.0801 3.57007 17.3218 3.57007 17.6201C3.57007 17.9183 3.81183 18.1601 4.11007 18.1601Z" fill="#212529"/>
</g>
<path d="M13.4999 21.6299C13.3785 21.6224 13.2616 21.5808 13.1626 21.5101C13.0636 21.4394 12.9865 21.3423 12.9399 21.2299L9.99991 13.9999L7.72991 18.9999C7.67725 19.1124 7.59396 19.2076 7.4896 19.2749C7.38524 19.3421 7.26404 19.3785 7.13991 19.3799H4.04991C3.9539 19.38 3.85911 19.3585 3.77256 19.3169C3.68601 19.2754 3.60991 19.2149 3.54991 19.1399C2.22842 17.5149 1.29476 15.61 0.819909 13.5699C0.524756 12.5067 0.43315 11.3972 0.549909 10.2999C0.999909 5.29994 4.54991 1.68994 8.95991 1.68994C10.2774 1.69293 11.5738 2.02127 12.734 2.64581C13.8941 3.27035 14.882 4.17175 15.6099 5.26994C15.6445 5.32069 15.6907 5.36255 15.7445 5.39209C15.7984 5.42163 15.8585 5.43803 15.9199 5.43994C15.9815 5.43885 16.0419 5.4228 16.0959 5.39319C16.1499 5.36358 16.1959 5.32128 16.2299 5.26994C16.9915 4.17699 18.0033 3.28187 19.1809 2.65914C20.3585 2.03642 21.6679 1.70412 22.9999 1.68994C27.4199 1.68994 30.9999 5.30994 31.4099 10.2999C31.5267 11.3972 31.4351 12.5067 31.1399 13.5699C30.6566 15.5888 29.7233 17.4724 28.4099 19.0799C28.3499 19.1549 28.2738 19.2154 28.1873 19.2569C28.1007 19.2985 28.0059 19.32 27.9099 19.3199H22.1799C22.0252 19.3194 21.8758 19.2637 21.7585 19.1629C21.6412 19.0621 21.5637 18.9228 21.5399 18.7699L20.3499 11.2399L18.7599 18.8299C18.7316 18.9567 18.666 19.0721 18.5716 19.1612C18.4771 19.2503 18.3581 19.3091 18.2299 19.3299C18.1027 19.3485 17.9729 19.3301 17.8558 19.2769C17.7388 19.2237 17.6395 19.138 17.5699 19.0299L16.4099 17.0299L14.0599 21.2999C14.0045 21.3999 13.9234 21.4833 13.8249 21.5413C13.7264 21.5994 13.6142 21.63 13.4999 21.6299ZM9.99991 11.6599C10.1263 11.6634 10.2488 11.7041 10.352 11.7771C10.4552 11.8501 10.5345 11.952 10.5799 12.0699L13.5799 19.4899L15.8199 15.4899C15.8736 15.3907 15.953 15.3078 16.0498 15.2497C16.1465 15.1917 16.2571 15.1607 16.3699 15.1599C16.4808 15.1587 16.59 15.1866 16.6865 15.2411C16.7831 15.2955 16.8636 15.3745 16.9199 15.4699L17.8199 16.9699L19.8199 7.56994C19.8394 7.41525 19.9146 7.27298 20.0315 7.16984C20.1484 7.0667 20.299 7.00979 20.4549 7.00979C20.6108 7.00979 20.7614 7.0667 20.8783 7.16984C20.9952 7.27298 21.0705 7.41525 21.0899 7.56994L22.7299 17.9999H27.6399C28.7277 16.5946 29.5079 14.9763 29.9299 13.2499C30.1812 12.3461 30.266 11.4041 30.1799 10.4699C30.1752 10.4502 30.1752 10.4297 30.1799 10.4099C29.7899 6.10994 26.7899 2.99994 22.9999 2.99994C21.8701 3.00413 20.7577 3.27864 19.7556 3.80054C18.7536 4.32244 17.891 5.07658 17.2399 5.99994C17.0831 6.21808 16.8777 6.39671 16.6399 6.52169C16.4021 6.64666 16.1385 6.71453 15.8699 6.71994C15.6079 6.7164 15.3507 6.64897 15.1207 6.5235C14.8907 6.39803 14.6947 6.21831 14.5499 5.99994C13.9391 5.08568 13.1142 4.33447 12.147 3.81163C11.1797 3.28879 10.0994 3.01015 8.99991 2.99994C5.20991 2.99994 2.20991 6.10994 1.82991 10.4399C1.83459 10.4597 1.83459 10.4802 1.82991 10.4999C1.74397 11.4308 1.82869 12.3695 2.07991 13.2699C2.50072 14.9887 3.27745 16.6001 4.35991 17.9999H6.71991L9.43991 11.9999C9.49396 11.8981 9.57453 11.8127 9.67311 11.7529C9.77168 11.693 9.88459 11.6609 9.99991 11.6599Z" fill="#2A2527"/>
<path d="M15.9099 30.31C15.7517 30.3116 15.5985 30.2546 15.4799 30.15L5.10989 20.73C4.54738 20.2218 4.02577 19.6701 3.54989 19.08C3.48886 18.9851 3.45357 18.876 3.44748 18.7634C3.44139 18.6507 3.46471 18.5385 3.51516 18.4376C3.5656 18.3367 3.64142 18.2507 3.73518 18.188C3.82893 18.1253 3.93739 18.0881 4.04989 18.08H6.71989L9.43989 12.08C9.49327 11.966 9.57811 11.8697 9.68441 11.8024C9.79072 11.735 9.91406 11.6995 10.0399 11.7C10.1662 11.7034 10.2888 11.7442 10.392 11.8171C10.4952 11.8901 10.5745 11.992 10.6199 12.11L13.6199 19.53L15.8599 15.53C15.9136 15.4307 15.993 15.3478 16.0897 15.2897C16.1865 15.2317 16.2971 15.2007 16.4099 15.2C16.5207 15.1987 16.63 15.2267 16.7265 15.2811C16.8231 15.3355 16.9036 15.4145 16.9599 15.51L17.8599 17.01L19.8599 7.60996C19.8793 7.45527 19.9546 7.313 20.0715 7.20986C20.1884 7.10672 20.339 7.0498 20.4949 7.0498C20.6508 7.0498 20.8013 7.10672 20.9183 7.20986C21.0352 7.313 21.1104 7.45527 21.1299 7.60996L22.7299 18H27.9999C28.1124 18.0081 28.2208 18.0453 28.3146 18.108C28.4083 18.1707 28.4842 18.2567 28.5346 18.3576C28.5851 18.4585 28.6084 18.5707 28.6023 18.6834C28.5962 18.796 28.5609 18.9051 28.4999 19C28.0215 19.591 27.5001 20.1458 26.9399 20.66L16.3399 30.15C16.2213 30.2546 16.0681 30.3116 15.9099 30.31ZM5.48989 19.31L5.96989 19.77L15.9099 28.77L26.0299 19.77L26.5099 19.31H22.1799C22.0252 19.3094 21.8758 19.2537 21.7585 19.1529C21.6412 19.0521 21.5637 18.9128 21.5399 18.76L20.3499 11.23L18.7599 18.82C18.7316 18.9467 18.666 19.0621 18.5715 19.1512C18.4771 19.2403 18.3581 19.2991 18.2299 19.32C18.1027 19.3385 17.9728 19.3201 17.8558 19.2669C17.7388 19.2137 17.6395 19.128 17.5699 19.02L16.4099 17.02L14.0599 21.3C14.0023 21.407 13.9151 21.495 13.8086 21.5536C13.7022 21.6121 13.5811 21.6387 13.4599 21.63C13.3385 21.6224 13.2216 21.5809 13.1226 21.5102C13.0236 21.4394 12.9464 21.3424 12.8999 21.23L9.99989 14L7.72989 19C7.67723 19.1124 7.59394 19.2077 7.48958 19.2749C7.38522 19.3421 7.26401 19.3785 7.13989 19.38L5.48989 19.31Z" fill="#2A2527"/>
</svg>
