<svg width="45" height="45" viewBox="0 0 45 45" fill="none" xmlns="http://www.w3.org/2000/svg">
<mask id="mask0_18_2626" style="mask-type:alpha" maskUnits="userSpaceOnUse" x="3" y="4" width="39" height="36">
<path fill-rule="evenodd" clip-rule="evenodd" d="M22.5 39C33.2696 39 42 31.165 42 21.5C42 11.835 33.2696 4 22.5 4C11.7304 4 3 11.835 3 21.5C3 25.4655 4.46972 29.123 6.94698 32.0576C6.72637 34.405 5.8693 37.1146 5.36887 38.6967C5.15047 39.3871 5 39.8629 5 40C5.4554 40 10.4734 38.3409 13.2539 36.9115C16.0054 38.2438 19.1543 39 22.5 39Z" fill="black"/>
</mask>
<g mask="url(#mask0_18_2626)">
<path d="M40.19 8.55019C40.5656 8.55019 40.87 8.24574 40.87 7.87019C40.87 7.49463 40.5656 7.19019 40.19 7.19019C39.8145 7.19019 39.51 7.49463 39.51 7.87019C39.51 8.24574 39.8145 8.55019 40.19 8.55019Z" fill="#212529"/>
<path d="M36.7801 8.55019C37.1557 8.55019 37.4601 8.24574 37.4601 7.87019C37.4601 7.49463 37.1557 7.19019 36.7801 7.19019C36.4045 7.19019 36.1001 7.49463 36.1001 7.87019C36.1001 8.24574 36.4045 8.55019 36.7801 8.55019Z" fill="#212529"/>
<path d="M38.48 6.83998C38.8556 6.83998 39.16 6.53553 39.16 6.15998C39.16 5.78443 38.8556 5.47998 38.48 5.47998C38.1045 5.47998 37.8 5.78443 37.8 6.15998C37.8 6.53553 38.1045 6.83998 38.48 6.83998Z" fill="#212529"/>
<path d="M41.8902 6.83998C42.2658 6.83998 42.5702 6.53553 42.5702 6.15998C42.5702 5.78443 42.2658 5.47998 41.8902 5.47998C41.5147 5.47998 41.2102 5.78443 41.2102 6.15998C41.2102 6.53553 41.5147 6.83998 41.8902 6.83998Z" fill="#212529"/>
<path d="M40.19 5.14003C40.5656 5.14003 40.87 4.83558 40.87 4.46003C40.87 4.08448 40.5656 3.78003 40.19 3.78003C39.8145 3.78003 39.51 4.08448 39.51 4.46003C39.51 4.83558 39.8145 5.14003 40.19 5.14003Z" fill="#212529"/>
<path d="M36.7801 5.14003C37.1557 5.14003 37.4601 4.83558 37.4601 4.46003C37.4601 4.08448 37.1557 3.78003 36.7801 3.78003C36.4045 3.78003 36.1001 4.08448 36.1001 4.46003C36.1001 4.83558 36.4045 5.14003 36.7801 5.14003Z" fill="#212529"/>
<path d="M40.19 15.5402C40.5656 15.5402 40.87 15.2357 40.87 14.8602C40.87 14.4846 40.5656 14.1802 40.19 14.1802C39.8145 14.1802 39.51 14.4846 39.51 14.8602C39.51 15.2357 39.8145 15.5402 40.19 15.5402Z" fill="#212529"/>
<path d="M36.7801 15.5402C37.1557 15.5402 37.4601 15.2357 37.4601 14.8602C37.4601 14.4846 37.1557 14.1802 36.7801 14.1802C36.4045 14.1802 36.1001 14.4846 36.1001 14.8602C36.1001 15.2357 36.4045 15.5402 36.7801 15.5402Z" fill="#212529"/>
<path d="M38.48 13.84C38.8556 13.84 39.16 13.5355 39.16 13.16C39.16 12.7844 38.8556 12.48 38.48 12.48C38.1045 12.48 37.8 12.7844 37.8 13.16C37.8 13.5355 38.1045 13.84 38.48 13.84Z" fill="#212529"/>
<path d="M38.48 10.4401C38.8556 10.4401 39.16 10.1356 39.16 9.76008C39.16 9.38452 38.8556 9.08008 38.48 9.08008C38.1045 9.08008 37.8 9.38452 37.8 9.76008C37.8 10.1356 38.1045 10.4401 38.48 10.4401Z" fill="#212529"/>
<path d="M41.8902 13.84C42.2658 13.84 42.5702 13.5355 42.5702 13.16C42.5702 12.7844 42.2658 12.48 41.8902 12.48C41.5147 12.48 41.2102 12.7844 41.2102 13.16C41.2102 13.5355 41.5147 13.84 41.8902 13.84Z" fill="#212529"/>
<path d="M40.19 12.14C40.5656 12.14 40.87 11.8356 40.87 11.46C40.87 11.0845 40.5656 10.78 40.19 10.78C39.8145 10.78 39.51 11.0845 39.51 11.46C39.51 11.8356 39.8145 12.14 40.19 12.14Z" fill="#212529"/>
<path d="M36.7801 12.14C37.1557 12.14 37.4601 11.8356 37.4601 11.46C37.4601 11.0845 37.1557 10.78 36.7801 10.78C36.4045 10.78 36.1001 11.0845 36.1001 11.46C36.1001 11.8356 36.4045 12.14 36.7801 12.14Z" fill="#212529"/>
<path d="M41.8902 10.4401C42.2658 10.4401 42.5702 10.1356 42.5702 9.76008C42.5702 9.38452 42.2658 9.08008 41.8902 9.08008C41.5147 9.08008 41.2102 9.38452 41.2102 9.76008C41.2102 10.1356 41.5147 10.4401 41.8902 10.4401Z" fill="#212529"/>
<path d="M40.19 22.5502C40.5656 22.5502 40.87 22.2457 40.87 21.8702C40.87 21.4946 40.5656 21.1902 40.19 21.1902C39.8145 21.1902 39.51 21.4946 39.51 21.8702C39.51 22.2457 39.8145 22.5502 40.19 22.5502Z" fill="#212529"/>
<path d="M36.7801 22.5502C37.1557 22.5502 37.4601 22.2457 37.4601 21.8702C37.4601 21.4946 37.1557 21.1902 36.7801 21.1902C36.4045 21.1902 36.1001 21.4946 36.1001 21.8702C36.1001 22.2457 36.4045 22.5502 36.7801 22.5502Z" fill="#212529"/>
<path d="M38.48 20.85C38.8556 20.85 39.16 20.5455 39.16 20.17C39.16 19.7944 38.8556 19.49 38.48 19.49C38.1045 19.49 37.8 19.7944 37.8 20.17C37.8 20.5455 38.1045 20.85 38.48 20.85Z" fill="#212529"/>
<path d="M38.48 17.4401C38.8556 17.4401 39.16 17.1356 39.16 16.7601C39.16 16.3845 38.8556 16.0801 38.48 16.0801C38.1045 16.0801 37.8 16.3845 37.8 16.7601C37.8 17.1356 38.1045 17.4401 38.48 17.4401Z" fill="#212529"/>
<path d="M41.8902 20.85C42.2658 20.85 42.5702 20.5455 42.5702 20.17C42.5702 19.7944 42.2658 19.49 41.8902 19.49C41.5147 19.49 41.2102 19.7944 41.2102 20.17C41.2102 20.5455 41.5147 20.85 41.8902 20.85Z" fill="#212529"/>
<path d="M40.19 19.15C40.5656 19.15 40.87 18.8456 40.87 18.47C40.87 18.0945 40.5656 17.79 40.19 17.79C39.8145 17.79 39.51 18.0945 39.51 18.47C39.51 18.8456 39.8145 19.15 40.19 19.15Z" fill="#212529"/>
<path d="M36.7801 19.15C37.1557 19.15 37.4601 18.8456 37.4601 18.47C37.4601 18.0945 37.1557 17.79 36.7801 17.79C36.4045 17.79 36.1001 18.0945 36.1001 18.47C36.1001 18.8456 36.4045 19.15 36.7801 19.15Z" fill="#212529"/>
<path d="M41.8902 17.4401C42.2658 17.4401 42.5702 17.1356 42.5702 16.7601C42.5702 16.3845 42.2658 16.0801 41.8902 16.0801C41.5147 16.0801 41.2102 16.3845 41.2102 16.7601C41.2102 17.1356 41.5147 17.4401 41.8902 17.4401Z" fill="#212529"/>
<path d="M40.19 29.5402C40.5656 29.5402 40.87 29.2357 40.87 28.8602C40.87 28.4846 40.5656 28.1802 40.19 28.1802C39.8145 28.1802 39.51 28.4846 39.51 28.8602C39.51 29.2357 39.8145 29.5402 40.19 29.5402Z" fill="#212529"/>
<path d="M36.7801 29.5402C37.1557 29.5402 37.4601 29.2357 37.4601 28.8602C37.4601 28.4846 37.1557 28.1802 36.7801 28.1802C36.4045 28.1802 36.1001 28.4846 36.1001 28.8602C36.1001 29.2357 36.4045 29.5402 36.7801 29.5402Z" fill="#212529"/>
<path d="M38.48 27.84C38.8556 27.84 39.16 27.5355 39.16 27.16C39.16 26.7844 38.8556 26.48 38.48 26.48C38.1045 26.48 37.8 26.7844 37.8 27.16C37.8 27.5355 38.1045 27.84 38.48 27.84Z" fill="#212529"/>
<path d="M38.48 24.4401C38.8556 24.4401 39.16 24.1356 39.16 23.7601C39.16 23.3845 38.8556 23.0801 38.48 23.0801C38.1045 23.0801 37.8 23.3845 37.8 23.7601C37.8 24.1356 38.1045 24.4401 38.48 24.4401Z" fill="#212529"/>
<path d="M41.8902 27.84C42.2658 27.84 42.5702 27.5355 42.5702 27.16C42.5702 26.7844 42.2658 26.48 41.8902 26.48C41.5147 26.48 41.2102 26.7844 41.2102 27.16C41.2102 27.5355 41.5147 27.84 41.8902 27.84Z" fill="#212529"/>
<path d="M40.19 26.14C40.5656 26.14 40.87 25.8356 40.87 25.46C40.87 25.0845 40.5656 24.78 40.19 24.78C39.8145 24.78 39.51 25.0845 39.51 25.46C39.51 25.8356 39.8145 26.14 40.19 26.14Z" fill="#212529"/>
<path d="M36.7801 26.14C37.1557 26.14 37.4601 25.8356 37.4601 25.46C37.4601 25.0845 37.1557 24.78 36.7801 24.78C36.4045 24.78 36.1001 25.0845 36.1001 25.46C36.1001 25.8356 36.4045 26.14 36.7801 26.14Z" fill="#212529"/>
<path d="M41.8902 24.4401C42.2658 24.4401 42.5702 24.1356 42.5702 23.7601C42.5702 23.3845 42.2658 23.0801 41.8902 23.0801C41.5147 23.0801 41.2102 23.3845 41.2102 23.7601C41.2102 24.1356 41.5147 24.4401 41.8902 24.4401Z" fill="#212529"/>
<path d="M40.19 36.5402C40.5656 36.5402 40.87 36.2357 40.87 35.8602C40.87 35.4846 40.5656 35.1802 40.19 35.1802C39.8145 35.1802 39.51 35.4846 39.51 35.8602C39.51 36.2357 39.8145 36.5402 40.19 36.5402Z" fill="#212529"/>
<path d="M36.7801 36.5402C37.1557 36.5402 37.4601 36.2357 37.4601 35.8602C37.4601 35.4846 37.1557 35.1802 36.7801 35.1802C36.4045 35.1802 36.1001 35.4846 36.1001 35.8602C36.1001 36.2357 36.4045 36.5402 36.7801 36.5402Z" fill="#212529"/>
<path d="M38.48 34.84C38.8556 34.84 39.16 34.5355 39.16 34.16C39.16 33.7844 38.8556 33.48 38.48 33.48C38.1045 33.48 37.8 33.7844 37.8 34.16C37.8 34.5355 38.1045 34.84 38.48 34.84Z" fill="#212529"/>
<path d="M38.48 31.4401C38.8556 31.4401 39.16 31.1356 39.16 30.7601C39.16 30.3845 38.8556 30.0801 38.48 30.0801C38.1045 30.0801 37.8 30.3845 37.8 30.7601C37.8 31.1356 38.1045 31.4401 38.48 31.4401Z" fill="#212529"/>
<path d="M41.8902 34.84C42.2658 34.84 42.5702 34.5355 42.5702 34.16C42.5702 33.7844 42.2658 33.48 41.8902 33.48C41.5147 33.48 41.2102 33.7844 41.2102 34.16C41.2102 34.5355 41.5147 34.84 41.8902 34.84Z" fill="#212529"/>
<path d="M40.19 33.14C40.5656 33.14 40.87 32.8356 40.87 32.46C40.87 32.0845 40.5656 31.78 40.19 31.78C39.8145 31.78 39.51 32.0845 39.51 32.46C39.51 32.8356 39.8145 33.14 40.19 33.14Z" fill="#212529"/>
<path d="M36.7801 33.14C37.1557 33.14 37.4601 32.8356 37.4601 32.46C37.4601 32.0845 37.1557 31.78 36.7801 31.78C36.4045 31.78 36.1001 32.0845 36.1001 32.46C36.1001 32.8356 36.4045 33.14 36.7801 33.14Z" fill="#212529"/>
<path d="M41.8902 31.4401C42.2658 31.4401 42.5702 31.1356 42.5702 30.7601C42.5702 30.3845 42.2658 30.0801 41.8902 30.0801C41.5147 30.0801 41.2102 30.3845 41.2102 30.7601C41.2102 31.1356 41.5147 31.4401 41.8902 31.4401Z" fill="#212529"/>
<path d="M38.48 38.4401C38.8556 38.4401 39.16 38.1356 39.16 37.7601C39.16 37.3845 38.8556 37.0801 38.48 37.0801C38.1045 37.0801 37.8 37.3845 37.8 37.7601C37.8 38.1356 38.1045 38.4401 38.48 38.4401Z" fill="#212529"/>
<path d="M40.19 40.14C40.5656 40.14 40.87 39.8356 40.87 39.46C40.87 39.0845 40.5656 38.78 40.19 38.78C39.8145 38.78 39.51 39.0845 39.51 39.46C39.51 39.8356 39.8145 40.14 40.19 40.14Z" fill="#212529"/>
<path d="M36.7801 40.14C37.1557 40.14 37.4601 39.8356 37.4601 39.46C37.4601 39.0845 37.1557 38.78 36.7801 38.78C36.4045 38.78 36.1001 39.0845 36.1001 39.46C36.1001 39.8356 36.4045 40.14 36.7801 40.14Z" fill="#212529"/>
<path d="M41.8902 38.4401C42.2658 38.4401 42.5702 38.1356 42.5702 37.7601C42.5702 37.3845 42.2658 37.0801 41.8902 37.0801C41.5147 37.0801 41.2102 37.3845 41.2102 37.7601C41.2102 38.1356 41.5147 38.4401 41.8902 38.4401Z" fill="#212529"/>
<path d="M33.7198 8.55019C34.0953 8.55019 34.3998 8.24574 34.3998 7.87019C34.3998 7.49463 34.0953 7.19019 33.7198 7.19019C33.3442 7.19019 33.0398 7.49463 33.0398 7.87019C33.0398 8.24574 33.3442 8.55019 33.7198 8.55019Z" fill="#212529"/>
<path d="M30.3199 8.55019C30.6954 8.55019 30.9999 8.24574 30.9999 7.87019C30.9999 7.49463 30.6954 7.19019 30.3199 7.19019C29.9443 7.19019 29.6399 7.49463 29.6399 7.87019C29.6399 8.24574 29.9443 8.55019 30.3199 8.55019Z" fill="#212529"/>
<path d="M32.0198 6.83998C32.3954 6.83998 32.6998 6.53553 32.6998 6.15998C32.6998 5.78443 32.3954 5.47998 32.0198 5.47998C31.6443 5.47998 31.3398 5.78443 31.3398 6.15998C31.3398 6.53553 31.6443 6.83998 32.0198 6.83998Z" fill="#212529"/>
<path d="M35.42 6.83998C35.7955 6.83998 36.1 6.53553 36.1 6.15998C36.1 5.78443 35.7955 5.47998 35.42 5.47998C35.0444 5.47998 34.74 5.78443 34.74 6.15998C34.74 6.53553 35.0444 6.83998 35.42 6.83998Z" fill="#212529"/>
<path d="M33.7198 5.14003C34.0953 5.14003 34.3998 4.83558 34.3998 4.46003C34.3998 4.08448 34.0953 3.78003 33.7198 3.78003C33.3442 3.78003 33.0398 4.08448 33.0398 4.46003C33.0398 4.83558 33.3442 5.14003 33.7198 5.14003Z" fill="#212529"/>
<path d="M30.3199 5.14003C30.6954 5.14003 30.9999 4.83558 30.9999 4.46003C30.9999 4.08448 30.6954 3.78003 30.3199 3.78003C29.9443 3.78003 29.6399 4.08448 29.6399 4.46003C29.6399 4.83558 29.9443 5.14003 30.3199 5.14003Z" fill="#212529"/>
<path d="M33.7198 15.5402C34.0953 15.5402 34.3998 15.2357 34.3998 14.8602C34.3998 14.4846 34.0953 14.1802 33.7198 14.1802C33.3442 14.1802 33.0398 14.4846 33.0398 14.8602C33.0398 15.2357 33.3442 15.5402 33.7198 15.5402Z" fill="#212529"/>
<path d="M30.3199 15.5402C30.6954 15.5402 30.9999 15.2357 30.9999 14.8602C30.9999 14.4846 30.6954 14.1802 30.3199 14.1802C29.9443 14.1802 29.6399 14.4846 29.6399 14.8602C29.6399 15.2357 29.9443 15.5402 30.3199 15.5402Z" fill="#212529"/>
<path d="M32.0198 13.84C32.3954 13.84 32.6998 13.5355 32.6998 13.16C32.6998 12.7844 32.3954 12.48 32.0198 12.48C31.6443 12.48 31.3398 12.7844 31.3398 13.16C31.3398 13.5355 31.6443 13.84 32.0198 13.84Z" fill="#212529"/>
<path d="M32.0198 10.4401C32.3954 10.4401 32.6998 10.1356 32.6998 9.76008C32.6998 9.38452 32.3954 9.08008 32.0198 9.08008C31.6443 9.08008 31.3398 9.38452 31.3398 9.76008C31.3398 10.1356 31.6443 10.4401 32.0198 10.4401Z" fill="#212529"/>
<path d="M35.42 13.84C35.7955 13.84 36.1 13.5355 36.1 13.16C36.1 12.7844 35.7955 12.48 35.42 12.48C35.0444 12.48 34.74 12.7844 34.74 13.16C34.74 13.5355 35.0444 13.84 35.42 13.84Z" fill="#212529"/>
<path d="M33.7198 12.14C34.0953 12.14 34.3998 11.8356 34.3998 11.46C34.3998 11.0845 34.0953 10.78 33.7198 10.78C33.3442 10.78 33.0398 11.0845 33.0398 11.46C33.0398 11.8356 33.3442 12.14 33.7198 12.14Z" fill="#212529"/>
<path d="M30.3199 12.14C30.6954 12.14 30.9999 11.8356 30.9999 11.46C30.9999 11.0845 30.6954 10.78 30.3199 10.78C29.9443 10.78 29.6399 11.0845 29.6399 11.46C29.6399 11.8356 29.9443 12.14 30.3199 12.14Z" fill="#212529"/>
<path d="M35.42 10.4401C35.7955 10.4401 36.1 10.1356 36.1 9.76008C36.1 9.38452 35.7955 9.08008 35.42 9.08008C35.0444 9.08008 34.74 9.38452 34.74 9.76008C34.74 10.1356 35.0444 10.4401 35.42 10.4401Z" fill="#212529"/>
<path d="M33.7198 22.5502C34.0953 22.5502 34.3998 22.2457 34.3998 21.8702C34.3998 21.4946 34.0953 21.1902 33.7198 21.1902C33.3442 21.1902 33.0398 21.4946 33.0398 21.8702C33.0398 22.2457 33.3442 22.5502 33.7198 22.5502Z" fill="#212529"/>
<path d="M30.3199 22.5502C30.6954 22.5502 30.9999 22.2457 30.9999 21.8702C30.9999 21.4946 30.6954 21.1902 30.3199 21.1902C29.9443 21.1902 29.6399 21.4946 29.6399 21.8702C29.6399 22.2457 29.9443 22.5502 30.3199 22.5502Z" fill="#212529"/>
<path d="M32.0198 20.85C32.3954 20.85 32.6998 20.5455 32.6998 20.17C32.6998 19.7944 32.3954 19.49 32.0198 19.49C31.6443 19.49 31.3398 19.7944 31.3398 20.17C31.3398 20.5455 31.6443 20.85 32.0198 20.85Z" fill="#212529"/>
<path d="M32.0198 17.4401C32.3954 17.4401 32.6998 17.1356 32.6998 16.7601C32.6998 16.3845 32.3954 16.0801 32.0198 16.0801C31.6443 16.0801 31.3398 16.3845 31.3398 16.7601C31.3398 17.1356 31.6443 17.4401 32.0198 17.4401Z" fill="#212529"/>
<path d="M35.42 20.85C35.7955 20.85 36.1 20.5455 36.1 20.17C36.1 19.7944 35.7955 19.49 35.42 19.49C35.0444 19.49 34.74 19.7944 34.74 20.17C34.74 20.5455 35.0444 20.85 35.42 20.85Z" fill="#212529"/>
<path d="M33.7198 19.15C34.0953 19.15 34.3998 18.8456 34.3998 18.47C34.3998 18.0945 34.0953 17.79 33.7198 17.79C33.3442 17.79 33.0398 18.0945 33.0398 18.47C33.0398 18.8456 33.3442 19.15 33.7198 19.15Z" fill="#212529"/>
<path d="M30.3199 19.15C30.6954 19.15 30.9999 18.8456 30.9999 18.47C30.9999 18.0945 30.6954 17.79 30.3199 17.79C29.9443 17.79 29.6399 18.0945 29.6399 18.47C29.6399 18.8456 29.9443 19.15 30.3199 19.15Z" fill="#212529"/>
<path d="M35.42 17.4401C35.7955 17.4401 36.1 17.1356 36.1 16.7601C36.1 16.3845 35.7955 16.0801 35.42 16.0801C35.0444 16.0801 34.74 16.3845 34.74 16.7601C34.74 17.1356 35.0444 17.4401 35.42 17.4401Z" fill="#212529"/>
<path d="M33.7198 29.5402C34.0953 29.5402 34.3998 29.2357 34.3998 28.8602C34.3998 28.4846 34.0953 28.1802 33.7198 28.1802C33.3442 28.1802 33.0398 28.4846 33.0398 28.8602C33.0398 29.2357 33.3442 29.5402 33.7198 29.5402Z" fill="#212529"/>
<path d="M30.3199 29.5402C30.6954 29.5402 30.9999 29.2357 30.9999 28.8602C30.9999 28.4846 30.6954 28.1802 30.3199 28.1802C29.9443 28.1802 29.6399 28.4846 29.6399 28.8602C29.6399 29.2357 29.9443 29.5402 30.3199 29.5402Z" fill="#212529"/>
<path d="M32.0198 27.84C32.3954 27.84 32.6998 27.5355 32.6998 27.16C32.6998 26.7844 32.3954 26.48 32.0198 26.48C31.6443 26.48 31.3398 26.7844 31.3398 27.16C31.3398 27.5355 31.6443 27.84 32.0198 27.84Z" fill="#212529"/>
<path d="M32.0198 24.4401C32.3954 24.4401 32.6998 24.1356 32.6998 23.7601C32.6998 23.3845 32.3954 23.0801 32.0198 23.0801C31.6443 23.0801 31.3398 23.3845 31.3398 23.7601C31.3398 24.1356 31.6443 24.4401 32.0198 24.4401Z" fill="#212529"/>
<path d="M35.42 27.84C35.7955 27.84 36.1 27.5355 36.1 27.16C36.1 26.7844 35.7955 26.48 35.42 26.48C35.0444 26.48 34.74 26.7844 34.74 27.16C34.74 27.5355 35.0444 27.84 35.42 27.84Z" fill="#212529"/>
<path d="M33.7198 26.14C34.0953 26.14 34.3998 25.8356 34.3998 25.46C34.3998 25.0845 34.0953 24.78 33.7198 24.78C33.3442 24.78 33.0398 25.0845 33.0398 25.46C33.0398 25.8356 33.3442 26.14 33.7198 26.14Z" fill="#212529"/>
<path d="M30.3199 26.14C30.6954 26.14 30.9999 25.8356 30.9999 25.46C30.9999 25.0845 30.6954 24.78 30.3199 24.78C29.9443 24.78 29.6399 25.0845 29.6399 25.46C29.6399 25.8356 29.9443 26.14 30.3199 26.14Z" fill="#212529"/>
<path d="M35.42 24.4401C35.7955 24.4401 36.1 24.1356 36.1 23.7601C36.1 23.3845 35.7955 23.0801 35.42 23.0801C35.0444 23.0801 34.74 23.3845 34.74 23.7601C34.74 24.1356 35.0444 24.4401 35.42 24.4401Z" fill="#212529"/>
<path d="M33.7198 36.5402C34.0953 36.5402 34.3998 36.2357 34.3998 35.8602C34.3998 35.4846 34.0953 35.1802 33.7198 35.1802C33.3442 35.1802 33.0398 35.4846 33.0398 35.8602C33.0398 36.2357 33.3442 36.5402 33.7198 36.5402Z" fill="#212529"/>
<path d="M30.3199 36.5402C30.6954 36.5402 30.9999 36.2357 30.9999 35.8602C30.9999 35.4846 30.6954 35.1802 30.3199 35.1802C29.9443 35.1802 29.6399 35.4846 29.6399 35.8602C29.6399 36.2357 29.9443 36.5402 30.3199 36.5402Z" fill="#212529"/>
<path d="M32.0198 34.84C32.3954 34.84 32.6998 34.5355 32.6998 34.16C32.6998 33.7844 32.3954 33.48 32.0198 33.48C31.6443 33.48 31.3398 33.7844 31.3398 34.16C31.3398 34.5355 31.6443 34.84 32.0198 34.84Z" fill="#212529"/>
<path d="M32.0198 31.4401C32.3954 31.4401 32.6998 31.1356 32.6998 30.7601C32.6998 30.3845 32.3954 30.0801 32.0198 30.0801C31.6443 30.0801 31.3398 30.3845 31.3398 30.7601C31.3398 31.1356 31.6443 31.4401 32.0198 31.4401Z" fill="#212529"/>
<path d="M35.42 34.84C35.7955 34.84 36.1 34.5355 36.1 34.16C36.1 33.7844 35.7955 33.48 35.42 33.48C35.0444 33.48 34.74 33.7844 34.74 34.16C34.74 34.5355 35.0444 34.84 35.42 34.84Z" fill="#212529"/>
<path d="M33.7198 33.14C34.0953 33.14 34.3998 32.8356 34.3998 32.46C34.3998 32.0845 34.0953 31.78 33.7198 31.78C33.3442 31.78 33.0398 32.0845 33.0398 32.46C33.0398 32.8356 33.3442 33.14 33.7198 33.14Z" fill="#212529"/>
<path d="M30.3199 33.14C30.6954 33.14 30.9999 32.8356 30.9999 32.46C30.9999 32.0845 30.6954 31.78 30.3199 31.78C29.9443 31.78 29.6399 32.0845 29.6399 32.46C29.6399 32.8356 29.9443 33.14 30.3199 33.14Z" fill="#212529"/>
<path d="M35.42 31.4401C35.7955 31.4401 36.1 31.1356 36.1 30.7601C36.1 30.3845 35.7955 30.0801 35.42 30.0801C35.0444 30.0801 34.74 30.3845 34.74 30.7601C34.74 31.1356 35.0444 31.4401 35.42 31.4401Z" fill="#212529"/>
<path d="M32.0198 38.4401C32.3954 38.4401 32.6998 38.1356 32.6998 37.7601C32.6998 37.3845 32.3954 37.0801 32.0198 37.0801C31.6443 37.0801 31.3398 37.3845 31.3398 37.7601C31.3398 38.1356 31.6443 38.4401 32.0198 38.4401Z" fill="#212529"/>
<path d="M33.7198 40.14C34.0953 40.14 34.3998 39.8356 34.3998 39.46C34.3998 39.0845 34.0953 38.78 33.7198 38.78C33.3442 38.78 33.0398 39.0845 33.0398 39.46C33.0398 39.8356 33.3442 40.14 33.7198 40.14Z" fill="#212529"/>
<path d="M30.3199 40.14C30.6954 40.14 30.9999 39.8356 30.9999 39.46C30.9999 39.0845 30.6954 38.78 30.3199 38.78C29.9443 38.78 29.6399 39.0845 29.6399 39.46C29.6399 39.8356 29.9443 40.14 30.3199 40.14Z" fill="#212529"/>
<path d="M35.42 38.4401C35.7955 38.4401 36.1 38.1356 36.1 37.7601C36.1 37.3845 35.7955 37.0801 35.42 37.0801C35.0444 37.0801 34.74 37.3845 34.74 37.7601C34.74 38.1356 35.0444 38.4401 35.42 38.4401Z" fill="#212529"/>
<path d="M27.2498 8.55019C27.6254 8.55019 27.9298 8.24574 27.9298 7.87019C27.9298 7.49463 27.6254 7.19019 27.2498 7.19019C26.8743 7.19019 26.5698 7.49463 26.5698 7.87019C26.5698 8.24574 26.8743 8.55019 27.2498 8.55019Z" fill="#212529"/>
<path d="M23.8499 8.55019C24.2255 8.55019 24.5299 8.24574 24.5299 7.87019C24.5299 7.49463 24.2255 7.19019 23.8499 7.19019C23.4744 7.19019 23.1699 7.49463 23.1699 7.87019C23.1699 8.24574 23.4744 8.55019 23.8499 8.55019Z" fill="#212529"/>
<path d="M25.5499 6.83998C25.9254 6.83998 26.2299 6.53553 26.2299 6.15998C26.2299 5.78443 25.9254 5.47998 25.5499 5.47998C25.1743 5.47998 24.8699 5.78443 24.8699 6.15998C24.8699 6.53553 25.1743 6.83998 25.5499 6.83998Z" fill="#212529"/>
<path d="M28.96 6.83998C29.3356 6.83998 29.64 6.53553 29.64 6.15998C29.64 5.78443 29.3356 5.47998 28.96 5.47998C28.5845 5.47998 28.28 5.78443 28.28 6.15998C28.28 6.53553 28.5845 6.83998 28.96 6.83998Z" fill="#212529"/>
<path d="M27.2498 5.14003C27.6254 5.14003 27.9298 4.83558 27.9298 4.46003C27.9298 4.08448 27.6254 3.78003 27.2498 3.78003C26.8743 3.78003 26.5698 4.08448 26.5698 4.46003C26.5698 4.83558 26.8743 5.14003 27.2498 5.14003Z" fill="#212529"/>
<path d="M23.8499 5.14003C24.2255 5.14003 24.5299 4.83558 24.5299 4.46003C24.5299 4.08448 24.2255 3.78003 23.8499 3.78003C23.4744 3.78003 23.1699 4.08448 23.1699 4.46003C23.1699 4.83558 23.4744 5.14003 23.8499 5.14003Z" fill="#212529"/>
<path d="M27.2498 15.5402C27.6254 15.5402 27.9298 15.2357 27.9298 14.8602C27.9298 14.4846 27.6254 14.1802 27.2498 14.1802C26.8743 14.1802 26.5698 14.4846 26.5698 14.8602C26.5698 15.2357 26.8743 15.5402 27.2498 15.5402Z" fill="#212529"/>
<path d="M23.8499 15.5402C24.2255 15.5402 24.5299 15.2357 24.5299 14.8602C24.5299 14.4846 24.2255 14.1802 23.8499 14.1802C23.4744 14.1802 23.1699 14.4846 23.1699 14.8602C23.1699 15.2357 23.4744 15.5402 23.8499 15.5402Z" fill="#212529"/>
<path d="M25.5499 13.84C25.9254 13.84 26.2299 13.5355 26.2299 13.16C26.2299 12.7844 25.9254 12.48 25.5499 12.48C25.1743 12.48 24.8699 12.7844 24.8699 13.16C24.8699 13.5355 25.1743 13.84 25.5499 13.84Z" fill="#212529"/>
<path d="M25.5499 10.4401C25.9254 10.4401 26.2299 10.1356 26.2299 9.76008C26.2299 9.38452 25.9254 9.08008 25.5499 9.08008C25.1743 9.08008 24.8699 9.38452 24.8699 9.76008C24.8699 10.1356 25.1743 10.4401 25.5499 10.4401Z" fill="#212529"/>
<path d="M28.96 13.84C29.3356 13.84 29.64 13.5355 29.64 13.16C29.64 12.7844 29.3356 12.48 28.96 12.48C28.5845 12.48 28.28 12.7844 28.28 13.16C28.28 13.5355 28.5845 13.84 28.96 13.84Z" fill="#212529"/>
<path d="M27.2498 12.14C27.6254 12.14 27.9298 11.8356 27.9298 11.46C27.9298 11.0845 27.6254 10.78 27.2498 10.78C26.8743 10.78 26.5698 11.0845 26.5698 11.46C26.5698 11.8356 26.8743 12.14 27.2498 12.14Z" fill="#212529"/>
<path d="M23.8499 12.14C24.2255 12.14 24.5299 11.8356 24.5299 11.46C24.5299 11.0845 24.2255 10.78 23.8499 10.78C23.4744 10.78 23.1699 11.0845 23.1699 11.46C23.1699 11.8356 23.4744 12.14 23.8499 12.14Z" fill="#212529"/>
<path d="M28.96 10.4401C29.3356 10.4401 29.64 10.1356 29.64 9.76008C29.64 9.38452 29.3356 9.08008 28.96 9.08008C28.5845 9.08008 28.28 9.38452 28.28 9.76008C28.28 10.1356 28.5845 10.4401 28.96 10.4401Z" fill="#212529"/>
<path d="M27.2498 22.5502C27.6254 22.5502 27.9298 22.2457 27.9298 21.8702C27.9298 21.4946 27.6254 21.1902 27.2498 21.1902C26.8743 21.1902 26.5698 21.4946 26.5698 21.8702C26.5698 22.2457 26.8743 22.5502 27.2498 22.5502Z" fill="#212529"/>
<path d="M23.8499 22.5502C24.2255 22.5502 24.5299 22.2457 24.5299 21.8702C24.5299 21.4946 24.2255 21.1902 23.8499 21.1902C23.4744 21.1902 23.1699 21.4946 23.1699 21.8702C23.1699 22.2457 23.4744 22.5502 23.8499 22.5502Z" fill="#212529"/>
<path d="M25.5499 20.85C25.9254 20.85 26.2299 20.5455 26.2299 20.17C26.2299 19.7944 25.9254 19.49 25.5499 19.49C25.1743 19.49 24.8699 19.7944 24.8699 20.17C24.8699 20.5455 25.1743 20.85 25.5499 20.85Z" fill="#212529"/>
<path d="M25.5499 17.4401C25.9254 17.4401 26.2299 17.1356 26.2299 16.7601C26.2299 16.3845 25.9254 16.0801 25.5499 16.0801C25.1743 16.0801 24.8699 16.3845 24.8699 16.7601C24.8699 17.1356 25.1743 17.4401 25.5499 17.4401Z" fill="#212529"/>
<path d="M28.96 20.85C29.3356 20.85 29.64 20.5455 29.64 20.17C29.64 19.7944 29.3356 19.49 28.96 19.49C28.5845 19.49 28.28 19.7944 28.28 20.17C28.28 20.5455 28.5845 20.85 28.96 20.85Z" fill="#212529"/>
<path d="M27.2498 19.15C27.6254 19.15 27.9298 18.8456 27.9298 18.47C27.9298 18.0945 27.6254 17.79 27.2498 17.79C26.8743 17.79 26.5698 18.0945 26.5698 18.47C26.5698 18.8456 26.8743 19.15 27.2498 19.15Z" fill="#212529"/>
<path d="M23.8499 19.15C24.2255 19.15 24.5299 18.8456 24.5299 18.47C24.5299 18.0945 24.2255 17.79 23.8499 17.79C23.4744 17.79 23.1699 18.0945 23.1699 18.47C23.1699 18.8456 23.4744 19.15 23.8499 19.15Z" fill="#212529"/>
<path d="M28.96 17.4401C29.3356 17.4401 29.64 17.1356 29.64 16.7601C29.64 16.3845 29.3356 16.0801 28.96 16.0801C28.5845 16.0801 28.28 16.3845 28.28 16.7601C28.28 17.1356 28.5845 17.4401 28.96 17.4401Z" fill="#212529"/>
<path d="M27.2498 29.5402C27.6254 29.5402 27.9298 29.2357 27.9298 28.8602C27.9298 28.4846 27.6254 28.1802 27.2498 28.1802C26.8743 28.1802 26.5698 28.4846 26.5698 28.8602C26.5698 29.2357 26.8743 29.5402 27.2498 29.5402Z" fill="#212529"/>
<path d="M23.8499 29.5402C24.2255 29.5402 24.5299 29.2357 24.5299 28.8602C24.5299 28.4846 24.2255 28.1802 23.8499 28.1802C23.4744 28.1802 23.1699 28.4846 23.1699 28.8602C23.1699 29.2357 23.4744 29.5402 23.8499 29.5402Z" fill="#212529"/>
<path d="M25.5499 27.84C25.9254 27.84 26.2299 27.5355 26.2299 27.16C26.2299 26.7844 25.9254 26.48 25.5499 26.48C25.1743 26.48 24.8699 26.7844 24.8699 27.16C24.8699 27.5355 25.1743 27.84 25.5499 27.84Z" fill="#212529"/>
<path d="M25.5499 24.4401C25.9254 24.4401 26.2299 24.1356 26.2299 23.7601C26.2299 23.3845 25.9254 23.0801 25.5499 23.0801C25.1743 23.0801 24.8699 23.3845 24.8699 23.7601C24.8699 24.1356 25.1743 24.4401 25.5499 24.4401Z" fill="#212529"/>
<path d="M28.96 27.84C29.3356 27.84 29.64 27.5355 29.64 27.16C29.64 26.7844 29.3356 26.48 28.96 26.48C28.5845 26.48 28.28 26.7844 28.28 27.16C28.28 27.5355 28.5845 27.84 28.96 27.84Z" fill="#212529"/>
<path d="M27.2498 26.14C27.6254 26.14 27.9298 25.8356 27.9298 25.46C27.9298 25.0845 27.6254 24.78 27.2498 24.78C26.8743 24.78 26.5698 25.0845 26.5698 25.46C26.5698 25.8356 26.8743 26.14 27.2498 26.14Z" fill="#212529"/>
<path d="M23.8499 26.14C24.2255 26.14 24.5299 25.8356 24.5299 25.46C24.5299 25.0845 24.2255 24.78 23.8499 24.78C23.4744 24.78 23.1699 25.0845 23.1699 25.46C23.1699 25.8356 23.4744 26.14 23.8499 26.14Z" fill="#212529"/>
<path d="M28.96 24.4401C29.3356 24.4401 29.64 24.1356 29.64 23.7601C29.64 23.3845 29.3356 23.0801 28.96 23.0801C28.5845 23.0801 28.28 23.3845 28.28 23.7601C28.28 24.1356 28.5845 24.4401 28.96 24.4401Z" fill="#212529"/>
<path d="M27.2498 36.5402C27.6254 36.5402 27.9298 36.2357 27.9298 35.8602C27.9298 35.4846 27.6254 35.1802 27.2498 35.1802C26.8743 35.1802 26.5698 35.4846 26.5698 35.8602C26.5698 36.2357 26.8743 36.5402 27.2498 36.5402Z" fill="#212529"/>
<path d="M23.8499 36.5402C24.2255 36.5402 24.5299 36.2357 24.5299 35.8602C24.5299 35.4846 24.2255 35.1802 23.8499 35.1802C23.4744 35.1802 23.1699 35.4846 23.1699 35.8602C23.1699 36.2357 23.4744 36.5402 23.8499 36.5402Z" fill="#212529"/>
<path d="M25.5499 34.84C25.9254 34.84 26.2299 34.5355 26.2299 34.16C26.2299 33.7844 25.9254 33.48 25.5499 33.48C25.1743 33.48 24.8699 33.7844 24.8699 34.16C24.8699 34.5355 25.1743 34.84 25.5499 34.84Z" fill="#212529"/>
<path d="M25.5499 31.4401C25.9254 31.4401 26.2299 31.1356 26.2299 30.7601C26.2299 30.3845 25.9254 30.0801 25.5499 30.0801C25.1743 30.0801 24.8699 30.3845 24.8699 30.7601C24.8699 31.1356 25.1743 31.4401 25.5499 31.4401Z" fill="#212529"/>
<path d="M28.96 34.84C29.3356 34.84 29.64 34.5355 29.64 34.16C29.64 33.7844 29.3356 33.48 28.96 33.48C28.5845 33.48 28.28 33.7844 28.28 34.16C28.28 34.5355 28.5845 34.84 28.96 34.84Z" fill="#212529"/>
<path d="M27.2498 33.14C27.6254 33.14 27.9298 32.8356 27.9298 32.46C27.9298 32.0845 27.6254 31.78 27.2498 31.78C26.8743 31.78 26.5698 32.0845 26.5698 32.46C26.5698 32.8356 26.8743 33.14 27.2498 33.14Z" fill="#212529"/>
<path d="M23.8499 33.14C24.2255 33.14 24.5299 32.8356 24.5299 32.46C24.5299 32.0845 24.2255 31.78 23.8499 31.78C23.4744 31.78 23.1699 32.0845 23.1699 32.46C23.1699 32.8356 23.4744 33.14 23.8499 33.14Z" fill="#212529"/>
<path d="M28.96 31.4401C29.3356 31.4401 29.64 31.1356 29.64 30.7601C29.64 30.3845 29.3356 30.0801 28.96 30.0801C28.5845 30.0801 28.28 30.3845 28.28 30.7601C28.28 31.1356 28.5845 31.4401 28.96 31.4401Z" fill="#212529"/>
<path d="M25.5499 38.4401C25.9254 38.4401 26.2299 38.1356 26.2299 37.7601C26.2299 37.3845 25.9254 37.0801 25.5499 37.0801C25.1743 37.0801 24.8699 37.3845 24.8699 37.7601C24.8699 38.1356 25.1743 38.4401 25.5499 38.4401Z" fill="#212529"/>
<path d="M27.2498 40.14C27.6254 40.14 27.9298 39.8356 27.9298 39.46C27.9298 39.0845 27.6254 38.78 27.2498 38.78C26.8743 38.78 26.5698 39.0845 26.5698 39.46C26.5698 39.8356 26.8743 40.14 27.2498 40.14Z" fill="#212529"/>
<path d="M23.8499 40.14C24.2255 40.14 24.5299 39.8356 24.5299 39.46C24.5299 39.0845 24.2255 38.78 23.8499 38.78C23.4744 38.78 23.1699 39.0845 23.1699 39.46C23.1699 39.8356 23.4744 40.14 23.8499 40.14Z" fill="#212529"/>
<path d="M28.96 38.4401C29.3356 38.4401 29.64 38.1356 29.64 37.7601C29.64 37.3845 29.3356 37.0801 28.96 37.0801C28.5845 37.0801 28.28 37.3845 28.28 37.7601C28.28 38.1356 28.5845 38.4401 28.96 38.4401Z" fill="#212529"/>
<path d="M20.7899 8.55019C21.1654 8.55019 21.4699 8.24574 21.4699 7.87019C21.4699 7.49463 21.1654 7.19019 20.7899 7.19019C20.4143 7.19019 20.1099 7.49463 20.1099 7.87019C20.1099 8.24574 20.4143 8.55019 20.7899 8.55019Z" fill="#212529"/>
<path d="M17.39 8.55019C17.7655 8.55019 18.07 8.24574 18.07 7.87019C18.07 7.49463 17.7655 7.19019 17.39 7.19019C17.0144 7.19019 16.71 7.49463 16.71 7.87019C16.71 8.24574 17.0144 8.55019 17.39 8.55019Z" fill="#212529"/>
<path d="M19.0899 6.83998C19.4655 6.83998 19.7699 6.53553 19.7699 6.15998C19.7699 5.78443 19.4655 5.47998 19.0899 5.47998C18.7144 5.47998 18.4099 5.78443 18.4099 6.15998C18.4099 6.53553 18.7144 6.83998 19.0899 6.83998Z" fill="#212529"/>
<path d="M22.4901 6.83998C22.8656 6.83998 23.1701 6.53553 23.1701 6.15998C23.1701 5.78443 22.8656 5.47998 22.4901 5.47998C22.1145 5.47998 21.8101 5.78443 21.8101 6.15998C21.8101 6.53553 22.1145 6.83998 22.4901 6.83998Z" fill="#212529"/>
<path d="M20.7899 5.14003C21.1654 5.14003 21.4699 4.83558 21.4699 4.46003C21.4699 4.08448 21.1654 3.78003 20.7899 3.78003C20.4143 3.78003 20.1099 4.08448 20.1099 4.46003C20.1099 4.83558 20.4143 5.14003 20.7899 5.14003Z" fill="#212529"/>
<path d="M17.39 5.14003C17.7655 5.14003 18.07 4.83558 18.07 4.46003C18.07 4.08448 17.7655 3.78003 17.39 3.78003C17.0144 3.78003 16.71 4.08448 16.71 4.46003C16.71 4.83558 17.0144 5.14003 17.39 5.14003Z" fill="#212529"/>
<path d="M20.7899 15.5402C21.1654 15.5402 21.4699 15.2357 21.4699 14.8602C21.4699 14.4846 21.1654 14.1802 20.7899 14.1802C20.4143 14.1802 20.1099 14.4846 20.1099 14.8602C20.1099 15.2357 20.4143 15.5402 20.7899 15.5402Z" fill="#212529"/>
<path d="M17.39 15.5402C17.7655 15.5402 18.07 15.2357 18.07 14.8602C18.07 14.4846 17.7655 14.1802 17.39 14.1802C17.0144 14.1802 16.71 14.4846 16.71 14.8602C16.71 15.2357 17.0144 15.5402 17.39 15.5402Z" fill="#212529"/>
<path d="M19.0899 13.84C19.4655 13.84 19.7699 13.5355 19.7699 13.16C19.7699 12.7844 19.4655 12.48 19.0899 12.48C18.7144 12.48 18.4099 12.7844 18.4099 13.16C18.4099 13.5355 18.7144 13.84 19.0899 13.84Z" fill="#212529"/>
<path d="M19.0899 10.4401C19.4655 10.4401 19.7699 10.1356 19.7699 9.76008C19.7699 9.38452 19.4655 9.08008 19.0899 9.08008C18.7144 9.08008 18.4099 9.38452 18.4099 9.76008C18.4099 10.1356 18.7144 10.4401 19.0899 10.4401Z" fill="#212529"/>
<path d="M22.4901 13.84C22.8656 13.84 23.1701 13.5355 23.1701 13.16C23.1701 12.7844 22.8656 12.48 22.4901 12.48C22.1145 12.48 21.8101 12.7844 21.8101 13.16C21.8101 13.5355 22.1145 13.84 22.4901 13.84Z" fill="#212529"/>
<path d="M20.7899 12.14C21.1654 12.14 21.4699 11.8356 21.4699 11.46C21.4699 11.0845 21.1654 10.78 20.7899 10.78C20.4143 10.78 20.1099 11.0845 20.1099 11.46C20.1099 11.8356 20.4143 12.14 20.7899 12.14Z" fill="#212529"/>
<path d="M17.39 12.14C17.7655 12.14 18.07 11.8356 18.07 11.46C18.07 11.0845 17.7655 10.78 17.39 10.78C17.0144 10.78 16.71 11.0845 16.71 11.46C16.71 11.8356 17.0144 12.14 17.39 12.14Z" fill="#212529"/>
<path d="M22.4901 10.4401C22.8656 10.4401 23.1701 10.1356 23.1701 9.76008C23.1701 9.38452 22.8656 9.08008 22.4901 9.08008C22.1145 9.08008 21.8101 9.38452 21.8101 9.76008C21.8101 10.1356 22.1145 10.4401 22.4901 10.4401Z" fill="#212529"/>
<path d="M20.7899 22.5502C21.1654 22.5502 21.4699 22.2457 21.4699 21.8702C21.4699 21.4946 21.1654 21.1902 20.7899 21.1902C20.4143 21.1902 20.1099 21.4946 20.1099 21.8702C20.1099 22.2457 20.4143 22.5502 20.7899 22.5502Z" fill="#212529"/>
<path d="M17.39 22.5502C17.7655 22.5502 18.07 22.2457 18.07 21.8702C18.07 21.4946 17.7655 21.1902 17.39 21.1902C17.0144 21.1902 16.71 21.4946 16.71 21.8702C16.71 22.2457 17.0144 22.5502 17.39 22.5502Z" fill="#212529"/>
<path d="M19.0899 20.85C19.4655 20.85 19.7699 20.5455 19.7699 20.17C19.7699 19.7944 19.4655 19.49 19.0899 19.49C18.7144 19.49 18.4099 19.7944 18.4099 20.17C18.4099 20.5455 18.7144 20.85 19.0899 20.85Z" fill="#212529"/>
<path d="M19.0899 17.4401C19.4655 17.4401 19.7699 17.1356 19.7699 16.7601C19.7699 16.3845 19.4655 16.0801 19.0899 16.0801C18.7144 16.0801 18.4099 16.3845 18.4099 16.7601C18.4099 17.1356 18.7144 17.4401 19.0899 17.4401Z" fill="#212529"/>
<path d="M22.4901 20.85C22.8656 20.85 23.1701 20.5455 23.1701 20.17C23.1701 19.7944 22.8656 19.49 22.4901 19.49C22.1145 19.49 21.8101 19.7944 21.8101 20.17C21.8101 20.5455 22.1145 20.85 22.4901 20.85Z" fill="#212529"/>
<path d="M20.7899 19.15C21.1654 19.15 21.4699 18.8456 21.4699 18.47C21.4699 18.0945 21.1654 17.79 20.7899 17.79C20.4143 17.79 20.1099 18.0945 20.1099 18.47C20.1099 18.8456 20.4143 19.15 20.7899 19.15Z" fill="#212529"/>
<path d="M17.39 19.15C17.7655 19.15 18.07 18.8456 18.07 18.47C18.07 18.0945 17.7655 17.79 17.39 17.79C17.0144 17.79 16.71 18.0945 16.71 18.47C16.71 18.8456 17.0144 19.15 17.39 19.15Z" fill="#212529"/>
<path d="M22.4901 17.4401C22.8656 17.4401 23.1701 17.1356 23.1701 16.7601C23.1701 16.3845 22.8656 16.0801 22.4901 16.0801C22.1145 16.0801 21.8101 16.3845 21.8101 16.7601C21.8101 17.1356 22.1145 17.4401 22.4901 17.4401Z" fill="#212529"/>
<path d="M20.7899 29.5402C21.1654 29.5402 21.4699 29.2357 21.4699 28.8602C21.4699 28.4846 21.1654 28.1802 20.7899 28.1802C20.4143 28.1802 20.1099 28.4846 20.1099 28.8602C20.1099 29.2357 20.4143 29.5402 20.7899 29.5402Z" fill="#212529"/>
<path d="M17.39 29.5402C17.7655 29.5402 18.07 29.2357 18.07 28.8602C18.07 28.4846 17.7655 28.1802 17.39 28.1802C17.0144 28.1802 16.71 28.4846 16.71 28.8602C16.71 29.2357 17.0144 29.5402 17.39 29.5402Z" fill="#212529"/>
<path d="M19.0899 27.84C19.4655 27.84 19.7699 27.5355 19.7699 27.16C19.7699 26.7844 19.4655 26.48 19.0899 26.48C18.7144 26.48 18.4099 26.7844 18.4099 27.16C18.4099 27.5355 18.7144 27.84 19.0899 27.84Z" fill="#212529"/>
<path d="M19.0899 24.4401C19.4655 24.4401 19.7699 24.1356 19.7699 23.7601C19.7699 23.3845 19.4655 23.0801 19.0899 23.0801C18.7144 23.0801 18.4099 23.3845 18.4099 23.7601C18.4099 24.1356 18.7144 24.4401 19.0899 24.4401Z" fill="#212529"/>
<path d="M22.4901 27.84C22.8656 27.84 23.1701 27.5355 23.1701 27.16C23.1701 26.7844 22.8656 26.48 22.4901 26.48C22.1145 26.48 21.8101 26.7844 21.8101 27.16C21.8101 27.5355 22.1145 27.84 22.4901 27.84Z" fill="#212529"/>
<path d="M20.7899 26.14C21.1654 26.14 21.4699 25.8356 21.4699 25.46C21.4699 25.0845 21.1654 24.78 20.7899 24.78C20.4143 24.78 20.1099 25.0845 20.1099 25.46C20.1099 25.8356 20.4143 26.14 20.7899 26.14Z" fill="#212529"/>
<path d="M17.39 26.14C17.7655 26.14 18.07 25.8356 18.07 25.46C18.07 25.0845 17.7655 24.78 17.39 24.78C17.0144 24.78 16.71 25.0845 16.71 25.46C16.71 25.8356 17.0144 26.14 17.39 26.14Z" fill="#212529"/>
<path d="M22.4901 24.4401C22.8656 24.4401 23.1701 24.1356 23.1701 23.7601C23.1701 23.3845 22.8656 23.0801 22.4901 23.0801C22.1145 23.0801 21.8101 23.3845 21.8101 23.7601C21.8101 24.1356 22.1145 24.4401 22.4901 24.4401Z" fill="#212529"/>
<path d="M20.7899 36.5402C21.1654 36.5402 21.4699 36.2357 21.4699 35.8602C21.4699 35.4846 21.1654 35.1802 20.7899 35.1802C20.4143 35.1802 20.1099 35.4846 20.1099 35.8602C20.1099 36.2357 20.4143 36.5402 20.7899 36.5402Z" fill="#212529"/>
<path d="M17.39 36.5402C17.7655 36.5402 18.07 36.2357 18.07 35.8602C18.07 35.4846 17.7655 35.1802 17.39 35.1802C17.0144 35.1802 16.71 35.4846 16.71 35.8602C16.71 36.2357 17.0144 36.5402 17.39 36.5402Z" fill="#212529"/>
<path d="M19.0899 34.84C19.4655 34.84 19.7699 34.5355 19.7699 34.16C19.7699 33.7844 19.4655 33.48 19.0899 33.48C18.7144 33.48 18.4099 33.7844 18.4099 34.16C18.4099 34.5355 18.7144 34.84 19.0899 34.84Z" fill="#212529"/>
<path d="M19.0899 31.4401C19.4655 31.4401 19.7699 31.1356 19.7699 30.7601C19.7699 30.3845 19.4655 30.0801 19.0899 30.0801C18.7144 30.0801 18.4099 30.3845 18.4099 30.7601C18.4099 31.1356 18.7144 31.4401 19.0899 31.4401Z" fill="#212529"/>
<path d="M22.4901 34.84C22.8656 34.84 23.1701 34.5355 23.1701 34.16C23.1701 33.7844 22.8656 33.48 22.4901 33.48C22.1145 33.48 21.8101 33.7844 21.8101 34.16C21.8101 34.5355 22.1145 34.84 22.4901 34.84Z" fill="#212529"/>
<path d="M20.7899 33.14C21.1654 33.14 21.4699 32.8356 21.4699 32.46C21.4699 32.0845 21.1654 31.78 20.7899 31.78C20.4143 31.78 20.1099 32.0845 20.1099 32.46C20.1099 32.8356 20.4143 33.14 20.7899 33.14Z" fill="#212529"/>
<path d="M17.39 33.14C17.7655 33.14 18.07 32.8356 18.07 32.46C18.07 32.0845 17.7655 31.78 17.39 31.78C17.0144 31.78 16.71 32.0845 16.71 32.46C16.71 32.8356 17.0144 33.14 17.39 33.14Z" fill="#212529"/>
<path d="M22.4901 31.4401C22.8656 31.4401 23.1701 31.1356 23.1701 30.7601C23.1701 30.3845 22.8656 30.0801 22.4901 30.0801C22.1145 30.0801 21.8101 30.3845 21.8101 30.7601C21.8101 31.1356 22.1145 31.4401 22.4901 31.4401Z" fill="#212529"/>
<path d="M19.0899 38.4401C19.4655 38.4401 19.7699 38.1356 19.7699 37.7601C19.7699 37.3845 19.4655 37.0801 19.0899 37.0801C18.7144 37.0801 18.4099 37.3845 18.4099 37.7601C18.4099 38.1356 18.7144 38.4401 19.0899 38.4401Z" fill="#212529"/>
<path d="M20.7899 40.14C21.1654 40.14 21.4699 39.8356 21.4699 39.46C21.4699 39.0845 21.1654 38.78 20.7899 38.78C20.4143 38.78 20.1099 39.0845 20.1099 39.46C20.1099 39.8356 20.4143 40.14 20.7899 40.14Z" fill="#212529"/>
<path d="M17.39 40.14C17.7655 40.14 18.07 39.8356 18.07 39.46C18.07 39.0845 17.7655 38.78 17.39 38.78C17.0144 38.78 16.71 39.0845 16.71 39.46C16.71 39.8356 17.0144 40.14 17.39 40.14Z" fill="#212529"/>
<path d="M22.4901 38.4401C22.8656 38.4401 23.1701 38.1356 23.1701 37.7601C23.1701 37.3845 22.8656 37.0801 22.4901 37.0801C22.1145 37.0801 21.8101 37.3845 21.8101 37.7601C21.8101 38.1356 22.1145 38.4401 22.4901 38.4401Z" fill="#212529"/>
<path d="M14.3299 8.55019C14.7055 8.55019 15.0099 8.24574 15.0099 7.87019C15.0099 7.49463 14.7055 7.19019 14.3299 7.19019C13.9543 7.19019 13.6499 7.49463 13.6499 7.87019C13.6499 8.24574 13.9543 8.55019 14.3299 8.55019Z" fill="#212529"/>
<path d="M10.93 8.55019C11.3056 8.55019 11.61 8.24574 11.61 7.87019C11.61 7.49463 11.3056 7.19019 10.93 7.19019C10.5544 7.19019 10.25 7.49463 10.25 7.87019C10.25 8.24574 10.5544 8.55019 10.93 8.55019Z" fill="#212529"/>
<path d="M12.63 6.83998C13.0055 6.83998 13.31 6.53553 13.31 6.15998C13.31 5.78443 13.0055 5.47998 12.63 5.47998C12.2544 5.47998 11.95 5.78443 11.95 6.15998C11.95 6.53553 12.2544 6.83998 12.63 6.83998Z" fill="#212529"/>
<path d="M16.0301 6.83998C16.4057 6.83998 16.7101 6.53553 16.7101 6.15998C16.7101 5.78443 16.4057 5.47998 16.0301 5.47998C15.6545 5.47998 15.3501 5.78443 15.3501 6.15998C15.3501 6.53553 15.6545 6.83998 16.0301 6.83998Z" fill="#212529"/>
<path d="M14.3299 5.14003C14.7055 5.14003 15.0099 4.83558 15.0099 4.46003C15.0099 4.08448 14.7055 3.78003 14.3299 3.78003C13.9543 3.78003 13.6499 4.08448 13.6499 4.46003C13.6499 4.83558 13.9543 5.14003 14.3299 5.14003Z" fill="#212529"/>
<path d="M10.93 5.14003C11.3056 5.14003 11.61 4.83558 11.61 4.46003C11.61 4.08448 11.3056 3.78003 10.93 3.78003C10.5544 3.78003 10.25 4.08448 10.25 4.46003C10.25 4.83558 10.5544 5.14003 10.93 5.14003Z" fill="#212529"/>
<path d="M14.3299 15.5402C14.7055 15.5402 15.0099 15.2357 15.0099 14.8602C15.0099 14.4846 14.7055 14.1802 14.3299 14.1802C13.9543 14.1802 13.6499 14.4846 13.6499 14.8602C13.6499 15.2357 13.9543 15.5402 14.3299 15.5402Z" fill="#212529"/>
<path d="M10.93 15.5402C11.3056 15.5402 11.61 15.2357 11.61 14.8602C11.61 14.4846 11.3056 14.1802 10.93 14.1802C10.5544 14.1802 10.25 14.4846 10.25 14.8602C10.25 15.2357 10.5544 15.5402 10.93 15.5402Z" fill="#212529"/>
<path d="M12.63 13.84C13.0055 13.84 13.31 13.5355 13.31 13.16C13.31 12.7844 13.0055 12.48 12.63 12.48C12.2544 12.48 11.95 12.7844 11.95 13.16C11.95 13.5355 12.2544 13.84 12.63 13.84Z" fill="#212529"/>
<path d="M12.63 10.4401C13.0055 10.4401 13.31 10.1356 13.31 9.76008C13.31 9.38452 13.0055 9.08008 12.63 9.08008C12.2544 9.08008 11.95 9.38452 11.95 9.76008C11.95 10.1356 12.2544 10.4401 12.63 10.4401Z" fill="#212529"/>
<path d="M16.0301 13.84C16.4057 13.84 16.7101 13.5355 16.7101 13.16C16.7101 12.7844 16.4057 12.48 16.0301 12.48C15.6545 12.48 15.3501 12.7844 15.3501 13.16C15.3501 13.5355 15.6545 13.84 16.0301 13.84Z" fill="#212529"/>
<path d="M14.3299 12.14C14.7055 12.14 15.0099 11.8356 15.0099 11.46C15.0099 11.0845 14.7055 10.78 14.3299 10.78C13.9543 10.78 13.6499 11.0845 13.6499 11.46C13.6499 11.8356 13.9543 12.14 14.3299 12.14Z" fill="#212529"/>
<path d="M10.93 12.14C11.3056 12.14 11.61 11.8356 11.61 11.46C11.61 11.0845 11.3056 10.78 10.93 10.78C10.5544 10.78 10.25 11.0845 10.25 11.46C10.25 11.8356 10.5544 12.14 10.93 12.14Z" fill="#212529"/>
<path d="M16.0301 10.4401C16.4057 10.4401 16.7101 10.1356 16.7101 9.76008C16.7101 9.38452 16.4057 9.08008 16.0301 9.08008C15.6545 9.08008 15.3501 9.38452 15.3501 9.76008C15.3501 10.1356 15.6545 10.4401 16.0301 10.4401Z" fill="#212529"/>
<path d="M14.3299 22.5502C14.7055 22.5502 15.0099 22.2457 15.0099 21.8702C15.0099 21.4946 14.7055 21.1902 14.3299 21.1902C13.9543 21.1902 13.6499 21.4946 13.6499 21.8702C13.6499 22.2457 13.9543 22.5502 14.3299 22.5502Z" fill="#212529"/>
<path d="M10.93 22.5502C11.3056 22.5502 11.61 22.2457 11.61 21.8702C11.61 21.4946 11.3056 21.1902 10.93 21.1902C10.5544 21.1902 10.25 21.4946 10.25 21.8702C10.25 22.2457 10.5544 22.5502 10.93 22.5502Z" fill="#212529"/>
<path d="M12.63 20.85C13.0055 20.85 13.31 20.5455 13.31 20.17C13.31 19.7944 13.0055 19.49 12.63 19.49C12.2544 19.49 11.95 19.7944 11.95 20.17C11.95 20.5455 12.2544 20.85 12.63 20.85Z" fill="#212529"/>
<path d="M12.63 17.4401C13.0055 17.4401 13.31 17.1356 13.31 16.7601C13.31 16.3845 13.0055 16.0801 12.63 16.0801C12.2544 16.0801 11.95 16.3845 11.95 16.7601C11.95 17.1356 12.2544 17.4401 12.63 17.4401Z" fill="#212529"/>
<path d="M16.0301 20.85C16.4057 20.85 16.7101 20.5455 16.7101 20.17C16.7101 19.7944 16.4057 19.49 16.0301 19.49C15.6545 19.49 15.3501 19.7944 15.3501 20.17C15.3501 20.5455 15.6545 20.85 16.0301 20.85Z" fill="#212529"/>
<path d="M14.3299 19.15C14.7055 19.15 15.0099 18.8456 15.0099 18.47C15.0099 18.0945 14.7055 17.79 14.3299 17.79C13.9543 17.79 13.6499 18.0945 13.6499 18.47C13.6499 18.8456 13.9543 19.15 14.3299 19.15Z" fill="#212529"/>
<path d="M10.93 19.15C11.3056 19.15 11.61 18.8456 11.61 18.47C11.61 18.0945 11.3056 17.79 10.93 17.79C10.5544 17.79 10.25 18.0945 10.25 18.47C10.25 18.8456 10.5544 19.15 10.93 19.15Z" fill="#212529"/>
<path d="M16.0301 17.4401C16.4057 17.4401 16.7101 17.1356 16.7101 16.7601C16.7101 16.3845 16.4057 16.0801 16.0301 16.0801C15.6545 16.0801 15.3501 16.3845 15.3501 16.7601C15.3501 17.1356 15.6545 17.4401 16.0301 17.4401Z" fill="#212529"/>
<path d="M14.3299 29.5402C14.7055 29.5402 15.0099 29.2357 15.0099 28.8602C15.0099 28.4846 14.7055 28.1802 14.3299 28.1802C13.9543 28.1802 13.6499 28.4846 13.6499 28.8602C13.6499 29.2357 13.9543 29.5402 14.3299 29.5402Z" fill="#212529"/>
<path d="M10.93 29.5402C11.3056 29.5402 11.61 29.2357 11.61 28.8602C11.61 28.4846 11.3056 28.1802 10.93 28.1802C10.5544 28.1802 10.25 28.4846 10.25 28.8602C10.25 29.2357 10.5544 29.5402 10.93 29.5402Z" fill="#212529"/>
<path d="M12.63 27.84C13.0055 27.84 13.31 27.5355 13.31 27.16C13.31 26.7844 13.0055 26.48 12.63 26.48C12.2544 26.48 11.95 26.7844 11.95 27.16C11.95 27.5355 12.2544 27.84 12.63 27.84Z" fill="#212529"/>
<path d="M12.63 24.4401C13.0055 24.4401 13.31 24.1356 13.31 23.7601C13.31 23.3845 13.0055 23.0801 12.63 23.0801C12.2544 23.0801 11.95 23.3845 11.95 23.7601C11.95 24.1356 12.2544 24.4401 12.63 24.4401Z" fill="#212529"/>
<path d="M16.0301 27.84C16.4057 27.84 16.7101 27.5355 16.7101 27.16C16.7101 26.7844 16.4057 26.48 16.0301 26.48C15.6545 26.48 15.3501 26.7844 15.3501 27.16C15.3501 27.5355 15.6545 27.84 16.0301 27.84Z" fill="#212529"/>
<path d="M14.3299 26.14C14.7055 26.14 15.0099 25.8356 15.0099 25.46C15.0099 25.0845 14.7055 24.78 14.3299 24.78C13.9543 24.78 13.6499 25.0845 13.6499 25.46C13.6499 25.8356 13.9543 26.14 14.3299 26.14Z" fill="#212529"/>
<path d="M10.93 26.14C11.3056 26.14 11.61 25.8356 11.61 25.46C11.61 25.0845 11.3056 24.78 10.93 24.78C10.5544 24.78 10.25 25.0845 10.25 25.46C10.25 25.8356 10.5544 26.14 10.93 26.14Z" fill="#212529"/>
<path d="M16.0301 24.4401C16.4057 24.4401 16.7101 24.1356 16.7101 23.7601C16.7101 23.3845 16.4057 23.0801 16.0301 23.0801C15.6545 23.0801 15.3501 23.3845 15.3501 23.7601C15.3501 24.1356 15.6545 24.4401 16.0301 24.4401Z" fill="#212529"/>
<path d="M14.3299 36.5402C14.7055 36.5402 15.0099 36.2357 15.0099 35.8602C15.0099 35.4846 14.7055 35.1802 14.3299 35.1802C13.9543 35.1802 13.6499 35.4846 13.6499 35.8602C13.6499 36.2357 13.9543 36.5402 14.3299 36.5402Z" fill="#212529"/>
<path d="M10.93 36.5402C11.3056 36.5402 11.61 36.2357 11.61 35.8602C11.61 35.4846 11.3056 35.1802 10.93 35.1802C10.5544 35.1802 10.25 35.4846 10.25 35.8602C10.25 36.2357 10.5544 36.5402 10.93 36.5402Z" fill="#212529"/>
<path d="M12.63 34.84C13.0055 34.84 13.31 34.5355 13.31 34.16C13.31 33.7844 13.0055 33.48 12.63 33.48C12.2544 33.48 11.95 33.7844 11.95 34.16C11.95 34.5355 12.2544 34.84 12.63 34.84Z" fill="#212529"/>
<path d="M12.63 31.4401C13.0055 31.4401 13.31 31.1356 13.31 30.7601C13.31 30.3845 13.0055 30.0801 12.63 30.0801C12.2544 30.0801 11.95 30.3845 11.95 30.7601C11.95 31.1356 12.2544 31.4401 12.63 31.4401Z" fill="#212529"/>
<path d="M16.0301 34.84C16.4057 34.84 16.7101 34.5355 16.7101 34.16C16.7101 33.7844 16.4057 33.48 16.0301 33.48C15.6545 33.48 15.3501 33.7844 15.3501 34.16C15.3501 34.5355 15.6545 34.84 16.0301 34.84Z" fill="#212529"/>
<path d="M14.3299 33.14C14.7055 33.14 15.0099 32.8356 15.0099 32.46C15.0099 32.0845 14.7055 31.78 14.3299 31.78C13.9543 31.78 13.6499 32.0845 13.6499 32.46C13.6499 32.8356 13.9543 33.14 14.3299 33.14Z" fill="#212529"/>
<path d="M10.93 33.14C11.3056 33.14 11.61 32.8356 11.61 32.46C11.61 32.0845 11.3056 31.78 10.93 31.78C10.5544 31.78 10.25 32.0845 10.25 32.46C10.25 32.8356 10.5544 33.14 10.93 33.14Z" fill="#212529"/>
<path d="M16.0301 31.4401C16.4057 31.4401 16.7101 31.1356 16.7101 30.7601C16.7101 30.3845 16.4057 30.0801 16.0301 30.0801C15.6545 30.0801 15.3501 30.3845 15.3501 30.7601C15.3501 31.1356 15.6545 31.4401 16.0301 31.4401Z" fill="#212529"/>
<path d="M12.63 38.4401C13.0055 38.4401 13.31 38.1356 13.31 37.7601C13.31 37.3845 13.0055 37.0801 12.63 37.0801C12.2544 37.0801 11.95 37.3845 11.95 37.7601C11.95 38.1356 12.2544 38.4401 12.63 38.4401Z" fill="#212529"/>
<path d="M14.3299 40.14C14.7055 40.14 15.0099 39.8356 15.0099 39.46C15.0099 39.0845 14.7055 38.78 14.3299 38.78C13.9543 38.78 13.6499 39.0845 13.6499 39.46C13.6499 39.8356 13.9543 40.14 14.3299 40.14Z" fill="#212529"/>
<path d="M10.93 40.14C11.3056 40.14 11.61 39.8356 11.61 39.46C11.61 39.0845 11.3056 38.78 10.93 38.78C10.5544 38.78 10.25 39.0845 10.25 39.46C10.25 39.8356 10.5544 40.14 10.93 40.14Z" fill="#212529"/>
<path d="M16.0301 38.4401C16.4057 38.4401 16.7101 38.1356 16.7101 37.7601C16.7101 37.3845 16.4057 37.0801 16.0301 37.0801C15.6545 37.0801 15.3501 37.3845 15.3501 37.7601C15.3501 38.1356 15.6545 38.4401 16.0301 38.4401Z" fill="#212529"/>
<path d="M7.86994 8.55019C8.24549 8.55019 8.54994 8.24574 8.54994 7.87019C8.54994 7.49463 8.24549 7.19019 7.86994 7.19019C7.49439 7.19019 7.18994 7.49463 7.18994 7.87019C7.18994 8.24574 7.49439 8.55019 7.86994 8.55019Z" fill="#212529"/>
<path d="M4.46003 8.55019C4.83558 8.55019 5.14003 8.24574 5.14003 7.87019C5.14003 7.49463 4.83558 7.19019 4.46003 7.19019C4.08448 7.19019 3.78003 7.49463 3.78003 7.87019C3.78003 8.24574 4.08448 8.55019 4.46003 8.55019Z" fill="#212529"/>
<path d="M6.15998 6.83998C6.53553 6.83998 6.83998 6.53553 6.83998 6.15998C6.83998 5.78443 6.53553 5.47998 6.15998 5.47998C5.78443 5.47998 5.47998 5.78443 5.47998 6.15998C5.47998 6.53553 5.78443 6.83998 6.15998 6.83998Z" fill="#212529"/>
<path d="M9.57014 6.83998C9.94569 6.83998 10.2501 6.53553 10.2501 6.15998C10.2501 5.78443 9.94569 5.47998 9.57014 5.47998C9.19458 5.47998 8.89014 5.78443 8.89014 6.15998C8.89014 6.53553 9.19458 6.83998 9.57014 6.83998Z" fill="#212529"/>
<path d="M7.86994 5.14003C8.24549 5.14003 8.54994 4.83558 8.54994 4.46003C8.54994 4.08448 8.24549 3.78003 7.86994 3.78003C7.49439 3.78003 7.18994 4.08448 7.18994 4.46003C7.18994 4.83558 7.49439 5.14003 7.86994 5.14003Z" fill="#212529"/>
<path d="M4.46003 5.14003C4.83558 5.14003 5.14003 4.83558 5.14003 4.46003C5.14003 4.08448 4.83558 3.78003 4.46003 3.78003C4.08448 3.78003 3.78003 4.08448 3.78003 4.46003C3.78003 4.83558 4.08448 5.14003 4.46003 5.14003Z" fill="#212529"/>
<path d="M7.86994 15.5402C8.24549 15.5402 8.54994 15.2357 8.54994 14.8602C8.54994 14.4846 8.24549 14.1802 7.86994 14.1802C7.49439 14.1802 7.18994 14.4846 7.18994 14.8602C7.18994 15.2357 7.49439 15.5402 7.86994 15.5402Z" fill="#212529"/>
<path d="M4.46003 15.5402C4.83558 15.5402 5.14003 15.2357 5.14003 14.8602C5.14003 14.4846 4.83558 14.1802 4.46003 14.1802C4.08448 14.1802 3.78003 14.4846 3.78003 14.8602C3.78003 15.2357 4.08448 15.5402 4.46003 15.5402Z" fill="#212529"/>
<path d="M6.15998 13.84C6.53553 13.84 6.83998 13.5355 6.83998 13.16C6.83998 12.7844 6.53553 12.48 6.15998 12.48C5.78443 12.48 5.47998 12.7844 5.47998 13.16C5.47998 13.5355 5.78443 13.84 6.15998 13.84Z" fill="#212529"/>
<path d="M6.15998 10.4401C6.53553 10.4401 6.83998 10.1356 6.83998 9.76008C6.83998 9.38452 6.53553 9.08008 6.15998 9.08008C5.78443 9.08008 5.47998 9.38452 5.47998 9.76008C5.47998 10.1356 5.78443 10.4401 6.15998 10.4401Z" fill="#212529"/>
<path d="M9.57014 13.84C9.94569 13.84 10.2501 13.5355 10.2501 13.16C10.2501 12.7844 9.94569 12.48 9.57014 12.48C9.19458 12.48 8.89014 12.7844 8.89014 13.16C8.89014 13.5355 9.19458 13.84 9.57014 13.84Z" fill="#212529"/>
<path d="M7.86994 12.14C8.24549 12.14 8.54994 11.8356 8.54994 11.46C8.54994 11.0845 8.24549 10.78 7.86994 10.78C7.49439 10.78 7.18994 11.0845 7.18994 11.46C7.18994 11.8356 7.49439 12.14 7.86994 12.14Z" fill="#212529"/>
<path d="M4.46003 12.14C4.83558 12.14 5.14003 11.8356 5.14003 11.46C5.14003 11.0845 4.83558 10.78 4.46003 10.78C4.08448 10.78 3.78003 11.0845 3.78003 11.46C3.78003 11.8356 4.08448 12.14 4.46003 12.14Z" fill="#212529"/>
<path d="M9.57014 10.4401C9.94569 10.4401 10.2501 10.1356 10.2501 9.76008C10.2501 9.38452 9.94569 9.08008 9.57014 9.08008C9.19458 9.08008 8.89014 9.38452 8.89014 9.76008C8.89014 10.1356 9.19458 10.4401 9.57014 10.4401Z" fill="#212529"/>
<path d="M7.86994 22.5502C8.24549 22.5502 8.54994 22.2457 8.54994 21.8702C8.54994 21.4946 8.24549 21.1902 7.86994 21.1902C7.49439 21.1902 7.18994 21.4946 7.18994 21.8702C7.18994 22.2457 7.49439 22.5502 7.86994 22.5502Z" fill="#212529"/>
<path d="M4.46003 22.5502C4.83558 22.5502 5.14003 22.2457 5.14003 21.8702C5.14003 21.4946 4.83558 21.1902 4.46003 21.1902C4.08448 21.1902 3.78003 21.4946 3.78003 21.8702C3.78003 22.2457 4.08448 22.5502 4.46003 22.5502Z" fill="#212529"/>
<path d="M6.15998 20.85C6.53553 20.85 6.83998 20.5455 6.83998 20.17C6.83998 19.7944 6.53553 19.49 6.15998 19.49C5.78443 19.49 5.47998 19.7944 5.47998 20.17C5.47998 20.5455 5.78443 20.85 6.15998 20.85Z" fill="#212529"/>
<path d="M6.15998 17.4401C6.53553 17.4401 6.83998 17.1356 6.83998 16.7601C6.83998 16.3845 6.53553 16.0801 6.15998 16.0801C5.78443 16.0801 5.47998 16.3845 5.47998 16.7601C5.47998 17.1356 5.78443 17.4401 6.15998 17.4401Z" fill="#212529"/>
<path d="M9.57014 20.85C9.94569 20.85 10.2501 20.5455 10.2501 20.17C10.2501 19.7944 9.94569 19.49 9.57014 19.49C9.19458 19.49 8.89014 19.7944 8.89014 20.17C8.89014 20.5455 9.19458 20.85 9.57014 20.85Z" fill="#212529"/>
<path d="M7.86994 19.15C8.24549 19.15 8.54994 18.8456 8.54994 18.47C8.54994 18.0945 8.24549 17.79 7.86994 17.79C7.49439 17.79 7.18994 18.0945 7.18994 18.47C7.18994 18.8456 7.49439 19.15 7.86994 19.15Z" fill="#212529"/>
<path d="M4.46003 19.15C4.83558 19.15 5.14003 18.8456 5.14003 18.47C5.14003 18.0945 4.83558 17.79 4.46003 17.79C4.08448 17.79 3.78003 18.0945 3.78003 18.47C3.78003 18.8456 4.08448 19.15 4.46003 19.15Z" fill="#212529"/>
<path d="M9.57014 17.4401C9.94569 17.4401 10.2501 17.1356 10.2501 16.7601C10.2501 16.3845 9.94569 16.0801 9.57014 16.0801C9.19458 16.0801 8.89014 16.3845 8.89014 16.7601C8.89014 17.1356 9.19458 17.4401 9.57014 17.4401Z" fill="#212529"/>
<path d="M7.86994 29.5402C8.24549 29.5402 8.54994 29.2357 8.54994 28.8602C8.54994 28.4846 8.24549 28.1802 7.86994 28.1802C7.49439 28.1802 7.18994 28.4846 7.18994 28.8602C7.18994 29.2357 7.49439 29.5402 7.86994 29.5402Z" fill="#212529"/>
<path d="M4.46003 29.5402C4.83558 29.5402 5.14003 29.2357 5.14003 28.8602C5.14003 28.4846 4.83558 28.1802 4.46003 28.1802C4.08448 28.1802 3.78003 28.4846 3.78003 28.8602C3.78003 29.2357 4.08448 29.5402 4.46003 29.5402Z" fill="#212529"/>
<path d="M6.15998 27.84C6.53553 27.84 6.83998 27.5355 6.83998 27.16C6.83998 26.7844 6.53553 26.48 6.15998 26.48C5.78443 26.48 5.47998 26.7844 5.47998 27.16C5.47998 27.5355 5.78443 27.84 6.15998 27.84Z" fill="#212529"/>
<path d="M6.15998 24.4401C6.53553 24.4401 6.83998 24.1356 6.83998 23.7601C6.83998 23.3845 6.53553 23.0801 6.15998 23.0801C5.78443 23.0801 5.47998 23.3845 5.47998 23.7601C5.47998 24.1356 5.78443 24.4401 6.15998 24.4401Z" fill="#212529"/>
<path d="M9.57014 27.84C9.94569 27.84 10.2501 27.5355 10.2501 27.16C10.2501 26.7844 9.94569 26.48 9.57014 26.48C9.19458 26.48 8.89014 26.7844 8.89014 27.16C8.89014 27.5355 9.19458 27.84 9.57014 27.84Z" fill="#212529"/>
<path d="M7.86994 26.14C8.24549 26.14 8.54994 25.8356 8.54994 25.46C8.54994 25.0845 8.24549 24.78 7.86994 24.78C7.49439 24.78 7.18994 25.0845 7.18994 25.46C7.18994 25.8356 7.49439 26.14 7.86994 26.14Z" fill="#212529"/>
<path d="M4.46003 26.14C4.83558 26.14 5.14003 25.8356 5.14003 25.46C5.14003 25.0845 4.83558 24.78 4.46003 24.78C4.08448 24.78 3.78003 25.0845 3.78003 25.46C3.78003 25.8356 4.08448 26.14 4.46003 26.14Z" fill="#212529"/>
<path d="M9.57014 24.4401C9.94569 24.4401 10.2501 24.1356 10.2501 23.7601C10.2501 23.3845 9.94569 23.0801 9.57014 23.0801C9.19458 23.0801 8.89014 23.3845 8.89014 23.7601C8.89014 24.1356 9.19458 24.4401 9.57014 24.4401Z" fill="#212529"/>
<path d="M7.86994 36.5402C8.24549 36.5402 8.54994 36.2357 8.54994 35.8602C8.54994 35.4846 8.24549 35.1802 7.86994 35.1802C7.49439 35.1802 7.18994 35.4846 7.18994 35.8602C7.18994 36.2357 7.49439 36.5402 7.86994 36.5402Z" fill="#212529"/>
<path d="M4.46003 36.5402C4.83558 36.5402 5.14003 36.2357 5.14003 35.8602C5.14003 35.4846 4.83558 35.1802 4.46003 35.1802C4.08448 35.1802 3.78003 35.4846 3.78003 35.8602C3.78003 36.2357 4.08448 36.5402 4.46003 36.5402Z" fill="#212529"/>
<path d="M6.15998 34.84C6.53553 34.84 6.83998 34.5355 6.83998 34.16C6.83998 33.7844 6.53553 33.48 6.15998 33.48C5.78443 33.48 5.47998 33.7844 5.47998 34.16C5.47998 34.5355 5.78443 34.84 6.15998 34.84Z" fill="#212529"/>
<path d="M6.15998 31.4401C6.53553 31.4401 6.83998 31.1356 6.83998 30.7601C6.83998 30.3845 6.53553 30.0801 6.15998 30.0801C5.78443 30.0801 5.47998 30.3845 5.47998 30.7601C5.47998 31.1356 5.78443 31.4401 6.15998 31.4401Z" fill="#212529"/>
<path d="M9.57014 34.84C9.94569 34.84 10.2501 34.5355 10.2501 34.16C10.2501 33.7844 9.94569 33.48 9.57014 33.48C9.19458 33.48 8.89014 33.7844 8.89014 34.16C8.89014 34.5355 9.19458 34.84 9.57014 34.84Z" fill="#212529"/>
<path d="M7.86994 33.14C8.24549 33.14 8.54994 32.8356 8.54994 32.46C8.54994 32.0845 8.24549 31.78 7.86994 31.78C7.49439 31.78 7.18994 32.0845 7.18994 32.46C7.18994 32.8356 7.49439 33.14 7.86994 33.14Z" fill="#212529"/>
<path d="M4.46003 33.14C4.83558 33.14 5.14003 32.8356 5.14003 32.46C5.14003 32.0845 4.83558 31.78 4.46003 31.78C4.08448 31.78 3.78003 32.0845 3.78003 32.46C3.78003 32.8356 4.08448 33.14 4.46003 33.14Z" fill="#212529"/>
<path d="M9.57014 31.4401C9.94569 31.4401 10.2501 31.1356 10.2501 30.7601C10.2501 30.3845 9.94569 30.0801 9.57014 30.0801C9.19458 30.0801 8.89014 30.3845 8.89014 30.7601C8.89014 31.1356 9.19458 31.4401 9.57014 31.4401Z" fill="#212529"/>
<path d="M6.15998 38.4401C6.53553 38.4401 6.83998 38.1356 6.83998 37.7601C6.83998 37.3845 6.53553 37.0801 6.15998 37.0801C5.78443 37.0801 5.47998 37.3845 5.47998 37.7601C5.47998 38.1356 5.78443 38.4401 6.15998 38.4401Z" fill="#212529"/>
<path d="M7.86994 40.14C8.24549 40.14 8.54994 39.8356 8.54994 39.46C8.54994 39.0845 8.24549 38.78 7.86994 38.78C7.49439 38.78 7.18994 39.0845 7.18994 39.46C7.18994 39.8356 7.49439 40.14 7.86994 40.14Z" fill="#212529"/>
<path d="M4.46003 40.14C4.83558 40.14 5.14003 39.8356 5.14003 39.46C5.14003 39.0845 4.83558 38.78 4.46003 38.78C4.08448 38.78 3.78003 39.0845 3.78003 39.46C3.78003 39.8356 4.08448 40.14 4.46003 40.14Z" fill="#212529"/>
<path d="M9.57014 38.4401C9.94569 38.4401 10.2501 38.1356 10.2501 37.7601C10.2501 37.3845 9.94569 37.0801 9.57014 37.0801C9.19458 37.0801 8.89014 37.3845 8.89014 37.7601C8.89014 38.1356 9.19458 38.4401 9.57014 38.4401Z" fill="#212529"/>
<path d="M3.09992 6.83998C3.47548 6.83998 3.77992 6.53553 3.77992 6.15998C3.77992 5.78443 3.47548 5.47998 3.09992 5.47998C2.72437 5.47998 2.41992 5.78443 2.41992 6.15998C2.41992 6.53553 2.72437 6.83998 3.09992 6.83998Z" fill="#212529"/>
<path d="M3.09992 13.84C3.47548 13.84 3.77992 13.5355 3.77992 13.16C3.77992 12.7844 3.47548 12.48 3.09992 12.48C2.72437 12.48 2.41992 12.7844 2.41992 13.16C2.41992 13.5355 2.72437 13.84 3.09992 13.84Z" fill="#212529"/>
<path d="M3.09992 10.4401C3.47548 10.4401 3.77992 10.1356 3.77992 9.76008C3.77992 9.38452 3.47548 9.08008 3.09992 9.08008C2.72437 9.08008 2.41992 9.38452 2.41992 9.76008C2.41992 10.1356 2.72437 10.4401 3.09992 10.4401Z" fill="#212529"/>
<path d="M3.09992 20.85C3.47548 20.85 3.77992 20.5455 3.77992 20.17C3.77992 19.7944 3.47548 19.49 3.09992 19.49C2.72437 19.49 2.41992 19.7944 2.41992 20.17C2.41992 20.5455 2.72437 20.85 3.09992 20.85Z" fill="#212529"/>
<path d="M3.09992 17.4401C3.47548 17.4401 3.77992 17.1356 3.77992 16.7601C3.77992 16.3845 3.47548 16.0801 3.09992 16.0801C2.72437 16.0801 2.41992 16.3845 2.41992 16.7601C2.41992 17.1356 2.72437 17.4401 3.09992 17.4401Z" fill="#212529"/>
<path d="M3.09992 27.84C3.47548 27.84 3.77992 27.5355 3.77992 27.16C3.77992 26.7844 3.47548 26.48 3.09992 26.48C2.72437 26.48 2.41992 26.7844 2.41992 27.16C2.41992 27.5355 2.72437 27.84 3.09992 27.84Z" fill="#212529"/>
<path d="M3.09992 24.4401C3.47548 24.4401 3.77992 24.1356 3.77992 23.7601C3.77992 23.3845 3.47548 23.0801 3.09992 23.0801C2.72437 23.0801 2.41992 23.3845 2.41992 23.7601C2.41992 24.1356 2.72437 24.4401 3.09992 24.4401Z" fill="#212529"/>
<path d="M3.09992 34.84C3.47548 34.84 3.77992 34.5355 3.77992 34.16C3.77992 33.7844 3.47548 33.48 3.09992 33.48C2.72437 33.48 2.41992 33.7844 2.41992 34.16C2.41992 34.5355 2.72437 34.84 3.09992 34.84Z" fill="#212529"/>
<path d="M3.09992 31.4401C3.47548 31.4401 3.77992 31.1356 3.77992 30.7601C3.77992 30.3845 3.47548 30.0801 3.09992 30.0801C2.72437 30.0801 2.41992 30.3845 2.41992 30.7601C2.41992 31.1356 2.72437 31.4401 3.09992 31.4401Z" fill="#212529"/>
<path d="M3.09992 38.4401C3.47548 38.4401 3.77992 38.1356 3.77992 37.7601C3.77992 37.3845 3.47548 37.0801 3.09992 37.0801C2.72437 37.0801 2.41992 37.3845 2.41992 37.7601C2.41992 38.1356 2.72437 38.4401 3.09992 38.4401Z" fill="#212529"/>
</g>
<path d="M2.93 42C2.74745 41.9963 2.56993 41.9396 2.4191 41.8367C2.26828 41.7338 2.15068 41.5892 2.08069 41.4206C2.01069 41.2519 1.99132 41.0666 2.02493 40.8871C2.05855 40.7076 2.14371 40.5419 2.27 40.41C3.77 38.91 4.81 35.73 5.21 31.41C3.13221 28.5187 2.0099 25.0504 2 21.49C2 11.3 11.2 3 22.5 3C33.8 3 43 11.3 43 21.49C43 31.68 33.8 40 22.5 40C19.6799 40.01 16.8837 39.484 14.26 38.45C10.7406 40.2247 6.95917 41.4233 3.06 42H2.93ZM22.5 4.88C12.22 4.88 3.86 12.33 3.86 21.49C3.87295 24.7769 4.94612 27.9718 6.92 30.6C7.05362 30.7816 7.1175 31.0052 7.1 31.23C6.93554 34.1662 6.22329 37.0457 5 39.72C8.03694 39.1184 10.9641 38.0561 13.68 36.57C13.8085 36.498 13.9514 36.4553 14.0983 36.4449C14.2452 36.4346 14.3926 36.4568 14.53 36.51C17.0611 37.5777 19.783 38.1187 22.53 38.1C32.81 38.1 41.17 30.65 41.17 21.49C41.17 12.33 32.78 4.88 22.5 4.88Z" fill="#212529"/>
</svg>
