<svg width="45" height="45" viewBox="0 0 45 45" fill="none" xmlns="http://www.w3.org/2000/svg">
<mask id="mask0_30_1849" style="mask-type:alpha" maskUnits="userSpaceOnUse" x="0" y="2" width="45" height="29">
<path d="M19 30.49H18.94C18.7676 30.4808 18.6013 30.4222 18.4613 30.3211C18.3212 30.22 18.2131 30.0808 18.15 29.92L14 19.58L10.78 26.67C10.7086 26.8305 10.5922 26.9669 10.4449 27.0628C10.2976 27.1586 10.1258 27.2097 9.95005 27.21H5.54005C5.40392 27.2094 5.26962 27.1786 5.14684 27.1198C5.02407 27.061 4.91587 26.9757 4.83005 26.87C2.98778 24.5805 1.67935 21.909 1.00005 19.05C0.590135 17.5397 0.461328 15.9669 0.620046 14.41C1.22005 7.31998 6.23005 2.18998 12.51 2.18998C14.3887 2.18517 16.2392 2.64679 17.8956 3.53342C19.5519 4.42005 20.9622 5.70396 22 7.26998C22.0487 7.34093 22.1125 7.40017 22.1869 7.44341C22.2613 7.48665 22.3443 7.51281 22.43 7.51998C22.5182 7.51742 22.6044 7.49329 22.6811 7.44971C22.7578 7.40613 22.8227 7.34442 22.87 7.26998C23.9591 5.71261 25.4054 4.43873 27.0877 3.55492C28.7701 2.67111 30.6397 2.20307 32.54 2.18998C38.82 2.18998 43.83 7.31998 44.48 14.41C44.6388 15.9669 44.51 17.5397 44.1 19.05C43.4059 21.9133 42.0802 24.5852 40.22 26.87C40.1342 26.9757 40.026 27.061 39.9032 27.1198C39.7805 27.1786 39.6462 27.2094 39.51 27.21H31.27C31.0528 27.2102 30.8427 27.1327 30.6776 26.9914C30.5126 26.8502 30.4035 26.6546 30.37 26.44L28.68 15.74L26.41 26.51C26.3742 26.6915 26.2838 26.8577 26.1511 26.9866C26.0183 27.1154 25.8494 27.2008 25.6669 27.2312C25.4844 27.2616 25.297 27.2357 25.1296 27.1568C24.9622 27.078 24.8228 26.95 24.73 26.79L23.08 24L19.75 30C19.6779 30.1394 19.5709 30.2578 19.4395 30.3437C19.3081 30.4295 19.1567 30.4799 19 30.49Z" fill="#2A2527"/>
</mask>
<g mask="url(#mask0_30_1849)">
<path d="M43.5901 9.47018C44.0153 9.47018 44.3601 9.12543 44.3601 8.70018C44.3601 8.27492 44.0153 7.93018 43.5901 7.93018C43.1648 7.93018 42.8201 8.27492 42.8201 8.70018C42.8201 9.12543 43.1648 9.47018 43.5901 9.47018Z" fill="#212529"/>
<path d="M43.5901 5.63009C44.0153 5.63009 44.3601 5.28535 44.3601 4.86009C44.3601 4.43483 44.0153 4.09009 43.5901 4.09009C43.1648 4.09009 42.8201 4.43483 42.8201 4.86009C42.8201 5.28535 43.1648 5.63009 43.5901 5.63009Z" fill="#212529"/>
<path d="M43.5901 16.7502C44.0153 16.7502 44.3601 16.4055 44.3601 15.9802C44.3601 15.5549 44.0153 15.2102 43.5901 15.2102C43.1648 15.2102 42.8201 15.5549 42.8201 15.9802C42.8201 16.4055 43.1648 16.7502 43.5901 16.7502Z" fill="#212529"/>
<path d="M43.5901 12.9201C44.0153 12.9201 44.3601 12.5754 44.3601 12.1501C44.3601 11.7249 44.0153 11.3801 43.5901 11.3801C43.1648 11.3801 42.8201 11.7249 42.8201 12.1501C42.8201 12.5754 43.1648 12.9201 43.5901 12.9201Z" fill="#212529"/>
<path d="M43.5901 24.0402C44.0153 24.0402 44.3601 23.6955 44.3601 23.2702C44.3601 22.845 44.0153 22.5002 43.5901 22.5002C43.1648 22.5002 42.8201 22.845 42.8201 23.2702C42.8201 23.6955 43.1648 24.0402 43.5901 24.0402Z" fill="#212529"/>
<path d="M43.5901 20.2002C44.0153 20.2002 44.3601 19.8554 44.3601 19.4302C44.3601 19.0049 44.0153 18.6602 43.5901 18.6602C43.1648 18.6602 42.8201 19.0049 42.8201 19.4302C42.8201 19.8554 43.1648 20.2002 43.5901 20.2002Z" fill="#212529"/>
<path d="M43.5901 31.3203C44.0153 31.3203 44.3601 30.9755 44.3601 30.5503C44.3601 30.125 44.0153 29.7803 43.5901 29.7803C43.1648 29.7803 42.8201 30.125 42.8201 30.5503C42.8201 30.9755 43.1648 31.3203 43.5901 31.3203Z" fill="#212529"/>
<path d="M43.5901 27.4902C44.0153 27.4902 44.3601 27.1455 44.3601 26.7202C44.3601 26.2949 44.0153 25.9502 43.5901 25.9502C43.1648 25.9502 42.8201 26.2949 42.8201 26.7202C42.8201 27.1455 43.1648 27.4902 43.5901 27.4902Z" fill="#212529"/>
<path d="M40.1401 9.47018C40.5654 9.47018 40.9101 9.12543 40.9101 8.70018C40.9101 8.27492 40.5654 7.93018 40.1401 7.93018C39.7149 7.93018 39.3701 8.27492 39.3701 8.70018C39.3701 9.12543 39.7149 9.47018 40.1401 9.47018Z" fill="#212529"/>
<path d="M36.3 9.47018C36.7253 9.47018 37.07 9.12543 37.07 8.70018C37.07 8.27492 36.7253 7.93018 36.3 7.93018C35.8748 7.93018 35.53 8.27492 35.53 8.70018C35.53 9.12543 35.8748 9.47018 36.3 9.47018Z" fill="#212529"/>
<path d="M38.22 7.55025C38.6452 7.55025 38.99 7.20551 38.99 6.78025C38.99 6.35499 38.6452 6.01025 38.22 6.01025C37.7947 6.01025 37.45 6.35499 37.45 6.78025C37.45 7.20551 37.7947 7.55025 38.22 7.55025Z" fill="#212529"/>
<path d="M38.22 3.72018C38.6452 3.72018 38.99 3.37543 38.99 2.95018C38.99 2.52492 38.6452 2.18018 38.22 2.18018C37.7947 2.18018 37.45 2.52492 37.45 2.95018C37.45 3.37543 37.7947 3.72018 38.22 3.72018Z" fill="#212529"/>
<path d="M42.05 7.55025C42.4753 7.55025 42.82 7.20551 42.82 6.78025C42.82 6.35499 42.4753 6.01025 42.05 6.01025C41.6248 6.01025 41.28 6.35499 41.28 6.78025C41.28 7.20551 41.6248 7.55025 42.05 7.55025Z" fill="#212529"/>
<path d="M40.1401 5.63009C40.5654 5.63009 40.9101 5.28535 40.9101 4.86009C40.9101 4.43483 40.5654 4.09009 40.1401 4.09009C39.7149 4.09009 39.3701 4.43483 39.3701 4.86009C39.3701 5.28535 39.7149 5.63009 40.1401 5.63009Z" fill="#212529"/>
<path d="M36.3 5.63009C36.7253 5.63009 37.07 5.28535 37.07 4.86009C37.07 4.43483 36.7253 4.09009 36.3 4.09009C35.8748 4.09009 35.53 4.43483 35.53 4.86009C35.53 5.28535 35.8748 5.63009 36.3 5.63009Z" fill="#212529"/>
<path d="M42.05 3.72018C42.4753 3.72018 42.82 3.37543 42.82 2.95018C42.82 2.52492 42.4753 2.18018 42.05 2.18018C41.6248 2.18018 41.28 2.52492 41.28 2.95018C41.28 3.37543 41.6248 3.72018 42.05 3.72018Z" fill="#212529"/>
<path d="M40.1401 16.7502C40.5654 16.7502 40.9101 16.4055 40.9101 15.9802C40.9101 15.5549 40.5654 15.2102 40.1401 15.2102C39.7149 15.2102 39.3701 15.5549 39.3701 15.9802C39.3701 16.4055 39.7149 16.7502 40.1401 16.7502Z" fill="#212529"/>
<path d="M36.3 16.7502C36.7253 16.7502 37.07 16.4055 37.07 15.9802C37.07 15.5549 36.7253 15.2102 36.3 15.2102C35.8748 15.2102 35.53 15.5549 35.53 15.9802C35.53 16.4055 35.8748 16.7502 36.3 16.7502Z" fill="#212529"/>
<path d="M38.22 14.8303C38.6452 14.8303 38.99 14.4855 38.99 14.0603C38.99 13.635 38.6452 13.2903 38.22 13.2903C37.7947 13.2903 37.45 13.635 37.45 14.0603C37.45 14.4855 37.7947 14.8303 38.22 14.8303Z" fill="#212529"/>
<path d="M38.22 11.0002C38.6452 11.0002 38.99 10.6555 38.99 10.2302C38.99 9.80495 38.6452 9.46021 38.22 9.46021C37.7947 9.46021 37.45 9.80495 37.45 10.2302C37.45 10.6555 37.7947 11.0002 38.22 11.0002Z" fill="#212529"/>
<path d="M42.05 14.8303C42.4753 14.8303 42.82 14.4855 42.82 14.0603C42.82 13.635 42.4753 13.2903 42.05 13.2903C41.6248 13.2903 41.28 13.635 41.28 14.0603C41.28 14.4855 41.6248 14.8303 42.05 14.8303Z" fill="#212529"/>
<path d="M40.1401 12.9201C40.5654 12.9201 40.9101 12.5754 40.9101 12.1501C40.9101 11.7249 40.5654 11.3801 40.1401 11.3801C39.7149 11.3801 39.3701 11.7249 39.3701 12.1501C39.3701 12.5754 39.7149 12.9201 40.1401 12.9201Z" fill="#212529"/>
<path d="M36.3 12.9201C36.7253 12.9201 37.07 12.5754 37.07 12.1501C37.07 11.7249 36.7253 11.3801 36.3 11.3801C35.8748 11.3801 35.53 11.7249 35.53 12.1501C35.53 12.5754 35.8748 12.9201 36.3 12.9201Z" fill="#212529"/>
<path d="M42.05 11.0002C42.4753 11.0002 42.82 10.6555 42.82 10.2302C42.82 9.80495 42.4753 9.46021 42.05 9.46021C41.6248 9.46021 41.28 9.80495 41.28 10.2302C41.28 10.6555 41.6248 11.0002 42.05 11.0002Z" fill="#212529"/>
<path d="M40.1401 24.0402C40.5654 24.0402 40.9101 23.6955 40.9101 23.2702C40.9101 22.845 40.5654 22.5002 40.1401 22.5002C39.7149 22.5002 39.3701 22.845 39.3701 23.2702C39.3701 23.6955 39.7149 24.0402 40.1401 24.0402Z" fill="#212529"/>
<path d="M36.3 24.0402C36.7253 24.0402 37.07 23.6955 37.07 23.2702C37.07 22.845 36.7253 22.5002 36.3 22.5002C35.8748 22.5002 35.53 22.845 35.53 23.2702C35.53 23.6955 35.8748 24.0402 36.3 24.0402Z" fill="#212529"/>
<path d="M38.22 22.1203C38.6452 22.1203 38.99 21.7756 38.99 21.3503C38.99 20.9251 38.6452 20.5803 38.22 20.5803C37.7947 20.5803 37.45 20.9251 37.45 21.3503C37.45 21.7756 37.7947 22.1203 38.22 22.1203Z" fill="#212529"/>
<path d="M38.22 18.2902C38.6452 18.2902 38.99 17.9455 38.99 17.5202C38.99 17.095 38.6452 16.7502 38.22 16.7502C37.7947 16.7502 37.45 17.095 37.45 17.5202C37.45 17.9455 37.7947 18.2902 38.22 18.2902Z" fill="#212529"/>
<path d="M42.05 22.1203C42.4753 22.1203 42.82 21.7756 42.82 21.3503C42.82 20.9251 42.4753 20.5803 42.05 20.5803C41.6248 20.5803 41.28 20.9251 41.28 21.3503C41.28 21.7756 41.6248 22.1203 42.05 22.1203Z" fill="#212529"/>
<path d="M40.1401 20.2002C40.5654 20.2002 40.9101 19.8554 40.9101 19.4302C40.9101 19.0049 40.5654 18.6602 40.1401 18.6602C39.7149 18.6602 39.3701 19.0049 39.3701 19.4302C39.3701 19.8554 39.7149 20.2002 40.1401 20.2002Z" fill="#212529"/>
<path d="M36.3 20.2002C36.7253 20.2002 37.07 19.8554 37.07 19.4302C37.07 19.0049 36.7253 18.6602 36.3 18.6602C35.8748 18.6602 35.53 19.0049 35.53 19.4302C35.53 19.8554 35.8748 20.2002 36.3 20.2002Z" fill="#212529"/>
<path d="M42.05 18.2902C42.4753 18.2902 42.82 17.9455 42.82 17.5202C42.82 17.095 42.4753 16.7502 42.05 16.7502C41.6248 16.7502 41.28 17.095 41.28 17.5202C41.28 17.9455 41.6248 18.2902 42.05 18.2902Z" fill="#212529"/>
<path d="M40.1401 31.3203C40.5654 31.3203 40.9101 30.9755 40.9101 30.5503C40.9101 30.125 40.5654 29.7803 40.1401 29.7803C39.7149 29.7803 39.3701 30.125 39.3701 30.5503C39.3701 30.9755 39.7149 31.3203 40.1401 31.3203Z" fill="#212529"/>
<path d="M36.3 31.3203C36.7253 31.3203 37.07 30.9755 37.07 30.5503C37.07 30.125 36.7253 29.7803 36.3 29.7803C35.8748 29.7803 35.53 30.125 35.53 30.5503C35.53 30.9755 35.8748 31.3203 36.3 31.3203Z" fill="#212529"/>
<path d="M38.22 29.4004C38.6452 29.4004 38.99 29.0556 38.99 28.6304C38.99 28.2051 38.6452 27.8604 38.22 27.8604C37.7947 27.8604 37.45 28.2051 37.45 28.6304C37.45 29.0556 37.7947 29.4004 38.22 29.4004Z" fill="#212529"/>
<path d="M38.22 25.5703C38.6452 25.5703 38.99 25.2255 38.99 24.8003C38.99 24.375 38.6452 24.0303 38.22 24.0303C37.7947 24.0303 37.45 24.375 37.45 24.8003C37.45 25.2255 37.7947 25.5703 38.22 25.5703Z" fill="#212529"/>
<path d="M42.05 29.4004C42.4753 29.4004 42.82 29.0556 42.82 28.6304C42.82 28.2051 42.4753 27.8604 42.05 27.8604C41.6248 27.8604 41.28 28.2051 41.28 28.6304C41.28 29.0556 41.6248 29.4004 42.05 29.4004Z" fill="#212529"/>
<path d="M40.1401 27.4902C40.5654 27.4902 40.9101 27.1455 40.9101 26.7202C40.9101 26.2949 40.5654 25.9502 40.1401 25.9502C39.7149 25.9502 39.3701 26.2949 39.3701 26.7202C39.3701 27.1455 39.7149 27.4902 40.1401 27.4902Z" fill="#212529"/>
<path d="M36.3 27.4902C36.7253 27.4902 37.07 27.1455 37.07 26.7202C37.07 26.2949 36.7253 25.9502 36.3 25.9502C35.8748 25.9502 35.53 26.2949 35.53 26.7202C35.53 27.1455 35.8748 27.4902 36.3 27.4902Z" fill="#212529"/>
<path d="M42.05 25.5703C42.4753 25.5703 42.82 25.2255 42.82 24.8003C42.82 24.375 42.4753 24.0303 42.05 24.0303C41.6248 24.0303 41.28 24.375 41.28 24.8003C41.28 25.2255 41.6248 25.5703 42.05 25.5703Z" fill="#212529"/>
<path d="M32.8501 9.47018C33.2753 9.47018 33.6201 9.12543 33.6201 8.70018C33.6201 8.27492 33.2753 7.93018 32.8501 7.93018C32.4248 7.93018 32.0801 8.27492 32.0801 8.70018C32.0801 9.12543 32.4248 9.47018 32.8501 9.47018Z" fill="#212529"/>
<path d="M29.02 9.47018C29.4453 9.47018 29.79 9.12543 29.79 8.70018C29.79 8.27492 29.4453 7.93018 29.02 7.93018C28.5947 7.93018 28.25 8.27492 28.25 8.70018C28.25 9.12543 28.5947 9.47018 29.02 9.47018Z" fill="#212529"/>
<path d="M30.9399 7.55025C31.3652 7.55025 31.7099 7.20551 31.7099 6.78025C31.7099 6.35499 31.3652 6.01025 30.9399 6.01025C30.5147 6.01025 30.1699 6.35499 30.1699 6.78025C30.1699 7.20551 30.5147 7.55025 30.9399 7.55025Z" fill="#212529"/>
<path d="M30.9399 3.72018C31.3652 3.72018 31.7099 3.37543 31.7099 2.95018C31.7099 2.52492 31.3652 2.18018 30.9399 2.18018C30.5147 2.18018 30.1699 2.52492 30.1699 2.95018C30.1699 3.37543 30.5147 3.72018 30.9399 3.72018Z" fill="#212529"/>
<path d="M34.77 7.55025C35.1953 7.55025 35.54 7.20551 35.54 6.78025C35.54 6.35499 35.1953 6.01025 34.77 6.01025C34.3447 6.01025 34 6.35499 34 6.78025C34 7.20551 34.3447 7.55025 34.77 7.55025Z" fill="#212529"/>
<path d="M32.8501 5.63009C33.2753 5.63009 33.6201 5.28535 33.6201 4.86009C33.6201 4.43483 33.2753 4.09009 32.8501 4.09009C32.4248 4.09009 32.0801 4.43483 32.0801 4.86009C32.0801 5.28535 32.4248 5.63009 32.8501 5.63009Z" fill="#212529"/>
<path d="M29.02 5.63009C29.4453 5.63009 29.79 5.28535 29.79 4.86009C29.79 4.43483 29.4453 4.09009 29.02 4.09009C28.5947 4.09009 28.25 4.43483 28.25 4.86009C28.25 5.28535 28.5947 5.63009 29.02 5.63009Z" fill="#212529"/>
<path d="M34.77 3.72018C35.1953 3.72018 35.54 3.37543 35.54 2.95018C35.54 2.52492 35.1953 2.18018 34.77 2.18018C34.3447 2.18018 34 2.52492 34 2.95018C34 3.37543 34.3447 3.72018 34.77 3.72018Z" fill="#212529"/>
<path d="M32.8501 16.7502C33.2753 16.7502 33.6201 16.4055 33.6201 15.9802C33.6201 15.5549 33.2753 15.2102 32.8501 15.2102C32.4248 15.2102 32.0801 15.5549 32.0801 15.9802C32.0801 16.4055 32.4248 16.7502 32.8501 16.7502Z" fill="#212529"/>
<path d="M29.02 16.7502C29.4453 16.7502 29.79 16.4055 29.79 15.9802C29.79 15.5549 29.4453 15.2102 29.02 15.2102C28.5947 15.2102 28.25 15.5549 28.25 15.9802C28.25 16.4055 28.5947 16.7502 29.02 16.7502Z" fill="#212529"/>
<path d="M30.9399 14.8303C31.3652 14.8303 31.7099 14.4855 31.7099 14.0603C31.7099 13.635 31.3652 13.2903 30.9399 13.2903C30.5147 13.2903 30.1699 13.635 30.1699 14.0603C30.1699 14.4855 30.5147 14.8303 30.9399 14.8303Z" fill="#212529"/>
<path d="M30.9399 11.0002C31.3652 11.0002 31.7099 10.6555 31.7099 10.2302C31.7099 9.80495 31.3652 9.46021 30.9399 9.46021C30.5147 9.46021 30.1699 9.80495 30.1699 10.2302C30.1699 10.6555 30.5147 11.0002 30.9399 11.0002Z" fill="#212529"/>
<path d="M34.77 14.8303C35.1953 14.8303 35.54 14.4855 35.54 14.0603C35.54 13.635 35.1953 13.2903 34.77 13.2903C34.3447 13.2903 34 13.635 34 14.0603C34 14.4855 34.3447 14.8303 34.77 14.8303Z" fill="#212529"/>
<path d="M32.8501 12.9201C33.2753 12.9201 33.6201 12.5754 33.6201 12.1501C33.6201 11.7249 33.2753 11.3801 32.8501 11.3801C32.4248 11.3801 32.0801 11.7249 32.0801 12.1501C32.0801 12.5754 32.4248 12.9201 32.8501 12.9201Z" fill="#212529"/>
<path d="M29.02 12.9201C29.4453 12.9201 29.79 12.5754 29.79 12.1501C29.79 11.7249 29.4453 11.3801 29.02 11.3801C28.5947 11.3801 28.25 11.7249 28.25 12.1501C28.25 12.5754 28.5947 12.9201 29.02 12.9201Z" fill="#212529"/>
<path d="M34.77 11.0002C35.1953 11.0002 35.54 10.6555 35.54 10.2302C35.54 9.80495 35.1953 9.46021 34.77 9.46021C34.3447 9.46021 34 9.80495 34 10.2302C34 10.6555 34.3447 11.0002 34.77 11.0002Z" fill="#212529"/>
<path d="M32.8501 24.0402C33.2753 24.0402 33.6201 23.6955 33.6201 23.2702C33.6201 22.845 33.2753 22.5002 32.8501 22.5002C32.4248 22.5002 32.0801 22.845 32.0801 23.2702C32.0801 23.6955 32.4248 24.0402 32.8501 24.0402Z" fill="#212529"/>
<path d="M29.02 24.0402C29.4453 24.0402 29.79 23.6955 29.79 23.2702C29.79 22.845 29.4453 22.5002 29.02 22.5002C28.5947 22.5002 28.25 22.845 28.25 23.2702C28.25 23.6955 28.5947 24.0402 29.02 24.0402Z" fill="#212529"/>
<path d="M30.9399 22.1203C31.3652 22.1203 31.7099 21.7756 31.7099 21.3503C31.7099 20.9251 31.3652 20.5803 30.9399 20.5803C30.5147 20.5803 30.1699 20.9251 30.1699 21.3503C30.1699 21.7756 30.5147 22.1203 30.9399 22.1203Z" fill="#212529"/>
<path d="M30.9399 18.2902C31.3652 18.2902 31.7099 17.9455 31.7099 17.5202C31.7099 17.095 31.3652 16.7502 30.9399 16.7502C30.5147 16.7502 30.1699 17.095 30.1699 17.5202C30.1699 17.9455 30.5147 18.2902 30.9399 18.2902Z" fill="#212529"/>
<path d="M34.77 22.1203C35.1953 22.1203 35.54 21.7756 35.54 21.3503C35.54 20.9251 35.1953 20.5803 34.77 20.5803C34.3447 20.5803 34 20.9251 34 21.3503C34 21.7756 34.3447 22.1203 34.77 22.1203Z" fill="#212529"/>
<path d="M32.8501 20.2002C33.2753 20.2002 33.6201 19.8554 33.6201 19.4302C33.6201 19.0049 33.2753 18.6602 32.8501 18.6602C32.4248 18.6602 32.0801 19.0049 32.0801 19.4302C32.0801 19.8554 32.4248 20.2002 32.8501 20.2002Z" fill="#212529"/>
<path d="M29.02 20.2002C29.4453 20.2002 29.79 19.8554 29.79 19.4302C29.79 19.0049 29.4453 18.6602 29.02 18.6602C28.5947 18.6602 28.25 19.0049 28.25 19.4302C28.25 19.8554 28.5947 20.2002 29.02 20.2002Z" fill="#212529"/>
<path d="M34.77 18.2902C35.1953 18.2902 35.54 17.9455 35.54 17.5202C35.54 17.095 35.1953 16.7502 34.77 16.7502C34.3447 16.7502 34 17.095 34 17.5202C34 17.9455 34.3447 18.2902 34.77 18.2902Z" fill="#212529"/>
<path d="M32.8501 31.3203C33.2753 31.3203 33.6201 30.9755 33.6201 30.5503C33.6201 30.125 33.2753 29.7803 32.8501 29.7803C32.4248 29.7803 32.0801 30.125 32.0801 30.5503C32.0801 30.9755 32.4248 31.3203 32.8501 31.3203Z" fill="#212529"/>
<path d="M29.02 31.3203C29.4453 31.3203 29.79 30.9755 29.79 30.5503C29.79 30.125 29.4453 29.7803 29.02 29.7803C28.5947 29.7803 28.25 30.125 28.25 30.5503C28.25 30.9755 28.5947 31.3203 29.02 31.3203Z" fill="#212529"/>
<path d="M30.9399 29.4004C31.3652 29.4004 31.7099 29.0556 31.7099 28.6304C31.7099 28.2051 31.3652 27.8604 30.9399 27.8604C30.5147 27.8604 30.1699 28.2051 30.1699 28.6304C30.1699 29.0556 30.5147 29.4004 30.9399 29.4004Z" fill="#212529"/>
<path d="M30.9399 25.5703C31.3652 25.5703 31.7099 25.2255 31.7099 24.8003C31.7099 24.375 31.3652 24.0303 30.9399 24.0303C30.5147 24.0303 30.1699 24.375 30.1699 24.8003C30.1699 25.2255 30.5147 25.5703 30.9399 25.5703Z" fill="#212529"/>
<path d="M34.77 29.4004C35.1953 29.4004 35.54 29.0556 35.54 28.6304C35.54 28.2051 35.1953 27.8604 34.77 27.8604C34.3447 27.8604 34 28.2051 34 28.6304C34 29.0556 34.3447 29.4004 34.77 29.4004Z" fill="#212529"/>
<path d="M32.8501 27.4902C33.2753 27.4902 33.6201 27.1455 33.6201 26.7202C33.6201 26.2949 33.2753 25.9502 32.8501 25.9502C32.4248 25.9502 32.0801 26.2949 32.0801 26.7202C32.0801 27.1455 32.4248 27.4902 32.8501 27.4902Z" fill="#212529"/>
<path d="M29.02 27.4902C29.4453 27.4902 29.79 27.1455 29.79 26.7202C29.79 26.2949 29.4453 25.9502 29.02 25.9502C28.5947 25.9502 28.25 26.2949 28.25 26.7202C28.25 27.1455 28.5947 27.4902 29.02 27.4902Z" fill="#212529"/>
<path d="M34.77 25.5703C35.1953 25.5703 35.54 25.2255 35.54 24.8003C35.54 24.375 35.1953 24.0303 34.77 24.0303C34.3447 24.0303 34 24.375 34 24.8003C34 25.2255 34.3447 25.5703 34.77 25.5703Z" fill="#212529"/>
<path d="M25.5703 9.47018C25.9956 9.47018 26.3403 9.12543 26.3403 8.70018C26.3403 8.27492 25.9956 7.93018 25.5703 7.93018C25.145 7.93018 24.8003 8.27492 24.8003 8.70018C24.8003 9.12543 25.145 9.47018 25.5703 9.47018Z" fill="#212529"/>
<path d="M21.7302 9.47018C22.1555 9.47018 22.5002 9.12543 22.5002 8.70018C22.5002 8.27492 22.1555 7.93018 21.7302 7.93018C21.3049 7.93018 20.9602 8.27492 20.9602 8.70018C20.9602 9.12543 21.3049 9.47018 21.7302 9.47018Z" fill="#212529"/>
<path d="M23.6501 7.55025C24.0754 7.55025 24.4201 7.20551 24.4201 6.78025C24.4201 6.35499 24.0754 6.01025 23.6501 6.01025C23.2249 6.01025 22.8801 6.35499 22.8801 6.78025C22.8801 7.20551 23.2249 7.55025 23.6501 7.55025Z" fill="#212529"/>
<path d="M23.6501 3.72018C24.0754 3.72018 24.4201 3.37543 24.4201 2.95018C24.4201 2.52492 24.0754 2.18018 23.6501 2.18018C23.2249 2.18018 22.8801 2.52492 22.8801 2.95018C22.8801 3.37543 23.2249 3.72018 23.6501 3.72018Z" fill="#212529"/>
<path d="M27.4802 7.55025C27.9055 7.55025 28.2502 7.20551 28.2502 6.78025C28.2502 6.35499 27.9055 6.01025 27.4802 6.01025C27.0549 6.01025 26.7102 6.35499 26.7102 6.78025C26.7102 7.20551 27.0549 7.55025 27.4802 7.55025Z" fill="#212529"/>
<path d="M25.5703 5.63009C25.9956 5.63009 26.3403 5.28535 26.3403 4.86009C26.3403 4.43483 25.9956 4.09009 25.5703 4.09009C25.145 4.09009 24.8003 4.43483 24.8003 4.86009C24.8003 5.28535 25.145 5.63009 25.5703 5.63009Z" fill="#212529"/>
<path d="M21.7302 5.63009C22.1555 5.63009 22.5002 5.28535 22.5002 4.86009C22.5002 4.43483 22.1555 4.09009 21.7302 4.09009C21.3049 4.09009 20.9602 4.43483 20.9602 4.86009C20.9602 5.28535 21.3049 5.63009 21.7302 5.63009Z" fill="#212529"/>
<path d="M27.4802 3.72018C27.9055 3.72018 28.2502 3.37543 28.2502 2.95018C28.2502 2.52492 27.9055 2.18018 27.4802 2.18018C27.0549 2.18018 26.7102 2.52492 26.7102 2.95018C26.7102 3.37543 27.0549 3.72018 27.4802 3.72018Z" fill="#212529"/>
<path d="M25.5703 16.7502C25.9956 16.7502 26.3403 16.4055 26.3403 15.9802C26.3403 15.5549 25.9956 15.2102 25.5703 15.2102C25.145 15.2102 24.8003 15.5549 24.8003 15.9802C24.8003 16.4055 25.145 16.7502 25.5703 16.7502Z" fill="#212529"/>
<path d="M21.7302 16.7502C22.1555 16.7502 22.5002 16.4055 22.5002 15.9802C22.5002 15.5549 22.1555 15.2102 21.7302 15.2102C21.3049 15.2102 20.9602 15.5549 20.9602 15.9802C20.9602 16.4055 21.3049 16.7502 21.7302 16.7502Z" fill="#212529"/>
<path d="M23.6501 14.8303C24.0754 14.8303 24.4201 14.4855 24.4201 14.0603C24.4201 13.635 24.0754 13.2903 23.6501 13.2903C23.2249 13.2903 22.8801 13.635 22.8801 14.0603C22.8801 14.4855 23.2249 14.8303 23.6501 14.8303Z" fill="#212529"/>
<path d="M23.6501 11.0002C24.0754 11.0002 24.4201 10.6555 24.4201 10.2302C24.4201 9.80495 24.0754 9.46021 23.6501 9.46021C23.2249 9.46021 22.8801 9.80495 22.8801 10.2302C22.8801 10.6555 23.2249 11.0002 23.6501 11.0002Z" fill="#212529"/>
<path d="M27.4802 14.8303C27.9055 14.8303 28.2502 14.4855 28.2502 14.0603C28.2502 13.635 27.9055 13.2903 27.4802 13.2903C27.0549 13.2903 26.7102 13.635 26.7102 14.0603C26.7102 14.4855 27.0549 14.8303 27.4802 14.8303Z" fill="#212529"/>
<path d="M25.5703 12.9201C25.9956 12.9201 26.3403 12.5754 26.3403 12.1501C26.3403 11.7249 25.9956 11.3801 25.5703 11.3801C25.145 11.3801 24.8003 11.7249 24.8003 12.1501C24.8003 12.5754 25.145 12.9201 25.5703 12.9201Z" fill="#212529"/>
<path d="M21.7302 12.9201C22.1555 12.9201 22.5002 12.5754 22.5002 12.1501C22.5002 11.7249 22.1555 11.3801 21.7302 11.3801C21.3049 11.3801 20.9602 11.7249 20.9602 12.1501C20.9602 12.5754 21.3049 12.9201 21.7302 12.9201Z" fill="#212529"/>
<path d="M27.4802 11.0002C27.9055 11.0002 28.2502 10.6555 28.2502 10.2302C28.2502 9.80495 27.9055 9.46021 27.4802 9.46021C27.0549 9.46021 26.7102 9.80495 26.7102 10.2302C26.7102 10.6555 27.0549 11.0002 27.4802 11.0002Z" fill="#212529"/>
<path d="M25.5703 24.0402C25.9956 24.0402 26.3403 23.6955 26.3403 23.2702C26.3403 22.845 25.9956 22.5002 25.5703 22.5002C25.145 22.5002 24.8003 22.845 24.8003 23.2702C24.8003 23.6955 25.145 24.0402 25.5703 24.0402Z" fill="#212529"/>
<path d="M21.7302 24.0402C22.1555 24.0402 22.5002 23.6955 22.5002 23.2702C22.5002 22.845 22.1555 22.5002 21.7302 22.5002C21.3049 22.5002 20.9602 22.845 20.9602 23.2702C20.9602 23.6955 21.3049 24.0402 21.7302 24.0402Z" fill="#212529"/>
<path d="M23.6501 22.1203C24.0754 22.1203 24.4201 21.7756 24.4201 21.3503C24.4201 20.9251 24.0754 20.5803 23.6501 20.5803C23.2249 20.5803 22.8801 20.9251 22.8801 21.3503C22.8801 21.7756 23.2249 22.1203 23.6501 22.1203Z" fill="#212529"/>
<path d="M23.6501 18.2902C24.0754 18.2902 24.4201 17.9455 24.4201 17.5202C24.4201 17.095 24.0754 16.7502 23.6501 16.7502C23.2249 16.7502 22.8801 17.095 22.8801 17.5202C22.8801 17.9455 23.2249 18.2902 23.6501 18.2902Z" fill="#212529"/>
<path d="M27.4802 22.1203C27.9055 22.1203 28.2502 21.7756 28.2502 21.3503C28.2502 20.9251 27.9055 20.5803 27.4802 20.5803C27.0549 20.5803 26.7102 20.9251 26.7102 21.3503C26.7102 21.7756 27.0549 22.1203 27.4802 22.1203Z" fill="#212529"/>
<path d="M25.5703 20.2002C25.9956 20.2002 26.3403 19.8554 26.3403 19.4302C26.3403 19.0049 25.9956 18.6602 25.5703 18.6602C25.145 18.6602 24.8003 19.0049 24.8003 19.4302C24.8003 19.8554 25.145 20.2002 25.5703 20.2002Z" fill="#212529"/>
<path d="M21.7302 20.2002C22.1555 20.2002 22.5002 19.8554 22.5002 19.4302C22.5002 19.0049 22.1555 18.6602 21.7302 18.6602C21.3049 18.6602 20.9602 19.0049 20.9602 19.4302C20.9602 19.8554 21.3049 20.2002 21.7302 20.2002Z" fill="#212529"/>
<path d="M27.4802 18.2902C27.9055 18.2902 28.2502 17.9455 28.2502 17.5202C28.2502 17.095 27.9055 16.7502 27.4802 16.7502C27.0549 16.7502 26.7102 17.095 26.7102 17.5202C26.7102 17.9455 27.0549 18.2902 27.4802 18.2902Z" fill="#212529"/>
<path d="M25.5703 31.3203C25.9956 31.3203 26.3403 30.9755 26.3403 30.5503C26.3403 30.125 25.9956 29.7803 25.5703 29.7803C25.145 29.7803 24.8003 30.125 24.8003 30.5503C24.8003 30.9755 25.145 31.3203 25.5703 31.3203Z" fill="#212529"/>
<path d="M21.7302 31.3203C22.1555 31.3203 22.5002 30.9755 22.5002 30.5503C22.5002 30.125 22.1555 29.7803 21.7302 29.7803C21.3049 29.7803 20.9602 30.125 20.9602 30.5503C20.9602 30.9755 21.3049 31.3203 21.7302 31.3203Z" fill="#212529"/>
<path d="M23.6501 29.4004C24.0754 29.4004 24.4201 29.0556 24.4201 28.6304C24.4201 28.2051 24.0754 27.8604 23.6501 27.8604C23.2249 27.8604 22.8801 28.2051 22.8801 28.6304C22.8801 29.0556 23.2249 29.4004 23.6501 29.4004Z" fill="#212529"/>
<path d="M23.6501 25.5703C24.0754 25.5703 24.4201 25.2255 24.4201 24.8003C24.4201 24.375 24.0754 24.0303 23.6501 24.0303C23.2249 24.0303 22.8801 24.375 22.8801 24.8003C22.8801 25.2255 23.2249 25.5703 23.6501 25.5703Z" fill="#212529"/>
<path d="M27.4802 29.4004C27.9055 29.4004 28.2502 29.0556 28.2502 28.6304C28.2502 28.2051 27.9055 27.8604 27.4802 27.8604C27.0549 27.8604 26.7102 28.2051 26.7102 28.6304C26.7102 29.0556 27.0549 29.4004 27.4802 29.4004Z" fill="#212529"/>
<path d="M25.5703 27.4902C25.9956 27.4902 26.3403 27.1455 26.3403 26.7202C26.3403 26.2949 25.9956 25.9502 25.5703 25.9502C25.145 25.9502 24.8003 26.2949 24.8003 26.7202C24.8003 27.1455 25.145 27.4902 25.5703 27.4902Z" fill="#212529"/>
<path d="M21.7302 27.4902C22.1555 27.4902 22.5002 27.1455 22.5002 26.7202C22.5002 26.2949 22.1555 25.9502 21.7302 25.9502C21.3049 25.9502 20.9602 26.2949 20.9602 26.7202C20.9602 27.1455 21.3049 27.4902 21.7302 27.4902Z" fill="#212529"/>
<path d="M27.4802 25.5703C27.9055 25.5703 28.2502 25.2255 28.2502 24.8003C28.2502 24.375 27.9055 24.0303 27.4802 24.0303C27.0549 24.0303 26.7102 24.375 26.7102 24.8003C26.7102 25.2255 27.0549 25.5703 27.4802 25.5703Z" fill="#212529"/>
<path d="M18.2803 9.47018C18.7055 9.47018 19.0503 9.12543 19.0503 8.70018C19.0503 8.27492 18.7055 7.93018 18.2803 7.93018C17.855 7.93018 17.5103 8.27492 17.5103 8.70018C17.5103 9.12543 17.855 9.47018 18.2803 9.47018Z" fill="#212529"/>
<path d="M14.4502 9.47018C14.8754 9.47018 15.2202 9.12543 15.2202 8.70018C15.2202 8.27492 14.8754 7.93018 14.4502 7.93018C14.0249 7.93018 13.6802 8.27492 13.6802 8.70018C13.6802 9.12543 14.0249 9.47018 14.4502 9.47018Z" fill="#212529"/>
<path d="M16.3701 7.55025C16.7954 7.55025 17.1401 7.20551 17.1401 6.78025C17.1401 6.35499 16.7954 6.01025 16.3701 6.01025C15.9448 6.01025 15.6001 6.35499 15.6001 6.78025C15.6001 7.20551 15.9448 7.55025 16.3701 7.55025Z" fill="#212529"/>
<path d="M16.3701 3.72018C16.7954 3.72018 17.1401 3.37543 17.1401 2.95018C17.1401 2.52492 16.7954 2.18018 16.3701 2.18018C15.9448 2.18018 15.6001 2.52492 15.6001 2.95018C15.6001 3.37543 15.9448 3.72018 16.3701 3.72018Z" fill="#212529"/>
<path d="M20.2002 7.55025C20.6254 7.55025 20.9702 7.20551 20.9702 6.78025C20.9702 6.35499 20.6254 6.01025 20.2002 6.01025C19.7749 6.01025 19.4302 6.35499 19.4302 6.78025C19.4302 7.20551 19.7749 7.55025 20.2002 7.55025Z" fill="#212529"/>
<path d="M18.2803 5.63009C18.7055 5.63009 19.0503 5.28535 19.0503 4.86009C19.0503 4.43483 18.7055 4.09009 18.2803 4.09009C17.855 4.09009 17.5103 4.43483 17.5103 4.86009C17.5103 5.28535 17.855 5.63009 18.2803 5.63009Z" fill="#212529"/>
<path d="M14.4502 5.63009C14.8754 5.63009 15.2202 5.28535 15.2202 4.86009C15.2202 4.43483 14.8754 4.09009 14.4502 4.09009C14.0249 4.09009 13.6802 4.43483 13.6802 4.86009C13.6802 5.28535 14.0249 5.63009 14.4502 5.63009Z" fill="#212529"/>
<path d="M20.2002 3.72018C20.6254 3.72018 20.9702 3.37543 20.9702 2.95018C20.9702 2.52492 20.6254 2.18018 20.2002 2.18018C19.7749 2.18018 19.4302 2.52492 19.4302 2.95018C19.4302 3.37543 19.7749 3.72018 20.2002 3.72018Z" fill="#212529"/>
<path d="M18.2803 16.7502C18.7055 16.7502 19.0503 16.4055 19.0503 15.9802C19.0503 15.5549 18.7055 15.2102 18.2803 15.2102C17.855 15.2102 17.5103 15.5549 17.5103 15.9802C17.5103 16.4055 17.855 16.7502 18.2803 16.7502Z" fill="#212529"/>
<path d="M14.4502 16.7502C14.8754 16.7502 15.2202 16.4055 15.2202 15.9802C15.2202 15.5549 14.8754 15.2102 14.4502 15.2102C14.0249 15.2102 13.6802 15.5549 13.6802 15.9802C13.6802 16.4055 14.0249 16.7502 14.4502 16.7502Z" fill="#212529"/>
<path d="M16.3701 14.8303C16.7954 14.8303 17.1401 14.4855 17.1401 14.0603C17.1401 13.635 16.7954 13.2903 16.3701 13.2903C15.9448 13.2903 15.6001 13.635 15.6001 14.0603C15.6001 14.4855 15.9448 14.8303 16.3701 14.8303Z" fill="#212529"/>
<path d="M16.3701 11.0002C16.7954 11.0002 17.1401 10.6555 17.1401 10.2302C17.1401 9.80495 16.7954 9.46021 16.3701 9.46021C15.9448 9.46021 15.6001 9.80495 15.6001 10.2302C15.6001 10.6555 15.9448 11.0002 16.3701 11.0002Z" fill="#212529"/>
<path d="M20.2002 14.8303C20.6254 14.8303 20.9702 14.4855 20.9702 14.0603C20.9702 13.635 20.6254 13.2903 20.2002 13.2903C19.7749 13.2903 19.4302 13.635 19.4302 14.0603C19.4302 14.4855 19.7749 14.8303 20.2002 14.8303Z" fill="#212529"/>
<path d="M18.2803 12.9201C18.7055 12.9201 19.0503 12.5754 19.0503 12.1501C19.0503 11.7249 18.7055 11.3801 18.2803 11.3801C17.855 11.3801 17.5103 11.7249 17.5103 12.1501C17.5103 12.5754 17.855 12.9201 18.2803 12.9201Z" fill="#212529"/>
<path d="M14.4502 12.9201C14.8754 12.9201 15.2202 12.5754 15.2202 12.1501C15.2202 11.7249 14.8754 11.3801 14.4502 11.3801C14.0249 11.3801 13.6802 11.7249 13.6802 12.1501C13.6802 12.5754 14.0249 12.9201 14.4502 12.9201Z" fill="#212529"/>
<path d="M20.2002 11.0002C20.6254 11.0002 20.9702 10.6555 20.9702 10.2302C20.9702 9.80495 20.6254 9.46021 20.2002 9.46021C19.7749 9.46021 19.4302 9.80495 19.4302 10.2302C19.4302 10.6555 19.7749 11.0002 20.2002 11.0002Z" fill="#212529"/>
<path d="M18.2803 24.0402C18.7055 24.0402 19.0503 23.6955 19.0503 23.2702C19.0503 22.845 18.7055 22.5002 18.2803 22.5002C17.855 22.5002 17.5103 22.845 17.5103 23.2702C17.5103 23.6955 17.855 24.0402 18.2803 24.0402Z" fill="#212529"/>
<path d="M14.4502 24.0402C14.8754 24.0402 15.2202 23.6955 15.2202 23.2702C15.2202 22.845 14.8754 22.5002 14.4502 22.5002C14.0249 22.5002 13.6802 22.845 13.6802 23.2702C13.6802 23.6955 14.0249 24.0402 14.4502 24.0402Z" fill="#212529"/>
<path d="M16.3701 22.1203C16.7954 22.1203 17.1401 21.7756 17.1401 21.3503C17.1401 20.9251 16.7954 20.5803 16.3701 20.5803C15.9448 20.5803 15.6001 20.9251 15.6001 21.3503C15.6001 21.7756 15.9448 22.1203 16.3701 22.1203Z" fill="#212529"/>
<path d="M16.3701 18.2902C16.7954 18.2902 17.1401 17.9455 17.1401 17.5202C17.1401 17.095 16.7954 16.7502 16.3701 16.7502C15.9448 16.7502 15.6001 17.095 15.6001 17.5202C15.6001 17.9455 15.9448 18.2902 16.3701 18.2902Z" fill="#212529"/>
<path d="M20.2002 22.1203C20.6254 22.1203 20.9702 21.7756 20.9702 21.3503C20.9702 20.9251 20.6254 20.5803 20.2002 20.5803C19.7749 20.5803 19.4302 20.9251 19.4302 21.3503C19.4302 21.7756 19.7749 22.1203 20.2002 22.1203Z" fill="#212529"/>
<path d="M18.2803 20.2002C18.7055 20.2002 19.0503 19.8554 19.0503 19.4302C19.0503 19.0049 18.7055 18.6602 18.2803 18.6602C17.855 18.6602 17.5103 19.0049 17.5103 19.4302C17.5103 19.8554 17.855 20.2002 18.2803 20.2002Z" fill="#212529"/>
<path d="M14.4502 20.2002C14.8754 20.2002 15.2202 19.8554 15.2202 19.4302C15.2202 19.0049 14.8754 18.6602 14.4502 18.6602C14.0249 18.6602 13.6802 19.0049 13.6802 19.4302C13.6802 19.8554 14.0249 20.2002 14.4502 20.2002Z" fill="#212529"/>
<path d="M20.2002 18.2902C20.6254 18.2902 20.9702 17.9455 20.9702 17.5202C20.9702 17.095 20.6254 16.7502 20.2002 16.7502C19.7749 16.7502 19.4302 17.095 19.4302 17.5202C19.4302 17.9455 19.7749 18.2902 20.2002 18.2902Z" fill="#212529"/>
<path d="M18.2803 31.3203C18.7055 31.3203 19.0503 30.9755 19.0503 30.5503C19.0503 30.125 18.7055 29.7803 18.2803 29.7803C17.855 29.7803 17.5103 30.125 17.5103 30.5503C17.5103 30.9755 17.855 31.3203 18.2803 31.3203Z" fill="#212529"/>
<path d="M14.4502 31.3203C14.8754 31.3203 15.2202 30.9755 15.2202 30.5503C15.2202 30.125 14.8754 29.7803 14.4502 29.7803C14.0249 29.7803 13.6802 30.125 13.6802 30.5503C13.6802 30.9755 14.0249 31.3203 14.4502 31.3203Z" fill="#212529"/>
<path d="M16.3701 29.4004C16.7954 29.4004 17.1401 29.0556 17.1401 28.6304C17.1401 28.2051 16.7954 27.8604 16.3701 27.8604C15.9448 27.8604 15.6001 28.2051 15.6001 28.6304C15.6001 29.0556 15.9448 29.4004 16.3701 29.4004Z" fill="#212529"/>
<path d="M16.3701 25.5703C16.7954 25.5703 17.1401 25.2255 17.1401 24.8003C17.1401 24.375 16.7954 24.0303 16.3701 24.0303C15.9448 24.0303 15.6001 24.375 15.6001 24.8003C15.6001 25.2255 15.9448 25.5703 16.3701 25.5703Z" fill="#212529"/>
<path d="M20.2002 29.4004C20.6254 29.4004 20.9702 29.0556 20.9702 28.6304C20.9702 28.2051 20.6254 27.8604 20.2002 27.8604C19.7749 27.8604 19.4302 28.2051 19.4302 28.6304C19.4302 29.0556 19.7749 29.4004 20.2002 29.4004Z" fill="#212529"/>
<path d="M18.2803 27.4902C18.7055 27.4902 19.0503 27.1455 19.0503 26.7202C19.0503 26.2949 18.7055 25.9502 18.2803 25.9502C17.855 25.9502 17.5103 26.2949 17.5103 26.7202C17.5103 27.1455 17.855 27.4902 18.2803 27.4902Z" fill="#212529"/>
<path d="M14.4502 27.4902C14.8754 27.4902 15.2202 27.1455 15.2202 26.7202C15.2202 26.2949 14.8754 25.9502 14.4502 25.9502C14.0249 25.9502 13.6802 26.2949 13.6802 26.7202C13.6802 27.1455 14.0249 27.4902 14.4502 27.4902Z" fill="#212529"/>
<path d="M20.2002 25.5703C20.6254 25.5703 20.9702 25.2255 20.9702 24.8003C20.9702 24.375 20.6254 24.0303 20.2002 24.0303C19.7749 24.0303 19.4302 24.375 19.4302 24.8003C19.4302 25.2255 19.7749 25.5703 20.2002 25.5703Z" fill="#212529"/>
<path d="M11.0002 9.47018C11.4255 9.47018 11.7702 9.12543 11.7702 8.70018C11.7702 8.27492 11.4255 7.93018 11.0002 7.93018C10.575 7.93018 10.2302 8.27492 10.2302 8.70018C10.2302 9.12543 10.575 9.47018 11.0002 9.47018Z" fill="#212529"/>
<path d="M7.16014 9.47018C7.5854 9.47018 7.93014 9.12543 7.93014 8.70018C7.93014 8.27492 7.5854 7.93018 7.16014 7.93018C6.73488 7.93018 6.39014 8.27492 6.39014 8.70018C6.39014 9.12543 6.73488 9.47018 7.16014 9.47018Z" fill="#212529"/>
<path d="M9.08006 7.55025C9.50532 7.55025 9.85006 7.20551 9.85006 6.78025C9.85006 6.35499 9.50532 6.01025 9.08006 6.01025C8.6548 6.01025 8.31006 6.35499 8.31006 6.78025C8.31006 7.20551 8.6548 7.55025 9.08006 7.55025Z" fill="#212529"/>
<path d="M9.08006 3.72018C9.50532 3.72018 9.85006 3.37543 9.85006 2.95018C9.85006 2.52492 9.50532 2.18018 9.08006 2.18018C8.6548 2.18018 8.31006 2.52492 8.31006 2.95018C8.31006 3.37543 8.6548 3.72018 9.08006 3.72018Z" fill="#212529"/>
<path d="M12.9101 7.55025C13.3354 7.55025 13.6801 7.20551 13.6801 6.78025C13.6801 6.35499 13.3354 6.01025 12.9101 6.01025C12.4849 6.01025 12.1401 6.35499 12.1401 6.78025C12.1401 7.20551 12.4849 7.55025 12.9101 7.55025Z" fill="#212529"/>
<path d="M11.0002 5.63009C11.4255 5.63009 11.7702 5.28535 11.7702 4.86009C11.7702 4.43483 11.4255 4.09009 11.0002 4.09009C10.575 4.09009 10.2302 4.43483 10.2302 4.86009C10.2302 5.28535 10.575 5.63009 11.0002 5.63009Z" fill="#212529"/>
<path d="M7.16014 5.63009C7.5854 5.63009 7.93014 5.28535 7.93014 4.86009C7.93014 4.43483 7.5854 4.09009 7.16014 4.09009C6.73488 4.09009 6.39014 4.43483 6.39014 4.86009C6.39014 5.28535 6.73488 5.63009 7.16014 5.63009Z" fill="#212529"/>
<path d="M12.9101 3.72018C13.3354 3.72018 13.6801 3.37543 13.6801 2.95018C13.6801 2.52492 13.3354 2.18018 12.9101 2.18018C12.4849 2.18018 12.1401 2.52492 12.1401 2.95018C12.1401 3.37543 12.4849 3.72018 12.9101 3.72018Z" fill="#212529"/>
<path d="M11.0002 16.7502C11.4255 16.7502 11.7702 16.4055 11.7702 15.9802C11.7702 15.5549 11.4255 15.2102 11.0002 15.2102C10.575 15.2102 10.2302 15.5549 10.2302 15.9802C10.2302 16.4055 10.575 16.7502 11.0002 16.7502Z" fill="#212529"/>
<path d="M7.16014 16.7502C7.5854 16.7502 7.93014 16.4055 7.93014 15.9802C7.93014 15.5549 7.5854 15.2102 7.16014 15.2102C6.73488 15.2102 6.39014 15.5549 6.39014 15.9802C6.39014 16.4055 6.73488 16.7502 7.16014 16.7502Z" fill="#212529"/>
<path d="M9.08006 14.8303C9.50532 14.8303 9.85006 14.4855 9.85006 14.0603C9.85006 13.635 9.50532 13.2903 9.08006 13.2903C8.6548 13.2903 8.31006 13.635 8.31006 14.0603C8.31006 14.4855 8.6548 14.8303 9.08006 14.8303Z" fill="#212529"/>
<path d="M9.08006 11.0002C9.50532 11.0002 9.85006 10.6555 9.85006 10.2302C9.85006 9.80495 9.50532 9.46021 9.08006 9.46021C8.6548 9.46021 8.31006 9.80495 8.31006 10.2302C8.31006 10.6555 8.6548 11.0002 9.08006 11.0002Z" fill="#212529"/>
<path d="M12.9101 14.8303C13.3354 14.8303 13.6801 14.4855 13.6801 14.0603C13.6801 13.635 13.3354 13.2903 12.9101 13.2903C12.4849 13.2903 12.1401 13.635 12.1401 14.0603C12.1401 14.4855 12.4849 14.8303 12.9101 14.8303Z" fill="#212529"/>
<path d="M11.0002 12.9201C11.4255 12.9201 11.7702 12.5754 11.7702 12.1501C11.7702 11.7249 11.4255 11.3801 11.0002 11.3801C10.575 11.3801 10.2302 11.7249 10.2302 12.1501C10.2302 12.5754 10.575 12.9201 11.0002 12.9201Z" fill="#212529"/>
<path d="M7.16014 12.9201C7.5854 12.9201 7.93014 12.5754 7.93014 12.1501C7.93014 11.7249 7.5854 11.3801 7.16014 11.3801C6.73488 11.3801 6.39014 11.7249 6.39014 12.1501C6.39014 12.5754 6.73488 12.9201 7.16014 12.9201Z" fill="#212529"/>
<path d="M12.9101 11.0002C13.3354 11.0002 13.6801 10.6555 13.6801 10.2302C13.6801 9.80495 13.3354 9.46021 12.9101 9.46021C12.4849 9.46021 12.1401 9.80495 12.1401 10.2302C12.1401 10.6555 12.4849 11.0002 12.9101 11.0002Z" fill="#212529"/>
<path d="M11.0002 24.0402C11.4255 24.0402 11.7702 23.6955 11.7702 23.2702C11.7702 22.845 11.4255 22.5002 11.0002 22.5002C10.575 22.5002 10.2302 22.845 10.2302 23.2702C10.2302 23.6955 10.575 24.0402 11.0002 24.0402Z" fill="#212529"/>
<path d="M7.16014 24.0402C7.5854 24.0402 7.93014 23.6955 7.93014 23.2702C7.93014 22.845 7.5854 22.5002 7.16014 22.5002C6.73488 22.5002 6.39014 22.845 6.39014 23.2702C6.39014 23.6955 6.73488 24.0402 7.16014 24.0402Z" fill="#212529"/>
<path d="M9.08006 22.1203C9.50532 22.1203 9.85006 21.7756 9.85006 21.3503C9.85006 20.9251 9.50532 20.5803 9.08006 20.5803C8.6548 20.5803 8.31006 20.9251 8.31006 21.3503C8.31006 21.7756 8.6548 22.1203 9.08006 22.1203Z" fill="#212529"/>
<path d="M9.08006 18.2902C9.50532 18.2902 9.85006 17.9455 9.85006 17.5202C9.85006 17.095 9.50532 16.7502 9.08006 16.7502C8.6548 16.7502 8.31006 17.095 8.31006 17.5202C8.31006 17.9455 8.6548 18.2902 9.08006 18.2902Z" fill="#212529"/>
<path d="M12.9101 22.1203C13.3354 22.1203 13.6801 21.7756 13.6801 21.3503C13.6801 20.9251 13.3354 20.5803 12.9101 20.5803C12.4849 20.5803 12.1401 20.9251 12.1401 21.3503C12.1401 21.7756 12.4849 22.1203 12.9101 22.1203Z" fill="#212529"/>
<path d="M11.0002 20.2002C11.4255 20.2002 11.7702 19.8554 11.7702 19.4302C11.7702 19.0049 11.4255 18.6602 11.0002 18.6602C10.575 18.6602 10.2302 19.0049 10.2302 19.4302C10.2302 19.8554 10.575 20.2002 11.0002 20.2002Z" fill="#212529"/>
<path d="M7.16014 20.2002C7.5854 20.2002 7.93014 19.8554 7.93014 19.4302C7.93014 19.0049 7.5854 18.6602 7.16014 18.6602C6.73488 18.6602 6.39014 19.0049 6.39014 19.4302C6.39014 19.8554 6.73488 20.2002 7.16014 20.2002Z" fill="#212529"/>
<path d="M12.9101 18.2902C13.3354 18.2902 13.6801 17.9455 13.6801 17.5202C13.6801 17.095 13.3354 16.7502 12.9101 16.7502C12.4849 16.7502 12.1401 17.095 12.1401 17.5202C12.1401 17.9455 12.4849 18.2902 12.9101 18.2902Z" fill="#212529"/>
<path d="M11.0002 31.3203C11.4255 31.3203 11.7702 30.9755 11.7702 30.5503C11.7702 30.125 11.4255 29.7803 11.0002 29.7803C10.575 29.7803 10.2302 30.125 10.2302 30.5503C10.2302 30.9755 10.575 31.3203 11.0002 31.3203Z" fill="#212529"/>
<path d="M7.16014 31.3203C7.5854 31.3203 7.93014 30.9755 7.93014 30.5503C7.93014 30.125 7.5854 29.7803 7.16014 29.7803C6.73488 29.7803 6.39014 30.125 6.39014 30.5503C6.39014 30.9755 6.73488 31.3203 7.16014 31.3203Z" fill="#212529"/>
<path d="M9.08006 29.4004C9.50532 29.4004 9.85006 29.0556 9.85006 28.6304C9.85006 28.2051 9.50532 27.8604 9.08006 27.8604C8.6548 27.8604 8.31006 28.2051 8.31006 28.6304C8.31006 29.0556 8.6548 29.4004 9.08006 29.4004Z" fill="#212529"/>
<path d="M9.08006 25.5703C9.50532 25.5703 9.85006 25.2255 9.85006 24.8003C9.85006 24.375 9.50532 24.0303 9.08006 24.0303C8.6548 24.0303 8.31006 24.375 8.31006 24.8003C8.31006 25.2255 8.6548 25.5703 9.08006 25.5703Z" fill="#212529"/>
<path d="M12.9101 29.4004C13.3354 29.4004 13.6801 29.0556 13.6801 28.6304C13.6801 28.2051 13.3354 27.8604 12.9101 27.8604C12.4849 27.8604 12.1401 28.2051 12.1401 28.6304C12.1401 29.0556 12.4849 29.4004 12.9101 29.4004Z" fill="#212529"/>
<path d="M11.0002 27.4902C11.4255 27.4902 11.7702 27.1455 11.7702 26.7202C11.7702 26.2949 11.4255 25.9502 11.0002 25.9502C10.575 25.9502 10.2302 26.2949 10.2302 26.7202C10.2302 27.1455 10.575 27.4902 11.0002 27.4902Z" fill="#212529"/>
<path d="M7.16014 27.4902C7.5854 27.4902 7.93014 27.1455 7.93014 26.7202C7.93014 26.2949 7.5854 25.9502 7.16014 25.9502C6.73488 25.9502 6.39014 26.2949 6.39014 26.7202C6.39014 27.1455 6.73488 27.4902 7.16014 27.4902Z" fill="#212529"/>
<path d="M12.9101 25.5703C13.3354 25.5703 13.6801 25.2255 13.6801 24.8003C13.6801 24.375 13.3354 24.0303 12.9101 24.0303C12.4849 24.0303 12.1401 24.375 12.1401 24.8003C12.1401 25.2255 12.4849 25.5703 12.9101 25.5703Z" fill="#212529"/>
<path d="M3.71019 9.47018C4.13544 9.47018 4.48019 9.12543 4.48019 8.70018C4.48019 8.27492 4.13544 7.93018 3.71019 7.93018C3.28493 7.93018 2.94019 8.27492 2.94019 8.70018C2.94019 9.12543 3.28493 9.47018 3.71019 9.47018Z" fill="#212529"/>
<path d="M-0.119893 9.47018C0.305367 9.47018 0.650107 9.12543 0.650107 8.70018C0.650107 8.27492 0.305367 7.93018 -0.119893 7.93018C-0.545152 7.93018 -0.889893 8.27492 -0.889893 8.70018C-0.889893 9.12543 -0.545152 9.47018 -0.119893 9.47018Z" fill="#212529"/>
<path d="M1.80003 7.55025C2.22529 7.55025 2.57003 7.20551 2.57003 6.78025C2.57003 6.35499 2.22529 6.01025 1.80003 6.01025C1.37477 6.01025 1.03003 6.35499 1.03003 6.78025C1.03003 7.20551 1.37477 7.55025 1.80003 7.55025Z" fill="#212529"/>
<path d="M1.80003 3.72018C2.22529 3.72018 2.57003 3.37543 2.57003 2.95018C2.57003 2.52492 2.22529 2.18018 1.80003 2.18018C1.37477 2.18018 1.03003 2.52492 1.03003 2.95018C1.03003 3.37543 1.37477 3.72018 1.80003 3.72018Z" fill="#212529"/>
<path d="M5.63011 7.55025C6.05537 7.55025 6.40011 7.20551 6.40011 6.78025C6.40011 6.35499 6.05537 6.01025 5.63011 6.01025C5.20485 6.01025 4.86011 6.35499 4.86011 6.78025C4.86011 7.20551 5.20485 7.55025 5.63011 7.55025Z" fill="#212529"/>
<path d="M3.71019 5.63009C4.13544 5.63009 4.48019 5.28535 4.48019 4.86009C4.48019 4.43483 4.13544 4.09009 3.71019 4.09009C3.28493 4.09009 2.94019 4.43483 2.94019 4.86009C2.94019 5.28535 3.28493 5.63009 3.71019 5.63009Z" fill="#212529"/>
<path d="M-0.119893 5.63009C0.305367 5.63009 0.650107 5.28535 0.650107 4.86009C0.650107 4.43483 0.305367 4.09009 -0.119893 4.09009C-0.545152 4.09009 -0.889893 4.43483 -0.889893 4.86009C-0.889893 5.28535 -0.545152 5.63009 -0.119893 5.63009Z" fill="#212529"/>
<path d="M5.63011 3.72018C6.05537 3.72018 6.40011 3.37543 6.40011 2.95018C6.40011 2.52492 6.05537 2.18018 5.63011 2.18018C5.20485 2.18018 4.86011 2.52492 4.86011 2.95018C4.86011 3.37543 5.20485 3.72018 5.63011 3.72018Z" fill="#212529"/>
<path d="M3.71019 16.7502C4.13544 16.7502 4.48019 16.4055 4.48019 15.9802C4.48019 15.5549 4.13544 15.2102 3.71019 15.2102C3.28493 15.2102 2.94019 15.5549 2.94019 15.9802C2.94019 16.4055 3.28493 16.7502 3.71019 16.7502Z" fill="#212529"/>
<path d="M-0.119893 16.7502C0.305367 16.7502 0.650107 16.4055 0.650107 15.9802C0.650107 15.5549 0.305367 15.2102 -0.119893 15.2102C-0.545152 15.2102 -0.889893 15.5549 -0.889893 15.9802C-0.889893 16.4055 -0.545152 16.7502 -0.119893 16.7502Z" fill="#212529"/>
<path d="M1.80003 14.8303C2.22529 14.8303 2.57003 14.4855 2.57003 14.0603C2.57003 13.635 2.22529 13.2903 1.80003 13.2903C1.37477 13.2903 1.03003 13.635 1.03003 14.0603C1.03003 14.4855 1.37477 14.8303 1.80003 14.8303Z" fill="#212529"/>
<path d="M1.80003 11.0002C2.22529 11.0002 2.57003 10.6555 2.57003 10.2302C2.57003 9.80495 2.22529 9.46021 1.80003 9.46021C1.37477 9.46021 1.03003 9.80495 1.03003 10.2302C1.03003 10.6555 1.37477 11.0002 1.80003 11.0002Z" fill="#212529"/>
<path d="M5.63011 14.8303C6.05537 14.8303 6.40011 14.4855 6.40011 14.0603C6.40011 13.635 6.05537 13.2903 5.63011 13.2903C5.20485 13.2903 4.86011 13.635 4.86011 14.0603C4.86011 14.4855 5.20485 14.8303 5.63011 14.8303Z" fill="#212529"/>
<path d="M3.71019 12.9201C4.13544 12.9201 4.48019 12.5754 4.48019 12.1501C4.48019 11.7249 4.13544 11.3801 3.71019 11.3801C3.28493 11.3801 2.94019 11.7249 2.94019 12.1501C2.94019 12.5754 3.28493 12.9201 3.71019 12.9201Z" fill="#212529"/>
<path d="M-0.119893 12.9201C0.305367 12.9201 0.650107 12.5754 0.650107 12.1501C0.650107 11.7249 0.305367 11.3801 -0.119893 11.3801C-0.545152 11.3801 -0.889893 11.7249 -0.889893 12.1501C-0.889893 12.5754 -0.545152 12.9201 -0.119893 12.9201Z" fill="#212529"/>
<path d="M5.63011 11.0002C6.05537 11.0002 6.40011 10.6555 6.40011 10.2302C6.40011 9.80495 6.05537 9.46021 5.63011 9.46021C5.20485 9.46021 4.86011 9.80495 4.86011 10.2302C4.86011 10.6555 5.20485 11.0002 5.63011 11.0002Z" fill="#212529"/>
<path d="M3.71019 24.0402C4.13544 24.0402 4.48019 23.6955 4.48019 23.2702C4.48019 22.845 4.13544 22.5002 3.71019 22.5002C3.28493 22.5002 2.94019 22.845 2.94019 23.2702C2.94019 23.6955 3.28493 24.0402 3.71019 24.0402Z" fill="#212529"/>
<path d="M-0.119893 24.0402C0.305367 24.0402 0.650107 23.6955 0.650107 23.2702C0.650107 22.845 0.305367 22.5002 -0.119893 22.5002C-0.545152 22.5002 -0.889893 22.845 -0.889893 23.2702C-0.889893 23.6955 -0.545152 24.0402 -0.119893 24.0402Z" fill="#212529"/>
<path d="M1.80003 22.1203C2.22529 22.1203 2.57003 21.7756 2.57003 21.3503C2.57003 20.9251 2.22529 20.5803 1.80003 20.5803C1.37477 20.5803 1.03003 20.9251 1.03003 21.3503C1.03003 21.7756 1.37477 22.1203 1.80003 22.1203Z" fill="#212529"/>
<path d="M1.80003 18.2902C2.22529 18.2902 2.57003 17.9455 2.57003 17.5202C2.57003 17.095 2.22529 16.7502 1.80003 16.7502C1.37477 16.7502 1.03003 17.095 1.03003 17.5202C1.03003 17.9455 1.37477 18.2902 1.80003 18.2902Z" fill="#212529"/>
<path d="M5.63011 22.1203C6.05537 22.1203 6.40011 21.7756 6.40011 21.3503C6.40011 20.9251 6.05537 20.5803 5.63011 20.5803C5.20485 20.5803 4.86011 20.9251 4.86011 21.3503C4.86011 21.7756 5.20485 22.1203 5.63011 22.1203Z" fill="#212529"/>
<path d="M3.71019 20.2002C4.13544 20.2002 4.48019 19.8554 4.48019 19.4302C4.48019 19.0049 4.13544 18.6602 3.71019 18.6602C3.28493 18.6602 2.94019 19.0049 2.94019 19.4302C2.94019 19.8554 3.28493 20.2002 3.71019 20.2002Z" fill="#212529"/>
<path d="M-0.119893 20.2002C0.305367 20.2002 0.650107 19.8554 0.650107 19.4302C0.650107 19.0049 0.305367 18.6602 -0.119893 18.6602C-0.545152 18.6602 -0.889893 19.0049 -0.889893 19.4302C-0.889893 19.8554 -0.545152 20.2002 -0.119893 20.2002Z" fill="#212529"/>
<path d="M5.63011 18.2902C6.05537 18.2902 6.40011 17.9455 6.40011 17.5202C6.40011 17.095 6.05537 16.7502 5.63011 16.7502C5.20485 16.7502 4.86011 17.095 4.86011 17.5202C4.86011 17.9455 5.20485 18.2902 5.63011 18.2902Z" fill="#212529"/>
<path d="M3.71019 31.3203C4.13544 31.3203 4.48019 30.9755 4.48019 30.5503C4.48019 30.125 4.13544 29.7803 3.71019 29.7803C3.28493 29.7803 2.94019 30.125 2.94019 30.5503C2.94019 30.9755 3.28493 31.3203 3.71019 31.3203Z" fill="#212529"/>
<path d="M-0.119893 31.3203C0.305367 31.3203 0.650107 30.9755 0.650107 30.5503C0.650107 30.125 0.305367 29.7803 -0.119893 29.7803C-0.545152 29.7803 -0.889893 30.125 -0.889893 30.5503C-0.889893 30.9755 -0.545152 31.3203 -0.119893 31.3203Z" fill="#212529"/>
<path d="M1.80003 29.4004C2.22529 29.4004 2.57003 29.0556 2.57003 28.6304C2.57003 28.2051 2.22529 27.8604 1.80003 27.8604C1.37477 27.8604 1.03003 28.2051 1.03003 28.6304C1.03003 29.0556 1.37477 29.4004 1.80003 29.4004Z" fill="#212529"/>
<path d="M1.80003 25.5703C2.22529 25.5703 2.57003 25.2255 2.57003 24.8003C2.57003 24.375 2.22529 24.0303 1.80003 24.0303C1.37477 24.0303 1.03003 24.375 1.03003 24.8003C1.03003 25.2255 1.37477 25.5703 1.80003 25.5703Z" fill="#212529"/>
<path d="M5.63011 29.4004C6.05537 29.4004 6.40011 29.0556 6.40011 28.6304C6.40011 28.2051 6.05537 27.8604 5.63011 27.8604C5.20485 27.8604 4.86011 28.2051 4.86011 28.6304C4.86011 29.0556 5.20485 29.4004 5.63011 29.4004Z" fill="#212529"/>
<path d="M3.71019 27.4902C4.13544 27.4902 4.48019 27.1455 4.48019 26.7202C4.48019 26.2949 4.13544 25.9502 3.71019 25.9502C3.28493 25.9502 2.94019 26.2949 2.94019 26.7202C2.94019 27.1455 3.28493 27.4902 3.71019 27.4902Z" fill="#212529"/>
<path d="M-0.119893 27.4902C0.305367 27.4902 0.650107 27.1455 0.650107 26.7202C0.650107 26.2949 0.305367 25.9502 -0.119893 25.9502C-0.545152 25.9502 -0.889893 26.2949 -0.889893 26.7202C-0.889893 27.1455 -0.545152 27.4902 -0.119893 27.4902Z" fill="#212529"/>
<path d="M5.63011 25.5703C6.05537 25.5703 6.40011 25.2255 6.40011 24.8003C6.40011 24.375 6.05537 24.0303 5.63011 24.0303C5.20485 24.0303 4.86011 24.375 4.86011 24.8003C4.86011 25.2255 5.20485 25.5703 5.63011 25.5703Z" fill="#212529"/>
</g>
<path d="M19 30.49H18.94C18.7676 30.4808 18.6013 30.4222 18.4613 30.3211C18.3212 30.22 18.2131 30.0808 18.15 29.92L14 19.58L10.78 26.67C10.7086 26.8305 10.5922 26.9669 10.4449 27.0628C10.2976 27.1586 10.1258 27.2097 9.95005 27.21H5.54005C5.40392 27.2094 5.26962 27.1786 5.14684 27.1198C5.02407 27.061 4.91587 26.9757 4.83005 26.87C2.98778 24.5805 1.67935 21.909 1.00005 19.05C0.590135 17.5397 0.461328 15.9669 0.620046 14.41C1.22005 7.31998 6.23005 2.18998 12.51 2.18998C14.3887 2.18517 16.2392 2.64679 17.8956 3.53342C19.5519 4.42005 20.9622 5.70396 22 7.26998C22.0487 7.34093 22.1125 7.40017 22.1869 7.44341C22.2613 7.48665 22.3443 7.51281 22.43 7.51998C22.5182 7.51742 22.6044 7.49329 22.6811 7.44971C22.7578 7.40613 22.8227 7.34442 22.87 7.26998C23.9591 5.71261 25.4054 4.43873 27.0877 3.55492C28.7701 2.67111 30.6397 2.20307 32.54 2.18998C38.82 2.18998 43.83 7.31998 44.48 14.41C44.6388 15.9669 44.51 17.5397 44.1 19.05C43.4059 21.9133 42.0802 24.5852 40.22 26.87C40.1342 26.9757 40.026 27.061 39.9032 27.1198C39.7805 27.1786 39.6462 27.2094 39.51 27.21H31.27C31.0528 27.2102 30.8427 27.1327 30.6776 26.9914C30.5126 26.8502 30.4035 26.6546 30.37 26.44L28.68 15.74L26.41 26.51C26.3742 26.6915 26.2838 26.8577 26.1511 26.9866C26.0183 27.1154 25.8494 27.2008 25.6669 27.2312C25.4844 27.2616 25.297 27.2357 25.1296 27.1568C24.9622 27.078 24.8228 26.95 24.73 26.79L23.08 24L19.75 30C19.6779 30.1394 19.5709 30.2578 19.4395 30.3437C19.3081 30.4295 19.1567 30.4799 19 30.49ZM14 16.35C14.1794 16.3514 14.3543 16.4065 14.5022 16.508C14.6501 16.6096 14.7643 16.7531 14.83 16.92L19.04 27.46L22.22 21.74C22.2973 21.6 22.4101 21.4829 22.547 21.4004C22.684 21.3179 22.8402 21.2729 23 21.27C23.1596 21.2691 23.3166 21.3103 23.4553 21.3892C23.5939 21.4682 23.7094 21.5823 23.79 21.72L25.06 23.85L27.86 10.5C27.9092 10.2946 28.0275 10.1124 28.195 9.98394C28.3626 9.85546 28.5693 9.78854 28.7803 9.7944C28.9914 9.80027 29.194 9.87856 29.3542 10.0161C29.5144 10.1537 29.6224 10.3422 29.66 10.55L32 25.38H39C40.5515 23.387 41.6596 21.0857 42.25 18.63C42.616 17.3508 42.7348 16.0136 42.6 14.69C42.6 14.69 42.6 14.63 42.6 14.6C42.07 8.46998 37.81 3.99998 32.49 3.99998C30.882 4.00858 29.2998 4.40483 27.8776 5.15512C26.4553 5.90541 25.235 6.98762 24.32 8.30998C24.0966 8.61833 23.8036 8.86959 23.4647 9.04336C23.1259 9.21712 22.7508 9.30847 22.37 9.30998C21.991 9.31445 21.6167 9.22557 21.2801 9.05117C20.9435 8.87678 20.655 8.62223 20.44 8.30998C19.5767 6.99284 18.4007 5.90993 17.017 5.15787C15.6333 4.40582 14.0849 4.00802 12.51 3.99998C7.19005 3.99998 2.93005 8.46998 2.39005 14.6C2.39005 14.6 2.39005 14.67 2.39005 14.7C2.25537 16.0203 2.37416 17.3542 2.74005 18.63C3.33351 21.0865 4.44499 23.3879 6.00005 25.38H9.32005L13.19 16.88C13.2605 16.7236 13.3742 16.5907 13.5177 16.4968C13.6612 16.4029 13.8286 16.352 14 16.35Z" fill="#2A2527"/>
<path d="M22.3701 42.8101C22.1448 42.8144 21.9265 42.7321 21.7601 42.5801L7.00012 29.2201C6.20342 28.4955 5.4645 27.7098 4.79012 26.8701C4.67957 26.7365 4.60952 26.574 4.5882 26.4019C4.56688 26.2298 4.59519 26.0552 4.6698 25.8986C4.7444 25.7421 4.86219 25.6101 5.0093 25.5182C5.15641 25.4263 5.3267 25.3784 5.50012 25.3801H9.32012L13.1901 16.8801C13.2644 16.7183 13.3845 16.5818 13.5356 16.4876C13.6867 16.3934 13.8621 16.3456 14.0401 16.3501C14.2195 16.3516 14.3944 16.4066 14.5423 16.5082C14.6902 16.6098 14.8043 16.7532 14.8701 16.9201L19.0801 27.4601L22.2601 21.7401C22.3374 21.6002 22.4502 21.483 22.5871 21.4005C22.724 21.318 22.8803 21.273 23.0401 21.2701C23.1997 21.2693 23.3567 21.3104 23.4953 21.3894C23.634 21.4684 23.7495 21.5824 23.8301 21.7201L25.1001 23.8501L27.9001 10.5001C27.9493 10.2948 28.0675 10.1126 28.2351 9.98408C28.4027 9.8556 28.6093 9.78868 28.8204 9.79454C29.0315 9.80041 29.2341 9.8787 29.3943 10.0163C29.5545 10.1539 29.6625 10.3424 29.7001 10.5501L32.0401 25.3801H39.4501C39.6235 25.3784 39.7938 25.4263 39.9409 25.5182C40.0881 25.6101 40.2058 25.7421 40.2804 25.8986C40.355 26.0552 40.3834 26.2298 40.362 26.4019C40.3407 26.574 40.2707 26.7365 40.1601 26.8701C39.5017 27.7079 38.7796 28.4936 38.0001 29.2201L23.0001 42.5801C22.8287 42.7369 22.6023 42.8196 22.3701 42.8101ZM7.58012 27.2101C7.80679 27.4368 8.03679 27.6568 8.27012 27.8701L22.3801 40.6701L36.7401 27.8601C36.9701 27.6501 37.2001 27.4401 37.4201 27.2101H31.2701C31.0529 27.2103 30.8428 27.1328 30.6777 26.9916C30.5126 26.8504 30.4035 26.6548 30.3701 26.4401L28.6801 15.7401L26.4101 26.5101C26.3743 26.6916 26.2839 26.8579 26.1511 26.9867C26.0184 27.1156 25.8495 27.2009 25.667 27.2313C25.4845 27.2617 25.2971 27.2358 25.1297 27.157C24.9623 27.0782 24.8229 26.9502 24.7301 26.7901L23.0801 24.0001L19.7501 30.0001C19.6647 30.1508 19.539 30.2746 19.3871 30.3576C19.2351 30.4406 19.063 30.4796 18.8901 30.4701C18.7176 30.4609 18.5514 30.4023 18.4113 30.3012C18.2713 30.2002 18.1632 30.0609 18.1001 29.9001L14.0001 19.5801L10.7801 26.6701C10.7087 26.8307 10.5923 26.9671 10.445 27.0629C10.2977 27.1587 10.1258 27.2099 9.95012 27.2101H7.58012Z" fill="#2A2527"/>
</svg>
