<svg width="45" height="45" viewBox="0 0 45 45" fill="none" xmlns="http://www.w3.org/2000/svg">
<path d="M8.99999 13.2599C8.87314 13.2678 8.74607 13.2487 8.62714 13.2038C8.50821 13.159 8.40013 13.0895 8.30999 12.9999L5.47999 10.1499C5.39169 10.0642 5.32149 9.9616 5.27356 9.84823C5.22563 9.73486 5.20093 9.61303 5.20093 9.48994C5.20093 9.36686 5.22563 9.24502 5.27356 9.13166C5.32149 9.01829 5.39169 8.91569 5.47999 8.82994C5.65588 8.6565 5.89297 8.55927 6.13999 8.55927C6.38701 8.55927 6.6241 8.6565 6.79999 8.82994L8.99999 10.9999L14 5.99994C14.0861 5.91138 14.189 5.84086 14.3027 5.7925C14.4163 5.74414 14.5385 5.71891 14.662 5.71827C14.7855 5.71764 14.9079 5.74162 15.0221 5.78882C15.1362 5.83602 15.2399 5.90548 15.3269 5.99316C15.4139 6.08083 15.4826 6.18497 15.5289 6.29948C15.5752 6.41398 15.5983 6.53657 15.5967 6.66009C15.5951 6.7836 15.569 6.90557 15.5197 7.01886C15.4705 7.13216 15.3992 7.23451 15.31 7.31994L9.62999 12.9999C9.46219 13.1658 9.23595 13.2592 8.99999 13.2599Z" fill="#231E20"/>
<path d="M7.55006 26.26C7.30568 26.2569 7.07089 26.1644 6.89006 26C6.71662 25.8241 6.61938 25.587 6.61938 25.34C6.61938 25.093 6.71662 24.8559 6.89006 24.68L12.5601 19C12.6458 18.9117 12.7484 18.8415 12.8618 18.7936C12.9751 18.7456 13.097 18.7209 13.2201 18.7209C13.3431 18.7209 13.465 18.7456 13.5783 18.7936C13.6917 18.8415 13.7943 18.9117 13.8801 19C14.0535 19.1759 14.1507 19.413 14.1507 19.66C14.1507 19.907 14.0535 20.1441 13.8801 20.32L8.21006 26C8.03305 26.1705 7.79577 26.2639 7.55006 26.26Z" fill="#231E20"/>
<path d="M13.2201 26.26C13.0977 26.2606 12.9764 26.2371 12.8632 26.1908C12.7499 26.1445 12.6469 26.0762 12.5601 25.99L6.89006 20.33C6.71662 20.1541 6.61938 19.917 6.61938 19.67C6.61938 19.423 6.71662 19.1859 6.89006 19.01C6.97581 18.9217 7.0784 18.8515 7.19177 18.8036C7.30514 18.7557 7.42697 18.731 7.55006 18.731C7.67314 18.731 7.79498 18.7557 7.90834 18.8036C8.02171 18.8515 8.12431 18.9217 8.21006 19.01L13.8801 24.67C14.0535 24.8459 14.1507 25.083 14.1507 25.33C14.1507 25.577 14.0535 25.8141 13.8801 25.99C13.7932 26.0762 13.6902 26.1445 13.577 26.1908C13.4637 26.2371 13.3424 26.2606 13.2201 26.26Z" fill="#231E20"/>
<path d="M8.99999 39.3501C8.87667 39.3512 8.75444 39.3268 8.64091 39.2787C8.52737 39.2305 8.42495 39.1595 8.33999 39.0701L5.47999 36.2401C5.39169 36.1544 5.32149 36.0518 5.27356 35.9384C5.22563 35.825 5.20093 35.7032 5.20093 35.5801C5.20093 35.457 5.22563 35.3352 5.27356 35.2218C5.32149 35.1085 5.39169 35.0059 5.47999 34.9201C5.65588 34.7467 5.89297 34.6494 6.13999 34.6494C6.38701 34.6494 6.6241 34.7467 6.79999 34.9201L8.99999 37.1001L14 32.1001C14.1761 31.9315 14.4113 31.8388 14.655 31.8419C14.8988 31.845 15.1316 31.9437 15.3033 32.1167C15.475 32.2897 15.572 32.5233 15.5732 32.767C15.5745 33.0108 15.4799 33.2453 15.31 33.4201L9.62999 39.0701C9.54853 39.1559 9.45097 39.2248 9.34286 39.2728C9.23476 39.3209 9.11825 39.3471 8.99999 39.3501Z" fill="#231E20"/>
<path d="M41.14 17.86V28.09H18.77V16.91H20.58L19.08 15.05H18.77V14.66L17.52 13.1C17.2545 12.7714 17.0481 12.3992 16.91 12V15.06H3.91V3.86004H16.91V9.55004C16.9977 9.28435 17.1151 9.0294 17.26 8.79004L18.77 6.37004V3.86004H20.34L20.99 2.86004C21.1877 2.55823 21.423 2.2827 21.69 2.04004H2V43H43V15.55L41.14 17.86ZM16.91 41.14H3.91V30H16.91V41.14ZM16.91 28.14H3.91V16.91H16.91V28.14ZM41.14 41.14H18.77V30H41.14V41.14Z" fill="#2A2527"/>
<path d="M43.0001 11.09C43.0028 11.06 43.0028 11.0299 43.0001 11V10.87C43.0057 10.8335 43.0057 10.7964 43.0001 10.76C43.0058 10.7135 43.0058 10.6665 43.0001 10.62C43.0001 10.62 43.0001 10.62 43.0001 10.56C43.0001 10.56 43.0001 10.56 43.0001 10.5L39.2701 4.49996C39.1869 4.38374 39.0816 4.28517 38.9601 4.20996H38.9001H38.8201H38.7401H38.5801H24.1101H23.9601H23.8801H23.8301H23.7501H23.6901C23.6261 4.24754 23.5658 4.29107 23.5101 4.33996C23.4615 4.38518 23.4179 4.43547 23.3801 4.48996L19.6501 10.49C19.6501 10.49 19.6501 10.49 19.6501 10.55C19.6501 10.55 19.6501 10.55 19.6501 10.61C19.6443 10.6564 19.6443 10.7035 19.6501 10.75C19.6444 10.7864 19.6444 10.8235 19.6501 10.86V11C19.6452 11.0398 19.6452 11.0801 19.6501 11.12V11.25L19.7001 11.36V11.41C19.7001 11.41 19.7001 11.41 19.7501 11.48V11.54L30.5101 24.94C30.5602 25.0034 30.6212 25.0576 30.6901 25.1H30.7501L30.9101 25.18H30.9901C31.0664 25.1904 31.1438 25.1904 31.2201 25.18C31.283 25.1904 31.3472 25.1904 31.4101 25.18H31.4701H31.5401H31.5901H31.6601L31.7601 25.12C31.7601 25.12 31.7601 25.12 31.8201 25.07L31.9201 24.98L42.7901 11.51C42.7929 11.4901 42.7929 11.4699 42.7901 11.45L42.8401 11.38C42.8401 11.38 42.8401 11.38 42.8401 11.33L42.8901 11.22L43.0001 11.09ZM34.1401 9.99996H28.3501L31.2401 6.42996L34.1401 9.99996ZM34.7701 11.86L31.1801 21.48L27.6701 11.86H34.7701ZM35.7701 9.08996L33.1701 5.88996H37.0001L35.7701 9.08996ZM26.6401 9.08996L25.4901 5.88996H29.2901L26.6401 9.08996ZM38.5501 7.04996L40.3901 10.05H37.4501L38.5501 7.04996ZM23.9301 7.04996L25.0001 9.99996H22.1001L23.9301 7.04996ZM25.6801 11.84L28.4401 19.37L22.3701 11.84H25.6801ZM33.8601 19.61L36.7601 11.84H40.1201L33.8601 19.61Z" fill="#212529"/>
</svg>
