<svg width="32" height="32" viewBox="0 0 32 32" fill="none" xmlns="http://www.w3.org/2000/svg">
<mask id="mask0_18_2236" style="mask-type:alpha" maskUnits="userSpaceOnUse" x="1" y="2" width="31" height="28">
<path fill-rule="evenodd" clip-rule="evenodd" d="M16.1667 29.2222C24.543 29.2222 31.3333 23.1283 31.3333 15.6111C31.3333 8.0939 24.543 2 16.1667 2C7.79035 2 1 8.0939 1 15.6111C1 18.6954 2.14312 21.5401 4.06988 23.8226C3.89829 25.6484 3.23168 27.7558 2.84246 28.9863C2.67259 29.5233 2.55556 29.8933 2.55556 30C2.90976 30 6.81267 28.7096 8.97525 27.5979C11.1153 28.6341 13.5645 29.2222 16.1667 29.2222Z" fill="#3B0000"/>
</mask>
<g mask="url(#mask0_18_2236)">
<path d="M29.3801 5.44993C29.6618 5.44993 29.8901 5.2216 29.8901 4.93993C29.8901 4.65827 29.6618 4.42993 29.3801 4.42993C29.0985 4.42993 28.8701 4.65827 28.8701 4.93993C28.8701 5.2216 29.0985 5.44993 29.3801 5.44993Z" fill="#212529"/>
<path d="M26.81 5.44993C27.0917 5.44993 27.32 5.2216 27.32 4.93993C27.32 4.65827 27.0917 4.42993 26.81 4.42993C26.5284 4.42993 26.3 4.65827 26.3 4.93993C26.3 5.2216 26.5284 5.44993 26.81 5.44993Z" fill="#212529"/>
<path d="M28.0901 4.15989C28.3717 4.15989 28.6001 3.93156 28.6001 3.64989C28.6001 3.36823 28.3717 3.13989 28.0901 3.13989C27.8084 3.13989 27.5801 3.36823 27.5801 3.64989C27.5801 3.93156 27.8084 4.15989 28.0901 4.15989Z" fill="#212529"/>
<path d="M30.6702 4.15989C30.9518 4.15989 31.1802 3.93156 31.1802 3.64989C31.1802 3.36823 30.9518 3.13989 30.6702 3.13989C30.3885 3.13989 30.1602 3.36823 30.1602 3.64989C30.1602 3.93156 30.3885 4.15989 30.6702 4.15989Z" fill="#212529"/>
<path d="M29.3801 2.86985C29.6618 2.86985 29.8901 2.64152 29.8901 2.35985C29.8901 2.07819 29.6618 1.84985 29.3801 1.84985C29.0985 1.84985 28.8701 2.07819 28.8701 2.35985C28.8701 2.64152 29.0985 2.86985 29.3801 2.86985Z" fill="#212529"/>
<path d="M26.81 2.86985C27.0917 2.86985 27.32 2.64152 27.32 2.35985C27.32 2.07819 27.0917 1.84985 26.81 1.84985C26.5284 1.84985 26.3 2.07819 26.3 2.35985C26.3 2.64152 26.5284 2.86985 26.81 2.86985Z" fill="#212529"/>
<path d="M29.3801 10.3298C29.6618 10.3298 29.8901 10.1015 29.8901 9.81981C29.8901 9.53815 29.6618 9.30981 29.3801 9.30981C29.0985 9.30981 28.8701 9.53815 28.8701 9.81981C28.8701 10.1015 29.0985 10.3298 29.3801 10.3298Z" fill="#212529"/>
<path d="M26.81 10.3298C27.0917 10.3298 27.32 10.1015 27.32 9.81981C27.32 9.53815 27.0917 9.30981 26.81 9.30981C26.5284 9.30981 26.3 9.53815 26.3 9.81981C26.3 10.1015 26.5284 10.3298 26.81 10.3298Z" fill="#212529"/>
<path d="M28.0901 9.04979C28.3717 9.04979 28.6001 8.82145 28.6001 8.53979C28.6001 8.25812 28.3717 8.02979 28.0901 8.02979C27.8084 8.02979 27.5801 8.25812 27.5801 8.53979C27.5801 8.82145 27.8084 9.04979 28.0901 9.04979Z" fill="#212529"/>
<path d="M28.0901 6.46971C28.3717 6.46971 28.6001 6.24137 28.6001 5.95971C28.6001 5.67804 28.3717 5.44971 28.0901 5.44971C27.8084 5.44971 27.5801 5.67804 27.5801 5.95971C27.5801 6.24137 27.8084 6.46971 28.0901 6.46971Z" fill="#212529"/>
<path d="M30.6702 9.04979C30.9518 9.04979 31.1802 8.82145 31.1802 8.53979C31.1802 8.25812 30.9518 8.02979 30.6702 8.02979C30.3885 8.02979 30.1602 8.25812 30.1602 8.53979C30.1602 8.82145 30.3885 9.04979 30.6702 9.04979Z" fill="#212529"/>
<path d="M29.3801 7.75975C29.6618 7.75975 29.8901 7.53141 29.8901 7.24975C29.8901 6.96808 29.6618 6.73975 29.3801 6.73975C29.0985 6.73975 28.8701 6.96808 28.8701 7.24975C28.8701 7.53141 29.0985 7.75975 29.3801 7.75975Z" fill="#212529"/>
<path d="M26.81 7.75975C27.0917 7.75975 27.32 7.53141 27.32 7.24975C27.32 6.96808 27.0917 6.73975 26.81 6.73975C26.5284 6.73975 26.3 6.96808 26.3 7.24975C26.3 7.53141 26.5284 7.75975 26.81 7.75975Z" fill="#212529"/>
<path d="M30.6702 6.46971C30.9518 6.46971 31.1802 6.24137 31.1802 5.95971C31.1802 5.67804 30.9518 5.44971 30.6702 5.44971C30.3885 5.44971 30.1602 5.67804 30.1602 5.95971C30.1602 6.24137 30.3885 6.46971 30.6702 6.46971Z" fill="#212529"/>
<path d="M29.3801 15.22C29.6618 15.22 29.8901 14.9916 29.8901 14.71C29.8901 14.4283 29.6618 14.2 29.3801 14.2C29.0985 14.2 28.8701 14.4283 28.8701 14.71C28.8701 14.9916 29.0985 15.22 29.3801 15.22Z" fill="#212529"/>
<path d="M26.81 15.22C27.0917 15.22 27.32 14.9916 27.32 14.71C27.32 14.4283 27.0917 14.2 26.81 14.2C26.5284 14.2 26.3 14.4283 26.3 14.71C26.3 14.9916 26.5284 15.22 26.81 15.22Z" fill="#212529"/>
<path d="M28.0901 13.9399C28.3717 13.9399 28.6001 13.7116 28.6001 13.4299C28.6001 13.1483 28.3717 12.9199 28.0901 12.9199C27.8084 12.9199 27.5801 13.1483 27.5801 13.4299C27.5801 13.7116 27.8084 13.9399 28.0901 13.9399Z" fill="#212529"/>
<path d="M28.0901 11.3598C28.3717 11.3598 28.6001 11.1315 28.6001 10.8498C28.6001 10.5682 28.3717 10.3398 28.0901 10.3398C27.8084 10.3398 27.5801 10.5682 27.5801 10.8498C27.5801 11.1315 27.8084 11.3598 28.0901 11.3598Z" fill="#212529"/>
<path d="M30.6702 13.9399C30.9518 13.9399 31.1802 13.7116 31.1802 13.4299C31.1802 13.1483 30.9518 12.9199 30.6702 12.9199C30.3885 12.9199 30.1602 13.1483 30.1602 13.4299C30.1602 13.7116 30.3885 13.9399 30.6702 13.9399Z" fill="#212529"/>
<path d="M29.3801 12.6499C29.6618 12.6499 29.8901 12.4215 29.8901 12.1399C29.8901 11.8582 29.6618 11.6299 29.3801 11.6299C29.0985 11.6299 28.8701 11.8582 28.8701 12.1399C28.8701 12.4215 29.0985 12.6499 29.3801 12.6499Z" fill="#212529"/>
<path d="M26.81 12.6499C27.0917 12.6499 27.32 12.4215 27.32 12.1399C27.32 11.8582 27.0917 11.6299 26.81 11.6299C26.5284 11.6299 26.3 11.8582 26.3 12.1399C26.3 12.4215 26.5284 12.6499 26.81 12.6499Z" fill="#212529"/>
<path d="M30.6702 11.3598C30.9518 11.3598 31.1802 11.1315 31.1802 10.8498C31.1802 10.5682 30.9518 10.3398 30.6702 10.3398C30.3885 10.3398 30.1602 10.5682 30.1602 10.8498C30.1602 11.1315 30.3885 11.3598 30.6702 11.3598Z" fill="#212529"/>
<path d="M29.3801 20.1098C29.6618 20.1098 29.8901 19.8815 29.8901 19.5998C29.8901 19.3182 29.6618 19.0898 29.3801 19.0898C29.0985 19.0898 28.8701 19.3182 28.8701 19.5998C28.8701 19.8815 29.0985 20.1098 29.3801 20.1098Z" fill="#212529"/>
<path d="M26.81 20.1098C27.0917 20.1098 27.32 19.8815 27.32 19.5998C27.32 19.3182 27.0917 19.0898 26.81 19.0898C26.5284 19.0898 26.3 19.3182 26.3 19.5998C26.3 19.8815 26.5284 20.1098 26.81 20.1098Z" fill="#212529"/>
<path d="M28.0901 18.8298C28.3717 18.8298 28.6001 18.6015 28.6001 18.3198C28.6001 18.0381 28.3717 17.8098 28.0901 17.8098C27.8084 17.8098 27.5801 18.0381 27.5801 18.3198C27.5801 18.6015 27.8084 18.8298 28.0901 18.8298Z" fill="#212529"/>
<path d="M28.0901 16.2497C28.3717 16.2497 28.6001 16.0214 28.6001 15.7397C28.6001 15.4581 28.3717 15.2297 28.0901 15.2297C27.8084 15.2297 27.5801 15.4581 27.5801 15.7397C27.5801 16.0214 27.8084 16.2497 28.0901 16.2497Z" fill="#212529"/>
<path d="M30.6702 18.8298C30.9518 18.8298 31.1802 18.6015 31.1802 18.3198C31.1802 18.0381 30.9518 17.8098 30.6702 17.8098C30.3885 17.8098 30.1602 18.0381 30.1602 18.3198C30.1602 18.6015 30.3885 18.8298 30.6702 18.8298Z" fill="#212529"/>
<path d="M29.3801 17.5398C29.6618 17.5398 29.8901 17.3114 29.8901 17.0298C29.8901 16.7481 29.6618 16.5198 29.3801 16.5198C29.0985 16.5198 28.8701 16.7481 28.8701 17.0298C28.8701 17.3114 29.0985 17.5398 29.3801 17.5398Z" fill="#212529"/>
<path d="M26.81 17.5398C27.0917 17.5398 27.32 17.3114 27.32 17.0298C27.32 16.7481 27.0917 16.5198 26.81 16.5198C26.5284 16.5198 26.3 16.7481 26.3 17.0298C26.3 17.3114 26.5284 17.5398 26.81 17.5398Z" fill="#212529"/>
<path d="M30.6702 16.2497C30.9518 16.2497 31.1802 16.0214 31.1802 15.7397C31.1802 15.4581 30.9518 15.2297 30.6702 15.2297C30.3885 15.2297 30.1602 15.4581 30.1602 15.7397C30.1602 16.0214 30.3885 16.2497 30.6702 16.2497Z" fill="#212529"/>
<path d="M29.3801 25C29.6618 25 29.8901 24.7716 29.8901 24.49C29.8901 24.2083 29.6618 23.98 29.3801 23.98C29.0985 23.98 28.8701 24.2083 28.8701 24.49C28.8701 24.7716 29.0985 25 29.3801 25Z" fill="#212529"/>
<path d="M26.81 25C27.0917 25 27.32 24.7716 27.32 24.49C27.32 24.2083 27.0917 23.98 26.81 23.98C26.5284 23.98 26.3 24.2083 26.3 24.49C26.3 24.7716 26.5284 25 26.81 25Z" fill="#212529"/>
<path d="M28.0901 23.7099C28.3717 23.7099 28.6001 23.4816 28.6001 23.1999C28.6001 22.9183 28.3717 22.6899 28.0901 22.6899C27.8084 22.6899 27.5801 22.9183 27.5801 23.1999C27.5801 23.4816 27.8084 23.7099 28.0901 23.7099Z" fill="#212529"/>
<path d="M28.0901 21.1399C28.3717 21.1399 28.6001 20.9115 28.6001 20.6299C28.6001 20.3482 28.3717 20.1199 28.0901 20.1199C27.8084 20.1199 27.5801 20.3482 27.5801 20.6299C27.5801 20.9115 27.8084 21.1399 28.0901 21.1399Z" fill="#212529"/>
<path d="M30.6702 23.7099C30.9518 23.7099 31.1802 23.4816 31.1802 23.1999C31.1802 22.9183 30.9518 22.6899 30.6702 22.6899C30.3885 22.6899 30.1602 22.9183 30.1602 23.1999C30.1602 23.4816 30.3885 23.7099 30.6702 23.7099Z" fill="#212529"/>
<path d="M29.3801 22.4299C29.6618 22.4299 29.8901 22.2016 29.8901 21.9199C29.8901 21.6382 29.6618 21.4099 29.3801 21.4099C29.0985 21.4099 28.8701 21.6382 28.8701 21.9199C28.8701 22.2016 29.0985 22.4299 29.3801 22.4299Z" fill="#212529"/>
<path d="M26.81 22.4299C27.0917 22.4299 27.32 22.2016 27.32 21.9199C27.32 21.6382 27.0917 21.4099 26.81 21.4099C26.5284 21.4099 26.3 21.6382 26.3 21.9199C26.3 22.2016 26.5284 22.4299 26.81 22.4299Z" fill="#212529"/>
<path d="M30.6702 21.1399C30.9518 21.1399 31.1802 20.9115 31.1802 20.6299C31.1802 20.3482 30.9518 20.1199 30.6702 20.1199C30.3885 20.1199 30.1602 20.3482 30.1602 20.6299C30.1602 20.9115 30.3885 21.1399 30.6702 21.1399Z" fill="#212529"/>
<path d="M29.3801 29.8899C29.6618 29.8899 29.8901 29.6615 29.8901 29.3799C29.8901 29.0982 29.6618 28.8699 29.3801 28.8699C29.0985 28.8699 28.8701 29.0982 28.8701 29.3799C28.8701 29.6615 29.0985 29.8899 29.3801 29.8899Z" fill="#212529"/>
<path d="M26.81 29.8899C27.0917 29.8899 27.32 29.6615 27.32 29.3799C27.32 29.0982 27.0917 28.8699 26.81 28.8699C26.5284 28.8699 26.3 29.0982 26.3 29.3799C26.3 29.6615 26.5284 29.8899 26.81 29.8899Z" fill="#212529"/>
<path d="M28.0901 28.5998C28.3717 28.5998 28.6001 28.3715 28.6001 28.0898C28.6001 27.8082 28.3717 27.5798 28.0901 27.5798C27.8084 27.5798 27.5801 27.8082 27.5801 28.0898C27.5801 28.3715 27.8084 28.5998 28.0901 28.5998Z" fill="#212529"/>
<path d="M28.0901 26.0298C28.3717 26.0298 28.6001 25.8014 28.6001 25.5198C28.6001 25.2381 28.3717 25.0098 28.0901 25.0098C27.8084 25.0098 27.5801 25.2381 27.5801 25.5198C27.5801 25.8014 27.8084 26.0298 28.0901 26.0298Z" fill="#212529"/>
<path d="M30.6702 28.5998C30.9518 28.5998 31.1802 28.3715 31.1802 28.0898C31.1802 27.8082 30.9518 27.5798 30.6702 27.5798C30.3885 27.5798 30.1602 27.8082 30.1602 28.0898C30.1602 28.3715 30.3885 28.5998 30.6702 28.5998Z" fill="#212529"/>
<path d="M29.3801 27.3198C29.6618 27.3198 29.8901 27.0915 29.8901 26.8098C29.8901 26.5281 29.6618 26.2998 29.3801 26.2998C29.0985 26.2998 28.8701 26.5281 28.8701 26.8098C28.8701 27.0915 29.0985 27.3198 29.3801 27.3198Z" fill="#212529"/>
<path d="M26.81 27.3198C27.0917 27.3198 27.32 27.0915 27.32 26.8098C27.32 26.5281 27.0917 26.2998 26.81 26.2998C26.5284 26.2998 26.3 26.5281 26.3 26.8098C26.3 27.0915 26.5284 27.3198 26.81 27.3198Z" fill="#212529"/>
<path d="M30.6702 26.0298C30.9518 26.0298 31.1802 25.8014 31.1802 25.5198C31.1802 25.2381 30.9518 25.0098 30.6702 25.0098C30.3885 25.0098 30.1602 25.2381 30.1602 25.5198C30.1602 25.8014 30.3885 26.0298 30.6702 26.0298Z" fill="#212529"/>
<path d="M28.0901 30.9199C28.3717 30.9199 28.6001 30.6916 28.6001 30.4099C28.6001 30.1282 28.3717 29.8999 28.0901 29.8999C27.8084 29.8999 27.5801 30.1282 27.5801 30.4099C27.5801 30.6916 27.8084 30.9199 28.0901 30.9199Z" fill="#212529"/>
<path d="M30.6702 30.9199C30.9518 30.9199 31.1802 30.6916 31.1802 30.4099C31.1802 30.1282 30.9518 29.8999 30.6702 29.8999C30.3885 29.8999 30.1602 30.1282 30.1602 30.4099C30.1602 30.6916 30.3885 30.9199 30.6702 30.9199Z" fill="#212529"/>
<path d="M24.4902 5.44993C24.7719 5.44993 25.0002 5.2216 25.0002 4.93993C25.0002 4.65827 24.7719 4.42993 24.4902 4.42993C24.2086 4.42993 23.9802 4.65827 23.9802 4.93993C23.9802 5.2216 24.2086 5.44993 24.4902 5.44993Z" fill="#212529"/>
<path d="M21.9202 5.44993C22.2018 5.44993 22.4302 5.2216 22.4302 4.93993C22.4302 4.65827 22.2018 4.42993 21.9202 4.42993C21.6385 4.42993 21.4102 4.65827 21.4102 4.93993C21.4102 5.2216 21.6385 5.44993 21.9202 5.44993Z" fill="#212529"/>
<path d="M23.2002 4.15989C23.4819 4.15989 23.7102 3.93156 23.7102 3.64989C23.7102 3.36823 23.4819 3.13989 23.2002 3.13989C22.9185 3.13989 22.6902 3.36823 22.6902 3.64989C22.6902 3.93156 22.9185 4.15989 23.2002 4.15989Z" fill="#212529"/>
<path d="M25.7803 4.15989C26.0619 4.15989 26.2903 3.93156 26.2903 3.64989C26.2903 3.36823 26.0619 3.13989 25.7803 3.13989C25.4986 3.13989 25.2703 3.36823 25.2703 3.64989C25.2703 3.93156 25.4986 4.15989 25.7803 4.15989Z" fill="#212529"/>
<path d="M24.4902 2.86985C24.7719 2.86985 25.0002 2.64152 25.0002 2.35985C25.0002 2.07819 24.7719 1.84985 24.4902 1.84985C24.2086 1.84985 23.9802 2.07819 23.9802 2.35985C23.9802 2.64152 24.2086 2.86985 24.4902 2.86985Z" fill="#212529"/>
<path d="M21.9202 2.86985C22.2018 2.86985 22.4302 2.64152 22.4302 2.35985C22.4302 2.07819 22.2018 1.84985 21.9202 1.84985C21.6385 1.84985 21.4102 2.07819 21.4102 2.35985C21.4102 2.64152 21.6385 2.86985 21.9202 2.86985Z" fill="#212529"/>
<path d="M24.4902 10.3298C24.7719 10.3298 25.0002 10.1015 25.0002 9.81981C25.0002 9.53815 24.7719 9.30981 24.4902 9.30981C24.2086 9.30981 23.9802 9.53815 23.9802 9.81981C23.9802 10.1015 24.2086 10.3298 24.4902 10.3298Z" fill="#212529"/>
<path d="M21.9202 10.3298C22.2018 10.3298 22.4302 10.1015 22.4302 9.81981C22.4302 9.53815 22.2018 9.30981 21.9202 9.30981C21.6385 9.30981 21.4102 9.53815 21.4102 9.81981C21.4102 10.1015 21.6385 10.3298 21.9202 10.3298Z" fill="#212529"/>
<path d="M23.2002 9.04979C23.4819 9.04979 23.7102 8.82145 23.7102 8.53979C23.7102 8.25812 23.4819 8.02979 23.2002 8.02979C22.9185 8.02979 22.6902 8.25812 22.6902 8.53979C22.6902 8.82145 22.9185 9.04979 23.2002 9.04979Z" fill="#212529"/>
<path d="M23.2002 6.46971C23.4819 6.46971 23.7102 6.24137 23.7102 5.95971C23.7102 5.67804 23.4819 5.44971 23.2002 5.44971C22.9185 5.44971 22.6902 5.67804 22.6902 5.95971C22.6902 6.24137 22.9185 6.46971 23.2002 6.46971Z" fill="#212529"/>
<path d="M25.7803 9.04979C26.0619 9.04979 26.2903 8.82145 26.2903 8.53979C26.2903 8.25812 26.0619 8.02979 25.7803 8.02979C25.4986 8.02979 25.2703 8.25812 25.2703 8.53979C25.2703 8.82145 25.4986 9.04979 25.7803 9.04979Z" fill="#212529"/>
<path d="M24.4902 7.75975C24.7719 7.75975 25.0002 7.53141 25.0002 7.24975C25.0002 6.96808 24.7719 6.73975 24.4902 6.73975C24.2086 6.73975 23.9802 6.96808 23.9802 7.24975C23.9802 7.53141 24.2086 7.75975 24.4902 7.75975Z" fill="#212529"/>
<path d="M21.9202 7.75975C22.2018 7.75975 22.4302 7.53141 22.4302 7.24975C22.4302 6.96808 22.2018 6.73975 21.9202 6.73975C21.6385 6.73975 21.4102 6.96808 21.4102 7.24975C21.4102 7.53141 21.6385 7.75975 21.9202 7.75975Z" fill="#212529"/>
<path d="M25.7803 6.46971C26.0619 6.46971 26.2903 6.24137 26.2903 5.95971C26.2903 5.67804 26.0619 5.44971 25.7803 5.44971C25.4986 5.44971 25.2703 5.67804 25.2703 5.95971C25.2703 6.24137 25.4986 6.46971 25.7803 6.46971Z" fill="#212529"/>
<path d="M24.4902 15.22C24.7719 15.22 25.0002 14.9916 25.0002 14.71C25.0002 14.4283 24.7719 14.2 24.4902 14.2C24.2086 14.2 23.9802 14.4283 23.9802 14.71C23.9802 14.9916 24.2086 15.22 24.4902 15.22Z" fill="#212529"/>
<path d="M21.9202 15.22C22.2018 15.22 22.4302 14.9916 22.4302 14.71C22.4302 14.4283 22.2018 14.2 21.9202 14.2C21.6385 14.2 21.4102 14.4283 21.4102 14.71C21.4102 14.9916 21.6385 15.22 21.9202 15.22Z" fill="#212529"/>
<path d="M23.2002 13.9399C23.4819 13.9399 23.7102 13.7116 23.7102 13.4299C23.7102 13.1483 23.4819 12.9199 23.2002 12.9199C22.9185 12.9199 22.6902 13.1483 22.6902 13.4299C22.6902 13.7116 22.9185 13.9399 23.2002 13.9399Z" fill="#212529"/>
<path d="M23.2002 11.3598C23.4819 11.3598 23.7102 11.1315 23.7102 10.8498C23.7102 10.5682 23.4819 10.3398 23.2002 10.3398C22.9185 10.3398 22.6902 10.5682 22.6902 10.8498C22.6902 11.1315 22.9185 11.3598 23.2002 11.3598Z" fill="#212529"/>
<path d="M25.7803 13.9399C26.0619 13.9399 26.2903 13.7116 26.2903 13.4299C26.2903 13.1483 26.0619 12.9199 25.7803 12.9199C25.4986 12.9199 25.2703 13.1483 25.2703 13.4299C25.2703 13.7116 25.4986 13.9399 25.7803 13.9399Z" fill="#212529"/>
<path d="M24.4902 12.6499C24.7719 12.6499 25.0002 12.4215 25.0002 12.1399C25.0002 11.8582 24.7719 11.6299 24.4902 11.6299C24.2086 11.6299 23.9802 11.8582 23.9802 12.1399C23.9802 12.4215 24.2086 12.6499 24.4902 12.6499Z" fill="#212529"/>
<path d="M21.9202 12.6499C22.2018 12.6499 22.4302 12.4215 22.4302 12.1399C22.4302 11.8582 22.2018 11.6299 21.9202 11.6299C21.6385 11.6299 21.4102 11.8582 21.4102 12.1399C21.4102 12.4215 21.6385 12.6499 21.9202 12.6499Z" fill="#212529"/>
<path d="M25.7803 11.3598C26.0619 11.3598 26.2903 11.1315 26.2903 10.8498C26.2903 10.5682 26.0619 10.3398 25.7803 10.3398C25.4986 10.3398 25.2703 10.5682 25.2703 10.8498C25.2703 11.1315 25.4986 11.3598 25.7803 11.3598Z" fill="#212529"/>
<path d="M24.4902 20.1098C24.7719 20.1098 25.0002 19.8815 25.0002 19.5998C25.0002 19.3182 24.7719 19.0898 24.4902 19.0898C24.2086 19.0898 23.9802 19.3182 23.9802 19.5998C23.9802 19.8815 24.2086 20.1098 24.4902 20.1098Z" fill="#212529"/>
<path d="M21.9202 20.1098C22.2018 20.1098 22.4302 19.8815 22.4302 19.5998C22.4302 19.3182 22.2018 19.0898 21.9202 19.0898C21.6385 19.0898 21.4102 19.3182 21.4102 19.5998C21.4102 19.8815 21.6385 20.1098 21.9202 20.1098Z" fill="#212529"/>
<path d="M23.2002 18.8298C23.4819 18.8298 23.7102 18.6015 23.7102 18.3198C23.7102 18.0381 23.4819 17.8098 23.2002 17.8098C22.9185 17.8098 22.6902 18.0381 22.6902 18.3198C22.6902 18.6015 22.9185 18.8298 23.2002 18.8298Z" fill="#212529"/>
<path d="M23.2002 16.2497C23.4819 16.2497 23.7102 16.0214 23.7102 15.7397C23.7102 15.4581 23.4819 15.2297 23.2002 15.2297C22.9185 15.2297 22.6902 15.4581 22.6902 15.7397C22.6902 16.0214 22.9185 16.2497 23.2002 16.2497Z" fill="#212529"/>
<path d="M25.7803 18.8298C26.0619 18.8298 26.2903 18.6015 26.2903 18.3198C26.2903 18.0381 26.0619 17.8098 25.7803 17.8098C25.4986 17.8098 25.2703 18.0381 25.2703 18.3198C25.2703 18.6015 25.4986 18.8298 25.7803 18.8298Z" fill="#212529"/>
<path d="M24.4902 17.5398C24.7719 17.5398 25.0002 17.3114 25.0002 17.0298C25.0002 16.7481 24.7719 16.5198 24.4902 16.5198C24.2086 16.5198 23.9802 16.7481 23.9802 17.0298C23.9802 17.3114 24.2086 17.5398 24.4902 17.5398Z" fill="#212529"/>
<path d="M21.9202 17.5398C22.2018 17.5398 22.4302 17.3114 22.4302 17.0298C22.4302 16.7481 22.2018 16.5198 21.9202 16.5198C21.6385 16.5198 21.4102 16.7481 21.4102 17.0298C21.4102 17.3114 21.6385 17.5398 21.9202 17.5398Z" fill="#212529"/>
<path d="M25.7803 16.2497C26.0619 16.2497 26.2903 16.0214 26.2903 15.7397C26.2903 15.4581 26.0619 15.2297 25.7803 15.2297C25.4986 15.2297 25.2703 15.4581 25.2703 15.7397C25.2703 16.0214 25.4986 16.2497 25.7803 16.2497Z" fill="#212529"/>
<path d="M24.4902 25C24.7719 25 25.0002 24.7716 25.0002 24.49C25.0002 24.2083 24.7719 23.98 24.4902 23.98C24.2086 23.98 23.9802 24.2083 23.9802 24.49C23.9802 24.7716 24.2086 25 24.4902 25Z" fill="#212529"/>
<path d="M21.9202 25C22.2018 25 22.4302 24.7716 22.4302 24.49C22.4302 24.2083 22.2018 23.98 21.9202 23.98C21.6385 23.98 21.4102 24.2083 21.4102 24.49C21.4102 24.7716 21.6385 25 21.9202 25Z" fill="#212529"/>
<path d="M23.2002 23.7099C23.4819 23.7099 23.7102 23.4816 23.7102 23.1999C23.7102 22.9183 23.4819 22.6899 23.2002 22.6899C22.9185 22.6899 22.6902 22.9183 22.6902 23.1999C22.6902 23.4816 22.9185 23.7099 23.2002 23.7099Z" fill="#212529"/>
<path d="M23.2002 21.1399C23.4819 21.1399 23.7102 20.9115 23.7102 20.6299C23.7102 20.3482 23.4819 20.1199 23.2002 20.1199C22.9185 20.1199 22.6902 20.3482 22.6902 20.6299C22.6902 20.9115 22.9185 21.1399 23.2002 21.1399Z" fill="#212529"/>
<path d="M25.7803 23.7099C26.0619 23.7099 26.2903 23.4816 26.2903 23.1999C26.2903 22.9183 26.0619 22.6899 25.7803 22.6899C25.4986 22.6899 25.2703 22.9183 25.2703 23.1999C25.2703 23.4816 25.4986 23.7099 25.7803 23.7099Z" fill="#212529"/>
<path d="M24.4902 22.4299C24.7719 22.4299 25.0002 22.2016 25.0002 21.9199C25.0002 21.6382 24.7719 21.4099 24.4902 21.4099C24.2086 21.4099 23.9802 21.6382 23.9802 21.9199C23.9802 22.2016 24.2086 22.4299 24.4902 22.4299Z" fill="#212529"/>
<path d="M21.9202 22.4299C22.2018 22.4299 22.4302 22.2016 22.4302 21.9199C22.4302 21.6382 22.2018 21.4099 21.9202 21.4099C21.6385 21.4099 21.4102 21.6382 21.4102 21.9199C21.4102 22.2016 21.6385 22.4299 21.9202 22.4299Z" fill="#212529"/>
<path d="M25.7803 21.1399C26.0619 21.1399 26.2903 20.9115 26.2903 20.6299C26.2903 20.3482 26.0619 20.1199 25.7803 20.1199C25.4986 20.1199 25.2703 20.3482 25.2703 20.6299C25.2703 20.9115 25.4986 21.1399 25.7803 21.1399Z" fill="#212529"/>
<path d="M24.4902 29.8899C24.7719 29.8899 25.0002 29.6615 25.0002 29.3799C25.0002 29.0982 24.7719 28.8699 24.4902 28.8699C24.2086 28.8699 23.9802 29.0982 23.9802 29.3799C23.9802 29.6615 24.2086 29.8899 24.4902 29.8899Z" fill="#212529"/>
<path d="M21.9202 29.8899C22.2018 29.8899 22.4302 29.6615 22.4302 29.3799C22.4302 29.0982 22.2018 28.8699 21.9202 28.8699C21.6385 28.8699 21.4102 29.0982 21.4102 29.3799C21.4102 29.6615 21.6385 29.8899 21.9202 29.8899Z" fill="#212529"/>
<path d="M23.2002 28.5998C23.4819 28.5998 23.7102 28.3715 23.7102 28.0898C23.7102 27.8082 23.4819 27.5798 23.2002 27.5798C22.9185 27.5798 22.6902 27.8082 22.6902 28.0898C22.6902 28.3715 22.9185 28.5998 23.2002 28.5998Z" fill="#212529"/>
<path d="M23.2002 26.0298C23.4819 26.0298 23.7102 25.8014 23.7102 25.5198C23.7102 25.2381 23.4819 25.0098 23.2002 25.0098C22.9185 25.0098 22.6902 25.2381 22.6902 25.5198C22.6902 25.8014 22.9185 26.0298 23.2002 26.0298Z" fill="#212529"/>
<path d="M25.7803 28.5998C26.0619 28.5998 26.2903 28.3715 26.2903 28.0898C26.2903 27.8082 26.0619 27.5798 25.7803 27.5798C25.4986 27.5798 25.2703 27.8082 25.2703 28.0898C25.2703 28.3715 25.4986 28.5998 25.7803 28.5998Z" fill="#212529"/>
<path d="M24.4902 27.3198C24.7719 27.3198 25.0002 27.0915 25.0002 26.8098C25.0002 26.5281 24.7719 26.2998 24.4902 26.2998C24.2086 26.2998 23.9802 26.5281 23.9802 26.8098C23.9802 27.0915 24.2086 27.3198 24.4902 27.3198Z" fill="#212529"/>
<path d="M21.9202 27.3198C22.2018 27.3198 22.4302 27.0915 22.4302 26.8098C22.4302 26.5281 22.2018 26.2998 21.9202 26.2998C21.6385 26.2998 21.4102 26.5281 21.4102 26.8098C21.4102 27.0915 21.6385 27.3198 21.9202 27.3198Z" fill="#212529"/>
<path d="M25.7803 26.0298C26.0619 26.0298 26.2903 25.8014 26.2903 25.5198C26.2903 25.2381 26.0619 25.0098 25.7803 25.0098C25.4986 25.0098 25.2703 25.2381 25.2703 25.5198C25.2703 25.8014 25.4986 26.0298 25.7803 26.0298Z" fill="#212529"/>
<path d="M23.2002 30.9199C23.4819 30.9199 23.7102 30.6916 23.7102 30.4099C23.7102 30.1282 23.4819 29.8999 23.2002 29.8999C22.9185 29.8999 22.6902 30.1282 22.6902 30.4099C22.6902 30.6916 22.9185 30.9199 23.2002 30.9199Z" fill="#212529"/>
<path d="M25.7803 30.9199C26.0619 30.9199 26.2903 30.6916 26.2903 30.4099C26.2903 30.1282 26.0619 29.8999 25.7803 29.8999C25.4986 29.8999 25.2703 30.1282 25.2703 30.4099C25.2703 30.6916 25.4986 30.9199 25.7803 30.9199Z" fill="#212529"/>
<path d="M19.6001 5.44993C19.8818 5.44993 20.1101 5.2216 20.1101 4.93993C20.1101 4.65827 19.8818 4.42993 19.6001 4.42993C19.3184 4.42993 19.0901 4.65827 19.0901 4.93993C19.0901 5.2216 19.3184 5.44993 19.6001 5.44993Z" fill="#212529"/>
<path d="M17.03 5.44993C17.3117 5.44993 17.54 5.2216 17.54 4.93993C17.54 4.65827 17.3117 4.42993 17.03 4.42993C16.7484 4.42993 16.52 4.65827 16.52 4.93993C16.52 5.2216 16.7484 5.44993 17.03 5.44993Z" fill="#212529"/>
<path d="M18.3201 4.15989C18.6017 4.15989 18.8301 3.93156 18.8301 3.64989C18.8301 3.36823 18.6017 3.13989 18.3201 3.13989C18.0384 3.13989 17.8101 3.36823 17.8101 3.64989C17.8101 3.93156 18.0384 4.15989 18.3201 4.15989Z" fill="#212529"/>
<path d="M20.8901 4.15989C21.1718 4.15989 21.4001 3.93156 21.4001 3.64989C21.4001 3.36823 21.1718 3.13989 20.8901 3.13989C20.6085 3.13989 20.3801 3.36823 20.3801 3.64989C20.3801 3.93156 20.6085 4.15989 20.8901 4.15989Z" fill="#212529"/>
<path d="M19.6001 2.86985C19.8818 2.86985 20.1101 2.64152 20.1101 2.35985C20.1101 2.07819 19.8818 1.84985 19.6001 1.84985C19.3184 1.84985 19.0901 2.07819 19.0901 2.35985C19.0901 2.64152 19.3184 2.86985 19.6001 2.86985Z" fill="#212529"/>
<path d="M17.03 2.86985C17.3117 2.86985 17.54 2.64152 17.54 2.35985C17.54 2.07819 17.3117 1.84985 17.03 1.84985C16.7484 1.84985 16.52 2.07819 16.52 2.35985C16.52 2.64152 16.7484 2.86985 17.03 2.86985Z" fill="#212529"/>
<path d="M19.6001 10.3298C19.8818 10.3298 20.1101 10.1015 20.1101 9.81981C20.1101 9.53815 19.8818 9.30981 19.6001 9.30981C19.3184 9.30981 19.0901 9.53815 19.0901 9.81981C19.0901 10.1015 19.3184 10.3298 19.6001 10.3298Z" fill="#212529"/>
<path d="M17.03 10.3298C17.3117 10.3298 17.54 10.1015 17.54 9.81981C17.54 9.53815 17.3117 9.30981 17.03 9.30981C16.7484 9.30981 16.52 9.53815 16.52 9.81981C16.52 10.1015 16.7484 10.3298 17.03 10.3298Z" fill="#212529"/>
<path d="M18.3201 9.04979C18.6017 9.04979 18.8301 8.82145 18.8301 8.53979C18.8301 8.25812 18.6017 8.02979 18.3201 8.02979C18.0384 8.02979 17.8101 8.25812 17.8101 8.53979C17.8101 8.82145 18.0384 9.04979 18.3201 9.04979Z" fill="#212529"/>
<path d="M18.3201 6.46971C18.6017 6.46971 18.8301 6.24137 18.8301 5.95971C18.8301 5.67804 18.6017 5.44971 18.3201 5.44971C18.0384 5.44971 17.8101 5.67804 17.8101 5.95971C17.8101 6.24137 18.0384 6.46971 18.3201 6.46971Z" fill="#212529"/>
<path d="M20.8901 9.04979C21.1718 9.04979 21.4001 8.82145 21.4001 8.53979C21.4001 8.25812 21.1718 8.02979 20.8901 8.02979C20.6085 8.02979 20.3801 8.25812 20.3801 8.53979C20.3801 8.82145 20.6085 9.04979 20.8901 9.04979Z" fill="#212529"/>
<path d="M19.6001 7.75975C19.8818 7.75975 20.1101 7.53141 20.1101 7.24975C20.1101 6.96808 19.8818 6.73975 19.6001 6.73975C19.3184 6.73975 19.0901 6.96808 19.0901 7.24975C19.0901 7.53141 19.3184 7.75975 19.6001 7.75975Z" fill="#212529"/>
<path d="M17.03 7.75975C17.3117 7.75975 17.54 7.53141 17.54 7.24975C17.54 6.96808 17.3117 6.73975 17.03 6.73975C16.7484 6.73975 16.52 6.96808 16.52 7.24975C16.52 7.53141 16.7484 7.75975 17.03 7.75975Z" fill="#212529"/>
<path d="M20.8901 6.46971C21.1718 6.46971 21.4001 6.24137 21.4001 5.95971C21.4001 5.67804 21.1718 5.44971 20.8901 5.44971C20.6085 5.44971 20.3801 5.67804 20.3801 5.95971C20.3801 6.24137 20.6085 6.46971 20.8901 6.46971Z" fill="#212529"/>
<path d="M19.6001 15.22C19.8818 15.22 20.1101 14.9916 20.1101 14.71C20.1101 14.4283 19.8818 14.2 19.6001 14.2C19.3184 14.2 19.0901 14.4283 19.0901 14.71C19.0901 14.9916 19.3184 15.22 19.6001 15.22Z" fill="#212529"/>
<path d="M17.03 15.22C17.3117 15.22 17.54 14.9916 17.54 14.71C17.54 14.4283 17.3117 14.2 17.03 14.2C16.7484 14.2 16.52 14.4283 16.52 14.71C16.52 14.9916 16.7484 15.22 17.03 15.22Z" fill="#212529"/>
<path d="M18.3201 13.9399C18.6017 13.9399 18.8301 13.7116 18.8301 13.4299C18.8301 13.1483 18.6017 12.9199 18.3201 12.9199C18.0384 12.9199 17.8101 13.1483 17.8101 13.4299C17.8101 13.7116 18.0384 13.9399 18.3201 13.9399Z" fill="#212529"/>
<path d="M18.3201 11.3598C18.6017 11.3598 18.8301 11.1315 18.8301 10.8498C18.8301 10.5682 18.6017 10.3398 18.3201 10.3398C18.0384 10.3398 17.8101 10.5682 17.8101 10.8498C17.8101 11.1315 18.0384 11.3598 18.3201 11.3598Z" fill="#212529"/>
<path d="M20.8901 13.9399C21.1718 13.9399 21.4001 13.7116 21.4001 13.4299C21.4001 13.1483 21.1718 12.9199 20.8901 12.9199C20.6085 12.9199 20.3801 13.1483 20.3801 13.4299C20.3801 13.7116 20.6085 13.9399 20.8901 13.9399Z" fill="#212529"/>
<path d="M19.6001 12.6499C19.8818 12.6499 20.1101 12.4215 20.1101 12.1399C20.1101 11.8582 19.8818 11.6299 19.6001 11.6299C19.3184 11.6299 19.0901 11.8582 19.0901 12.1399C19.0901 12.4215 19.3184 12.6499 19.6001 12.6499Z" fill="#212529"/>
<path d="M17.03 12.6499C17.3117 12.6499 17.54 12.4215 17.54 12.1399C17.54 11.8582 17.3117 11.6299 17.03 11.6299C16.7484 11.6299 16.52 11.8582 16.52 12.1399C16.52 12.4215 16.7484 12.6499 17.03 12.6499Z" fill="#212529"/>
<path d="M20.8901 11.3598C21.1718 11.3598 21.4001 11.1315 21.4001 10.8498C21.4001 10.5682 21.1718 10.3398 20.8901 10.3398C20.6085 10.3398 20.3801 10.5682 20.3801 10.8498C20.3801 11.1315 20.6085 11.3598 20.8901 11.3598Z" fill="#212529"/>
<path d="M19.6001 20.1098C19.8818 20.1098 20.1101 19.8815 20.1101 19.5998C20.1101 19.3182 19.8818 19.0898 19.6001 19.0898C19.3184 19.0898 19.0901 19.3182 19.0901 19.5998C19.0901 19.8815 19.3184 20.1098 19.6001 20.1098Z" fill="#212529"/>
<path d="M17.03 20.1098C17.3117 20.1098 17.54 19.8815 17.54 19.5998C17.54 19.3182 17.3117 19.0898 17.03 19.0898C16.7484 19.0898 16.52 19.3182 16.52 19.5998C16.52 19.8815 16.7484 20.1098 17.03 20.1098Z" fill="#212529"/>
<path d="M18.3201 18.8298C18.6017 18.8298 18.8301 18.6015 18.8301 18.3198C18.8301 18.0381 18.6017 17.8098 18.3201 17.8098C18.0384 17.8098 17.8101 18.0381 17.8101 18.3198C17.8101 18.6015 18.0384 18.8298 18.3201 18.8298Z" fill="#212529"/>
<path d="M18.3201 16.2497C18.6017 16.2497 18.8301 16.0214 18.8301 15.7397C18.8301 15.4581 18.6017 15.2297 18.3201 15.2297C18.0384 15.2297 17.8101 15.4581 17.8101 15.7397C17.8101 16.0214 18.0384 16.2497 18.3201 16.2497Z" fill="#212529"/>
<path d="M20.8901 18.8298C21.1718 18.8298 21.4001 18.6015 21.4001 18.3198C21.4001 18.0381 21.1718 17.8098 20.8901 17.8098C20.6085 17.8098 20.3801 18.0381 20.3801 18.3198C20.3801 18.6015 20.6085 18.8298 20.8901 18.8298Z" fill="#212529"/>
<path d="M19.6001 17.5398C19.8818 17.5398 20.1101 17.3114 20.1101 17.0298C20.1101 16.7481 19.8818 16.5198 19.6001 16.5198C19.3184 16.5198 19.0901 16.7481 19.0901 17.0298C19.0901 17.3114 19.3184 17.5398 19.6001 17.5398Z" fill="#212529"/>
<path d="M17.03 17.5398C17.3117 17.5398 17.54 17.3114 17.54 17.0298C17.54 16.7481 17.3117 16.5198 17.03 16.5198C16.7484 16.5198 16.52 16.7481 16.52 17.0298C16.52 17.3114 16.7484 17.5398 17.03 17.5398Z" fill="#212529"/>
<path d="M20.8901 16.2497C21.1718 16.2497 21.4001 16.0214 21.4001 15.7397C21.4001 15.4581 21.1718 15.2297 20.8901 15.2297C20.6085 15.2297 20.3801 15.4581 20.3801 15.7397C20.3801 16.0214 20.6085 16.2497 20.8901 16.2497Z" fill="#212529"/>
<path d="M19.6001 25C19.8818 25 20.1101 24.7716 20.1101 24.49C20.1101 24.2083 19.8818 23.98 19.6001 23.98C19.3184 23.98 19.0901 24.2083 19.0901 24.49C19.0901 24.7716 19.3184 25 19.6001 25Z" fill="#212529"/>
<path d="M17.03 25C17.3117 25 17.54 24.7716 17.54 24.49C17.54 24.2083 17.3117 23.98 17.03 23.98C16.7484 23.98 16.52 24.2083 16.52 24.49C16.52 24.7716 16.7484 25 17.03 25Z" fill="#212529"/>
<path d="M18.3201 23.7099C18.6017 23.7099 18.8301 23.4816 18.8301 23.1999C18.8301 22.9183 18.6017 22.6899 18.3201 22.6899C18.0384 22.6899 17.8101 22.9183 17.8101 23.1999C17.8101 23.4816 18.0384 23.7099 18.3201 23.7099Z" fill="#212529"/>
<path d="M18.3201 21.1399C18.6017 21.1399 18.8301 20.9115 18.8301 20.6299C18.8301 20.3482 18.6017 20.1199 18.3201 20.1199C18.0384 20.1199 17.8101 20.3482 17.8101 20.6299C17.8101 20.9115 18.0384 21.1399 18.3201 21.1399Z" fill="#212529"/>
<path d="M20.8901 23.7099C21.1718 23.7099 21.4001 23.4816 21.4001 23.1999C21.4001 22.9183 21.1718 22.6899 20.8901 22.6899C20.6085 22.6899 20.3801 22.9183 20.3801 23.1999C20.3801 23.4816 20.6085 23.7099 20.8901 23.7099Z" fill="#212529"/>
<path d="M19.6001 22.4299C19.8818 22.4299 20.1101 22.2016 20.1101 21.9199C20.1101 21.6382 19.8818 21.4099 19.6001 21.4099C19.3184 21.4099 19.0901 21.6382 19.0901 21.9199C19.0901 22.2016 19.3184 22.4299 19.6001 22.4299Z" fill="#212529"/>
<path d="M17.03 22.4299C17.3117 22.4299 17.54 22.2016 17.54 21.9199C17.54 21.6382 17.3117 21.4099 17.03 21.4099C16.7484 21.4099 16.52 21.6382 16.52 21.9199C16.52 22.2016 16.7484 22.4299 17.03 22.4299Z" fill="#212529"/>
<path d="M20.8901 21.1399C21.1718 21.1399 21.4001 20.9115 21.4001 20.6299C21.4001 20.3482 21.1718 20.1199 20.8901 20.1199C20.6085 20.1199 20.3801 20.3482 20.3801 20.6299C20.3801 20.9115 20.6085 21.1399 20.8901 21.1399Z" fill="#212529"/>
<path d="M19.6001 29.8899C19.8818 29.8899 20.1101 29.6615 20.1101 29.3799C20.1101 29.0982 19.8818 28.8699 19.6001 28.8699C19.3184 28.8699 19.0901 29.0982 19.0901 29.3799C19.0901 29.6615 19.3184 29.8899 19.6001 29.8899Z" fill="#212529"/>
<path d="M17.03 29.8899C17.3117 29.8899 17.54 29.6615 17.54 29.3799C17.54 29.0982 17.3117 28.8699 17.03 28.8699C16.7484 28.8699 16.52 29.0982 16.52 29.3799C16.52 29.6615 16.7484 29.8899 17.03 29.8899Z" fill="#212529"/>
<path d="M18.3201 28.5998C18.6017 28.5998 18.8301 28.3715 18.8301 28.0898C18.8301 27.8082 18.6017 27.5798 18.3201 27.5798C18.0384 27.5798 17.8101 27.8082 17.8101 28.0898C17.8101 28.3715 18.0384 28.5998 18.3201 28.5998Z" fill="#212529"/>
<path d="M18.3201 26.0298C18.6017 26.0298 18.8301 25.8014 18.8301 25.5198C18.8301 25.2381 18.6017 25.0098 18.3201 25.0098C18.0384 25.0098 17.8101 25.2381 17.8101 25.5198C17.8101 25.8014 18.0384 26.0298 18.3201 26.0298Z" fill="#212529"/>
<path d="M20.8901 28.5998C21.1718 28.5998 21.4001 28.3715 21.4001 28.0898C21.4001 27.8082 21.1718 27.5798 20.8901 27.5798C20.6085 27.5798 20.3801 27.8082 20.3801 28.0898C20.3801 28.3715 20.6085 28.5998 20.8901 28.5998Z" fill="#212529"/>
<path d="M19.6001 27.3198C19.8818 27.3198 20.1101 27.0915 20.1101 26.8098C20.1101 26.5281 19.8818 26.2998 19.6001 26.2998C19.3184 26.2998 19.0901 26.5281 19.0901 26.8098C19.0901 27.0915 19.3184 27.3198 19.6001 27.3198Z" fill="#212529"/>
<path d="M17.03 27.3198C17.3117 27.3198 17.54 27.0915 17.54 26.8098C17.54 26.5281 17.3117 26.2998 17.03 26.2998C16.7484 26.2998 16.52 26.5281 16.52 26.8098C16.52 27.0915 16.7484 27.3198 17.03 27.3198Z" fill="#212529"/>
<path d="M20.8901 26.0298C21.1718 26.0298 21.4001 25.8014 21.4001 25.5198C21.4001 25.2381 21.1718 25.0098 20.8901 25.0098C20.6085 25.0098 20.3801 25.2381 20.3801 25.5198C20.3801 25.8014 20.6085 26.0298 20.8901 26.0298Z" fill="#212529"/>
<path d="M18.3201 30.9199C18.6017 30.9199 18.8301 30.6916 18.8301 30.4099C18.8301 30.1282 18.6017 29.8999 18.3201 29.8999C18.0384 29.8999 17.8101 30.1282 17.8101 30.4099C17.8101 30.6916 18.0384 30.9199 18.3201 30.9199Z" fill="#212529"/>
<path d="M20.8901 30.9199C21.1718 30.9199 21.4001 30.6916 21.4001 30.4099C21.4001 30.1282 21.1718 29.8999 20.8901 29.8999C20.6085 29.8999 20.3801 30.1282 20.3801 30.4099C20.3801 30.6916 20.6085 30.9199 20.8901 30.9199Z" fill="#212529"/>
<path d="M14.7102 5.44993C14.9919 5.44993 15.2202 5.2216 15.2202 4.93993C15.2202 4.65827 14.9919 4.42993 14.7102 4.42993C14.4285 4.42993 14.2002 4.65827 14.2002 4.93993C14.2002 5.2216 14.4285 5.44993 14.7102 5.44993Z" fill="#212529"/>
<path d="M12.1401 5.44993C12.4218 5.44993 12.6501 5.2216 12.6501 4.93993C12.6501 4.65827 12.4218 4.42993 12.1401 4.42993C11.8585 4.42993 11.6301 4.65827 11.6301 4.93993C11.6301 5.2216 11.8585 5.44993 12.1401 5.44993Z" fill="#212529"/>
<path d="M13.4302 4.15989C13.7118 4.15989 13.9402 3.93156 13.9402 3.64989C13.9402 3.36823 13.7118 3.13989 13.4302 3.13989C13.1485 3.13989 12.9202 3.36823 12.9202 3.64989C12.9202 3.93156 13.1485 4.15989 13.4302 4.15989Z" fill="#212529"/>
<path d="M16.0002 4.15989C16.2819 4.15989 16.5102 3.93156 16.5102 3.64989C16.5102 3.36823 16.2819 3.13989 16.0002 3.13989C15.7186 3.13989 15.4902 3.36823 15.4902 3.64989C15.4902 3.93156 15.7186 4.15989 16.0002 4.15989Z" fill="#212529"/>
<path d="M14.7102 2.86985C14.9919 2.86985 15.2202 2.64152 15.2202 2.35985C15.2202 2.07819 14.9919 1.84985 14.7102 1.84985C14.4285 1.84985 14.2002 2.07819 14.2002 2.35985C14.2002 2.64152 14.4285 2.86985 14.7102 2.86985Z" fill="#212529"/>
<path d="M12.1401 2.86985C12.4218 2.86985 12.6501 2.64152 12.6501 2.35985C12.6501 2.07819 12.4218 1.84985 12.1401 1.84985C11.8585 1.84985 11.6301 2.07819 11.6301 2.35985C11.6301 2.64152 11.8585 2.86985 12.1401 2.86985Z" fill="#212529"/>
<path d="M14.7102 10.3298C14.9919 10.3298 15.2202 10.1015 15.2202 9.81981C15.2202 9.53815 14.9919 9.30981 14.7102 9.30981C14.4285 9.30981 14.2002 9.53815 14.2002 9.81981C14.2002 10.1015 14.4285 10.3298 14.7102 10.3298Z" fill="#212529"/>
<path d="M12.1401 10.3298C12.4218 10.3298 12.6501 10.1015 12.6501 9.81981C12.6501 9.53815 12.4218 9.30981 12.1401 9.30981C11.8585 9.30981 11.6301 9.53815 11.6301 9.81981C11.6301 10.1015 11.8585 10.3298 12.1401 10.3298Z" fill="#212529"/>
<path d="M13.4302 9.04979C13.7118 9.04979 13.9402 8.82145 13.9402 8.53979C13.9402 8.25812 13.7118 8.02979 13.4302 8.02979C13.1485 8.02979 12.9202 8.25812 12.9202 8.53979C12.9202 8.82145 13.1485 9.04979 13.4302 9.04979Z" fill="#212529"/>
<path d="M13.4302 6.46971C13.7118 6.46971 13.9402 6.24137 13.9402 5.95971C13.9402 5.67804 13.7118 5.44971 13.4302 5.44971C13.1485 5.44971 12.9202 5.67804 12.9202 5.95971C12.9202 6.24137 13.1485 6.46971 13.4302 6.46971Z" fill="#212529"/>
<path d="M16.0002 9.04979C16.2819 9.04979 16.5102 8.82145 16.5102 8.53979C16.5102 8.25812 16.2819 8.02979 16.0002 8.02979C15.7186 8.02979 15.4902 8.25812 15.4902 8.53979C15.4902 8.82145 15.7186 9.04979 16.0002 9.04979Z" fill="#212529"/>
<path d="M14.7102 7.75975C14.9919 7.75975 15.2202 7.53141 15.2202 7.24975C15.2202 6.96808 14.9919 6.73975 14.7102 6.73975C14.4285 6.73975 14.2002 6.96808 14.2002 7.24975C14.2002 7.53141 14.4285 7.75975 14.7102 7.75975Z" fill="#212529"/>
<path d="M12.1401 7.75975C12.4218 7.75975 12.6501 7.53141 12.6501 7.24975C12.6501 6.96808 12.4218 6.73975 12.1401 6.73975C11.8585 6.73975 11.6301 6.96808 11.6301 7.24975C11.6301 7.53141 11.8585 7.75975 12.1401 7.75975Z" fill="#212529"/>
<path d="M16.0002 6.46971C16.2819 6.46971 16.5102 6.24137 16.5102 5.95971C16.5102 5.67804 16.2819 5.44971 16.0002 5.44971C15.7186 5.44971 15.4902 5.67804 15.4902 5.95971C15.4902 6.24137 15.7186 6.46971 16.0002 6.46971Z" fill="#212529"/>
<path d="M14.7102 15.22C14.9919 15.22 15.2202 14.9916 15.2202 14.71C15.2202 14.4283 14.9919 14.2 14.7102 14.2C14.4285 14.2 14.2002 14.4283 14.2002 14.71C14.2002 14.9916 14.4285 15.22 14.7102 15.22Z" fill="#212529"/>
<path d="M12.1401 15.22C12.4218 15.22 12.6501 14.9916 12.6501 14.71C12.6501 14.4283 12.4218 14.2 12.1401 14.2C11.8585 14.2 11.6301 14.4283 11.6301 14.71C11.6301 14.9916 11.8585 15.22 12.1401 15.22Z" fill="#212529"/>
<path d="M13.4302 13.9399C13.7118 13.9399 13.9402 13.7116 13.9402 13.4299C13.9402 13.1483 13.7118 12.9199 13.4302 12.9199C13.1485 12.9199 12.9202 13.1483 12.9202 13.4299C12.9202 13.7116 13.1485 13.9399 13.4302 13.9399Z" fill="#212529"/>
<path d="M13.4302 11.3598C13.7118 11.3598 13.9402 11.1315 13.9402 10.8498C13.9402 10.5682 13.7118 10.3398 13.4302 10.3398C13.1485 10.3398 12.9202 10.5682 12.9202 10.8498C12.9202 11.1315 13.1485 11.3598 13.4302 11.3598Z" fill="#212529"/>
<path d="M16.0002 13.9399C16.2819 13.9399 16.5102 13.7116 16.5102 13.4299C16.5102 13.1483 16.2819 12.9199 16.0002 12.9199C15.7186 12.9199 15.4902 13.1483 15.4902 13.4299C15.4902 13.7116 15.7186 13.9399 16.0002 13.9399Z" fill="#212529"/>
<path d="M14.7102 12.6499C14.9919 12.6499 15.2202 12.4215 15.2202 12.1399C15.2202 11.8582 14.9919 11.6299 14.7102 11.6299C14.4285 11.6299 14.2002 11.8582 14.2002 12.1399C14.2002 12.4215 14.4285 12.6499 14.7102 12.6499Z" fill="#212529"/>
<path d="M12.1401 12.6499C12.4218 12.6499 12.6501 12.4215 12.6501 12.1399C12.6501 11.8582 12.4218 11.6299 12.1401 11.6299C11.8585 11.6299 11.6301 11.8582 11.6301 12.1399C11.6301 12.4215 11.8585 12.6499 12.1401 12.6499Z" fill="#212529"/>
<path d="M16.0002 11.3598C16.2819 11.3598 16.5102 11.1315 16.5102 10.8498C16.5102 10.5682 16.2819 10.3398 16.0002 10.3398C15.7186 10.3398 15.4902 10.5682 15.4902 10.8498C15.4902 11.1315 15.7186 11.3598 16.0002 11.3598Z" fill="#212529"/>
<path d="M14.7102 20.1098C14.9919 20.1098 15.2202 19.8815 15.2202 19.5998C15.2202 19.3182 14.9919 19.0898 14.7102 19.0898C14.4285 19.0898 14.2002 19.3182 14.2002 19.5998C14.2002 19.8815 14.4285 20.1098 14.7102 20.1098Z" fill="#212529"/>
<path d="M12.1401 20.1098C12.4218 20.1098 12.6501 19.8815 12.6501 19.5998C12.6501 19.3182 12.4218 19.0898 12.1401 19.0898C11.8585 19.0898 11.6301 19.3182 11.6301 19.5998C11.6301 19.8815 11.8585 20.1098 12.1401 20.1098Z" fill="#212529"/>
<path d="M13.4302 18.8298C13.7118 18.8298 13.9402 18.6015 13.9402 18.3198C13.9402 18.0381 13.7118 17.8098 13.4302 17.8098C13.1485 17.8098 12.9202 18.0381 12.9202 18.3198C12.9202 18.6015 13.1485 18.8298 13.4302 18.8298Z" fill="#212529"/>
<path d="M13.4302 16.2497C13.7118 16.2497 13.9402 16.0214 13.9402 15.7397C13.9402 15.4581 13.7118 15.2297 13.4302 15.2297C13.1485 15.2297 12.9202 15.4581 12.9202 15.7397C12.9202 16.0214 13.1485 16.2497 13.4302 16.2497Z" fill="#212529"/>
<path d="M16.0002 18.8298C16.2819 18.8298 16.5102 18.6015 16.5102 18.3198C16.5102 18.0381 16.2819 17.8098 16.0002 17.8098C15.7186 17.8098 15.4902 18.0381 15.4902 18.3198C15.4902 18.6015 15.7186 18.8298 16.0002 18.8298Z" fill="#212529"/>
<path d="M14.7102 17.5398C14.9919 17.5398 15.2202 17.3114 15.2202 17.0298C15.2202 16.7481 14.9919 16.5198 14.7102 16.5198C14.4285 16.5198 14.2002 16.7481 14.2002 17.0298C14.2002 17.3114 14.4285 17.5398 14.7102 17.5398Z" fill="#212529"/>
<path d="M12.1401 17.5398C12.4218 17.5398 12.6501 17.3114 12.6501 17.0298C12.6501 16.7481 12.4218 16.5198 12.1401 16.5198C11.8585 16.5198 11.6301 16.7481 11.6301 17.0298C11.6301 17.3114 11.8585 17.5398 12.1401 17.5398Z" fill="#212529"/>
<path d="M16.0002 16.2497C16.2819 16.2497 16.5102 16.0214 16.5102 15.7397C16.5102 15.4581 16.2819 15.2297 16.0002 15.2297C15.7186 15.2297 15.4902 15.4581 15.4902 15.7397C15.4902 16.0214 15.7186 16.2497 16.0002 16.2497Z" fill="#212529"/>
<path d="M14.7102 25C14.9919 25 15.2202 24.7716 15.2202 24.49C15.2202 24.2083 14.9919 23.98 14.7102 23.98C14.4285 23.98 14.2002 24.2083 14.2002 24.49C14.2002 24.7716 14.4285 25 14.7102 25Z" fill="#212529"/>
<path d="M12.1401 25C12.4218 25 12.6501 24.7716 12.6501 24.49C12.6501 24.2083 12.4218 23.98 12.1401 23.98C11.8585 23.98 11.6301 24.2083 11.6301 24.49C11.6301 24.7716 11.8585 25 12.1401 25Z" fill="#212529"/>
<path d="M13.4302 23.7099C13.7118 23.7099 13.9402 23.4816 13.9402 23.1999C13.9402 22.9183 13.7118 22.6899 13.4302 22.6899C13.1485 22.6899 12.9202 22.9183 12.9202 23.1999C12.9202 23.4816 13.1485 23.7099 13.4302 23.7099Z" fill="#212529"/>
<path d="M13.4302 21.1399C13.7118 21.1399 13.9402 20.9115 13.9402 20.6299C13.9402 20.3482 13.7118 20.1199 13.4302 20.1199C13.1485 20.1199 12.9202 20.3482 12.9202 20.6299C12.9202 20.9115 13.1485 21.1399 13.4302 21.1399Z" fill="#212529"/>
<path d="M16.0002 23.7099C16.2819 23.7099 16.5102 23.4816 16.5102 23.1999C16.5102 22.9183 16.2819 22.6899 16.0002 22.6899C15.7186 22.6899 15.4902 22.9183 15.4902 23.1999C15.4902 23.4816 15.7186 23.7099 16.0002 23.7099Z" fill="#212529"/>
<path d="M14.7102 22.4299C14.9919 22.4299 15.2202 22.2016 15.2202 21.9199C15.2202 21.6382 14.9919 21.4099 14.7102 21.4099C14.4285 21.4099 14.2002 21.6382 14.2002 21.9199C14.2002 22.2016 14.4285 22.4299 14.7102 22.4299Z" fill="#212529"/>
<path d="M12.1401 22.4299C12.4218 22.4299 12.6501 22.2016 12.6501 21.9199C12.6501 21.6382 12.4218 21.4099 12.1401 21.4099C11.8585 21.4099 11.6301 21.6382 11.6301 21.9199C11.6301 22.2016 11.8585 22.4299 12.1401 22.4299Z" fill="#212529"/>
<path d="M16.0002 21.1399C16.2819 21.1399 16.5102 20.9115 16.5102 20.6299C16.5102 20.3482 16.2819 20.1199 16.0002 20.1199C15.7186 20.1199 15.4902 20.3482 15.4902 20.6299C15.4902 20.9115 15.7186 21.1399 16.0002 21.1399Z" fill="#212529"/>
<path d="M14.7102 29.8899C14.9919 29.8899 15.2202 29.6615 15.2202 29.3799C15.2202 29.0982 14.9919 28.8699 14.7102 28.8699C14.4285 28.8699 14.2002 29.0982 14.2002 29.3799C14.2002 29.6615 14.4285 29.8899 14.7102 29.8899Z" fill="#212529"/>
<path d="M12.1401 29.8899C12.4218 29.8899 12.6501 29.6615 12.6501 29.3799C12.6501 29.0982 12.4218 28.8699 12.1401 28.8699C11.8585 28.8699 11.6301 29.0982 11.6301 29.3799C11.6301 29.6615 11.8585 29.8899 12.1401 29.8899Z" fill="#212529"/>
<path d="M13.4302 28.5998C13.7118 28.5998 13.9402 28.3715 13.9402 28.0898C13.9402 27.8082 13.7118 27.5798 13.4302 27.5798C13.1485 27.5798 12.9202 27.8082 12.9202 28.0898C12.9202 28.3715 13.1485 28.5998 13.4302 28.5998Z" fill="#212529"/>
<path d="M13.4302 26.0298C13.7118 26.0298 13.9402 25.8014 13.9402 25.5198C13.9402 25.2381 13.7118 25.0098 13.4302 25.0098C13.1485 25.0098 12.9202 25.2381 12.9202 25.5198C12.9202 25.8014 13.1485 26.0298 13.4302 26.0298Z" fill="#212529"/>
<path d="M16.0002 28.5998C16.2819 28.5998 16.5102 28.3715 16.5102 28.0898C16.5102 27.8082 16.2819 27.5798 16.0002 27.5798C15.7186 27.5798 15.4902 27.8082 15.4902 28.0898C15.4902 28.3715 15.7186 28.5998 16.0002 28.5998Z" fill="#212529"/>
<path d="M14.7102 27.3198C14.9919 27.3198 15.2202 27.0915 15.2202 26.8098C15.2202 26.5281 14.9919 26.2998 14.7102 26.2998C14.4285 26.2998 14.2002 26.5281 14.2002 26.8098C14.2002 27.0915 14.4285 27.3198 14.7102 27.3198Z" fill="#212529"/>
<path d="M12.1401 27.3198C12.4218 27.3198 12.6501 27.0915 12.6501 26.8098C12.6501 26.5281 12.4218 26.2998 12.1401 26.2998C11.8585 26.2998 11.6301 26.5281 11.6301 26.8098C11.6301 27.0915 11.8585 27.3198 12.1401 27.3198Z" fill="#212529"/>
<path d="M16.0002 26.0298C16.2819 26.0298 16.5102 25.8014 16.5102 25.5198C16.5102 25.2381 16.2819 25.0098 16.0002 25.0098C15.7186 25.0098 15.4902 25.2381 15.4902 25.5198C15.4902 25.8014 15.7186 26.0298 16.0002 26.0298Z" fill="#212529"/>
<path d="M13.4302 30.9199C13.7118 30.9199 13.9402 30.6916 13.9402 30.4099C13.9402 30.1282 13.7118 29.8999 13.4302 29.8999C13.1485 29.8999 12.9202 30.1282 12.9202 30.4099C12.9202 30.6916 13.1485 30.9199 13.4302 30.9199Z" fill="#212529"/>
<path d="M16.0002 30.9199C16.2819 30.9199 16.5102 30.6916 16.5102 30.4099C16.5102 30.1282 16.2819 29.8999 16.0002 29.8999C15.7186 29.8999 15.4902 30.1282 15.4902 30.4099C15.4902 30.6916 15.7186 30.9199 16.0002 30.9199Z" fill="#212529"/>
<path d="M9.82006 5.44993C10.1017 5.44993 10.3301 5.2216 10.3301 4.93993C10.3301 4.65827 10.1017 4.42993 9.82006 4.42993C9.53839 4.42993 9.31006 4.65827 9.31006 4.93993C9.31006 5.2216 9.53839 5.44993 9.82006 5.44993Z" fill="#212529"/>
<path d="M7.24999 5.44993C7.53166 5.44993 7.75999 5.2216 7.75999 4.93993C7.75999 4.65827 7.53166 4.42993 7.24999 4.42993C6.96833 4.42993 6.73999 4.65827 6.73999 4.93993C6.73999 5.2216 6.96833 5.44993 7.24999 5.44993Z" fill="#212529"/>
<path d="M8.54003 4.15989C8.82169 4.15989 9.05003 3.93156 9.05003 3.64989C9.05003 3.36823 8.82169 3.13989 8.54003 3.13989C8.25836 3.13989 8.03003 3.36823 8.03003 3.64989C8.03003 3.93156 8.25836 4.15989 8.54003 4.15989Z" fill="#212529"/>
<path d="M11.1101 4.15989C11.3918 4.15989 11.6201 3.93156 11.6201 3.64989C11.6201 3.36823 11.3918 3.13989 11.1101 3.13989C10.8284 3.13989 10.6001 3.36823 10.6001 3.64989C10.6001 3.93156 10.8284 4.15989 11.1101 4.15989Z" fill="#212529"/>
<path d="M9.82006 2.86985C10.1017 2.86985 10.3301 2.64152 10.3301 2.35985C10.3301 2.07819 10.1017 1.84985 9.82006 1.84985C9.53839 1.84985 9.31006 2.07819 9.31006 2.35985C9.31006 2.64152 9.53839 2.86985 9.82006 2.86985Z" fill="#212529"/>
<path d="M7.24999 2.86985C7.53166 2.86985 7.75999 2.64152 7.75999 2.35985C7.75999 2.07819 7.53166 1.84985 7.24999 1.84985C6.96833 1.84985 6.73999 2.07819 6.73999 2.35985C6.73999 2.64152 6.96833 2.86985 7.24999 2.86985Z" fill="#212529"/>
<path d="M9.82006 10.3298C10.1017 10.3298 10.3301 10.1015 10.3301 9.81981C10.3301 9.53815 10.1017 9.30981 9.82006 9.30981C9.53839 9.30981 9.31006 9.53815 9.31006 9.81981C9.31006 10.1015 9.53839 10.3298 9.82006 10.3298Z" fill="#212529"/>
<path d="M7.24999 10.3298C7.53166 10.3298 7.75999 10.1015 7.75999 9.81981C7.75999 9.53815 7.53166 9.30981 7.24999 9.30981C6.96833 9.30981 6.73999 9.53815 6.73999 9.81981C6.73999 10.1015 6.96833 10.3298 7.24999 10.3298Z" fill="#212529"/>
<path d="M8.54003 9.04979C8.82169 9.04979 9.05003 8.82145 9.05003 8.53979C9.05003 8.25812 8.82169 8.02979 8.54003 8.02979C8.25836 8.02979 8.03003 8.25812 8.03003 8.53979C8.03003 8.82145 8.25836 9.04979 8.54003 9.04979Z" fill="#212529"/>
<path d="M8.54003 6.46971C8.82169 6.46971 9.05003 6.24137 9.05003 5.95971C9.05003 5.67804 8.82169 5.44971 8.54003 5.44971C8.25836 5.44971 8.03003 5.67804 8.03003 5.95971C8.03003 6.24137 8.25836 6.46971 8.54003 6.46971Z" fill="#212529"/>
<path d="M11.1101 9.04979C11.3918 9.04979 11.6201 8.82145 11.6201 8.53979C11.6201 8.25812 11.3918 8.02979 11.1101 8.02979C10.8284 8.02979 10.6001 8.25812 10.6001 8.53979C10.6001 8.82145 10.8284 9.04979 11.1101 9.04979Z" fill="#212529"/>
<path d="M9.82006 7.75975C10.1017 7.75975 10.3301 7.53141 10.3301 7.24975C10.3301 6.96808 10.1017 6.73975 9.82006 6.73975C9.53839 6.73975 9.31006 6.96808 9.31006 7.24975C9.31006 7.53141 9.53839 7.75975 9.82006 7.75975Z" fill="#212529"/>
<path d="M7.24999 7.75975C7.53166 7.75975 7.75999 7.53141 7.75999 7.24975C7.75999 6.96808 7.53166 6.73975 7.24999 6.73975C6.96833 6.73975 6.73999 6.96808 6.73999 7.24975C6.73999 7.53141 6.96833 7.75975 7.24999 7.75975Z" fill="#212529"/>
<path d="M11.1101 6.46971C11.3918 6.46971 11.6201 6.24137 11.6201 5.95971C11.6201 5.67804 11.3918 5.44971 11.1101 5.44971C10.8284 5.44971 10.6001 5.67804 10.6001 5.95971C10.6001 6.24137 10.8284 6.46971 11.1101 6.46971Z" fill="#212529"/>
<path d="M9.82006 15.22C10.1017 15.22 10.3301 14.9916 10.3301 14.71C10.3301 14.4283 10.1017 14.2 9.82006 14.2C9.53839 14.2 9.31006 14.4283 9.31006 14.71C9.31006 14.9916 9.53839 15.22 9.82006 15.22Z" fill="#212529"/>
<path d="M7.24999 15.22C7.53166 15.22 7.75999 14.9916 7.75999 14.71C7.75999 14.4283 7.53166 14.2 7.24999 14.2C6.96833 14.2 6.73999 14.4283 6.73999 14.71C6.73999 14.9916 6.96833 15.22 7.24999 15.22Z" fill="#212529"/>
<path d="M8.54003 13.9399C8.82169 13.9399 9.05003 13.7116 9.05003 13.4299C9.05003 13.1483 8.82169 12.9199 8.54003 12.9199C8.25836 12.9199 8.03003 13.1483 8.03003 13.4299C8.03003 13.7116 8.25836 13.9399 8.54003 13.9399Z" fill="#212529"/>
<path d="M8.54003 11.3598C8.82169 11.3598 9.05003 11.1315 9.05003 10.8498C9.05003 10.5682 8.82169 10.3398 8.54003 10.3398C8.25836 10.3398 8.03003 10.5682 8.03003 10.8498C8.03003 11.1315 8.25836 11.3598 8.54003 11.3598Z" fill="#212529"/>
<path d="M11.1101 13.9399C11.3918 13.9399 11.6201 13.7116 11.6201 13.4299C11.6201 13.1483 11.3918 12.9199 11.1101 12.9199C10.8284 12.9199 10.6001 13.1483 10.6001 13.4299C10.6001 13.7116 10.8284 13.9399 11.1101 13.9399Z" fill="#212529"/>
<path d="M9.82006 12.6499C10.1017 12.6499 10.3301 12.4215 10.3301 12.1399C10.3301 11.8582 10.1017 11.6299 9.82006 11.6299C9.53839 11.6299 9.31006 11.8582 9.31006 12.1399C9.31006 12.4215 9.53839 12.6499 9.82006 12.6499Z" fill="#212529"/>
<path d="M7.24999 12.6499C7.53166 12.6499 7.75999 12.4215 7.75999 12.1399C7.75999 11.8582 7.53166 11.6299 7.24999 11.6299C6.96833 11.6299 6.73999 11.8582 6.73999 12.1399C6.73999 12.4215 6.96833 12.6499 7.24999 12.6499Z" fill="#212529"/>
<path d="M11.1101 11.3598C11.3918 11.3598 11.6201 11.1315 11.6201 10.8498C11.6201 10.5682 11.3918 10.3398 11.1101 10.3398C10.8284 10.3398 10.6001 10.5682 10.6001 10.8498C10.6001 11.1315 10.8284 11.3598 11.1101 11.3598Z" fill="#212529"/>
<path d="M9.82006 20.1098C10.1017 20.1098 10.3301 19.8815 10.3301 19.5998C10.3301 19.3182 10.1017 19.0898 9.82006 19.0898C9.53839 19.0898 9.31006 19.3182 9.31006 19.5998C9.31006 19.8815 9.53839 20.1098 9.82006 20.1098Z" fill="#212529"/>
<path d="M7.24999 20.1098C7.53166 20.1098 7.75999 19.8815 7.75999 19.5998C7.75999 19.3182 7.53166 19.0898 7.24999 19.0898C6.96833 19.0898 6.73999 19.3182 6.73999 19.5998C6.73999 19.8815 6.96833 20.1098 7.24999 20.1098Z" fill="#212529"/>
<path d="M8.54003 18.8298C8.82169 18.8298 9.05003 18.6015 9.05003 18.3198C9.05003 18.0381 8.82169 17.8098 8.54003 17.8098C8.25836 17.8098 8.03003 18.0381 8.03003 18.3198C8.03003 18.6015 8.25836 18.8298 8.54003 18.8298Z" fill="#212529"/>
<path d="M8.54003 16.2497C8.82169 16.2497 9.05003 16.0214 9.05003 15.7397C9.05003 15.4581 8.82169 15.2297 8.54003 15.2297C8.25836 15.2297 8.03003 15.4581 8.03003 15.7397C8.03003 16.0214 8.25836 16.2497 8.54003 16.2497Z" fill="#212529"/>
<path d="M11.1101 18.8298C11.3918 18.8298 11.6201 18.6015 11.6201 18.3198C11.6201 18.0381 11.3918 17.8098 11.1101 17.8098C10.8284 17.8098 10.6001 18.0381 10.6001 18.3198C10.6001 18.6015 10.8284 18.8298 11.1101 18.8298Z" fill="#212529"/>
<path d="M9.82006 17.5398C10.1017 17.5398 10.3301 17.3114 10.3301 17.0298C10.3301 16.7481 10.1017 16.5198 9.82006 16.5198C9.53839 16.5198 9.31006 16.7481 9.31006 17.0298C9.31006 17.3114 9.53839 17.5398 9.82006 17.5398Z" fill="#212529"/>
<path d="M7.24999 17.5398C7.53166 17.5398 7.75999 17.3114 7.75999 17.0298C7.75999 16.7481 7.53166 16.5198 7.24999 16.5198C6.96833 16.5198 6.73999 16.7481 6.73999 17.0298C6.73999 17.3114 6.96833 17.5398 7.24999 17.5398Z" fill="#212529"/>
<path d="M11.1101 16.2497C11.3918 16.2497 11.6201 16.0214 11.6201 15.7397C11.6201 15.4581 11.3918 15.2297 11.1101 15.2297C10.8284 15.2297 10.6001 15.4581 10.6001 15.7397C10.6001 16.0214 10.8284 16.2497 11.1101 16.2497Z" fill="#212529"/>
<path d="M9.82006 25C10.1017 25 10.3301 24.7716 10.3301 24.49C10.3301 24.2083 10.1017 23.98 9.82006 23.98C9.53839 23.98 9.31006 24.2083 9.31006 24.49C9.31006 24.7716 9.53839 25 9.82006 25Z" fill="#212529"/>
<path d="M7.24999 25C7.53166 25 7.75999 24.7716 7.75999 24.49C7.75999 24.2083 7.53166 23.98 7.24999 23.98C6.96833 23.98 6.73999 24.2083 6.73999 24.49C6.73999 24.7716 6.96833 25 7.24999 25Z" fill="#212529"/>
<path d="M8.54003 23.7099C8.82169 23.7099 9.05003 23.4816 9.05003 23.1999C9.05003 22.9183 8.82169 22.6899 8.54003 22.6899C8.25836 22.6899 8.03003 22.9183 8.03003 23.1999C8.03003 23.4816 8.25836 23.7099 8.54003 23.7099Z" fill="#212529"/>
<path d="M8.54003 21.1399C8.82169 21.1399 9.05003 20.9115 9.05003 20.6299C9.05003 20.3482 8.82169 20.1199 8.54003 20.1199C8.25836 20.1199 8.03003 20.3482 8.03003 20.6299C8.03003 20.9115 8.25836 21.1399 8.54003 21.1399Z" fill="#212529"/>
<path d="M11.1101 23.7099C11.3918 23.7099 11.6201 23.4816 11.6201 23.1999C11.6201 22.9183 11.3918 22.6899 11.1101 22.6899C10.8284 22.6899 10.6001 22.9183 10.6001 23.1999C10.6001 23.4816 10.8284 23.7099 11.1101 23.7099Z" fill="#212529"/>
<path d="M9.82006 22.4299C10.1017 22.4299 10.3301 22.2016 10.3301 21.9199C10.3301 21.6382 10.1017 21.4099 9.82006 21.4099C9.53839 21.4099 9.31006 21.6382 9.31006 21.9199C9.31006 22.2016 9.53839 22.4299 9.82006 22.4299Z" fill="#212529"/>
<path d="M7.24999 22.4299C7.53166 22.4299 7.75999 22.2016 7.75999 21.9199C7.75999 21.6382 7.53166 21.4099 7.24999 21.4099C6.96833 21.4099 6.73999 21.6382 6.73999 21.9199C6.73999 22.2016 6.96833 22.4299 7.24999 22.4299Z" fill="#212529"/>
<path d="M11.1101 21.1399C11.3918 21.1399 11.6201 20.9115 11.6201 20.6299C11.6201 20.3482 11.3918 20.1199 11.1101 20.1199C10.8284 20.1199 10.6001 20.3482 10.6001 20.6299C10.6001 20.9115 10.8284 21.1399 11.1101 21.1399Z" fill="#212529"/>
<path d="M9.82006 29.8899C10.1017 29.8899 10.3301 29.6615 10.3301 29.3799C10.3301 29.0982 10.1017 28.8699 9.82006 28.8699C9.53839 28.8699 9.31006 29.0982 9.31006 29.3799C9.31006 29.6615 9.53839 29.8899 9.82006 29.8899Z" fill="#212529"/>
<path d="M7.24999 29.8899C7.53166 29.8899 7.75999 29.6615 7.75999 29.3799C7.75999 29.0982 7.53166 28.8699 7.24999 28.8699C6.96833 28.8699 6.73999 29.0982 6.73999 29.3799C6.73999 29.6615 6.96833 29.8899 7.24999 29.8899Z" fill="#212529"/>
<path d="M8.54003 28.5998C8.82169 28.5998 9.05003 28.3715 9.05003 28.0898C9.05003 27.8082 8.82169 27.5798 8.54003 27.5798C8.25836 27.5798 8.03003 27.8082 8.03003 28.0898C8.03003 28.3715 8.25836 28.5998 8.54003 28.5998Z" fill="#212529"/>
<path d="M8.54003 26.0298C8.82169 26.0298 9.05003 25.8014 9.05003 25.5198C9.05003 25.2381 8.82169 25.0098 8.54003 25.0098C8.25836 25.0098 8.03003 25.2381 8.03003 25.5198C8.03003 25.8014 8.25836 26.0298 8.54003 26.0298Z" fill="#212529"/>
<path d="M11.1101 28.5998C11.3918 28.5998 11.6201 28.3715 11.6201 28.0898C11.6201 27.8082 11.3918 27.5798 11.1101 27.5798C10.8284 27.5798 10.6001 27.8082 10.6001 28.0898C10.6001 28.3715 10.8284 28.5998 11.1101 28.5998Z" fill="#212529"/>
<path d="M9.82006 27.3198C10.1017 27.3198 10.3301 27.0915 10.3301 26.8098C10.3301 26.5281 10.1017 26.2998 9.82006 26.2998C9.53839 26.2998 9.31006 26.5281 9.31006 26.8098C9.31006 27.0915 9.53839 27.3198 9.82006 27.3198Z" fill="#212529"/>
<path d="M7.24999 27.3198C7.53166 27.3198 7.75999 27.0915 7.75999 26.8098C7.75999 26.5281 7.53166 26.2998 7.24999 26.2998C6.96833 26.2998 6.73999 26.5281 6.73999 26.8098C6.73999 27.0915 6.96833 27.3198 7.24999 27.3198Z" fill="#212529"/>
<path d="M11.1101 26.0298C11.3918 26.0298 11.6201 25.8014 11.6201 25.5198C11.6201 25.2381 11.3918 25.0098 11.1101 25.0098C10.8284 25.0098 10.6001 25.2381 10.6001 25.5198C10.6001 25.8014 10.8284 26.0298 11.1101 26.0298Z" fill="#212529"/>
<path d="M8.54003 30.9199C8.82169 30.9199 9.05003 30.6916 9.05003 30.4099C9.05003 30.1282 8.82169 29.8999 8.54003 29.8999C8.25836 29.8999 8.03003 30.1282 8.03003 30.4099C8.03003 30.6916 8.25836 30.9199 8.54003 30.9199Z" fill="#212529"/>
<path d="M11.1101 30.9199C11.3918 30.9199 11.6201 30.6916 11.6201 30.4099C11.6201 30.1282 11.3918 29.8999 11.1101 29.8999C10.8284 29.8999 10.6001 30.1282 10.6001 30.4099C10.6001 30.6916 10.8284 30.9199 11.1101 30.9199Z" fill="#212529"/>
<path d="M4.94018 5.44993C5.22184 5.44993 5.45018 5.2216 5.45018 4.93993C5.45018 4.65827 5.22184 4.42993 4.94018 4.42993C4.65851 4.42993 4.43018 4.65827 4.43018 4.93993C4.43018 5.2216 4.65851 5.44993 4.94018 5.44993Z" fill="#212529"/>
<path d="M2.3601 5.44993C2.64176 5.44993 2.8701 5.2216 2.8701 4.93993C2.8701 4.65827 2.64176 4.42993 2.3601 4.42993C2.07843 4.42993 1.8501 4.65827 1.8501 4.93993C1.8501 5.2216 2.07843 5.44993 2.3601 5.44993Z" fill="#212529"/>
<path d="M3.65014 4.15989C3.9318 4.15989 4.16014 3.93156 4.16014 3.64989C4.16014 3.36823 3.9318 3.13989 3.65014 3.13989C3.36847 3.13989 3.14014 3.36823 3.14014 3.64989C3.14014 3.93156 3.36847 4.15989 3.65014 4.15989Z" fill="#212529"/>
<path d="M6.2202 4.15989C6.50187 4.15989 6.73021 3.93156 6.73021 3.64989C6.73021 3.36823 6.50187 3.13989 6.2202 3.13989C5.93854 3.13989 5.71021 3.36823 5.71021 3.64989C5.71021 3.93156 5.93854 4.15989 6.2202 4.15989Z" fill="#212529"/>
<path d="M4.94018 2.86985C5.22184 2.86985 5.45018 2.64152 5.45018 2.35985C5.45018 2.07819 5.22184 1.84985 4.94018 1.84985C4.65851 1.84985 4.43018 2.07819 4.43018 2.35985C4.43018 2.64152 4.65851 2.86985 4.94018 2.86985Z" fill="#212529"/>
<path d="M2.3601 2.86985C2.64176 2.86985 2.8701 2.64152 2.8701 2.35985C2.8701 2.07819 2.64176 1.84985 2.3601 1.84985C2.07843 1.84985 1.8501 2.07819 1.8501 2.35985C1.8501 2.64152 2.07843 2.86985 2.3601 2.86985Z" fill="#212529"/>
<path d="M4.94018 10.3298C5.22184 10.3298 5.45018 10.1015 5.45018 9.81981C5.45018 9.53815 5.22184 9.30981 4.94018 9.30981C4.65851 9.30981 4.43018 9.53815 4.43018 9.81981C4.43018 10.1015 4.65851 10.3298 4.94018 10.3298Z" fill="#212529"/>
<path d="M2.3601 10.3298C2.64176 10.3298 2.8701 10.1015 2.8701 9.81981C2.8701 9.53815 2.64176 9.30981 2.3601 9.30981C2.07843 9.30981 1.8501 9.53815 1.8501 9.81981C1.8501 10.1015 2.07843 10.3298 2.3601 10.3298Z" fill="#212529"/>
<path d="M3.65014 9.04979C3.9318 9.04979 4.16014 8.82145 4.16014 8.53979C4.16014 8.25812 3.9318 8.02979 3.65014 8.02979C3.36847 8.02979 3.14014 8.25812 3.14014 8.53979C3.14014 8.82145 3.36847 9.04979 3.65014 9.04979Z" fill="#212529"/>
<path d="M3.65014 6.46971C3.9318 6.46971 4.16014 6.24137 4.16014 5.95971C4.16014 5.67804 3.9318 5.44971 3.65014 5.44971C3.36847 5.44971 3.14014 5.67804 3.14014 5.95971C3.14014 6.24137 3.36847 6.46971 3.65014 6.46971Z" fill="#212529"/>
<path d="M6.2202 9.04979C6.50187 9.04979 6.73021 8.82145 6.73021 8.53979C6.73021 8.25812 6.50187 8.02979 6.2202 8.02979C5.93854 8.02979 5.71021 8.25812 5.71021 8.53979C5.71021 8.82145 5.93854 9.04979 6.2202 9.04979Z" fill="#212529"/>
<path d="M4.94018 7.75975C5.22184 7.75975 5.45018 7.53141 5.45018 7.24975C5.45018 6.96808 5.22184 6.73975 4.94018 6.73975C4.65851 6.73975 4.43018 6.96808 4.43018 7.24975C4.43018 7.53141 4.65851 7.75975 4.94018 7.75975Z" fill="#212529"/>
<path d="M2.3601 7.75975C2.64176 7.75975 2.8701 7.53141 2.8701 7.24975C2.8701 6.96808 2.64176 6.73975 2.3601 6.73975C2.07843 6.73975 1.8501 6.96808 1.8501 7.24975C1.8501 7.53141 2.07843 7.75975 2.3601 7.75975Z" fill="#212529"/>
<path d="M6.2202 6.46971C6.50187 6.46971 6.73021 6.24137 6.73021 5.95971C6.73021 5.67804 6.50187 5.44971 6.2202 5.44971C5.93854 5.44971 5.71021 5.67804 5.71021 5.95971C5.71021 6.24137 5.93854 6.46971 6.2202 6.46971Z" fill="#212529"/>
<path d="M4.94018 15.22C5.22184 15.22 5.45018 14.9916 5.45018 14.71C5.45018 14.4283 5.22184 14.2 4.94018 14.2C4.65851 14.2 4.43018 14.4283 4.43018 14.71C4.43018 14.9916 4.65851 15.22 4.94018 15.22Z" fill="#212529"/>
<path d="M2.3601 15.22C2.64176 15.22 2.8701 14.9916 2.8701 14.71C2.8701 14.4283 2.64176 14.2 2.3601 14.2C2.07843 14.2 1.8501 14.4283 1.8501 14.71C1.8501 14.9916 2.07843 15.22 2.3601 15.22Z" fill="#212529"/>
<path d="M3.65014 13.9399C3.9318 13.9399 4.16014 13.7116 4.16014 13.4299C4.16014 13.1483 3.9318 12.9199 3.65014 12.9199C3.36847 12.9199 3.14014 13.1483 3.14014 13.4299C3.14014 13.7116 3.36847 13.9399 3.65014 13.9399Z" fill="#212529"/>
<path d="M3.65014 11.3598C3.9318 11.3598 4.16014 11.1315 4.16014 10.8498C4.16014 10.5682 3.9318 10.3398 3.65014 10.3398C3.36847 10.3398 3.14014 10.5682 3.14014 10.8498C3.14014 11.1315 3.36847 11.3598 3.65014 11.3598Z" fill="#212529"/>
<path d="M6.2202 13.9399C6.50187 13.9399 6.73021 13.7116 6.73021 13.4299C6.73021 13.1483 6.50187 12.9199 6.2202 12.9199C5.93854 12.9199 5.71021 13.1483 5.71021 13.4299C5.71021 13.7116 5.93854 13.9399 6.2202 13.9399Z" fill="#212529"/>
<path d="M4.94018 12.6499C5.22184 12.6499 5.45018 12.4215 5.45018 12.1399C5.45018 11.8582 5.22184 11.6299 4.94018 11.6299C4.65851 11.6299 4.43018 11.8582 4.43018 12.1399C4.43018 12.4215 4.65851 12.6499 4.94018 12.6499Z" fill="#212529"/>
<path d="M2.3601 12.6499C2.64176 12.6499 2.8701 12.4215 2.8701 12.1399C2.8701 11.8582 2.64176 11.6299 2.3601 11.6299C2.07843 11.6299 1.8501 11.8582 1.8501 12.1399C1.8501 12.4215 2.07843 12.6499 2.3601 12.6499Z" fill="#212529"/>
<path d="M6.2202 11.3598C6.50187 11.3598 6.73021 11.1315 6.73021 10.8498C6.73021 10.5682 6.50187 10.3398 6.2202 10.3398C5.93854 10.3398 5.71021 10.5682 5.71021 10.8498C5.71021 11.1315 5.93854 11.3598 6.2202 11.3598Z" fill="#212529"/>
<path d="M4.94018 20.1098C5.22184 20.1098 5.45018 19.8815 5.45018 19.5998C5.45018 19.3182 5.22184 19.0898 4.94018 19.0898C4.65851 19.0898 4.43018 19.3182 4.43018 19.5998C4.43018 19.8815 4.65851 20.1098 4.94018 20.1098Z" fill="#212529"/>
<path d="M2.3601 20.1098C2.64176 20.1098 2.8701 19.8815 2.8701 19.5998C2.8701 19.3182 2.64176 19.0898 2.3601 19.0898C2.07843 19.0898 1.8501 19.3182 1.8501 19.5998C1.8501 19.8815 2.07843 20.1098 2.3601 20.1098Z" fill="#212529"/>
<path d="M3.65014 18.8298C3.9318 18.8298 4.16014 18.6015 4.16014 18.3198C4.16014 18.0381 3.9318 17.8098 3.65014 17.8098C3.36847 17.8098 3.14014 18.0381 3.14014 18.3198C3.14014 18.6015 3.36847 18.8298 3.65014 18.8298Z" fill="#212529"/>
<path d="M3.65014 16.2497C3.9318 16.2497 4.16014 16.0214 4.16014 15.7397C4.16014 15.4581 3.9318 15.2297 3.65014 15.2297C3.36847 15.2297 3.14014 15.4581 3.14014 15.7397C3.14014 16.0214 3.36847 16.2497 3.65014 16.2497Z" fill="#212529"/>
<path d="M6.2202 18.8298C6.50187 18.8298 6.73021 18.6015 6.73021 18.3198C6.73021 18.0381 6.50187 17.8098 6.2202 17.8098C5.93854 17.8098 5.71021 18.0381 5.71021 18.3198C5.71021 18.6015 5.93854 18.8298 6.2202 18.8298Z" fill="#212529"/>
<path d="M4.94018 17.5398C5.22184 17.5398 5.45018 17.3114 5.45018 17.0298C5.45018 16.7481 5.22184 16.5198 4.94018 16.5198C4.65851 16.5198 4.43018 16.7481 4.43018 17.0298C4.43018 17.3114 4.65851 17.5398 4.94018 17.5398Z" fill="#212529"/>
<path d="M2.3601 17.5398C2.64176 17.5398 2.8701 17.3114 2.8701 17.0298C2.8701 16.7481 2.64176 16.5198 2.3601 16.5198C2.07843 16.5198 1.8501 16.7481 1.8501 17.0298C1.8501 17.3114 2.07843 17.5398 2.3601 17.5398Z" fill="#212529"/>
<path d="M6.2202 16.2497C6.50187 16.2497 6.73021 16.0214 6.73021 15.7397C6.73021 15.4581 6.50187 15.2297 6.2202 15.2297C5.93854 15.2297 5.71021 15.4581 5.71021 15.7397C5.71021 16.0214 5.93854 16.2497 6.2202 16.2497Z" fill="#212529"/>
<path d="M4.94018 25C5.22184 25 5.45018 24.7716 5.45018 24.49C5.45018 24.2083 5.22184 23.98 4.94018 23.98C4.65851 23.98 4.43018 24.2083 4.43018 24.49C4.43018 24.7716 4.65851 25 4.94018 25Z" fill="#212529"/>
<path d="M2.3601 25C2.64176 25 2.8701 24.7716 2.8701 24.49C2.8701 24.2083 2.64176 23.98 2.3601 23.98C2.07843 23.98 1.8501 24.2083 1.8501 24.49C1.8501 24.7716 2.07843 25 2.3601 25Z" fill="#212529"/>
<path d="M3.65014 23.7099C3.9318 23.7099 4.16014 23.4816 4.16014 23.1999C4.16014 22.9183 3.9318 22.6899 3.65014 22.6899C3.36847 22.6899 3.14014 22.9183 3.14014 23.1999C3.14014 23.4816 3.36847 23.7099 3.65014 23.7099Z" fill="#212529"/>
<path d="M3.65014 21.1399C3.9318 21.1399 4.16014 20.9115 4.16014 20.6299C4.16014 20.3482 3.9318 20.1199 3.65014 20.1199C3.36847 20.1199 3.14014 20.3482 3.14014 20.6299C3.14014 20.9115 3.36847 21.1399 3.65014 21.1399Z" fill="#212529"/>
<path d="M6.2202 23.7099C6.50187 23.7099 6.73021 23.4816 6.73021 23.1999C6.73021 22.9183 6.50187 22.6899 6.2202 22.6899C5.93854 22.6899 5.71021 22.9183 5.71021 23.1999C5.71021 23.4816 5.93854 23.7099 6.2202 23.7099Z" fill="#212529"/>
<path d="M4.94018 22.4299C5.22184 22.4299 5.45018 22.2016 5.45018 21.9199C5.45018 21.6382 5.22184 21.4099 4.94018 21.4099C4.65851 21.4099 4.43018 21.6382 4.43018 21.9199C4.43018 22.2016 4.65851 22.4299 4.94018 22.4299Z" fill="#212529"/>
<path d="M2.3601 22.4299C2.64176 22.4299 2.8701 22.2016 2.8701 21.9199C2.8701 21.6382 2.64176 21.4099 2.3601 21.4099C2.07843 21.4099 1.8501 21.6382 1.8501 21.9199C1.8501 22.2016 2.07843 22.4299 2.3601 22.4299Z" fill="#212529"/>
<path d="M6.2202 21.1399C6.50187 21.1399 6.73021 20.9115 6.73021 20.6299C6.73021 20.3482 6.50187 20.1199 6.2202 20.1199C5.93854 20.1199 5.71021 20.3482 5.71021 20.6299C5.71021 20.9115 5.93854 21.1399 6.2202 21.1399Z" fill="#212529"/>
<path d="M4.94018 29.8899C5.22184 29.8899 5.45018 29.6615 5.45018 29.3799C5.45018 29.0982 5.22184 28.8699 4.94018 28.8699C4.65851 28.8699 4.43018 29.0982 4.43018 29.3799C4.43018 29.6615 4.65851 29.8899 4.94018 29.8899Z" fill="#212529"/>
<path d="M2.3601 29.8899C2.64176 29.8899 2.8701 29.6615 2.8701 29.3799C2.8701 29.0982 2.64176 28.8699 2.3601 28.8699C2.07843 28.8699 1.8501 29.0982 1.8501 29.3799C1.8501 29.6615 2.07843 29.8899 2.3601 29.8899Z" fill="#212529"/>
<path d="M3.65014 28.5998C3.9318 28.5998 4.16014 28.3715 4.16014 28.0898C4.16014 27.8082 3.9318 27.5798 3.65014 27.5798C3.36847 27.5798 3.14014 27.8082 3.14014 28.0898C3.14014 28.3715 3.36847 28.5998 3.65014 28.5998Z" fill="#212529"/>
<path d="M3.65014 26.0298C3.9318 26.0298 4.16014 25.8014 4.16014 25.5198C4.16014 25.2381 3.9318 25.0098 3.65014 25.0098C3.36847 25.0098 3.14014 25.2381 3.14014 25.5198C3.14014 25.8014 3.36847 26.0298 3.65014 26.0298Z" fill="#212529"/>
<path d="M6.2202 28.5998C6.50187 28.5998 6.73021 28.3715 6.73021 28.0898C6.73021 27.8082 6.50187 27.5798 6.2202 27.5798C5.93854 27.5798 5.71021 27.8082 5.71021 28.0898C5.71021 28.3715 5.93854 28.5998 6.2202 28.5998Z" fill="#212529"/>
<path d="M4.94018 27.3198C5.22184 27.3198 5.45018 27.0915 5.45018 26.8098C5.45018 26.5281 5.22184 26.2998 4.94018 26.2998C4.65851 26.2998 4.43018 26.5281 4.43018 26.8098C4.43018 27.0915 4.65851 27.3198 4.94018 27.3198Z" fill="#212529"/>
<path d="M2.3601 27.3198C2.64176 27.3198 2.8701 27.0915 2.8701 26.8098C2.8701 26.5281 2.64176 26.2998 2.3601 26.2998C2.07843 26.2998 1.8501 26.5281 1.8501 26.8098C1.8501 27.0915 2.07843 27.3198 2.3601 27.3198Z" fill="#212529"/>
<path d="M6.2202 26.0298C6.50187 26.0298 6.73021 25.8014 6.73021 25.5198C6.73021 25.2381 6.50187 25.0098 6.2202 25.0098C5.93854 25.0098 5.71021 25.2381 5.71021 25.5198C5.71021 25.8014 5.93854 26.0298 6.2202 26.0298Z" fill="#212529"/>
<path d="M3.65014 30.9199C3.9318 30.9199 4.16014 30.6916 4.16014 30.4099C4.16014 30.1282 3.9318 29.8999 3.65014 29.8999C3.36847 29.8999 3.14014 30.1282 3.14014 30.4099C3.14014 30.6916 3.36847 30.9199 3.65014 30.9199Z" fill="#212529"/>
<path d="M6.2202 30.9199C6.50187 30.9199 6.73021 30.6916 6.73021 30.4099C6.73021 30.1282 6.50187 29.8999 6.2202 29.8999C5.93854 29.8999 5.71021 30.1282 5.71021 30.4099C5.71021 30.6916 5.93854 30.9199 6.2202 30.9199Z" fill="#212529"/>
<path d="M1.33007 4.15989C1.61173 4.15989 1.84007 3.93156 1.84007 3.64989C1.84007 3.36823 1.61173 3.13989 1.33007 3.13989C1.0484 3.13989 0.820068 3.36823 0.820068 3.64989C0.820068 3.93156 1.0484 4.15989 1.33007 4.15989Z" fill="#212529"/>
<path d="M1.33007 9.04979C1.61173 9.04979 1.84007 8.82145 1.84007 8.53979C1.84007 8.25812 1.61173 8.02979 1.33007 8.02979C1.0484 8.02979 0.820068 8.25812 0.820068 8.53979C0.820068 8.82145 1.0484 9.04979 1.33007 9.04979Z" fill="#212529"/>
<path d="M1.33007 6.46971C1.61173 6.46971 1.84007 6.24137 1.84007 5.95971C1.84007 5.67804 1.61173 5.44971 1.33007 5.44971C1.0484 5.44971 0.820068 5.67804 0.820068 5.95971C0.820068 6.24137 1.0484 6.46971 1.33007 6.46971Z" fill="#212529"/>
<path d="M1.33007 13.9399C1.61173 13.9399 1.84007 13.7116 1.84007 13.4299C1.84007 13.1483 1.61173 12.9199 1.33007 12.9199C1.0484 12.9199 0.820068 13.1483 0.820068 13.4299C0.820068 13.7116 1.0484 13.9399 1.33007 13.9399Z" fill="#212529"/>
<path d="M1.33007 11.3598C1.61173 11.3598 1.84007 11.1315 1.84007 10.8498C1.84007 10.5682 1.61173 10.3398 1.33007 10.3398C1.0484 10.3398 0.820068 10.5682 0.820068 10.8498C0.820068 11.1315 1.0484 11.3598 1.33007 11.3598Z" fill="#212529"/>
<path d="M1.33007 18.8298C1.61173 18.8298 1.84007 18.6015 1.84007 18.3198C1.84007 18.0381 1.61173 17.8098 1.33007 17.8098C1.0484 17.8098 0.820068 18.0381 0.820068 18.3198C0.820068 18.6015 1.0484 18.8298 1.33007 18.8298Z" fill="#212529"/>
<path d="M1.33007 16.2497C1.61173 16.2497 1.84007 16.0214 1.84007 15.7397C1.84007 15.4581 1.61173 15.2297 1.33007 15.2297C1.0484 15.2297 0.820068 15.4581 0.820068 15.7397C0.820068 16.0214 1.0484 16.2497 1.33007 16.2497Z" fill="#212529"/>
<path d="M1.33007 23.7099C1.61173 23.7099 1.84007 23.4816 1.84007 23.1999C1.84007 22.9183 1.61173 22.6899 1.33007 22.6899C1.0484 22.6899 0.820068 22.9183 0.820068 23.1999C0.820068 23.4816 1.0484 23.7099 1.33007 23.7099Z" fill="#212529"/>
<path d="M1.33007 21.1399C1.61173 21.1399 1.84007 20.9115 1.84007 20.6299C1.84007 20.3482 1.61173 20.1199 1.33007 20.1199C1.0484 20.1199 0.820068 20.3482 0.820068 20.6299C0.820068 20.9115 1.0484 21.1399 1.33007 21.1399Z" fill="#212529"/>
<path d="M1.33007 28.5998C1.61173 28.5998 1.84007 28.3715 1.84007 28.0898C1.84007 27.8082 1.61173 27.5798 1.33007 27.5798C1.0484 27.5798 0.820068 27.8082 0.820068 28.0898C0.820068 28.3715 1.0484 28.5998 1.33007 28.5998Z" fill="#212529"/>
<path d="M1.33007 26.0298C1.61173 26.0298 1.84007 25.8014 1.84007 25.5198C1.84007 25.2381 1.61173 25.0098 1.33007 25.0098C1.0484 25.0098 0.820068 25.2381 0.820068 25.5198C0.820068 25.8014 1.0484 26.0298 1.33007 26.0298Z" fill="#212529"/>
<path d="M1.33007 30.9199C1.61173 30.9199 1.84007 30.6916 1.84007 30.4099C1.84007 30.1282 1.61173 29.8999 1.33007 29.8999C1.0484 29.8999 0.820068 30.1282 0.820068 30.4099C0.820068 30.6916 1.0484 30.9199 1.33007 30.9199Z" fill="#212529"/>
</g>
<path d="M1.19994 30.73C1.06871 30.7316 0.939734 30.6958 0.828146 30.6267C0.716559 30.5576 0.626986 30.4582 0.569936 30.34C0.504871 30.2075 0.483374 30.0577 0.508519 29.9123C0.533664 29.7668 0.604162 29.633 0.709936 29.53C1.83994 28.4 2.61994 26 2.92994 22.74C1.35575 20.5517 0.506017 17.9256 0.499936 15.23C0.499936 7.52998 7.49994 1.22998 15.9999 1.22998C24.4999 1.22998 31.4999 7.48998 31.4999 15.23C31.4999 22.97 24.5499 29.23 15.9999 29.23C13.864 29.2193 11.7497 28.8018 9.76994 28C7.10945 29.3479 4.24967 30.2595 1.29994 30.7L1.19994 30.73ZM15.9999 2.66998C8.22994 2.66998 1.90994 8.30998 1.90994 15.23C1.91927 17.7153 2.72931 20.1313 4.21994 22.12C4.32142 22.2583 4.36777 22.4294 4.34994 22.6C4.23067 24.8126 3.69816 26.9833 2.77994 29C5.07875 28.5473 7.29452 27.7446 9.34994 26.62C9.44548 26.5627 9.553 26.5284 9.66405 26.5197C9.77511 26.511 9.88666 26.5282 9.98993 26.57C11.8883 27.3725 13.9289 27.7841 15.9899 27.78C23.7599 27.78 30.0799 22.14 30.0799 15.21C30.0799 8.27998 23.7699 2.66998 15.9999 2.66998Z" fill="#212529"/>
</svg>
