<svg width="100" height="100" viewBox="0 0 100 100" fill="none" xmlns="http://www.w3.org/2000/svg">
<path d="M19.6701 29.28C19.1162 29.2768 18.5853 29.058 18.1901 28.67L11.8401 22.32C11.4422 21.9222 11.2187 21.3826 11.2188 20.82C11.2187 20.2574 11.4422 19.7178 11.8401 19.32C12.2379 18.9222 12.7775 18.6987 13.3401 18.6987C13.9027 18.6987 14.4422 18.9222 14.8401 19.32L19.7101 24.19L30.8901 13C31.2879 12.6022 31.8275 12.3787 32.3901 12.3787C32.9527 12.3787 33.4922 12.6022 33.8901 13C34.2879 13.3978 34.5114 13.9374 34.5114 14.5C34.5114 15.0626 34.2879 15.6022 33.8901 16L21.1901 28.7C20.7801 29.0868 20.2335 29.2954 19.6701 29.28Z" fill="#231E20"/>
<path d="M16.4901 58.4401C15.9323 58.4417 15.3966 58.2224 15.0001 57.8301C14.7993 57.6353 14.6397 57.4021 14.5307 57.1445C14.4216 56.8868 14.3655 56.6099 14.3655 56.3301C14.3655 56.0503 14.4216 55.7734 14.5307 55.5157C14.6397 55.2581 14.7993 55.0249 15.0001 54.8301L27.7001 42.1301C28.0979 41.7323 28.6375 41.5088 29.2001 41.5088C29.7627 41.5088 30.3023 41.7323 30.7001 42.1301C31.0979 42.5279 31.3214 43.0675 31.3214 43.6301C31.3214 44.1927 31.0979 44.7323 30.7001 45.1301L18.0001 57.8301C17.8011 58.0263 17.5652 58.1812 17.306 58.2859C17.0469 58.3906 16.7696 58.443 16.4901 58.4401Z" fill="#231E20"/>
<path d="M29.1901 58.4401C28.6392 58.4364 28.1116 58.2175 27.7201 57.8301L15.0001 45.1301C14.6022 44.7389 14.3761 44.2057 14.3714 43.6478C14.3667 43.0898 14.5839 42.5529 14.9751 42.1551C15.3663 41.7573 15.8995 41.5311 16.4574 41.5264C17.0153 41.5218 17.5522 41.7389 17.9501 42.1301L30.6501 54.8301C30.8509 55.0249 31.0105 55.2581 31.1195 55.5157C31.2285 55.7734 31.2847 56.0503 31.2847 56.3301C31.2847 56.6099 31.2285 56.8868 31.1195 57.1444C31.0105 57.4021 30.8509 57.6353 30.6501 57.8301C30.2604 58.2142 29.7372 58.4328 29.1901 58.4401Z" fill="#231E20"/>
<path d="M19.6701 87.77C19.1162 87.7668 18.5853 87.548 18.1901 87.16L11.8401 80.81C11.4422 80.4122 11.2187 79.8726 11.2188 79.31C11.2188 78.7474 11.4422 78.2078 11.8401 77.81C12.2379 77.4122 12.7775 77.1887 13.3401 77.1887C13.9027 77.1887 14.4422 77.4122 14.8401 77.81L19.7101 82.68L30.8901 71.5C31.2879 71.1022 31.8275 70.8787 32.3901 70.8787C32.9527 70.8787 33.4922 71.1022 33.8901 71.5C34.2879 71.8978 34.5114 72.4374 34.5114 73C34.5114 73.5626 34.2879 74.1022 33.8901 74.5L21.1901 87.2C20.7785 87.5832 20.2321 87.7881 19.6701 87.77Z" fill="#231E20"/>
<path d="M91.78 39.61V62.53H41.64V37.47H45.7L42.34 33.29H41.64V32.43L38.83 28.94C38.2391 28.1929 37.7792 27.351 37.47 26.45V33.29H8.22V8.22H37.47V21C37.6619 20.4013 37.9237 19.8274 38.25 19.29L41.64 13.86V8.22H45.16L46.62 5.88C47.0492 5.18041 47.5781 4.54709 48.19 4H4V96H96V34.42L91.78 39.61ZM37.47 91.78H8.22V66.71H37.47V91.78ZM37.47 62.53H8.22V37.47H37.47V62.53ZM91.78 91.78H41.64V66.71H91.78V91.78Z" fill="#2A2527"/>
<path d="M95.9099 24.42C95.9148 24.3334 95.9148 24.2465 95.9099 24.16C95.9099 24.06 95.9099 23.96 95.9099 23.85C95.9099 23.74 95.9099 23.69 95.9099 23.6C95.8857 23.4972 95.8522 23.3967 95.8099 23.3C95.8157 23.2535 95.8157 23.2064 95.8099 23.16C95.7923 23.1284 95.7722 23.0984 95.7499 23.07V22.95L87.2699 9.55995C87.0885 9.29694 86.8533 9.0754 86.5799 8.90995L86.4399 8.83995L86.2599 8.74995H86.1399H85.9699C85.8515 8.72352 85.7311 8.70679 85.6099 8.69995H53.6099C53.4888 8.70679 53.3684 8.72352 53.2499 8.74995H53.0899H52.9799L52.7799 8.83995L52.6499 8.90995C52.5098 8.98836 52.379 9.08228 52.2599 9.18995C52.1521 9.29693 52.055 9.41415 51.9699 9.53995L43.5699 23V23.12C43.5699 23.12 43.5199 23.17 43.5099 23.21C43.4873 23.2543 43.4705 23.3013 43.4599 23.35C43.4208 23.447 43.3907 23.5474 43.3699 23.65C43.3611 23.733 43.3611 23.8169 43.3699 23.9C43.3601 24.003 43.3601 24.1069 43.3699 24.21C43.3601 24.2963 43.3601 24.3836 43.3699 24.47C43.3838 24.5687 43.4072 24.6658 43.4399 24.76C43.4689 24.845 43.5023 24.9284 43.5399 25.01C43.5399 25.01 43.5399 25.08 43.5399 25.12C43.5767 25.1756 43.6168 25.2291 43.6599 25.28C43.6599 25.28 43.6599 25.37 43.7399 25.42L67.9999 55.47C68.1158 55.611 68.2504 55.7354 68.3999 55.84L68.5299 55.93C68.6516 56 68.7787 56.0602 68.9099 56.11H69.0699C69.2419 56.1617 69.4204 56.1886 69.5999 56.1899C69.7446 56.1881 69.8887 56.1714 70.0299 56.1399H70.1499H70.3199H70.4199L70.5899 56.06C70.6669 56.0192 70.7404 55.9724 70.8099 55.9199L70.9499 55.82C71.0216 55.7549 71.0884 55.6847 71.1499 55.61C71.181 55.5921 71.2082 55.5684 71.2299 55.54L95.4899 25.37C95.5236 25.3222 95.5537 25.2721 95.5799 25.22C95.6221 25.1742 95.659 25.1239 95.6899 25.07C95.6882 25.0333 95.6882 24.9966 95.6899 24.9599C95.7287 24.8801 95.7589 24.7962 95.7799 24.7099C95.833 24.6179 95.8765 24.5208 95.9099 24.42ZM76.0899 22H63.0899L69.5699 14L76.0899 22ZM77.5099 26.18L69.5099 47.75L61.5799 26.15L77.5099 26.18ZM79.8199 19.96L73.9999 12.76H82.4999L79.8199 19.96ZM59.3399 20L56.6899 12.77H65.2099L59.3399 20ZM85.9999 15.38L90.0999 22H83.5199L85.9999 15.38ZM53.2299 15.38L55.6099 22H49.1099L53.2299 15.38ZM57.1599 26.13L63.3099 43L49.7099 26.15L57.1599 26.13ZM75.4799 43.56L81.9999 26.15H89.4999L75.4799 43.56Z" fill="#212529"/>
</svg>
