<svg width="45" height="45" viewBox="0 0 45 45" fill="none" xmlns="http://www.w3.org/2000/svg">
<path d="M14.28 10.9299C13.7164 11.5002 13.0452 11.9529 12.3054 12.2619C11.5656 12.5708 10.7718 12.7299 9.97 12.7299C9.16824 12.7299 8.37445 12.5708 7.63461 12.2619C6.89478 11.9529 6.22361 11.5002 5.66 10.9299C3.42 12.5499 1.66 16.3499 1 19.6699H19C18.28 16.3499 16.53 12.5499 14.28 10.9299Z" fill="#212529"/>
<path d="M10.1119 11.7388C12.9164 11.6609 15.1268 9.32429 15.049 6.51977C14.9711 3.71524 12.6345 1.50483 9.83 1.58268C7.02547 1.66052 4.81506 3.99715 4.89291 6.80168C4.97076 9.6062 7.30738 11.8166 10.1119 11.7388Z" fill="#212529"/>
<path d="M22.09 41.2C22.0197 40.9484 21.8538 40.7343 21.6277 40.6035C21.4015 40.4727 21.1332 40.4355 20.88 40.5H20.71C18.7921 40.9569 16.7783 40.7884 14.9631 40.019C13.1478 39.2496 11.6262 37.9198 10.6207 36.2239C9.61523 34.5279 9.17857 32.5549 9.37456 30.593C9.57055 28.6312 10.3889 26.7835 11.71 25.32L12.31 28C12.3187 28.1464 12.3595 28.2891 12.4295 28.418C12.4995 28.5469 12.597 28.6588 12.715 28.7458C12.8331 28.8328 12.9688 28.8928 13.1126 28.9214C13.2564 28.9501 13.4048 28.9468 13.5472 28.9118C13.6896 28.8768 13.8226 28.8108 13.9367 28.7187C14.0507 28.6265 14.1432 28.5104 14.2074 28.3786C14.2716 28.2467 14.306 28.1023 14.3082 27.9557C14.3104 27.8091 14.2803 27.6638 14.22 27.53L13.08 22.86C13.0468 22.7334 12.9891 22.6145 12.91 22.51C12.7964 22.3585 12.6421 22.2424 12.4651 22.1751C12.2881 22.1078 12.0956 22.0922 11.91 22.13L7.21003 23.27C6.95905 23.3362 6.74362 23.4973 6.60926 23.7194C6.47491 23.9414 6.43215 24.207 6.49003 24.46C6.54478 24.6819 6.67388 24.8783 6.85583 25.0166C7.03777 25.1549 7.2616 25.2267 7.49003 25.22C7.56634 25.2305 7.64372 25.2305 7.72003 25.22L9.72003 24.74C8.32453 26.5766 7.52898 28.7987 7.4417 31.1036C7.35441 33.4086 7.97965 35.6844 9.23226 37.6212C10.4849 39.5581 12.304 41.0618 14.4419 41.9277C16.5798 42.7935 18.9327 42.9794 21.18 42.46L21.39 42.4C21.6395 42.3297 21.8518 42.1653 21.9824 41.9414C22.113 41.7176 22.1516 41.4518 22.09 41.2Z" fill="#212529"/>
<path d="M41.7799 16.31C41.6013 16.1215 41.3564 16.0098 41.097 15.9986C40.8376 15.9874 40.584 16.0775 40.3899 16.25L38.9999 17.54C39.0749 15.4277 38.5512 13.3372 37.4892 11.5097C36.4272 9.68226 34.8702 8.19226 32.9979 7.21164C31.1255 6.23101 29.014 5.79972 26.907 5.96751C24.8001 6.13531 22.7835 6.89535 21.0899 8.15996L20.8799 8.31996C20.6781 8.483 20.5475 8.71809 20.5158 8.97558C20.4841 9.23308 20.5537 9.49282 20.7099 9.69996C20.8715 9.90331 21.1059 10.0358 21.3634 10.0694C21.621 10.103 21.8815 10.0351 22.0899 9.87996L22.2699 9.73996C23.7127 8.65672 25.4411 8.01959 27.2418 7.90716C29.0425 7.79474 30.8367 8.21195 32.4031 9.10731C33.9694 10.0027 35.2394 11.337 36.0562 12.9457C36.8731 14.5544 37.2012 16.367 36.9999 18.16L34.9999 16C34.813 15.8167 34.5616 15.7141 34.2999 15.7141C34.0381 15.7141 33.7868 15.8167 33.5999 16C33.407 16.1776 33.2916 16.4238 33.2785 16.6856C33.2654 16.9475 33.3557 17.204 33.5299 17.4L36.7799 20.94C36.8731 21.0405 36.9861 21.1208 37.1116 21.1758C37.2372 21.2309 37.3728 21.2595 37.5099 21.26C37.7577 21.2593 37.9965 21.1667 38.1799 21L41.7199 17.75C41.8207 17.6608 41.9024 17.5522 41.9602 17.4306C42.018 17.3091 42.0507 17.1772 42.0563 17.0427C42.0619 16.9083 42.0403 16.7741 41.9928 16.6482C41.9453 16.5222 41.8729 16.4072 41.7799 16.31Z" fill="#212529"/>
<path d="M39.34 34.6799C38.7764 35.2502 38.1053 35.7029 37.3654 36.0119C36.6256 36.3208 35.8318 36.4799 35.03 36.4799C34.2283 36.4799 33.4345 36.3208 32.6947 36.0119C31.9548 35.7029 31.2837 35.2502 30.72 34.6799C28.47 36.2999 26.72 40.0999 26.05 43.4199H44C43.33 40.0999 41.58 36.2999 39.34 34.6799Z" fill="#212529"/>
<path d="M35.1712 35.4844C37.9758 35.4065 40.1862 33.0699 40.1083 30.2654C40.0305 27.4608 37.6938 25.2504 34.8893 25.3283C32.0848 25.4061 29.8744 27.7428 29.9522 30.5473C30.0301 33.3518 32.3667 35.5622 35.1712 35.4844Z" fill="#212529"/>
</svg>
