<svg width="32" height="32" viewBox="0 0 32 32" fill="none" xmlns="http://www.w3.org/2000/svg">
<path d="M6.09988 9.24001C6.0079 9.23409 5.91803 9.20981 5.83559 9.16858C5.75315 9.12736 5.6798 9.07004 5.61988 9.00001L3.54988 7.00001C3.48422 6.93435 3.43213 6.8564 3.3966 6.77061C3.36106 6.68481 3.34277 6.59287 3.34277 6.50001C3.34277 6.40715 3.36106 6.3152 3.3966 6.22941C3.43213 6.14362 3.48422 6.06567 3.54988 6.00001C3.61554 5.93435 3.69349 5.88226 3.77928 5.84673C3.86507 5.81119 3.95702 5.7929 4.04988 5.7929C4.14274 5.7929 4.23469 5.81119 4.32048 5.84673C4.40627 5.88226 4.48422 5.93435 4.54988 6.00001L6.09988 7.59001L9.75988 3.93001C9.82554 3.86435 9.90349 3.81226 9.98928 3.77673C10.0751 3.74119 10.167 3.7229 10.2599 3.7229C10.3527 3.7229 10.4447 3.74119 10.5305 3.77673C10.6163 3.81226 10.6942 3.86435 10.7599 3.93001C10.8255 3.99567 10.8776 4.07362 10.9132 4.15941C10.9487 4.2452 10.967 4.33715 10.967 4.43001C10.967 4.52287 10.9487 4.61482 10.9132 4.70061C10.8776 4.7864 10.8255 4.86435 10.7599 4.93001L6.57988 9.00001C6.51996 9.07004 6.44661 9.12736 6.36417 9.16858C6.28173 9.20981 6.19186 9.23409 6.09988 9.24001Z" fill="#231E20"/>
<path d="M5.05998 18.75C4.97051 18.7515 4.8817 18.7345 4.79911 18.7001C4.71651 18.6657 4.64191 18.6146 4.57998 18.55C4.5122 18.4855 4.45824 18.408 4.42137 18.322C4.38449 18.2361 4.36548 18.1435 4.36548 18.05C4.36548 17.9565 4.38449 17.8639 4.42137 17.778C4.45824 17.692 4.5122 17.6144 4.57998 17.55L8.72998 13.41C8.79564 13.3443 8.87359 13.2922 8.95938 13.2567C9.04517 13.2212 9.13712 13.2029 9.22998 13.2029C9.32284 13.2029 9.41479 13.2212 9.50058 13.2567C9.58637 13.2922 9.66432 13.3443 9.72998 13.41C9.79564 13.4756 9.84772 13.5536 9.88326 13.6394C9.9188 13.7252 9.93709 13.8171 9.93709 13.91C9.93709 14.0028 9.9188 14.0948 9.88326 14.1806C9.84772 14.2664 9.79564 14.3443 9.72998 14.41L5.54998 18.55C5.48616 18.6148 5.40981 18.666 5.32556 18.7004C5.24132 18.7348 5.15095 18.7517 5.05998 18.75Z" fill="#231E20"/>
<path d="M9.20991 18.75C9.12028 18.7527 9.03109 18.7363 8.94831 18.7018C8.86553 18.6673 8.79107 18.6156 8.72991 18.55L4.57991 14.41C4.51425 14.3443 4.46216 14.2664 4.42663 14.1806C4.39109 14.0948 4.3728 14.0028 4.3728 13.91C4.3728 13.8171 4.39109 13.7252 4.42663 13.6394C4.46216 13.5536 4.51425 13.4756 4.57991 13.41C4.64557 13.3443 4.72352 13.2922 4.80931 13.2567C4.8951 13.2212 4.98705 13.2029 5.07991 13.2029C5.17277 13.2029 5.26472 13.2212 5.35051 13.2567C5.4363 13.2922 5.51425 13.3443 5.57991 13.41L9.71991 17.55C9.79037 17.6128 9.84676 17.6899 9.88536 17.776C9.92397 17.8622 9.94393 17.9556 9.94393 18.05C9.94393 18.1444 9.92397 18.2378 9.88536 18.3239C9.84676 18.4101 9.79037 18.4871 9.71991 18.55C9.65458 18.6184 9.5751 18.6718 9.48701 18.7063C9.39892 18.7409 9.30435 18.7558 9.20991 18.75Z" fill="#231E20"/>
<path d="M6.10011 28.3301C5.92016 28.3286 5.74791 28.2568 5.62011 28.1301L3.54011 26.0501C3.40751 25.9175 3.33301 25.7376 3.33301 25.5501C3.33301 25.3625 3.40751 25.1827 3.54011 25.0501C3.67272 24.9175 3.85258 24.843 4.04011 24.843C4.22765 24.843 4.40751 24.9175 4.54011 25.0501L6.10011 26.6801L9.76011 23.0001C9.82578 22.9344 9.90373 22.8823 9.98952 22.8468C10.0753 22.8113 10.1673 22.793 10.2601 22.793C10.353 22.793 10.4449 22.8113 10.5307 22.8468C10.6165 22.8823 10.6945 22.9344 10.7601 23.0001C10.8258 23.0657 10.8779 23.1437 10.9134 23.2295C10.9489 23.3153 10.9672 23.4072 10.9672 23.5001C10.9672 23.5929 10.9489 23.6849 10.9134 23.7707C10.8779 23.8565 10.8258 23.9344 10.7601 24.0001L6.58011 28.1301C6.45232 28.2568 6.28007 28.3286 6.10011 28.3301Z" fill="#231E20"/>
<path d="M29.64 12.61V20.09H13.27V11.91H14.6L13.5 10.55H13.27V10.26L12.36 9.13C12.1643 8.88437 12.0121 8.60703 11.91 8.31V10.55H2.36V2.36H11.91V6.53C11.9781 6.34481 12.0652 6.16719 12.17 6L13.27 4.23V2.36H14.42L14.9 1.6C15.0367 1.37391 15.2089 1.17132 15.41 1H1V31H31V10.92L29.64 12.61ZM11.91 29.61H2.36V21.45H11.91V29.61ZM11.91 20.06H2.36V11.91H11.91V20.06ZM29.64 29.61H13.27V21.45H29.64V29.61Z" fill="#2A2527"/>
<path d="M31.0001 7.65009V7.57009C31.0101 7.53751 31.0101 7.50267 31.0001 7.47009C31.0049 7.44028 31.0049 7.40989 31.0001 7.38009V7.28009L28.1701 2.80009C28.1175 2.71113 28.0414 2.63845 27.9501 2.59009H27.8901H27.7901H27.6801H17.1801H17.0701H17.0001H16.9301L16.8001 2.69009L16.7001 2.81009L13.9001 7.17009V7.27009C13.8952 7.29989 13.8952 7.33028 13.9001 7.36009C13.8946 7.3932 13.8946 7.42697 13.9001 7.46009C13.9001 7.46009 13.9001 7.46009 13.9001 7.54009V7.64009V7.72009L21.8101 17.5401C21.8457 17.5876 21.8898 17.6283 21.9401 17.6601L22.0601 17.7201H22.1201H22.2901H22.4301H22.4801H22.5401H22.6101H22.6601L22.7201 17.6601L30.8501 8.00009V7.92009L31.0001 7.65009ZM24.5301 6.85009H20.2801L22.4001 4.24009L24.5301 6.85009ZM25.0001 8.21009L22.3701 15.2101L19.8001 8.21009H25.0001ZM25.7501 6.21009L23.8501 3.86009H26.6301L25.7501 6.21009ZM19.0701 6.21009L18.2001 3.84009H21.0001L19.0701 6.21009ZM27.7401 4.70009L29.0901 6.85009H26.9401L27.7401 4.70009ZM17.0501 4.70009L17.8301 6.84009H15.7101L17.0501 4.70009ZM18.3301 8.20009L20.3301 13.7201L15.9001 8.21009L18.3301 8.20009ZM24.3301 13.8901L26.4401 8.20009H28.9001L24.3301 13.8901Z" fill="#212529"/>
</svg>
