<svg width="24" height="24" viewBox="0 0 24 24" fill="none" xmlns="http://www.w3.org/2000/svg">
<path d="M5.07003 7.27011C4.94323 7.26735 4.82202 7.21743 4.73003 7.13011L3.28003 5.67011C3.19268 5.58048 3.1438 5.46027 3.1438 5.33511C3.1438 5.20996 3.19268 5.08975 3.28003 5.00011C3.32508 4.94904 3.38047 4.90813 3.44254 4.88011C3.50461 4.8521 3.57193 4.8376 3.64003 4.8376C3.70813 4.8376 3.77545 4.8521 3.83752 4.88011C3.89959 4.90813 3.95499 4.94904 4.00003 5.00011L5.07003 6.11011L7.63003 3.55011C7.67463 3.50537 7.72762 3.46986 7.78596 3.44563C7.84431 3.42141 7.90686 3.40894 7.97003 3.40894C8.03321 3.40894 8.09576 3.42141 8.15411 3.44563C8.21245 3.46986 8.26544 3.50537 8.31003 3.55011C8.35574 3.59312 8.39216 3.64503 8.41706 3.70264C8.44195 3.76026 8.4548 3.82235 8.4548 3.88511C8.4548 3.94787 8.44195 4.00997 8.41706 4.06758C8.39216 4.1252 8.35574 4.1771 8.31003 4.22011L5.41003 7.13011C5.31805 7.21743 5.19683 7.26735 5.07003 7.27011Z" fill="#231E20"/>
<path d="M6.47007 12L7.58007 10.89C7.62481 10.8454 7.66032 10.7924 7.68455 10.734C7.70877 10.6757 7.72124 10.6131 7.72124 10.55C7.72124 10.4868 7.70877 10.4242 7.68455 10.3659C7.66032 10.3075 7.62481 10.2546 7.58007 10.21C7.49043 10.1226 7.37022 10.0737 7.24507 10.0737C7.11991 10.0737 6.9997 10.1226 6.91007 10.21L5.80007 11.32L4.68007 10.21C4.59043 10.1226 4.47022 10.0737 4.34507 10.0737C4.21991 10.0737 4.0997 10.1226 4.01007 10.21C3.96532 10.2546 3.92981 10.3075 3.90558 10.3659C3.88136 10.4242 3.86889 10.4868 3.86889 10.55C3.86889 10.6131 3.88136 10.6757 3.90558 10.734C3.92981 10.7924 3.96532 10.8454 4.01007 10.89L5.12007 12L4.00007 13.11C3.95532 13.1546 3.91981 13.2075 3.89558 13.2659C3.87136 13.3242 3.85889 13.3868 3.85889 13.45C3.85889 13.5131 3.87136 13.5757 3.89558 13.634C3.91981 13.6924 3.95532 13.7454 4.00007 13.79C4.08725 13.8784 4.20589 13.9287 4.33007 13.93C4.39316 13.9301 4.45566 13.9178 4.514 13.8938C4.57234 13.8698 4.62537 13.8345 4.67007 13.79L5.80007 12.68L6.91007 13.79C6.95476 13.8345 7.00779 13.8698 7.06613 13.8938C7.12447 13.9178 7.18697 13.9301 7.25007 13.93C7.37424 13.9287 7.49288 13.8784 7.58007 13.79C7.62481 13.7454 7.66032 13.6924 7.68455 13.634C7.70877 13.5757 7.72124 13.5131 7.72124 13.45C7.72124 13.3868 7.70877 13.3242 7.68455 13.2659C7.66032 13.2075 7.62481 13.1546 7.58007 13.11L6.47007 12Z" fill="#231E20"/>
<path d="M5.07011 20.63C4.94331 20.6272 4.82209 20.5773 4.73011 20.49L3.28011 19C3.19524 18.9045 3.15178 18.7792 3.15928 18.6517C3.16678 18.5242 3.22463 18.4049 3.32011 18.32C3.41559 18.2351 3.54087 18.1917 3.6684 18.1992C3.79592 18.2067 3.91524 18.2645 4.00011 18.36L5.11011 19.48L7.67011 16.91C7.76257 16.8243 7.88401 16.7766 8.01011 16.7766C8.13621 16.7766 8.25765 16.8243 8.35011 16.91C8.39486 16.9546 8.43037 17.0076 8.45459 17.0659C8.47882 17.1243 8.49129 17.1868 8.49129 17.25C8.49129 17.3132 8.47882 17.3757 8.45459 17.4341C8.43037 17.4924 8.39486 17.5454 8.35011 17.59L5.45011 20.49C5.39969 20.5381 5.33996 20.5753 5.2746 20.5993C5.20925 20.6234 5.13965 20.6339 5.07011 20.63Z" fill="#231E20"/>
<path d="M21.55 9.63V14.86H10.09V9.14H11L10.23 8.14H10.07V8L9.43 7.21C9.29633 7.03814 9.19162 6.84561 9.12 6.64V8.18H2.45V2.45H9.14V5.37C9.18117 5.23836 9.24185 5.11365 9.32 5L10.09 3.76V2.45H10.89L11.23 1.92C11.3279 1.76247 11.4493 1.62084 11.59 1.5H1.5V22.5H22.5V8.44L21.55 9.63ZM9.14 21.55H2.45V15.82H9.14V21.55ZM9.14 14.86H2.45V9.14H9.14V14.86ZM21.55 21.55H10.09V15.82H21.55V21.55Z" fill="#2A2527"/>
<path d="M22.9943 6.01322V5.94977C23.0019 5.92393 23.0019 5.8963 22.9943 5.87046C22.998 5.84682 22.998 5.82271 22.9943 5.79907V5.71976L20.8443 2.16656C20.8044 2.096 20.7465 2.03836 20.6771 2H20.6316H20.5556H20.472H12.495H12.4114H12.3582H12.305L12.2063 2.07931L12.1303 2.17449L10.0031 5.63252V5.71183C9.9994 5.73547 9.9994 5.75957 10.0031 5.78321C9.99897 5.80948 9.99897 5.83626 10.0031 5.86252C10.0031 5.86252 10.0031 5.86252 10.0031 5.92597V6.00529V6.06874L16.0125 13.8572C16.0396 13.895 16.073 13.9272 16.1112 13.9524L16.2024 14H16.248H16.3771H16.4835H16.5215H16.5671H16.6202H16.6582L16.7038 13.9524L22.8803 6.29081V6.22736L22.9943 6.01322ZM18.0789 5.37872H14.8501L16.4607 3.30866L18.0789 5.37872ZM18.436 6.45737L16.4379 12.0093L14.4854 6.45737H18.436ZM19.0058 4.87112L17.5623 3.00727H19.6743L19.0058 4.87112ZM13.9308 4.87112L13.2699 2.99141H15.3971L13.9308 4.87112ZM20.5176 3.6735L21.5432 5.37872H19.9098L20.5176 3.6735ZM12.3962 3.6735L12.9888 5.37079H11.3782L12.3962 3.6735ZM13.3686 6.44944L14.8881 10.8275L11.5225 6.45737L13.3686 6.44944ZM17.927 10.9623L19.53 6.44944H21.3989L17.927 10.9623Z" fill="#212529"/>
</svg>
