<svg width="100" height="100" viewBox="0 0 100 100" fill="none" xmlns="http://www.w3.org/2000/svg">
<path d="M32.17 24.6599C30.9335 25.9144 29.46 26.9105 27.8351 27.5904C26.2102 28.2704 24.4664 28.6205 22.705 28.6205C20.9436 28.6205 19.1998 28.2704 17.5749 27.5904C15.95 26.9105 14.4765 25.9144 13.24 24.6599C8.31 28.2299 4.47 36.5699 3 43.8599H42.4C40.93 36.5699 37.09 28.2299 32.17 24.6599Z" fill="#212529"/>
<path d="M23.0055 26.46C29.1666 26.289 34.0226 21.1558 33.8515 14.9946C33.6805 8.83351 28.5473 3.97757 22.3862 4.14859C16.225 4.31961 11.3691 9.45283 11.5401 15.614C11.7111 21.7751 16.8444 26.631 23.0055 26.46Z" fill="#212529"/>
<path d="M49.2899 91.1199C49.1421 90.5647 48.7801 90.0908 48.2833 89.8021C47.7865 89.5134 47.1955 89.4335 46.6399 89.5799L46.2799 89.6799C42.0607 90.7151 37.6206 90.3688 33.613 88.6918C29.6054 87.0148 26.2418 84.0958 24.0172 80.3642C21.7926 76.6327 20.8244 72.2856 21.2552 67.9627C21.6859 63.6397 23.4928 59.5692 26.4099 56.3499L27.8199 62.1199C27.9375 62.5889 28.2075 63.0055 28.5877 63.3042C28.9678 63.6029 29.4365 63.7667 29.9199 63.7699C30.0957 63.7713 30.2708 63.7477 30.4399 63.6999C30.9937 63.5585 31.4688 63.2033 31.7612 62.7122C32.0536 62.2211 32.1394 61.6342 31.9999 61.08L29.5099 50.8299C29.3727 50.2721 29.0197 49.7914 28.5286 49.4934C28.0375 49.1953 27.4482 49.1042 26.8899 49.2399L16.6399 51.7599C16.1536 51.9102 15.7355 52.2266 15.4588 52.6539C15.1822 53.0812 15.0645 53.5922 15.1265 54.0974C15.1885 54.6027 15.4261 55.0701 15.7978 55.4179C16.1695 55.7657 16.6517 55.9717 17.1599 55.9999C17.3317 55.9997 17.5028 55.9796 17.6699 55.9399L21.9499 54.9399C18.8054 58.9792 16.9986 63.8985 16.7813 69.0129C16.5639 74.1273 17.9468 79.1822 20.7374 83.4736C23.528 87.7651 27.5873 91.0796 32.3502 92.9556C37.113 94.8316 42.3423 95.1757 47.3099 93.9399L47.7599 93.8299C48.0413 93.7574 48.3051 93.6288 48.5356 93.4519C48.766 93.275 48.9585 93.0534 49.1013 92.8004C49.2441 92.5473 49.3345 92.2681 49.3669 91.9794C49.3993 91.6906 49.3731 91.3983 49.2899 91.1199Z" fill="#212529"/>
<path d="M92.5399 36.4799C92.149 36.0573 91.6068 35.8064 91.0317 35.7821C90.4565 35.7577 89.8951 35.9618 89.4699 36.3499L86.3899 39.1699C86.5423 34.5418 85.3864 29.9645 83.055 25.9636C80.7235 21.9627 77.3109 18.7005 73.2092 16.5514C69.1074 14.4024 64.4827 13.4537 59.8661 13.8143C55.2496 14.1748 50.8283 15.8301 47.1099 18.5899L46.6499 18.9399C46.2333 19.3047 45.972 19.8149 45.9193 20.366C45.8666 20.9172 46.0266 21.4677 46.3665 21.9047C46.7065 22.3418 47.2006 22.6324 47.7478 22.717C48.295 22.8016 48.8538 22.6739 49.3099 22.3599L49.6899 22.0699C52.8574 19.7181 56.6421 18.3413 60.5803 18.108C64.5185 17.8748 68.4392 18.7953 71.8621 20.7567C75.2851 22.7181 78.0616 25.6353 79.8516 29.151C81.6416 32.6666 82.3674 36.628 81.9399 40.5499L77.6199 35.8299C77.2217 35.4478 76.6929 35.2317 76.1411 35.2256C75.5892 35.2196 75.0558 35.424 74.6494 35.7973C74.2429 36.1706 73.994 36.6848 73.9532 37.2352C73.9124 37.7855 74.0829 38.3308 74.4299 38.7599L81.5599 46.5399C81.7628 46.762 82.01 46.9391 82.2856 47.0597C82.5612 47.1803 82.8591 47.2417 83.1599 47.2399C83.7006 47.2384 84.2212 47.0352 84.6199 46.6699L92.3999 39.5399C92.8209 39.1507 93.0717 38.6114 93.0979 38.0386C93.1241 37.4659 92.9236 36.9059 92.5399 36.4799Z" fill="#212529"/>
<path d="M87.17 76.8C85.9335 78.0545 84.46 79.0506 82.8351 79.7306C81.2102 80.4105 79.4664 80.7606 77.705 80.7606C75.9436 80.7606 74.1998 80.4105 72.5749 79.7306C70.95 79.0506 69.4765 78.0545 68.24 76.8C63.31 80.37 59.47 88.71 58 96H97.4C95.93 88.71 92.09 80.37 87.17 76.8Z" fill="#212529"/>
<path d="M78.0111 78.5938C84.1722 78.4228 89.0282 73.2896 88.8571 67.1284C88.6861 60.9673 83.5529 56.1114 77.3918 56.2824C71.2307 56.4534 66.3747 61.5866 66.5457 67.7477C66.7168 73.9089 71.85 78.7648 78.0111 78.5938Z" fill="#212529"/>
</svg>
