<svg width="100" height="100" viewBox="0 0 100 100" fill="none" xmlns="http://www.w3.org/2000/svg">
<mask id="mask0_30_1850" style="mask-type:alpha" maskUnits="userSpaceOnUse" x="1" y="5" width="98" height="63">
<path d="M42.169 67.63H41.999C41.6174 67.6091 41.2498 67.4793 40.9396 67.256C40.6295 67.0327 40.3898 66.7252 40.249 66.37L31.179 43.57L24.079 59.2C23.9199 59.554 23.6612 59.854 23.3345 60.0636C23.0078 60.2731 22.6271 60.383 22.239 60.38H12.599C12.2927 60.3859 11.9891 60.3213 11.7117 60.1912C11.4343 60.0612 11.1904 59.8692 10.999 59.63C6.91089 54.5931 3.99997 48.7063 2.47901 42.4C1.57509 39.0633 1.29373 35.5886 1.64901 32.15C3.06901 16.53 14.129 5.20996 27.999 5.20996C32.1206 5.21757 36.1764 6.24408 39.8054 8.19814C43.4343 10.1522 46.5239 12.9732 48.799 16.41C48.9106 16.5739 49.0594 16.7091 49.2332 16.8047C49.4069 16.9002 49.6008 16.9534 49.799 16.96C49.9982 16.9643 50.1951 16.9168 50.3704 16.8221C50.5457 16.7275 50.6934 16.5889 50.799 16.42C53.1852 12.9988 56.3538 10.1968 60.0411 8.24701C63.7285 6.29723 67.8281 5.25601 71.999 5.20996C85.849 5.20996 96.909 16.54 98.329 32.16C98.6842 35.5953 98.4028 39.0667 97.499 42.4C95.984 48.7046 93.08 54.5912 88.999 59.63C88.8118 59.8638 88.5744 60.0527 88.3043 60.1825C88.0343 60.3123 87.7386 60.3798 87.439 60.38H69.329C68.8467 60.3854 68.3786 60.2164 68.0111 59.904C67.6436 59.5916 67.4013 59.1569 67.329 58.68L63.619 35.09L58.619 58.85C58.5448 59.2543 58.3478 59.626 58.0548 59.9144C57.7618 60.2027 57.387 60.3938 56.9815 60.4616C56.576 60.5293 56.1595 60.4705 55.7887 60.2931C55.4178 60.1156 55.1107 59.8282 54.909 59.47L51.269 53.35L43.929 66.59C43.7563 66.9056 43.5017 67.1688 43.1919 67.3518C42.8822 67.5349 42.5288 67.6309 42.169 67.63Z" fill="#2A2527"/>
</mask>
<g mask="url(#mask0_30_1850)">
<path d="M96.4998 21.2499C97.4332 21.2499 98.1898 20.4932 98.1898 19.5599C98.1898 18.6265 97.4332 17.8699 96.4998 17.8699C95.5665 17.8699 94.8098 18.6265 94.8098 19.5599C94.8098 20.4932 95.5665 21.2499 96.4998 21.2499Z" fill="#212529"/>
<path d="M96.4998 12.7999C97.4332 12.7999 98.1898 12.0433 98.1898 11.1099C98.1898 10.1766 97.4332 9.41992 96.4998 9.41992C95.5665 9.41992 94.8098 10.1766 94.8098 11.1099C94.8098 12.0433 95.5665 12.7999 96.4998 12.7999Z" fill="#212529"/>
<path d="M96.4998 37.3199C97.4332 37.3199 98.1898 36.5633 98.1898 35.6299C98.1898 34.6966 97.4332 33.9399 96.4998 33.9399C95.5665 33.9399 94.8098 34.6966 94.8098 35.6299C94.8098 36.5633 95.5665 37.3199 96.4998 37.3199Z" fill="#212529"/>
<path d="M96.4998 28.86C97.4332 28.86 98.1898 28.1033 98.1898 27.17C98.1898 26.2366 97.4332 25.48 96.4998 25.48C95.5665 25.48 94.8098 26.2366 94.8098 27.17C94.8098 28.1033 95.5665 28.86 96.4998 28.86Z" fill="#212529"/>
<path d="M96.4998 53.3798C97.4332 53.3798 98.1898 52.6231 98.1898 51.6898C98.1898 50.7564 97.4332 49.9998 96.4998 49.9998C95.5665 49.9998 94.8098 50.7564 94.8098 51.6898C94.8098 52.6231 95.5665 53.3798 96.4998 53.3798Z" fill="#212529"/>
<path d="M96.4998 44.9298C97.4332 44.9298 98.1898 44.1732 98.1898 43.2398C98.1898 42.3064 97.4332 41.5498 96.4998 41.5498C95.5665 41.5498 94.8098 42.3064 94.8098 43.2398C94.8098 44.1732 95.5665 44.9298 96.4998 44.9298Z" fill="#212529"/>
<path d="M96.4998 69.4398C97.4332 69.4398 98.1898 68.6832 98.1898 67.7498C98.1898 66.8165 97.4332 66.0598 96.4998 66.0598C95.5665 66.0598 94.8098 66.8165 94.8098 67.7498C94.8098 68.6832 95.5665 69.4398 96.4998 69.4398Z" fill="#212529"/>
<path d="M96.4998 60.9899C97.4332 60.9899 98.1898 60.2332 98.1898 59.2999C98.1898 58.3665 97.4332 57.6099 96.4998 57.6099C95.5665 57.6099 94.8098 58.3665 94.8098 59.2999C94.8098 60.2332 95.5665 60.9899 96.4998 60.9899Z" fill="#212529"/>
<path d="M88.89 21.2499C89.8233 21.2499 90.58 20.4932 90.58 19.5599C90.58 18.6265 89.8233 17.8699 88.89 17.8699C87.9566 17.8699 87.2 18.6265 87.2 19.5599C87.2 20.4932 87.9566 21.2499 88.89 21.2499Z" fill="#212529"/>
<path d="M80.44 21.2499C81.3734 21.2499 82.13 20.4932 82.13 19.5599C82.13 18.6265 81.3734 17.8699 80.44 17.8699C79.5066 17.8699 78.75 18.6265 78.75 19.5599C78.75 20.4932 79.5066 21.2499 80.44 21.2499Z" fill="#212529"/>
<path d="M84.66 17.0299C85.5933 17.0299 86.35 16.2733 86.35 15.3399C86.35 14.4065 85.5933 13.6499 84.66 13.6499C83.7266 13.6499 82.97 14.4065 82.97 15.3399C82.97 16.2733 83.7266 17.0299 84.66 17.0299Z" fill="#212529"/>
<path d="M84.66 8.56994C85.5933 8.56994 86.35 7.8133 86.35 6.87994C86.35 5.94658 85.5933 5.18994 84.66 5.18994C83.7266 5.18994 82.97 5.94658 82.97 6.87994C82.97 7.8133 83.7266 8.56994 84.66 8.56994Z" fill="#212529"/>
<path d="M93.1199 17.0299C94.0533 17.0299 94.8099 16.2733 94.8099 15.3399C94.8099 14.4065 94.0533 13.6499 93.1199 13.6499C92.1866 13.6499 91.4299 14.4065 91.4299 15.3399C91.4299 16.2733 92.1866 17.0299 93.1199 17.0299Z" fill="#212529"/>
<path d="M88.89 12.7999C89.8233 12.7999 90.58 12.0433 90.58 11.1099C90.58 10.1766 89.8233 9.41992 88.89 9.41992C87.9566 9.41992 87.2 10.1766 87.2 11.1099C87.2 12.0433 87.9566 12.7999 88.89 12.7999Z" fill="#212529"/>
<path d="M80.44 12.7999C81.3734 12.7999 82.13 12.0433 82.13 11.1099C82.13 10.1766 81.3734 9.41992 80.44 9.41992C79.5066 9.41992 78.75 10.1766 78.75 11.1099C78.75 12.0433 79.5066 12.7999 80.44 12.7999Z" fill="#212529"/>
<path d="M93.1199 8.56994C94.0533 8.56994 94.8099 7.8133 94.8099 6.87994C94.8099 5.94658 94.0533 5.18994 93.1199 5.18994C92.1866 5.18994 91.4299 5.94658 91.4299 6.87994C91.4299 7.8133 92.1866 8.56994 93.1199 8.56994Z" fill="#212529"/>
<path d="M88.89 37.3199C89.8233 37.3199 90.58 36.5633 90.58 35.6299C90.58 34.6966 89.8233 33.9399 88.89 33.9399C87.9566 33.9399 87.2 34.6966 87.2 35.6299C87.2 36.5633 87.9566 37.3199 88.89 37.3199Z" fill="#212529"/>
<path d="M80.44 37.3199C81.3734 37.3199 82.13 36.5633 82.13 35.6299C82.13 34.6966 81.3734 33.9399 80.44 33.9399C79.5066 33.9399 78.75 34.6966 78.75 35.6299C78.75 36.5633 79.5066 37.3199 80.44 37.3199Z" fill="#212529"/>
<path d="M84.66 33.09C85.5933 33.09 86.35 32.3333 86.35 31.4C86.35 30.4666 85.5933 29.71 84.66 29.71C83.7266 29.71 82.97 30.4666 82.97 31.4C82.97 32.3333 83.7266 33.09 84.66 33.09Z" fill="#212529"/>
<path d="M84.66 24.64C85.5933 24.64 86.35 23.8834 86.35 22.95C86.35 22.0166 85.5933 21.26 84.66 21.26C83.7266 21.26 82.97 22.0166 82.97 22.95C82.97 23.8834 83.7266 24.64 84.66 24.64Z" fill="#212529"/>
<path d="M93.1199 33.09C94.0533 33.09 94.8099 32.3333 94.8099 31.4C94.8099 30.4666 94.0533 29.71 93.1199 29.71C92.1866 29.71 91.4299 30.4666 91.4299 31.4C91.4299 32.3333 92.1866 33.09 93.1199 33.09Z" fill="#212529"/>
<path d="M88.89 28.86C89.8233 28.86 90.58 28.1033 90.58 27.17C90.58 26.2366 89.8233 25.48 88.89 25.48C87.9566 25.48 87.2 26.2366 87.2 27.17C87.2 28.1033 87.9566 28.86 88.89 28.86Z" fill="#212529"/>
<path d="M80.44 28.86C81.3734 28.86 82.13 28.1033 82.13 27.17C82.13 26.2366 81.3734 25.48 80.44 25.48C79.5066 25.48 78.75 26.2366 78.75 27.17C78.75 28.1033 79.5066 28.86 80.44 28.86Z" fill="#212529"/>
<path d="M93.1199 24.64C94.0533 24.64 94.8099 23.8834 94.8099 22.95C94.8099 22.0166 94.0533 21.26 93.1199 21.26C92.1866 21.26 91.4299 22.0166 91.4299 22.95C91.4299 23.8834 92.1866 24.64 93.1199 24.64Z" fill="#212529"/>
<path d="M88.89 53.3798C89.8233 53.3798 90.58 52.6231 90.58 51.6898C90.58 50.7564 89.8233 49.9998 88.89 49.9998C87.9566 49.9998 87.2 50.7564 87.2 51.6898C87.2 52.6231 87.9566 53.3798 88.89 53.3798Z" fill="#212529"/>
<path d="M80.44 53.3798C81.3734 53.3798 82.13 52.6231 82.13 51.6898C82.13 50.7564 81.3734 49.9998 80.44 49.9998C79.5066 49.9998 78.75 50.7564 78.75 51.6898C78.75 52.6231 79.5066 53.3798 80.44 53.3798Z" fill="#212529"/>
<path d="M84.66 49.1498C85.5933 49.1498 86.35 48.3931 86.35 47.4598C86.35 46.5264 85.5933 45.7698 84.66 45.7698C83.7266 45.7698 82.97 46.5264 82.97 47.4598C82.97 48.3931 83.7266 49.1498 84.66 49.1498Z" fill="#212529"/>
<path d="M84.66 40.6998C85.5933 40.6998 86.35 39.9432 86.35 39.0098C86.35 38.0765 85.5933 37.3198 84.66 37.3198C83.7266 37.3198 82.97 38.0765 82.97 39.0098C82.97 39.9432 83.7266 40.6998 84.66 40.6998Z" fill="#212529"/>
<path d="M93.1199 49.1498C94.0533 49.1498 94.8099 48.3931 94.8099 47.4598C94.8099 46.5264 94.0533 45.7698 93.1199 45.7698C92.1866 45.7698 91.4299 46.5264 91.4299 47.4598C91.4299 48.3931 92.1866 49.1498 93.1199 49.1498Z" fill="#212529"/>
<path d="M88.89 44.9298C89.8233 44.9298 90.58 44.1732 90.58 43.2398C90.58 42.3064 89.8233 41.5498 88.89 41.5498C87.9566 41.5498 87.2 42.3064 87.2 43.2398C87.2 44.1732 87.9566 44.9298 88.89 44.9298Z" fill="#212529"/>
<path d="M80.44 44.9298C81.3734 44.9298 82.13 44.1732 82.13 43.2398C82.13 42.3064 81.3734 41.5498 80.44 41.5498C79.5066 41.5498 78.75 42.3064 78.75 43.2398C78.75 44.1732 79.5066 44.9298 80.44 44.9298Z" fill="#212529"/>
<path d="M93.1199 40.6998C94.0533 40.6998 94.8099 39.9432 94.8099 39.0098C94.8099 38.0765 94.0533 37.3198 93.1199 37.3198C92.1866 37.3198 91.4299 38.0765 91.4299 39.0098C91.4299 39.9432 92.1866 40.6998 93.1199 40.6998Z" fill="#212529"/>
<path d="M88.89 69.4398C89.8233 69.4398 90.58 68.6832 90.58 67.7498C90.58 66.8165 89.8233 66.0598 88.89 66.0598C87.9566 66.0598 87.2 66.8165 87.2 67.7498C87.2 68.6832 87.9566 69.4398 88.89 69.4398Z" fill="#212529"/>
<path d="M80.44 69.4398C81.3734 69.4398 82.13 68.6832 82.13 67.7498C82.13 66.8165 81.3734 66.0598 80.44 66.0598C79.5066 66.0598 78.75 66.8165 78.75 67.7498C78.75 68.6832 79.5066 69.4398 80.44 69.4398Z" fill="#212529"/>
<path d="M84.66 65.2198C85.5933 65.2198 86.35 64.4632 86.35 63.5298C86.35 62.5965 85.5933 61.8398 84.66 61.8398C83.7266 61.8398 82.97 62.5965 82.97 63.5298C82.97 64.4632 83.7266 65.2198 84.66 65.2198Z" fill="#212529"/>
<path d="M84.66 56.7599C85.5933 56.7599 86.35 56.0032 86.35 55.0699C86.35 54.1365 85.5933 53.3799 84.66 53.3799C83.7266 53.3799 82.97 54.1365 82.97 55.0699C82.97 56.0032 83.7266 56.7599 84.66 56.7599Z" fill="#212529"/>
<path d="M93.1199 65.2198C94.0533 65.2198 94.8099 64.4632 94.8099 63.5298C94.8099 62.5965 94.0533 61.8398 93.1199 61.8398C92.1866 61.8398 91.4299 62.5965 91.4299 63.5298C91.4299 64.4632 92.1866 65.2198 93.1199 65.2198Z" fill="#212529"/>
<path d="M88.89 60.9899C89.8233 60.9899 90.58 60.2332 90.58 59.2999C90.58 58.3665 89.8233 57.6099 88.89 57.6099C87.9566 57.6099 87.2 58.3665 87.2 59.2999C87.2 60.2332 87.9566 60.9899 88.89 60.9899Z" fill="#212529"/>
<path d="M80.44 60.9899C81.3734 60.9899 82.13 60.2332 82.13 59.2999C82.13 58.3665 81.3734 57.6099 80.44 57.6099C79.5066 57.6099 78.75 58.3665 78.75 59.2999C78.75 60.2332 79.5066 60.9899 80.44 60.9899Z" fill="#212529"/>
<path d="M93.1199 56.7599C94.0533 56.7599 94.8099 56.0032 94.8099 55.0699C94.8099 54.1365 94.0533 53.3799 93.1199 53.3799C92.1866 53.3799 91.4299 54.1365 91.4299 55.0699C91.4299 56.0032 92.1866 56.7599 93.1199 56.7599Z" fill="#212529"/>
<path d="M72.8299 21.2499C73.7633 21.2499 74.5199 20.4932 74.5199 19.5599C74.5199 18.6265 73.7633 17.8699 72.8299 17.8699C71.8965 17.8699 71.1399 18.6265 71.1399 19.5599C71.1399 20.4932 71.8965 21.2499 72.8299 21.2499Z" fill="#212529"/>
<path d="M64.3699 21.2499C65.3033 21.2499 66.0599 20.4932 66.0599 19.5599C66.0599 18.6265 65.3033 17.8699 64.3699 17.8699C63.4366 17.8699 62.6799 18.6265 62.6799 19.5599C62.6799 20.4932 63.4366 21.2499 64.3699 21.2499Z" fill="#212529"/>
<path d="M68.5999 17.0299C69.5333 17.0299 70.2899 16.2733 70.2899 15.3399C70.2899 14.4065 69.5333 13.6499 68.5999 13.6499C67.6665 13.6499 66.9099 14.4065 66.9099 15.3399C66.9099 16.2733 67.6665 17.0299 68.5999 17.0299Z" fill="#212529"/>
<path d="M68.5999 8.56994C69.5333 8.56994 70.2899 7.8133 70.2899 6.87994C70.2899 5.94658 69.5333 5.18994 68.5999 5.18994C67.6665 5.18994 66.9099 5.94658 66.9099 6.87994C66.9099 7.8133 67.6665 8.56994 68.5999 8.56994Z" fill="#212529"/>
<path d="M77.0499 17.0299C77.9832 17.0299 78.7399 16.2733 78.7399 15.3399C78.7399 14.4065 77.9832 13.6499 77.0499 13.6499C76.1165 13.6499 75.3599 14.4065 75.3599 15.3399C75.3599 16.2733 76.1165 17.0299 77.0499 17.0299Z" fill="#212529"/>
<path d="M72.8299 12.7999C73.7633 12.7999 74.5199 12.0433 74.5199 11.1099C74.5199 10.1766 73.7633 9.41992 72.8299 9.41992C71.8965 9.41992 71.1399 10.1766 71.1399 11.1099C71.1399 12.0433 71.8965 12.7999 72.8299 12.7999Z" fill="#212529"/>
<path d="M64.3699 12.7999C65.3033 12.7999 66.0599 12.0433 66.0599 11.1099C66.0599 10.1766 65.3033 9.41992 64.3699 9.41992C63.4366 9.41992 62.6799 10.1766 62.6799 11.1099C62.6799 12.0433 63.4366 12.7999 64.3699 12.7999Z" fill="#212529"/>
<path d="M77.0499 8.56994C77.9832 8.56994 78.7399 7.8133 78.7399 6.87994C78.7399 5.94658 77.9832 5.18994 77.0499 5.18994C76.1165 5.18994 75.3599 5.94658 75.3599 6.87994C75.3599 7.8133 76.1165 8.56994 77.0499 8.56994Z" fill="#212529"/>
<path d="M72.8299 37.3199C73.7633 37.3199 74.5199 36.5633 74.5199 35.6299C74.5199 34.6966 73.7633 33.9399 72.8299 33.9399C71.8965 33.9399 71.1399 34.6966 71.1399 35.6299C71.1399 36.5633 71.8965 37.3199 72.8299 37.3199Z" fill="#212529"/>
<path d="M64.3699 37.3199C65.3033 37.3199 66.0599 36.5633 66.0599 35.6299C66.0599 34.6966 65.3033 33.9399 64.3699 33.9399C63.4366 33.9399 62.6799 34.6966 62.6799 35.6299C62.6799 36.5633 63.4366 37.3199 64.3699 37.3199Z" fill="#212529"/>
<path d="M68.5999 33.09C69.5333 33.09 70.2899 32.3333 70.2899 31.4C70.2899 30.4666 69.5333 29.71 68.5999 29.71C67.6665 29.71 66.9099 30.4666 66.9099 31.4C66.9099 32.3333 67.6665 33.09 68.5999 33.09Z" fill="#212529"/>
<path d="M68.5999 24.64C69.5333 24.64 70.2899 23.8834 70.2899 22.95C70.2899 22.0166 69.5333 21.26 68.5999 21.26C67.6665 21.26 66.9099 22.0166 66.9099 22.95C66.9099 23.8834 67.6665 24.64 68.5999 24.64Z" fill="#212529"/>
<path d="M77.0499 33.09C77.9832 33.09 78.7399 32.3333 78.7399 31.4C78.7399 30.4666 77.9832 29.71 77.0499 29.71C76.1165 29.71 75.3599 30.4666 75.3599 31.4C75.3599 32.3333 76.1165 33.09 77.0499 33.09Z" fill="#212529"/>
<path d="M72.8299 28.86C73.7633 28.86 74.5199 28.1033 74.5199 27.17C74.5199 26.2366 73.7633 25.48 72.8299 25.48C71.8965 25.48 71.1399 26.2366 71.1399 27.17C71.1399 28.1033 71.8965 28.86 72.8299 28.86Z" fill="#212529"/>
<path d="M64.3699 28.86C65.3033 28.86 66.0599 28.1033 66.0599 27.17C66.0599 26.2366 65.3033 25.48 64.3699 25.48C63.4366 25.48 62.6799 26.2366 62.6799 27.17C62.6799 28.1033 63.4366 28.86 64.3699 28.86Z" fill="#212529"/>
<path d="M77.0499 24.64C77.9832 24.64 78.7399 23.8834 78.7399 22.95C78.7399 22.0166 77.9832 21.26 77.0499 21.26C76.1165 21.26 75.3599 22.0166 75.3599 22.95C75.3599 23.8834 76.1165 24.64 77.0499 24.64Z" fill="#212529"/>
<path d="M72.8299 53.3798C73.7633 53.3798 74.5199 52.6231 74.5199 51.6898C74.5199 50.7564 73.7633 49.9998 72.8299 49.9998C71.8965 49.9998 71.1399 50.7564 71.1399 51.6898C71.1399 52.6231 71.8965 53.3798 72.8299 53.3798Z" fill="#212529"/>
<path d="M64.3699 53.3798C65.3033 53.3798 66.0599 52.6231 66.0599 51.6898C66.0599 50.7564 65.3033 49.9998 64.3699 49.9998C63.4366 49.9998 62.6799 50.7564 62.6799 51.6898C62.6799 52.6231 63.4366 53.3798 64.3699 53.3798Z" fill="#212529"/>
<path d="M68.5999 49.1498C69.5333 49.1498 70.2899 48.3931 70.2899 47.4598C70.2899 46.5264 69.5333 45.7698 68.5999 45.7698C67.6665 45.7698 66.9099 46.5264 66.9099 47.4598C66.9099 48.3931 67.6665 49.1498 68.5999 49.1498Z" fill="#212529"/>
<path d="M68.5999 40.6998C69.5333 40.6998 70.2899 39.9432 70.2899 39.0098C70.2899 38.0765 69.5333 37.3198 68.5999 37.3198C67.6665 37.3198 66.9099 38.0765 66.9099 39.0098C66.9099 39.9432 67.6665 40.6998 68.5999 40.6998Z" fill="#212529"/>
<path d="M77.0499 49.1498C77.9832 49.1498 78.7399 48.3931 78.7399 47.4598C78.7399 46.5264 77.9832 45.7698 77.0499 45.7698C76.1165 45.7698 75.3599 46.5264 75.3599 47.4598C75.3599 48.3931 76.1165 49.1498 77.0499 49.1498Z" fill="#212529"/>
<path d="M72.8299 44.9298C73.7633 44.9298 74.5199 44.1732 74.5199 43.2398C74.5199 42.3064 73.7633 41.5498 72.8299 41.5498C71.8965 41.5498 71.1399 42.3064 71.1399 43.2398C71.1399 44.1732 71.8965 44.9298 72.8299 44.9298Z" fill="#212529"/>
<path d="M64.3699 44.9298C65.3033 44.9298 66.0599 44.1732 66.0599 43.2398C66.0599 42.3064 65.3033 41.5498 64.3699 41.5498C63.4366 41.5498 62.6799 42.3064 62.6799 43.2398C62.6799 44.1732 63.4366 44.9298 64.3699 44.9298Z" fill="#212529"/>
<path d="M77.0499 40.6998C77.9832 40.6998 78.7399 39.9432 78.7399 39.0098C78.7399 38.0765 77.9832 37.3198 77.0499 37.3198C76.1165 37.3198 75.3599 38.0765 75.3599 39.0098C75.3599 39.9432 76.1165 40.6998 77.0499 40.6998Z" fill="#212529"/>
<path d="M72.8299 69.4398C73.7633 69.4398 74.5199 68.6832 74.5199 67.7498C74.5199 66.8165 73.7633 66.0598 72.8299 66.0598C71.8965 66.0598 71.1399 66.8165 71.1399 67.7498C71.1399 68.6832 71.8965 69.4398 72.8299 69.4398Z" fill="#212529"/>
<path d="M64.3699 69.4398C65.3033 69.4398 66.0599 68.6832 66.0599 67.7498C66.0599 66.8165 65.3033 66.0598 64.3699 66.0598C63.4366 66.0598 62.6799 66.8165 62.6799 67.7498C62.6799 68.6832 63.4366 69.4398 64.3699 69.4398Z" fill="#212529"/>
<path d="M68.5999 65.2198C69.5333 65.2198 70.2899 64.4632 70.2899 63.5298C70.2899 62.5965 69.5333 61.8398 68.5999 61.8398C67.6665 61.8398 66.9099 62.5965 66.9099 63.5298C66.9099 64.4632 67.6665 65.2198 68.5999 65.2198Z" fill="#212529"/>
<path d="M68.5999 56.7599C69.5333 56.7599 70.2899 56.0032 70.2899 55.0699C70.2899 54.1365 69.5333 53.3799 68.5999 53.3799C67.6665 53.3799 66.9099 54.1365 66.9099 55.0699C66.9099 56.0032 67.6665 56.7599 68.5999 56.7599Z" fill="#212529"/>
<path d="M77.0499 65.2198C77.9832 65.2198 78.7399 64.4632 78.7399 63.5298C78.7399 62.5965 77.9832 61.8398 77.0499 61.8398C76.1165 61.8398 75.3599 62.5965 75.3599 63.5298C75.3599 64.4632 76.1165 65.2198 77.0499 65.2198Z" fill="#212529"/>
<path d="M72.8299 60.9899C73.7633 60.9899 74.5199 60.2332 74.5199 59.2999C74.5199 58.3665 73.7633 57.6099 72.8299 57.6099C71.8965 57.6099 71.1399 58.3665 71.1399 59.2999C71.1399 60.2332 71.8965 60.9899 72.8299 60.9899Z" fill="#212529"/>
<path d="M64.3699 60.9899C65.3033 60.9899 66.0599 60.2332 66.0599 59.2999C66.0599 58.3665 65.3033 57.6099 64.3699 57.6099C63.4366 57.6099 62.6799 58.3665 62.6799 59.2999C62.6799 60.2332 63.4366 60.9899 64.3699 60.9899Z" fill="#212529"/>
<path d="M77.0499 56.7599C77.9832 56.7599 78.7399 56.0032 78.7399 55.0699C78.7399 54.1365 77.9832 53.3799 77.0499 53.3799C76.1165 53.3799 75.3599 54.1365 75.3599 55.0699C75.3599 56.0032 76.1165 56.7599 77.0499 56.7599Z" fill="#212529"/>
<path d="M56.7598 21.2499C57.6932 21.2499 58.4498 20.4932 58.4498 19.5599C58.4498 18.6265 57.6932 17.8699 56.7598 17.8699C55.8265 17.8699 55.0698 18.6265 55.0698 19.5599C55.0698 20.4932 55.8265 21.2499 56.7598 21.2499Z" fill="#212529"/>
<path d="M48.3099 21.2499C49.2432 21.2499 49.9999 20.4932 49.9999 19.5599C49.9999 18.6265 49.2432 17.8699 48.3099 17.8699C47.3765 17.8699 46.6199 18.6265 46.6199 19.5599C46.6199 20.4932 47.3765 21.2499 48.3099 21.2499Z" fill="#212529"/>
<path d="M52.5399 17.0299C53.4732 17.0299 54.2299 16.2733 54.2299 15.3399C54.2299 14.4065 53.4732 13.6499 52.5399 13.6499C51.6065 13.6499 50.8499 14.4065 50.8499 15.3399C50.8499 16.2733 51.6065 17.0299 52.5399 17.0299Z" fill="#212529"/>
<path d="M52.5399 8.56994C53.4732 8.56994 54.2299 7.8133 54.2299 6.87994C54.2299 5.94658 53.4732 5.18994 52.5399 5.18994C51.6065 5.18994 50.8499 5.94658 50.8499 6.87994C50.8499 7.8133 51.6065 8.56994 52.5399 8.56994Z" fill="#212529"/>
<path d="M60.9898 17.0299C61.9232 17.0299 62.6798 16.2733 62.6798 15.3399C62.6798 14.4065 61.9232 13.6499 60.9898 13.6499C60.0564 13.6499 59.2998 14.4065 59.2998 15.3399C59.2998 16.2733 60.0564 17.0299 60.9898 17.0299Z" fill="#212529"/>
<path d="M56.7598 12.7999C57.6932 12.7999 58.4498 12.0433 58.4498 11.1099C58.4498 10.1766 57.6932 9.41992 56.7598 9.41992C55.8265 9.41992 55.0698 10.1766 55.0698 11.1099C55.0698 12.0433 55.8265 12.7999 56.7598 12.7999Z" fill="#212529"/>
<path d="M48.3099 12.7999C49.2432 12.7999 49.9999 12.0433 49.9999 11.1099C49.9999 10.1766 49.2432 9.41992 48.3099 9.41992C47.3765 9.41992 46.6199 10.1766 46.6199 11.1099C46.6199 12.0433 47.3765 12.7999 48.3099 12.7999Z" fill="#212529"/>
<path d="M60.9898 8.56994C61.9232 8.56994 62.6798 7.8133 62.6798 6.87994C62.6798 5.94658 61.9232 5.18994 60.9898 5.18994C60.0564 5.18994 59.2998 5.94658 59.2998 6.87994C59.2998 7.8133 60.0564 8.56994 60.9898 8.56994Z" fill="#212529"/>
<path d="M56.7598 37.3199C57.6932 37.3199 58.4498 36.5633 58.4498 35.6299C58.4498 34.6966 57.6932 33.9399 56.7598 33.9399C55.8265 33.9399 55.0698 34.6966 55.0698 35.6299C55.0698 36.5633 55.8265 37.3199 56.7598 37.3199Z" fill="#212529"/>
<path d="M48.3099 37.3199C49.2432 37.3199 49.9999 36.5633 49.9999 35.6299C49.9999 34.6966 49.2432 33.9399 48.3099 33.9399C47.3765 33.9399 46.6199 34.6966 46.6199 35.6299C46.6199 36.5633 47.3765 37.3199 48.3099 37.3199Z" fill="#212529"/>
<path d="M52.5399 33.09C53.4732 33.09 54.2299 32.3333 54.2299 31.4C54.2299 30.4666 53.4732 29.71 52.5399 29.71C51.6065 29.71 50.8499 30.4666 50.8499 31.4C50.8499 32.3333 51.6065 33.09 52.5399 33.09Z" fill="#212529"/>
<path d="M52.5399 24.64C53.4732 24.64 54.2299 23.8834 54.2299 22.95C54.2299 22.0166 53.4732 21.26 52.5399 21.26C51.6065 21.26 50.8499 22.0166 50.8499 22.95C50.8499 23.8834 51.6065 24.64 52.5399 24.64Z" fill="#212529"/>
<path d="M60.9898 33.09C61.9232 33.09 62.6798 32.3333 62.6798 31.4C62.6798 30.4666 61.9232 29.71 60.9898 29.71C60.0564 29.71 59.2998 30.4666 59.2998 31.4C59.2998 32.3333 60.0564 33.09 60.9898 33.09Z" fill="#212529"/>
<path d="M56.7598 28.86C57.6932 28.86 58.4498 28.1033 58.4498 27.17C58.4498 26.2366 57.6932 25.48 56.7598 25.48C55.8265 25.48 55.0698 26.2366 55.0698 27.17C55.0698 28.1033 55.8265 28.86 56.7598 28.86Z" fill="#212529"/>
<path d="M48.3099 28.86C49.2432 28.86 49.9999 28.1033 49.9999 27.17C49.9999 26.2366 49.2432 25.48 48.3099 25.48C47.3765 25.48 46.6199 26.2366 46.6199 27.17C46.6199 28.1033 47.3765 28.86 48.3099 28.86Z" fill="#212529"/>
<path d="M60.9898 24.64C61.9232 24.64 62.6798 23.8834 62.6798 22.95C62.6798 22.0166 61.9232 21.26 60.9898 21.26C60.0564 21.26 59.2998 22.0166 59.2998 22.95C59.2998 23.8834 60.0564 24.64 60.9898 24.64Z" fill="#212529"/>
<path d="M56.7598 53.3798C57.6932 53.3798 58.4498 52.6231 58.4498 51.6898C58.4498 50.7564 57.6932 49.9998 56.7598 49.9998C55.8265 49.9998 55.0698 50.7564 55.0698 51.6898C55.0698 52.6231 55.8265 53.3798 56.7598 53.3798Z" fill="#212529"/>
<path d="M48.3099 53.3798C49.2432 53.3798 49.9999 52.6231 49.9999 51.6898C49.9999 50.7564 49.2432 49.9998 48.3099 49.9998C47.3765 49.9998 46.6199 50.7564 46.6199 51.6898C46.6199 52.6231 47.3765 53.3798 48.3099 53.3798Z" fill="#212529"/>
<path d="M52.5399 49.1498C53.4732 49.1498 54.2299 48.3931 54.2299 47.4598C54.2299 46.5264 53.4732 45.7698 52.5399 45.7698C51.6065 45.7698 50.8499 46.5264 50.8499 47.4598C50.8499 48.3931 51.6065 49.1498 52.5399 49.1498Z" fill="#212529"/>
<path d="M52.5399 40.6998C53.4732 40.6998 54.2299 39.9432 54.2299 39.0098C54.2299 38.0765 53.4732 37.3198 52.5399 37.3198C51.6065 37.3198 50.8499 38.0765 50.8499 39.0098C50.8499 39.9432 51.6065 40.6998 52.5399 40.6998Z" fill="#212529"/>
<path d="M60.9898 49.1498C61.9232 49.1498 62.6798 48.3931 62.6798 47.4598C62.6798 46.5264 61.9232 45.7698 60.9898 45.7698C60.0564 45.7698 59.2998 46.5264 59.2998 47.4598C59.2998 48.3931 60.0564 49.1498 60.9898 49.1498Z" fill="#212529"/>
<path d="M56.7598 44.9298C57.6932 44.9298 58.4498 44.1732 58.4498 43.2398C58.4498 42.3064 57.6932 41.5498 56.7598 41.5498C55.8265 41.5498 55.0698 42.3064 55.0698 43.2398C55.0698 44.1732 55.8265 44.9298 56.7598 44.9298Z" fill="#212529"/>
<path d="M48.3099 44.9298C49.2432 44.9298 49.9999 44.1732 49.9999 43.2398C49.9999 42.3064 49.2432 41.5498 48.3099 41.5498C47.3765 41.5498 46.6199 42.3064 46.6199 43.2398C46.6199 44.1732 47.3765 44.9298 48.3099 44.9298Z" fill="#212529"/>
<path d="M60.9898 40.6998C61.9232 40.6998 62.6798 39.9432 62.6798 39.0098C62.6798 38.0765 61.9232 37.3198 60.9898 37.3198C60.0564 37.3198 59.2998 38.0765 59.2998 39.0098C59.2998 39.9432 60.0564 40.6998 60.9898 40.6998Z" fill="#212529"/>
<path d="M56.7598 69.4398C57.6932 69.4398 58.4498 68.6832 58.4498 67.7498C58.4498 66.8165 57.6932 66.0598 56.7598 66.0598C55.8265 66.0598 55.0698 66.8165 55.0698 67.7498C55.0698 68.6832 55.8265 69.4398 56.7598 69.4398Z" fill="#212529"/>
<path d="M48.3099 69.4398C49.2432 69.4398 49.9999 68.6832 49.9999 67.7498C49.9999 66.8165 49.2432 66.0598 48.3099 66.0598C47.3765 66.0598 46.6199 66.8165 46.6199 67.7498C46.6199 68.6832 47.3765 69.4398 48.3099 69.4398Z" fill="#212529"/>
<path d="M52.5399 65.2198C53.4732 65.2198 54.2299 64.4632 54.2299 63.5298C54.2299 62.5965 53.4732 61.8398 52.5399 61.8398C51.6065 61.8398 50.8499 62.5965 50.8499 63.5298C50.8499 64.4632 51.6065 65.2198 52.5399 65.2198Z" fill="#212529"/>
<path d="M52.5399 56.7599C53.4732 56.7599 54.2299 56.0032 54.2299 55.0699C54.2299 54.1365 53.4732 53.3799 52.5399 53.3799C51.6065 53.3799 50.8499 54.1365 50.8499 55.0699C50.8499 56.0032 51.6065 56.7599 52.5399 56.7599Z" fill="#212529"/>
<path d="M60.9898 65.2198C61.9232 65.2198 62.6798 64.4632 62.6798 63.5298C62.6798 62.5965 61.9232 61.8398 60.9898 61.8398C60.0564 61.8398 59.2998 62.5965 59.2998 63.5298C59.2998 64.4632 60.0564 65.2198 60.9898 65.2198Z" fill="#212529"/>
<path d="M56.7598 60.9899C57.6932 60.9899 58.4498 60.2332 58.4498 59.2999C58.4498 58.3665 57.6932 57.6099 56.7598 57.6099C55.8265 57.6099 55.0698 58.3665 55.0698 59.2999C55.0698 60.2332 55.8265 60.9899 56.7598 60.9899Z" fill="#212529"/>
<path d="M48.3099 60.9899C49.2432 60.9899 49.9999 60.2332 49.9999 59.2999C49.9999 58.3665 49.2432 57.6099 48.3099 57.6099C47.3765 57.6099 46.6199 58.3665 46.6199 59.2999C46.6199 60.2332 47.3765 60.9899 48.3099 60.9899Z" fill="#212529"/>
<path d="M60.9898 56.7599C61.9232 56.7599 62.6798 56.0032 62.6798 55.0699C62.6798 54.1365 61.9232 53.3799 60.9898 53.3799C60.0564 53.3799 59.2998 54.1365 59.2998 55.0699C59.2998 56.0032 60.0564 56.7599 60.9898 56.7599Z" fill="#212529"/>
<path d="M40.6998 21.2499C41.6331 21.2499 42.3898 20.4932 42.3898 19.5599C42.3898 18.6265 41.6331 17.8699 40.6998 17.8699C39.7664 17.8699 39.0098 18.6265 39.0098 19.5599C39.0098 20.4932 39.7664 21.2499 40.6998 21.2499Z" fill="#212529"/>
<path d="M32.2498 21.2499C33.1832 21.2499 33.9398 20.4932 33.9398 19.5599C33.9398 18.6265 33.1832 17.8699 32.2498 17.8699C31.3165 17.8699 30.5598 18.6265 30.5598 19.5599C30.5598 20.4932 31.3165 21.2499 32.2498 21.2499Z" fill="#212529"/>
<path d="M36.4698 17.0299C37.4031 17.0299 38.1598 16.2733 38.1598 15.3399C38.1598 14.4065 37.4031 13.6499 36.4698 13.6499C35.5364 13.6499 34.7798 14.4065 34.7798 15.3399C34.7798 16.2733 35.5364 17.0299 36.4698 17.0299Z" fill="#212529"/>
<path d="M36.4698 8.56994C37.4031 8.56994 38.1598 7.8133 38.1598 6.87994C38.1598 5.94658 37.4031 5.18994 36.4698 5.18994C35.5364 5.18994 34.7798 5.94658 34.7798 6.87994C34.7798 7.8133 35.5364 8.56994 36.4698 8.56994Z" fill="#212529"/>
<path d="M44.9297 17.0299C45.8631 17.0299 46.6197 16.2733 46.6197 15.3399C46.6197 14.4065 45.8631 13.6499 44.9297 13.6499C43.9964 13.6499 43.2397 14.4065 43.2397 15.3399C43.2397 16.2733 43.9964 17.0299 44.9297 17.0299Z" fill="#212529"/>
<path d="M40.6998 12.7999C41.6331 12.7999 42.3898 12.0433 42.3898 11.1099C42.3898 10.1766 41.6331 9.41992 40.6998 9.41992C39.7664 9.41992 39.0098 10.1766 39.0098 11.1099C39.0098 12.0433 39.7664 12.7999 40.6998 12.7999Z" fill="#212529"/>
<path d="M32.2498 12.7999C33.1832 12.7999 33.9398 12.0433 33.9398 11.1099C33.9398 10.1766 33.1832 9.41992 32.2498 9.41992C31.3165 9.41992 30.5598 10.1766 30.5598 11.1099C30.5598 12.0433 31.3165 12.7999 32.2498 12.7999Z" fill="#212529"/>
<path d="M44.9297 8.56994C45.8631 8.56994 46.6197 7.8133 46.6197 6.87994C46.6197 5.94658 45.8631 5.18994 44.9297 5.18994C43.9964 5.18994 43.2397 5.94658 43.2397 6.87994C43.2397 7.8133 43.9964 8.56994 44.9297 8.56994Z" fill="#212529"/>
<path d="M40.6998 37.3199C41.6331 37.3199 42.3898 36.5633 42.3898 35.6299C42.3898 34.6966 41.6331 33.9399 40.6998 33.9399C39.7664 33.9399 39.0098 34.6966 39.0098 35.6299C39.0098 36.5633 39.7664 37.3199 40.6998 37.3199Z" fill="#212529"/>
<path d="M32.2498 37.3199C33.1832 37.3199 33.9398 36.5633 33.9398 35.6299C33.9398 34.6966 33.1832 33.9399 32.2498 33.9399C31.3165 33.9399 30.5598 34.6966 30.5598 35.6299C30.5598 36.5633 31.3165 37.3199 32.2498 37.3199Z" fill="#212529"/>
<path d="M36.4698 33.09C37.4031 33.09 38.1598 32.3333 38.1598 31.4C38.1598 30.4666 37.4031 29.71 36.4698 29.71C35.5364 29.71 34.7798 30.4666 34.7798 31.4C34.7798 32.3333 35.5364 33.09 36.4698 33.09Z" fill="#212529"/>
<path d="M36.4698 24.64C37.4031 24.64 38.1598 23.8834 38.1598 22.95C38.1598 22.0166 37.4031 21.26 36.4698 21.26C35.5364 21.26 34.7798 22.0166 34.7798 22.95C34.7798 23.8834 35.5364 24.64 36.4698 24.64Z" fill="#212529"/>
<path d="M44.9297 33.09C45.8631 33.09 46.6197 32.3333 46.6197 31.4C46.6197 30.4666 45.8631 29.71 44.9297 29.71C43.9964 29.71 43.2397 30.4666 43.2397 31.4C43.2397 32.3333 43.9964 33.09 44.9297 33.09Z" fill="#212529"/>
<path d="M40.6998 28.86C41.6331 28.86 42.3898 28.1033 42.3898 27.17C42.3898 26.2366 41.6331 25.48 40.6998 25.48C39.7664 25.48 39.0098 26.2366 39.0098 27.17C39.0098 28.1033 39.7664 28.86 40.6998 28.86Z" fill="#212529"/>
<path d="M32.2498 28.86C33.1832 28.86 33.9398 28.1033 33.9398 27.17C33.9398 26.2366 33.1832 25.48 32.2498 25.48C31.3165 25.48 30.5598 26.2366 30.5598 27.17C30.5598 28.1033 31.3165 28.86 32.2498 28.86Z" fill="#212529"/>
<path d="M44.9297 24.64C45.8631 24.64 46.6197 23.8834 46.6197 22.95C46.6197 22.0166 45.8631 21.26 44.9297 21.26C43.9964 21.26 43.2397 22.0166 43.2397 22.95C43.2397 23.8834 43.9964 24.64 44.9297 24.64Z" fill="#212529"/>
<path d="M40.6998 53.3798C41.6331 53.3798 42.3898 52.6231 42.3898 51.6898C42.3898 50.7564 41.6331 49.9998 40.6998 49.9998C39.7664 49.9998 39.0098 50.7564 39.0098 51.6898C39.0098 52.6231 39.7664 53.3798 40.6998 53.3798Z" fill="#212529"/>
<path d="M32.2498 53.3798C33.1832 53.3798 33.9398 52.6231 33.9398 51.6898C33.9398 50.7564 33.1832 49.9998 32.2498 49.9998C31.3165 49.9998 30.5598 50.7564 30.5598 51.6898C30.5598 52.6231 31.3165 53.3798 32.2498 53.3798Z" fill="#212529"/>
<path d="M36.4698 49.1498C37.4031 49.1498 38.1598 48.3931 38.1598 47.4598C38.1598 46.5264 37.4031 45.7698 36.4698 45.7698C35.5364 45.7698 34.7798 46.5264 34.7798 47.4598C34.7798 48.3931 35.5364 49.1498 36.4698 49.1498Z" fill="#212529"/>
<path d="M36.4698 40.6998C37.4031 40.6998 38.1598 39.9432 38.1598 39.0098C38.1598 38.0765 37.4031 37.3198 36.4698 37.3198C35.5364 37.3198 34.7798 38.0765 34.7798 39.0098C34.7798 39.9432 35.5364 40.6998 36.4698 40.6998Z" fill="#212529"/>
<path d="M44.9297 49.1498C45.8631 49.1498 46.6197 48.3931 46.6197 47.4598C46.6197 46.5264 45.8631 45.7698 44.9297 45.7698C43.9964 45.7698 43.2397 46.5264 43.2397 47.4598C43.2397 48.3931 43.9964 49.1498 44.9297 49.1498Z" fill="#212529"/>
<path d="M40.6998 44.9298C41.6331 44.9298 42.3898 44.1732 42.3898 43.2398C42.3898 42.3064 41.6331 41.5498 40.6998 41.5498C39.7664 41.5498 39.0098 42.3064 39.0098 43.2398C39.0098 44.1732 39.7664 44.9298 40.6998 44.9298Z" fill="#212529"/>
<path d="M32.2498 44.9298C33.1832 44.9298 33.9398 44.1732 33.9398 43.2398C33.9398 42.3064 33.1832 41.5498 32.2498 41.5498C31.3165 41.5498 30.5598 42.3064 30.5598 43.2398C30.5598 44.1732 31.3165 44.9298 32.2498 44.9298Z" fill="#212529"/>
<path d="M44.9297 40.6998C45.8631 40.6998 46.6197 39.9432 46.6197 39.0098C46.6197 38.0765 45.8631 37.3198 44.9297 37.3198C43.9964 37.3198 43.2397 38.0765 43.2397 39.0098C43.2397 39.9432 43.9964 40.6998 44.9297 40.6998Z" fill="#212529"/>
<path d="M40.6998 69.4398C41.6331 69.4398 42.3898 68.6832 42.3898 67.7498C42.3898 66.8165 41.6331 66.0598 40.6998 66.0598C39.7664 66.0598 39.0098 66.8165 39.0098 67.7498C39.0098 68.6832 39.7664 69.4398 40.6998 69.4398Z" fill="#212529"/>
<path d="M32.2498 69.4398C33.1832 69.4398 33.9398 68.6832 33.9398 67.7498C33.9398 66.8165 33.1832 66.0598 32.2498 66.0598C31.3165 66.0598 30.5598 66.8165 30.5598 67.7498C30.5598 68.6832 31.3165 69.4398 32.2498 69.4398Z" fill="#212529"/>
<path d="M36.4698 65.2198C37.4031 65.2198 38.1598 64.4632 38.1598 63.5298C38.1598 62.5965 37.4031 61.8398 36.4698 61.8398C35.5364 61.8398 34.7798 62.5965 34.7798 63.5298C34.7798 64.4632 35.5364 65.2198 36.4698 65.2198Z" fill="#212529"/>
<path d="M36.4698 56.7599C37.4031 56.7599 38.1598 56.0032 38.1598 55.0699C38.1598 54.1365 37.4031 53.3799 36.4698 53.3799C35.5364 53.3799 34.7798 54.1365 34.7798 55.0699C34.7798 56.0032 35.5364 56.7599 36.4698 56.7599Z" fill="#212529"/>
<path d="M44.9297 65.2198C45.8631 65.2198 46.6197 64.4632 46.6197 63.5298C46.6197 62.5965 45.8631 61.8398 44.9297 61.8398C43.9964 61.8398 43.2397 62.5965 43.2397 63.5298C43.2397 64.4632 43.9964 65.2198 44.9297 65.2198Z" fill="#212529"/>
<path d="M40.6998 60.9899C41.6331 60.9899 42.3898 60.2332 42.3898 59.2999C42.3898 58.3665 41.6331 57.6099 40.6998 57.6099C39.7664 57.6099 39.0098 58.3665 39.0098 59.2999C39.0098 60.2332 39.7664 60.9899 40.6998 60.9899Z" fill="#212529"/>
<path d="M32.2498 60.9899C33.1832 60.9899 33.9398 60.2332 33.9398 59.2999C33.9398 58.3665 33.1832 57.6099 32.2498 57.6099C31.3165 57.6099 30.5598 58.3665 30.5598 59.2999C30.5598 60.2332 31.3165 60.9899 32.2498 60.9899Z" fill="#212529"/>
<path d="M44.9297 56.7599C45.8631 56.7599 46.6197 56.0032 46.6197 55.0699C46.6197 54.1365 45.8631 53.3799 44.9297 53.3799C43.9964 53.3799 43.2397 54.1365 43.2397 55.0699C43.2397 56.0032 43.9964 56.7599 44.9297 56.7599Z" fill="#212529"/>
<path d="M24.6399 21.2499C25.5733 21.2499 26.33 20.4932 26.33 19.5599C26.33 18.6265 25.5733 17.8699 24.6399 17.8699C23.7066 17.8699 22.95 18.6265 22.95 19.5599C22.95 20.4932 23.7066 21.2499 24.6399 21.2499Z" fill="#212529"/>
<path d="M16.18 21.2499C17.1134 21.2499 17.87 20.4932 17.87 19.5599C17.87 18.6265 17.1134 17.8699 16.18 17.8699C15.2466 17.8699 14.49 18.6265 14.49 19.5599C14.49 20.4932 15.2466 21.2499 16.18 21.2499Z" fill="#212529"/>
<path d="M20.41 17.0299C21.3433 17.0299 22.1 16.2733 22.1 15.3399C22.1 14.4065 21.3433 13.6499 20.41 13.6499C19.4766 13.6499 18.72 14.4065 18.72 15.3399C18.72 16.2733 19.4766 17.0299 20.41 17.0299Z" fill="#212529"/>
<path d="M20.41 8.56994C21.3433 8.56994 22.1 7.8133 22.1 6.87994C22.1 5.94658 21.3433 5.18994 20.41 5.18994C19.4766 5.18994 18.72 5.94658 18.72 6.87994C18.72 7.8133 19.4766 8.56994 20.41 8.56994Z" fill="#212529"/>
<path d="M28.8599 17.0299C29.7933 17.0299 30.5499 16.2733 30.5499 15.3399C30.5499 14.4065 29.7933 13.6499 28.8599 13.6499C27.9266 13.6499 27.1699 14.4065 27.1699 15.3399C27.1699 16.2733 27.9266 17.0299 28.8599 17.0299Z" fill="#212529"/>
<path d="M24.6399 12.7999C25.5733 12.7999 26.33 12.0433 26.33 11.1099C26.33 10.1766 25.5733 9.41992 24.6399 9.41992C23.7066 9.41992 22.95 10.1766 22.95 11.1099C22.95 12.0433 23.7066 12.7999 24.6399 12.7999Z" fill="#212529"/>
<path d="M16.18 12.7999C17.1134 12.7999 17.87 12.0433 17.87 11.1099C17.87 10.1766 17.1134 9.41992 16.18 9.41992C15.2466 9.41992 14.49 10.1766 14.49 11.1099C14.49 12.0433 15.2466 12.7999 16.18 12.7999Z" fill="#212529"/>
<path d="M28.8599 8.56994C29.7933 8.56994 30.5499 7.8133 30.5499 6.87994C30.5499 5.94658 29.7933 5.18994 28.8599 5.18994C27.9266 5.18994 27.1699 5.94658 27.1699 6.87994C27.1699 7.8133 27.9266 8.56994 28.8599 8.56994Z" fill="#212529"/>
<path d="M24.6399 37.3199C25.5733 37.3199 26.33 36.5633 26.33 35.6299C26.33 34.6966 25.5733 33.9399 24.6399 33.9399C23.7066 33.9399 22.95 34.6966 22.95 35.6299C22.95 36.5633 23.7066 37.3199 24.6399 37.3199Z" fill="#212529"/>
<path d="M16.18 37.3199C17.1134 37.3199 17.87 36.5633 17.87 35.6299C17.87 34.6966 17.1134 33.9399 16.18 33.9399C15.2466 33.9399 14.49 34.6966 14.49 35.6299C14.49 36.5633 15.2466 37.3199 16.18 37.3199Z" fill="#212529"/>
<path d="M20.41 33.09C21.3433 33.09 22.1 32.3333 22.1 31.4C22.1 30.4666 21.3433 29.71 20.41 29.71C19.4766 29.71 18.72 30.4666 18.72 31.4C18.72 32.3333 19.4766 33.09 20.41 33.09Z" fill="#212529"/>
<path d="M20.41 24.64C21.3433 24.64 22.1 23.8834 22.1 22.95C22.1 22.0166 21.3433 21.26 20.41 21.26C19.4766 21.26 18.72 22.0166 18.72 22.95C18.72 23.8834 19.4766 24.64 20.41 24.64Z" fill="#212529"/>
<path d="M28.8599 33.09C29.7933 33.09 30.5499 32.3333 30.5499 31.4C30.5499 30.4666 29.7933 29.71 28.8599 29.71C27.9266 29.71 27.1699 30.4666 27.1699 31.4C27.1699 32.3333 27.9266 33.09 28.8599 33.09Z" fill="#212529"/>
<path d="M24.6399 28.86C25.5733 28.86 26.33 28.1033 26.33 27.17C26.33 26.2366 25.5733 25.48 24.6399 25.48C23.7066 25.48 22.95 26.2366 22.95 27.17C22.95 28.1033 23.7066 28.86 24.6399 28.86Z" fill="#212529"/>
<path d="M16.18 28.86C17.1134 28.86 17.87 28.1033 17.87 27.17C17.87 26.2366 17.1134 25.48 16.18 25.48C15.2466 25.48 14.49 26.2366 14.49 27.17C14.49 28.1033 15.2466 28.86 16.18 28.86Z" fill="#212529"/>
<path d="M28.8599 24.64C29.7933 24.64 30.5499 23.8834 30.5499 22.95C30.5499 22.0166 29.7933 21.26 28.8599 21.26C27.9266 21.26 27.1699 22.0166 27.1699 22.95C27.1699 23.8834 27.9266 24.64 28.8599 24.64Z" fill="#212529"/>
<path d="M24.6399 53.3798C25.5733 53.3798 26.33 52.6231 26.33 51.6898C26.33 50.7564 25.5733 49.9998 24.6399 49.9998C23.7066 49.9998 22.95 50.7564 22.95 51.6898C22.95 52.6231 23.7066 53.3798 24.6399 53.3798Z" fill="#212529"/>
<path d="M16.18 53.3798C17.1134 53.3798 17.87 52.6231 17.87 51.6898C17.87 50.7564 17.1134 49.9998 16.18 49.9998C15.2466 49.9998 14.49 50.7564 14.49 51.6898C14.49 52.6231 15.2466 53.3798 16.18 53.3798Z" fill="#212529"/>
<path d="M20.41 49.1498C21.3433 49.1498 22.1 48.3931 22.1 47.4598C22.1 46.5264 21.3433 45.7698 20.41 45.7698C19.4766 45.7698 18.72 46.5264 18.72 47.4598C18.72 48.3931 19.4766 49.1498 20.41 49.1498Z" fill="#212529"/>
<path d="M20.41 40.6998C21.3433 40.6998 22.1 39.9432 22.1 39.0098C22.1 38.0765 21.3433 37.3198 20.41 37.3198C19.4766 37.3198 18.72 38.0765 18.72 39.0098C18.72 39.9432 19.4766 40.6998 20.41 40.6998Z" fill="#212529"/>
<path d="M28.8599 49.1498C29.7933 49.1498 30.5499 48.3931 30.5499 47.4598C30.5499 46.5264 29.7933 45.7698 28.8599 45.7698C27.9266 45.7698 27.1699 46.5264 27.1699 47.4598C27.1699 48.3931 27.9266 49.1498 28.8599 49.1498Z" fill="#212529"/>
<path d="M24.6399 44.9298C25.5733 44.9298 26.33 44.1732 26.33 43.2398C26.33 42.3064 25.5733 41.5498 24.6399 41.5498C23.7066 41.5498 22.95 42.3064 22.95 43.2398C22.95 44.1732 23.7066 44.9298 24.6399 44.9298Z" fill="#212529"/>
<path d="M16.18 44.9298C17.1134 44.9298 17.87 44.1732 17.87 43.2398C17.87 42.3064 17.1134 41.5498 16.18 41.5498C15.2466 41.5498 14.49 42.3064 14.49 43.2398C14.49 44.1732 15.2466 44.9298 16.18 44.9298Z" fill="#212529"/>
<path d="M28.8599 40.6998C29.7933 40.6998 30.5499 39.9432 30.5499 39.0098C30.5499 38.0765 29.7933 37.3198 28.8599 37.3198C27.9266 37.3198 27.1699 38.0765 27.1699 39.0098C27.1699 39.9432 27.9266 40.6998 28.8599 40.6998Z" fill="#212529"/>
<path d="M24.6399 69.4398C25.5733 69.4398 26.33 68.6832 26.33 67.7498C26.33 66.8165 25.5733 66.0598 24.6399 66.0598C23.7066 66.0598 22.95 66.8165 22.95 67.7498C22.95 68.6832 23.7066 69.4398 24.6399 69.4398Z" fill="#212529"/>
<path d="M16.18 69.4398C17.1134 69.4398 17.87 68.6832 17.87 67.7498C17.87 66.8165 17.1134 66.0598 16.18 66.0598C15.2466 66.0598 14.49 66.8165 14.49 67.7498C14.49 68.6832 15.2466 69.4398 16.18 69.4398Z" fill="#212529"/>
<path d="M20.41 65.2198C21.3433 65.2198 22.1 64.4632 22.1 63.5298C22.1 62.5965 21.3433 61.8398 20.41 61.8398C19.4766 61.8398 18.72 62.5965 18.72 63.5298C18.72 64.4632 19.4766 65.2198 20.41 65.2198Z" fill="#212529"/>
<path d="M20.41 56.7599C21.3433 56.7599 22.1 56.0032 22.1 55.0699C22.1 54.1365 21.3433 53.3799 20.41 53.3799C19.4766 53.3799 18.72 54.1365 18.72 55.0699C18.72 56.0032 19.4766 56.7599 20.41 56.7599Z" fill="#212529"/>
<path d="M28.8599 65.2198C29.7933 65.2198 30.5499 64.4632 30.5499 63.5298C30.5499 62.5965 29.7933 61.8398 28.8599 61.8398C27.9266 61.8398 27.1699 62.5965 27.1699 63.5298C27.1699 64.4632 27.9266 65.2198 28.8599 65.2198Z" fill="#212529"/>
<path d="M24.6399 60.9899C25.5733 60.9899 26.33 60.2332 26.33 59.2999C26.33 58.3665 25.5733 57.6099 24.6399 57.6099C23.7066 57.6099 22.95 58.3665 22.95 59.2999C22.95 60.2332 23.7066 60.9899 24.6399 60.9899Z" fill="#212529"/>
<path d="M16.18 60.9899C17.1134 60.9899 17.87 60.2332 17.87 59.2999C17.87 58.3665 17.1134 57.6099 16.18 57.6099C15.2466 57.6099 14.49 58.3665 14.49 59.2999C14.49 60.2332 15.2466 60.9899 16.18 60.9899Z" fill="#212529"/>
<path d="M28.8599 56.7599C29.7933 56.7599 30.5499 56.0032 30.5499 55.0699C30.5499 54.1365 29.7933 53.3799 28.8599 53.3799C27.9266 53.3799 27.1699 54.1365 27.1699 55.0699C27.1699 56.0032 27.9266 56.7599 28.8599 56.7599Z" fill="#212529"/>
<path d="M8.56988 21.2499C9.50324 21.2499 10.2599 20.4932 10.2599 19.5599C10.2599 18.6265 9.50324 17.8699 8.56988 17.8699C7.63652 17.8699 6.87988 18.6265 6.87988 19.5599C6.87988 20.4932 7.63652 21.2499 8.56988 21.2499Z" fill="#212529"/>
<path d="M0.119932 21.2499C1.05329 21.2499 1.80993 20.4932 1.80993 19.5599C1.80993 18.6265 1.05329 17.8699 0.119932 17.8699C-0.81343 17.8699 -1.57007 18.6265 -1.57007 19.5599C-1.57007 20.4932 -0.81343 21.2499 0.119932 21.2499Z" fill="#212529"/>
<path d="M4.34991 17.0299C5.28327 17.0299 6.03991 16.2733 6.03991 15.3399C6.03991 14.4065 5.28327 13.6499 4.34991 13.6499C3.41655 13.6499 2.65991 14.4065 2.65991 15.3399C2.65991 16.2733 3.41655 17.0299 4.34991 17.0299Z" fill="#212529"/>
<path d="M4.34991 8.56994C5.28327 8.56994 6.03991 7.8133 6.03991 6.87994C6.03991 5.94658 5.28327 5.18994 4.34991 5.18994C3.41655 5.18994 2.65991 5.94658 2.65991 6.87994C2.65991 7.8133 3.41655 8.56994 4.34991 8.56994Z" fill="#212529"/>
<path d="M12.7999 17.0299C13.7332 17.0299 14.4899 16.2733 14.4899 15.3399C14.4899 14.4065 13.7332 13.6499 12.7999 13.6499C11.8665 13.6499 11.1099 14.4065 11.1099 15.3399C11.1099 16.2733 11.8665 17.0299 12.7999 17.0299Z" fill="#212529"/>
<path d="M8.56988 12.7999C9.50324 12.7999 10.2599 12.0433 10.2599 11.1099C10.2599 10.1766 9.50324 9.41992 8.56988 9.41992C7.63652 9.41992 6.87988 10.1766 6.87988 11.1099C6.87988 12.0433 7.63652 12.7999 8.56988 12.7999Z" fill="#212529"/>
<path d="M0.119932 12.7999C1.05329 12.7999 1.80993 12.0433 1.80993 11.1099C1.80993 10.1766 1.05329 9.41992 0.119932 9.41992C-0.81343 9.41992 -1.57007 10.1766 -1.57007 11.1099C-1.57007 12.0433 -0.81343 12.7999 0.119932 12.7999Z" fill="#212529"/>
<path d="M12.7999 8.56994C13.7332 8.56994 14.4899 7.8133 14.4899 6.87994C14.4899 5.94658 13.7332 5.18994 12.7999 5.18994C11.8665 5.18994 11.1099 5.94658 11.1099 6.87994C11.1099 7.8133 11.8665 8.56994 12.7999 8.56994Z" fill="#212529"/>
<path d="M8.56988 37.3199C9.50324 37.3199 10.2599 36.5633 10.2599 35.6299C10.2599 34.6966 9.50324 33.9399 8.56988 33.9399C7.63652 33.9399 6.87988 34.6966 6.87988 35.6299C6.87988 36.5633 7.63652 37.3199 8.56988 37.3199Z" fill="#212529"/>
<path d="M0.119932 37.3199C1.05329 37.3199 1.80993 36.5633 1.80993 35.6299C1.80993 34.6966 1.05329 33.9399 0.119932 33.9399C-0.81343 33.9399 -1.57007 34.6966 -1.57007 35.6299C-1.57007 36.5633 -0.81343 37.3199 0.119932 37.3199Z" fill="#212529"/>
<path d="M4.34991 33.09C5.28327 33.09 6.03991 32.3333 6.03991 31.4C6.03991 30.4666 5.28327 29.71 4.34991 29.71C3.41655 29.71 2.65991 30.4666 2.65991 31.4C2.65991 32.3333 3.41655 33.09 4.34991 33.09Z" fill="#212529"/>
<path d="M4.34991 24.64C5.28327 24.64 6.03991 23.8834 6.03991 22.95C6.03991 22.0166 5.28327 21.26 4.34991 21.26C3.41655 21.26 2.65991 22.0166 2.65991 22.95C2.65991 23.8834 3.41655 24.64 4.34991 24.64Z" fill="#212529"/>
<path d="M12.7999 33.09C13.7332 33.09 14.4899 32.3333 14.4899 31.4C14.4899 30.4666 13.7332 29.71 12.7999 29.71C11.8665 29.71 11.1099 30.4666 11.1099 31.4C11.1099 32.3333 11.8665 33.09 12.7999 33.09Z" fill="#212529"/>
<path d="M8.56988 28.86C9.50324 28.86 10.2599 28.1033 10.2599 27.17C10.2599 26.2366 9.50324 25.48 8.56988 25.48C7.63652 25.48 6.87988 26.2366 6.87988 27.17C6.87988 28.1033 7.63652 28.86 8.56988 28.86Z" fill="#212529"/>
<path d="M0.119932 28.86C1.05329 28.86 1.80993 28.1033 1.80993 27.17C1.80993 26.2366 1.05329 25.48 0.119932 25.48C-0.81343 25.48 -1.57007 26.2366 -1.57007 27.17C-1.57007 28.1033 -0.81343 28.86 0.119932 28.86Z" fill="#212529"/>
<path d="M12.7999 24.64C13.7332 24.64 14.4899 23.8834 14.4899 22.95C14.4899 22.0166 13.7332 21.26 12.7999 21.26C11.8665 21.26 11.1099 22.0166 11.1099 22.95C11.1099 23.8834 11.8665 24.64 12.7999 24.64Z" fill="#212529"/>
<path d="M8.56988 53.3798C9.50324 53.3798 10.2599 52.6231 10.2599 51.6898C10.2599 50.7564 9.50324 49.9998 8.56988 49.9998C7.63652 49.9998 6.87988 50.7564 6.87988 51.6898C6.87988 52.6231 7.63652 53.3798 8.56988 53.3798Z" fill="#212529"/>
<path d="M0.119932 53.3798C1.05329 53.3798 1.80993 52.6231 1.80993 51.6898C1.80993 50.7564 1.05329 49.9998 0.119932 49.9998C-0.81343 49.9998 -1.57007 50.7564 -1.57007 51.6898C-1.57007 52.6231 -0.81343 53.3798 0.119932 53.3798Z" fill="#212529"/>
<path d="M4.34991 49.1498C5.28327 49.1498 6.03991 48.3931 6.03991 47.4598C6.03991 46.5264 5.28327 45.7698 4.34991 45.7698C3.41655 45.7698 2.65991 46.5264 2.65991 47.4598C2.65991 48.3931 3.41655 49.1498 4.34991 49.1498Z" fill="#212529"/>
<path d="M4.34991 40.6998C5.28327 40.6998 6.03991 39.9432 6.03991 39.0098C6.03991 38.0765 5.28327 37.3198 4.34991 37.3198C3.41655 37.3198 2.65991 38.0765 2.65991 39.0098C2.65991 39.9432 3.41655 40.6998 4.34991 40.6998Z" fill="#212529"/>
<path d="M12.7999 49.1498C13.7332 49.1498 14.4899 48.3931 14.4899 47.4598C14.4899 46.5264 13.7332 45.7698 12.7999 45.7698C11.8665 45.7698 11.1099 46.5264 11.1099 47.4598C11.1099 48.3931 11.8665 49.1498 12.7999 49.1498Z" fill="#212529"/>
<path d="M8.56988 44.9298C9.50324 44.9298 10.2599 44.1732 10.2599 43.2398C10.2599 42.3064 9.50324 41.5498 8.56988 41.5498C7.63652 41.5498 6.87988 42.3064 6.87988 43.2398C6.87988 44.1732 7.63652 44.9298 8.56988 44.9298Z" fill="#212529"/>
<path d="M0.119932 44.9298C1.05329 44.9298 1.80993 44.1732 1.80993 43.2398C1.80993 42.3064 1.05329 41.5498 0.119932 41.5498C-0.81343 41.5498 -1.57007 42.3064 -1.57007 43.2398C-1.57007 44.1732 -0.81343 44.9298 0.119932 44.9298Z" fill="#212529"/>
<path d="M12.7999 40.6998C13.7332 40.6998 14.4899 39.9432 14.4899 39.0098C14.4899 38.0765 13.7332 37.3198 12.7999 37.3198C11.8665 37.3198 11.1099 38.0765 11.1099 39.0098C11.1099 39.9432 11.8665 40.6998 12.7999 40.6998Z" fill="#212529"/>
<path d="M8.56988 69.4398C9.50324 69.4398 10.2599 68.6832 10.2599 67.7498C10.2599 66.8165 9.50324 66.0598 8.56988 66.0598C7.63652 66.0598 6.87988 66.8165 6.87988 67.7498C6.87988 68.6832 7.63652 69.4398 8.56988 69.4398Z" fill="#212529"/>
<path d="M0.119932 69.4398C1.05329 69.4398 1.80993 68.6832 1.80993 67.7498C1.80993 66.8165 1.05329 66.0598 0.119932 66.0598C-0.81343 66.0598 -1.57007 66.8165 -1.57007 67.7498C-1.57007 68.6832 -0.81343 69.4398 0.119932 69.4398Z" fill="#212529"/>
<path d="M4.34991 65.2198C5.28327 65.2198 6.03991 64.4632 6.03991 63.5298C6.03991 62.5965 5.28327 61.8398 4.34991 61.8398C3.41655 61.8398 2.65991 62.5965 2.65991 63.5298C2.65991 64.4632 3.41655 65.2198 4.34991 65.2198Z" fill="#212529"/>
<path d="M4.34991 56.7599C5.28327 56.7599 6.03991 56.0032 6.03991 55.0699C6.03991 54.1365 5.28327 53.3799 4.34991 53.3799C3.41655 53.3799 2.65991 54.1365 2.65991 55.0699C2.65991 56.0032 3.41655 56.7599 4.34991 56.7599Z" fill="#212529"/>
<path d="M12.7999 65.2198C13.7332 65.2198 14.4899 64.4632 14.4899 63.5298C14.4899 62.5965 13.7332 61.8398 12.7999 61.8398C11.8665 61.8398 11.1099 62.5965 11.1099 63.5298C11.1099 64.4632 11.8665 65.2198 12.7999 65.2198Z" fill="#212529"/>
<path d="M8.56988 60.9899C9.50324 60.9899 10.2599 60.2332 10.2599 59.2999C10.2599 58.3665 9.50324 57.6099 8.56988 57.6099C7.63652 57.6099 6.87988 58.3665 6.87988 59.2999C6.87988 60.2332 7.63652 60.9899 8.56988 60.9899Z" fill="#212529"/>
<path d="M0.119932 60.9899C1.05329 60.9899 1.80993 60.2332 1.80993 59.2999C1.80993 58.3665 1.05329 57.6099 0.119932 57.6099C-0.81343 57.6099 -1.57007 58.3665 -1.57007 59.2999C-1.57007 60.2332 -0.81343 60.9899 0.119932 60.9899Z" fill="#212529"/>
<path d="M12.7999 56.7599C13.7332 56.7599 14.4899 56.0032 14.4899 55.0699C14.4899 54.1365 13.7332 53.3799 12.7999 53.3799C11.8665 53.3799 11.1099 54.1365 11.1099 55.0699C11.1099 56.0032 11.8665 56.7599 12.7999 56.7599Z" fill="#212529"/>
</g>
<path d="M42.17 67.63H42C41.6184 67.6091 41.2508 67.4793 40.9406 67.256C40.6305 67.0327 40.3908 66.7252 40.25 66.37L31.18 43.57L24.08 59.2C23.9209 59.554 23.6622 59.854 23.3354 60.0636C23.0087 60.2731 22.6281 60.383 22.24 60.38H12.6C12.2937 60.3859 11.9901 60.3213 11.7127 60.1912C11.4352 60.0612 11.1914 59.8692 11 59.63C6.91187 54.5931 4.00095 48.7063 2.47998 42.4C1.57607 39.0633 1.2947 35.5886 1.64998 32.15C3.06998 16.53 14.13 5.20996 28 5.20996C32.1216 5.21757 36.1774 6.24408 39.8063 8.19814C43.4353 10.1522 46.5249 12.9732 48.8 16.41C48.9116 16.5739 49.0604 16.7091 49.2341 16.8047C49.4079 16.9002 49.6018 16.9534 49.8 16.96C49.9992 16.9643 50.196 16.9168 50.3713 16.8221C50.5466 16.7275 50.6944 16.5889 50.8 16.42C53.1862 12.9988 56.3547 10.1968 60.0421 8.24701C63.7295 6.29723 67.8291 5.25601 72 5.20996C85.85 5.20996 96.91 16.54 98.33 32.16C98.6852 35.5953 98.4038 39.0667 97.5 42.4C95.985 48.7046 93.0809 54.5912 89 59.63C88.8127 59.8638 88.5753 60.0527 88.3053 60.1825C88.0353 60.3123 87.7396 60.3798 87.44 60.38H69.33C68.8477 60.3854 68.3796 60.2164 68.0121 59.904C67.6445 59.5916 67.4023 59.1569 67.33 58.68L63.62 35.09L58.62 58.85C58.5458 59.2543 58.3487 59.626 58.0557 59.9144C57.7627 60.2027 57.388 60.3938 56.9825 60.4616C56.577 60.5293 56.1605 60.4705 55.7896 60.2931C55.4188 60.1156 55.1116 59.8282 54.91 59.47L51.27 53.35L43.93 66.59C43.7573 66.9056 43.5026 67.1688 43.1929 67.3518C42.8831 67.5349 42.5298 67.6309 42.17 67.63ZM31.3 36.43C31.6966 36.4363 32.0823 36.5605 32.4082 36.7866C32.734 37.0128 32.9853 37.3307 33.13 37.7L42.42 60.93L49.42 48.33C49.5953 48.0262 49.8475 47.7739 50.1511 47.5984C50.4548 47.4229 50.7993 47.3303 51.15 47.33C51.5007 47.3303 51.8452 47.4229 52.1488 47.5984C52.4525 47.7739 52.7046 48.0262 52.88 48.33L55.74 53L61.93 23.57C61.9432 23.0395 62.1667 22.5361 62.5511 22.1704C62.9356 21.8047 63.4495 21.6067 63.98 21.62C64.5104 21.6332 65.0139 21.8567 65.3796 22.2411C65.7452 22.6256 65.9432 23.1395 65.93 23.67L71.09 56.38H86.43C89.8501 51.9745 92.2942 46.8921 93.6 41.47C94.91 35.94 94.38 32.81 94.37 32.78C94.3651 32.7167 94.3651 32.6532 94.37 32.59C93.14 19.06 83.76 9.23996 72 9.23996C68.4584 9.26756 64.9752 10.1448 61.843 11.7979C58.7108 13.451 56.0212 15.8317 54 18.74C53.5117 19.4262 52.8691 19.9881 52.124 20.3807C51.3789 20.7732 50.552 20.9853 49.71 21C48.8649 20.994 48.0342 20.7802 47.2913 20.3773C46.5484 19.9745 45.916 19.395 45.45 18.69C43.5469 15.7965 40.9578 13.4186 37.9132 11.7681C34.8686 10.1176 31.4631 9.24566 28 9.22996C16.26 9.22996 6.87998 19.06 5.67998 32.59V32.79C5.67998 32.79 5.13998 35.94 6.44998 41.47C7.76179 46.8808 10.2055 51.9523 13.62 56.35H20.99L29.51 37.61C29.6656 37.2637 29.9165 36.9688 30.2335 36.7598C30.5505 36.5509 30.9204 36.4365 31.3 36.43Z" fill="#2A2527"/>
<path d="M49.72 94.79C49.2209 94.7912 48.7394 94.6057 48.37 94.27L15.91 64.82C14.1428 63.2184 12.5013 61.4833 11 59.63C10.7604 59.3354 10.6097 58.9785 10.5654 58.6014C10.5211 58.2242 10.5852 57.8421 10.75 57.5C10.9121 57.1547 11.1696 56.863 11.4921 56.6592C11.8146 56.4555 12.1886 56.3482 12.57 56.35H20.91L29.43 37.61C29.599 37.2551 29.8656 36.9557 30.1985 36.7467C30.5314 36.5378 30.917 36.4279 31.31 36.43C31.7066 36.4364 32.0923 36.5605 32.4182 36.7867C32.7441 37.0128 32.9953 37.3307 33.14 37.7L42.43 60.93L49.43 48.33C49.6054 48.0263 49.8575 47.774 50.1612 47.5985C50.4648 47.423 50.8093 47.3304 51.16 47.33C51.5108 47.3304 51.8552 47.423 52.1589 47.5985C52.4625 47.774 52.7147 48.0263 52.89 48.33L55.74 53L61.93 23.57C61.9433 23.0396 62.1667 22.5361 62.5512 22.1704C62.9356 21.8047 63.4496 21.6067 63.98 21.62C64.5105 21.6333 65.0139 21.8567 65.3796 22.2412C65.7453 22.6256 65.9433 23.1396 65.93 23.67L71.09 56.38H87.41C87.7893 56.3745 88.1623 56.477 88.4855 56.6755C88.8087 56.8739 89.0688 57.1602 89.2355 57.5009C89.4022 57.8416 89.4685 58.2226 89.4268 58.5996C89.3851 58.9766 89.2371 59.334 89 59.63C87.5103 61.487 85.8751 63.2225 84.11 64.82L51.11 94.28C50.729 94.6216 50.2315 94.8041 49.72 94.79ZM17.1 60.38C17.6 60.88 18.1 61.38 18.62 61.83L49.73 90.07L81.39 61.83C81.9 61.37 82.39 60.88 82.9 60.38H69.33C68.8477 60.3855 68.3797 60.2164 68.0121 59.904C67.6446 59.5916 67.4024 59.1569 67.33 58.68L63.62 35.09L58.62 58.85C58.5458 59.2544 58.3488 59.626 58.0558 59.9144C57.7628 60.2028 57.388 60.3938 56.9825 60.4616C56.5771 60.5294 56.1605 60.4705 55.7897 60.2931C55.4188 60.1157 55.1117 59.8283 54.91 59.47L51.27 53.35L43.93 66.59C43.75 66.9306 43.4755 67.2119 43.1395 67.4002C42.8034 67.5885 42.4201 67.6758 42.0357 67.6515C41.6513 67.6272 41.282 67.4924 40.9723 67.2633C40.6627 67.0342 40.4257 66.7205 40.29 66.36L31.18 43.57L24.08 59.2C23.9209 59.554 23.6622 59.8541 23.3355 60.0636C23.0088 60.2731 22.6281 60.3831 22.24 60.38H17.1Z" fill="#2A2527"/>
</svg>
