<svg width="32" height="32" viewBox="0 0 32 32" fill="none" xmlns="http://www.w3.org/2000/svg">
<path d="M10.27 7.92993C9.4734 8.72378 8.39462 9.16953 7.27 9.16953C6.14538 9.16953 5.0666 8.72378 4.27 7.92993C2.69 9.05993 1.47 11.7099 1 13.9999H13.52C13.05 11.7099 11.83 9.05993 10.27 7.92993Z" fill="#212529"/>
<path d="M7.36307 8.49535C9.32293 8.44094 10.8676 6.80807 10.8132 4.84821C10.7588 2.88835 9.12592 1.34368 7.16606 1.39808C5.20621 1.45248 3.66153 3.08536 3.71593 5.04521C3.77034 7.00507 5.40321 8.54975 7.36307 8.49535Z" fill="#212529"/>
<path d="M15.71 29.0001C15.6869 28.9131 15.6467 28.8316 15.5918 28.7603C15.5369 28.689 15.4684 28.6293 15.3903 28.5847C15.3122 28.54 15.226 28.5113 15.1367 28.5002C15.0473 28.4891 14.9567 28.4959 14.87 28.5201H14.75C13.4229 28.825 12.0333 28.702 10.7803 28.1687C9.52729 27.6355 8.47522 26.7193 7.77478 25.5515C7.07434 24.3838 6.76146 23.0243 6.88096 21.6678C7.00046 20.3113 7.54622 19.0274 8.44005 18.0001L8.89005 19.8301C8.9279 19.979 9.01436 20.111 9.13572 20.2052C9.25709 20.2994 9.40642 20.3504 9.56005 20.3501C9.61293 20.3599 9.66716 20.3599 9.72005 20.3501C9.89758 20.3074 10.0509 20.1961 10.1465 20.0405C10.2421 19.8849 10.2722 19.6978 10.23 19.5201L9.43005 16.2601C9.40418 16.1676 9.36367 16.0798 9.31005 16.0001C9.23001 15.8895 9.11853 15.8055 8.99011 15.7592C8.86169 15.7128 8.72229 15.7062 8.59005 15.7401L5.34005 16.5401C5.16495 16.5659 5.00682 16.659 4.89926 16.7996C4.79169 16.9401 4.74317 17.1171 4.76401 17.2929C4.78484 17.4686 4.87338 17.6293 5.01082 17.7409C5.14826 17.8524 5.32376 17.9059 5.50005 17.8901C5.55293 17.8999 5.60716 17.8999 5.66005 17.8901L7.00005 17.5401C6.1031 18.6976 5.54915 20.0836 5.40129 21.5405C5.25342 22.9973 5.51758 24.4664 6.16368 25.7805C6.80978 27.0946 7.81187 28.2009 9.05585 28.9734C10.2998 29.7459 11.7357 30.1536 13.2 30.1501C13.8339 30.1532 14.4656 30.0759 15.08 29.9201H15.22C15.3164 29.898 15.4069 29.8555 15.4853 29.7954C15.5638 29.7354 15.6285 29.6591 15.6749 29.5719C15.7214 29.4847 15.7486 29.3885 15.7546 29.2898C15.7607 29.1912 15.7455 29.0924 15.71 29.0001Z" fill="#212529"/>
<path d="M29.4501 11.68C29.3864 11.6109 29.3091 11.5557 29.223 11.518C29.1369 11.4803 29.044 11.4608 28.9501 11.4608C28.8561 11.4608 28.7632 11.4803 28.6771 11.518C28.591 11.5557 28.5137 11.6109 28.4501 11.68L27.4501 12.58C27.4991 11.1122 27.1344 9.66029 26.3975 8.38996C25.6607 7.11962 24.5815 6.08211 23.2831 5.3959C21.9847 4.70969 20.5196 4.40245 19.0549 4.50927C17.5902 4.61608 16.1851 5.13265 15 5.99997L14.85 6.11997C14.7697 6.17222 14.7011 6.24064 14.6486 6.32088C14.5962 6.40111 14.561 6.49139 14.5454 6.58597C14.5297 6.68055 14.534 6.77734 14.5578 6.87019C14.5817 6.96303 14.6246 7.04989 14.6839 7.12521C14.7432 7.20054 14.8175 7.26269 14.9022 7.3077C14.9868 7.3527 15.0799 7.37958 15.1755 7.38661C15.2711 7.39365 15.3671 7.38068 15.4574 7.34855C15.5478 7.31641 15.6304 7.26581 15.7 7.19997L15.82 7.10997C16.4992 6.6027 17.2724 6.2354 18.0947 6.0294C18.9169 5.8234 19.7719 5.7828 20.61 5.90997C22.2642 6.15128 23.76 7.02535 24.7823 8.34797C25.8046 9.67058 26.2734 11.3384 26.09 13L24.71 11.5C24.6456 11.4322 24.568 11.3782 24.4821 11.3414C24.3961 11.3045 24.3036 11.2855 24.21 11.2855C24.1165 11.2855 24.024 11.3045 23.938 11.3414C23.8521 11.3782 23.7745 11.4322 23.71 11.5C23.641 11.5637 23.5858 11.641 23.5481 11.727C23.5104 11.8131 23.4909 11.906 23.4909 12C23.4909 12.0939 23.5104 12.1869 23.5481 12.2729C23.5858 12.359 23.641 12.4363 23.71 12.5L26 14.88C26.0652 14.9465 26.143 14.9993 26.2289 15.0354C26.3147 15.0715 26.4069 15.0901 26.5 15.0901C26.5932 15.0901 26.6854 15.0715 26.7712 15.0354C26.8571 14.9993 26.9349 14.9465 27 14.88L29.47 12.61C29.5855 12.4814 29.6477 12.3138 29.6439 12.141C29.6402 11.9683 29.5709 11.8034 29.4501 11.68Z" fill="#212529"/>
<path d="M27.75 24.49C27.3569 24.8855 26.8895 25.1993 26.3746 25.4135C25.8597 25.6276 25.3076 25.7379 24.75 25.7379C24.1924 25.7379 23.6403 25.6276 23.1254 25.4135C22.6105 25.1993 22.1431 24.8855 21.75 24.49C20.19 25.63 18.97 28.28 18.5 30.6H31C30.53 28.28 29.31 25.63 27.75 24.49Z" fill="#212529"/>
<path d="M24.8362 25.0639C26.7961 25.0095 28.3407 23.3767 28.2863 21.4168C28.2319 19.457 26.5991 17.9123 24.6392 17.9667C22.6794 18.0211 21.1347 19.654 21.1891 21.6138C21.2435 23.5737 22.8764 25.1184 24.8362 25.0639Z" fill="#212529"/>
</svg>
