<svg width="24" height="24" viewBox="0 0 24 24" fill="none" xmlns="http://www.w3.org/2000/svg">
<path d="M20.26 17.8101C21.61 18.3901 22.68 20.6001 23.07 22.5001H14C14.39 20.6001 15.46 18.3901 16.82 17.8101" fill="#212529"/>
<path d="M18.5199 18.7301C17.9598 18.7301 17.4122 18.5638 16.9466 18.2524C16.481 17.941 16.1183 17.4984 15.9044 16.9807C15.6905 16.463 15.635 15.8935 15.7451 15.3443C15.8551 14.795 16.1256 14.2908 16.5224 13.8954C16.9192 13.5 17.4244 13.2313 17.974 13.1232C18.5236 13.0152 19.0929 13.0726 19.6099 13.2884C20.1268 13.5041 20.5681 13.8684 20.8779 14.3351C21.1876 14.8018 21.3519 15.3499 21.3499 15.9101C21.3499 16.2812 21.2767 16.6488 21.1343 16.9916C20.992 17.3343 20.7834 17.6457 20.5204 17.9077C20.2575 18.1696 19.9455 18.3772 19.6022 18.5183C19.2589 18.6594 18.8911 18.7314 18.5199 18.7301Z" fill="#212529"/>
<path d="M18.52 13.3301C19.0327 13.3182 19.5372 13.4593 19.9693 13.7354C20.4014 14.0116 20.7414 14.4102 20.9459 14.8805C21.1505 15.3507 21.2102 15.8713 21.1175 16.3756C21.0248 16.88 20.784 17.3453 20.4257 17.7121C20.0673 18.079 19.6078 18.3307 19.1058 18.4352C18.6038 18.5397 18.082 18.4923 17.607 18.2989C17.1321 18.1055 16.7256 17.775 16.4393 17.3495C16.1531 16.924 16.0001 16.4229 16 15.9101C16.0026 15.2284 16.2739 14.5751 16.755 14.0922C17.2361 13.6092 17.8883 13.3353 18.57 13.3301H18.52ZM18.57 12.8301C17.9608 12.8301 17.3653 13.0107 16.8588 13.3492C16.3523 13.6876 15.9576 14.1686 15.7244 14.7314C15.4913 15.2942 15.4303 15.9135 15.5492 16.511C15.668 17.1084 15.9614 17.6572 16.3921 18.088C16.8228 18.5187 17.3717 18.8121 17.9691 18.9309C18.5666 19.0497 19.1859 18.9887 19.7487 18.7556C20.3115 18.5225 20.7925 18.1277 21.1309 17.6212C21.4694 17.1147 21.65 16.5192 21.65 15.9101C21.65 15.0932 21.3255 14.3098 20.7479 13.7322C20.1703 13.1546 19.3869 12.8301 18.57 12.8301Z" fill="white"/>
<path d="M7.66012 5.81006C9.00012 6.39006 10.0801 8.60006 10.4701 10.5001H1.37012C1.76012 8.60006 2.83012 6.39006 4.19012 5.81006" fill="#212529"/>
<path d="M5.92007 6.73007C5.35993 6.73007 4.81238 6.56383 4.34677 6.25243C3.88117 5.94102 3.51845 5.49844 3.30455 4.98074C3.09065 4.46304 3.03519 3.89351 3.1452 3.34428C3.25521 2.79504 3.52574 2.2908 3.92252 1.89542C4.31931 1.50004 4.8245 1.2313 5.37412 1.12323C5.92374 1.01517 6.49307 1.07264 7.01001 1.28837C7.52695 1.5041 7.96824 1.86839 8.278 2.33509C8.58776 2.8018 8.75205 3.34993 8.75007 3.91007C8.75007 4.28124 8.6768 4.64876 8.53446 4.99155C8.39212 5.33434 8.1835 5.64566 7.92058 5.90765C7.65766 6.16965 7.3456 6.37716 7.00231 6.51829C6.65902 6.65942 6.29124 6.73139 5.92007 6.73007Z" fill="#212529"/>
<path d="M5.92009 1.33008C6.43079 1.3281 6.93058 1.47773 7.35617 1.76002C7.78177 2.0423 8.11401 2.44455 8.31082 2.91581C8.50762 3.38706 8.56015 3.90613 8.46173 4.40725C8.36331 4.90838 8.11838 5.36903 7.75796 5.73085C7.39755 6.09267 6.93785 6.33939 6.43711 6.43975C5.93637 6.54011 5.41711 6.48961 4.94509 6.29463C4.47307 6.09965 4.06954 5.76898 3.7856 5.34448C3.50166 4.91999 3.35009 4.42078 3.35009 3.91008C3.3527 3.22835 3.62399 2.57515 4.10511 2.09215C4.58623 1.60916 5.23838 1.33534 5.92009 1.33008ZM5.92009 0.830078C5.31092 0.830078 4.71544 1.01072 4.20893 1.34915C3.70243 1.68759 3.30766 2.16862 3.07454 2.73141C2.84142 3.29421 2.78043 3.91349 2.89927 4.51096C3.01811 5.10842 3.31145 5.65722 3.7422 6.08797C4.17295 6.51871 4.72175 6.81205 5.31921 6.9309C5.91667 7.04974 6.53596 6.98875 7.09875 6.75563C7.66155 6.52251 8.14258 6.12774 8.48102 5.62123C8.81945 5.11473 9.00009 4.51924 9.00009 3.91008C9.00009 3.50561 8.92042 3.1051 8.76564 2.73141C8.61085 2.35773 8.38398 2.01819 8.09798 1.73219C7.81197 1.44618 7.47244 1.21931 7.09875 1.06453C6.72507 0.909745 6.32456 0.830078 5.92009 0.830078Z" fill="white"/>
<path d="M11.57 21.53H11.48C10.3398 21.8262 9.1327 21.7248 8.05782 21.2427C6.98294 20.7606 6.10451 19.9264 5.56744 18.8779C5.03036 17.8294 4.86674 16.6291 5.10354 15.4751C5.34035 14.3211 5.96344 13.2823 6.87004 12.53" stroke="#212529" stroke-miterlimit="10" stroke-linecap="round"/>
<path d="M7.00989 12.23L4.63989 12.81" stroke="#212529" stroke-miterlimit="10" stroke-linecap="round"/>
<path d="M7.01001 12.23L7.59001 14.59" stroke="#212529" stroke-miterlimit="10" stroke-linecap="round"/>
<path d="M11.75 5.14008L11.85 5.07008C12.7134 4.42955 13.7547 4.07353 14.8296 4.05139C15.9044 4.02925 16.9595 4.34209 17.8486 4.94652C18.7377 5.55095 19.4166 6.41703 19.7914 7.42467C20.1661 8.43232 20.2181 9.53159 19.94 10.5701" stroke="#212529" stroke-miterlimit="10" stroke-linecap="round"/>
<path d="M19.8701 10.7799L21.6701 9.12988" stroke="#212529" stroke-miterlimit="10" stroke-linecap="round"/>
<path d="M19.87 10.78L18.23 8.97998" stroke="#212529" stroke-miterlimit="10" stroke-linecap="round"/>
</svg>
