<svg width="24" height="24" viewBox="0 0 24 24" fill="none" xmlns="http://www.w3.org/2000/svg">
<mask id="mask0_30_1847" style="mask-type:alpha" maskUnits="userSpaceOnUse" x="0" y="1" width="24" height="16">
<path d="M7.57989 9.26984L10.1499 15.6898L12.2899 11.8398L13.5699 13.9998L15.2899 5.83984L16.5699 13.9998H20.8499C21.7754 12.8634 22.4349 11.5343 22.7799 10.1098C23.0014 9.37494 23.0762 8.60362 22.9999 7.83984C22.7199 4.59984 20.4299 1.83984 17.2499 1.83984C16.3349 1.84426 15.4345 2.06927 14.6251 2.49577C13.8156 2.92227 13.1209 3.53769 12.5999 4.28984C12.5327 4.39302 12.4408 4.47778 12.3325 4.53646C12.2242 4.59513 12.103 4.62586 11.9799 4.62586C11.8567 4.62586 11.7356 4.59513 11.6273 4.53646C11.519 4.47778 11.4271 4.39302 11.3599 4.28984C10.8576 3.5408 10.177 2.92838 9.37925 2.5077C8.58151 2.08701 7.69171 1.87126 6.78989 1.87984C3.60989 1.87984 1.31989 4.59984 1.03989 7.87984C0.953255 8.63442 1.01439 9.39864 1.21989 10.1298C1.56765 11.5472 2.22697 12.8693 3.14989 13.9998H5.42989L7.57989 9.26984Z" fill="black" stroke="#2A2527" stroke-width="0.952919" stroke-linecap="round" stroke-linejoin="round"/>
</mask>
<g mask="url(#mask0_30_1847)">
<path d="M22.9999 5.1999C23.2208 5.1999 23.3999 5.02082 23.3999 4.7999C23.3999 4.57899 23.2208 4.3999 22.9999 4.3999C22.7789 4.3999 22.5999 4.57899 22.5999 4.7999C22.5999 5.02082 22.7789 5.1999 22.9999 5.1999Z" fill="#212529"/>
<path d="M22.9999 3.1999C23.2208 3.1999 23.3999 3.02082 23.3999 2.7999C23.3999 2.57899 23.2208 2.3999 22.9999 2.3999C22.7789 2.3999 22.5999 2.57899 22.5999 2.7999C22.5999 3.02082 22.7789 3.1999 22.9999 3.1999Z" fill="#212529"/>
<path d="M22.9999 8.99995C23.2208 8.99995 23.3999 8.82087 23.3999 8.59995C23.3999 8.37904 23.2208 8.19995 22.9999 8.19995C22.7789 8.19995 22.5999 8.37904 22.5999 8.59995C22.5999 8.82087 22.7789 8.99995 22.9999 8.99995Z" fill="#212529"/>
<path d="M22.9999 6.99995C23.2208 6.99995 23.3999 6.82087 23.3999 6.59995C23.3999 6.37904 23.2208 6.19995 22.9999 6.19995C22.7789 6.19995 22.5999 6.37904 22.5999 6.59995C22.5999 6.82087 22.7789 6.99995 22.9999 6.99995Z" fill="#212529"/>
<path d="M22.9999 12.8C23.2208 12.8 23.3999 12.6209 23.3999 12.4C23.3999 12.1791 23.2208 12 22.9999 12C22.7789 12 22.5999 12.1791 22.5999 12.4C22.5999 12.6209 22.7789 12.8 22.9999 12.8Z" fill="#212529"/>
<path d="M22.9999 10.8C23.2208 10.8 23.3999 10.6209 23.3999 10.4C23.3999 10.1791 23.2208 10 22.9999 10C22.7789 10 22.5999 10.1791 22.5999 10.4C22.5999 10.6209 22.7789 10.8 22.9999 10.8Z" fill="#212529"/>
<path d="M22.9999 16.5998C23.2208 16.5998 23.3999 16.4207 23.3999 16.1998C23.3999 15.9789 23.2208 15.7998 22.9999 15.7998C22.7789 15.7998 22.5999 15.9789 22.5999 16.1998C22.5999 16.4207 22.7789 16.5998 22.9999 16.5998Z" fill="#212529"/>
<path d="M22.9999 14.5998C23.2208 14.5998 23.3999 14.4207 23.3999 14.1998C23.3999 13.9789 23.2208 13.7998 22.9999 13.7998C22.7789 13.7998 22.5999 13.9789 22.5999 14.1998C22.5999 14.4207 22.7789 14.5998 22.9999 14.5998Z" fill="#212529"/>
<path d="M21.1998 5.1999C21.4207 5.1999 21.5998 5.02082 21.5998 4.7999C21.5998 4.57899 21.4207 4.3999 21.1998 4.3999C20.9789 4.3999 20.7998 4.57899 20.7998 4.7999C20.7998 5.02082 20.9789 5.1999 21.1998 5.1999Z" fill="#212529"/>
<path d="M19.1998 5.1999C19.4207 5.1999 19.5998 5.02082 19.5998 4.7999C19.5998 4.57899 19.4207 4.3999 19.1998 4.3999C18.9789 4.3999 18.7998 4.57899 18.7998 4.7999C18.7998 5.02082 18.9789 5.1999 19.1998 5.1999Z" fill="#212529"/>
<path d="M20.1998 4.1999C20.4207 4.1999 20.5998 4.02082 20.5998 3.7999C20.5998 3.57899 20.4207 3.3999 20.1998 3.3999C19.9789 3.3999 19.7998 3.57899 19.7998 3.7999C19.7998 4.02082 19.9789 4.1999 20.1998 4.1999Z" fill="#212529"/>
<path d="M20.1998 2.1999C20.4207 2.1999 20.5998 2.02082 20.5998 1.7999C20.5998 1.57899 20.4207 1.3999 20.1998 1.3999C19.9789 1.3999 19.7998 1.57899 19.7998 1.7999C19.7998 2.02082 19.9789 2.1999 20.1998 2.1999Z" fill="#212529"/>
<path d="M22.1998 4.1999C22.4207 4.1999 22.5998 4.02082 22.5998 3.7999C22.5998 3.57899 22.4207 3.3999 22.1998 3.3999C21.9789 3.3999 21.7998 3.57899 21.7998 3.7999C21.7998 4.02082 21.9789 4.1999 22.1998 4.1999Z" fill="#212529"/>
<path d="M21.1998 3.1999C21.4207 3.1999 21.5998 3.02082 21.5998 2.7999C21.5998 2.57899 21.4207 2.3999 21.1998 2.3999C20.9789 2.3999 20.7998 2.57899 20.7998 2.7999C20.7998 3.02082 20.9789 3.1999 21.1998 3.1999Z" fill="#212529"/>
<path d="M19.1998 3.1999C19.4207 3.1999 19.5998 3.02082 19.5998 2.7999C19.5998 2.57899 19.4207 2.3999 19.1998 2.3999C18.9789 2.3999 18.7998 2.57899 18.7998 2.7999C18.7998 3.02082 18.9789 3.1999 19.1998 3.1999Z" fill="#212529"/>
<path d="M22.1998 2.1999C22.4207 2.1999 22.5998 2.02082 22.5998 1.7999C22.5998 1.57899 22.4207 1.3999 22.1998 1.3999C21.9789 1.3999 21.7998 1.57899 21.7998 1.7999C21.7998 2.02082 21.9789 2.1999 22.1998 2.1999Z" fill="#212529"/>
<path d="M21.1998 8.99995C21.4207 8.99995 21.5998 8.82087 21.5998 8.59995C21.5998 8.37904 21.4207 8.19995 21.1998 8.19995C20.9789 8.19995 20.7998 8.37904 20.7998 8.59995C20.7998 8.82087 20.9789 8.99995 21.1998 8.99995Z" fill="#212529"/>
<path d="M19.1998 8.99995C19.4207 8.99995 19.5998 8.82087 19.5998 8.59995C19.5998 8.37904 19.4207 8.19995 19.1998 8.19995C18.9789 8.19995 18.7998 8.37904 18.7998 8.59995C18.7998 8.82087 18.9789 8.99995 19.1998 8.99995Z" fill="#212529"/>
<path d="M20.1998 7.99995C20.4207 7.99995 20.5998 7.82087 20.5998 7.59995C20.5998 7.37904 20.4207 7.19995 20.1998 7.19995C19.9789 7.19995 19.7998 7.37904 19.7998 7.59995C19.7998 7.82087 19.9789 7.99995 20.1998 7.99995Z" fill="#212529"/>
<path d="M20.1998 5.99995C20.4207 5.99995 20.5998 5.82087 20.5998 5.59995C20.5998 5.37904 20.4207 5.19995 20.1998 5.19995C19.9789 5.19995 19.7998 5.37904 19.7998 5.59995C19.7998 5.82087 19.9789 5.99995 20.1998 5.99995Z" fill="#212529"/>
<path d="M22.1998 7.99995C22.4207 7.99995 22.5998 7.82087 22.5998 7.59995C22.5998 7.37904 22.4207 7.19995 22.1998 7.19995C21.9789 7.19995 21.7998 7.37904 21.7998 7.59995C21.7998 7.82087 21.9789 7.99995 22.1998 7.99995Z" fill="#212529"/>
<path d="M21.1998 6.99995C21.4207 6.99995 21.5998 6.82087 21.5998 6.59995C21.5998 6.37904 21.4207 6.19995 21.1998 6.19995C20.9789 6.19995 20.7998 6.37904 20.7998 6.59995C20.7998 6.82087 20.9789 6.99995 21.1998 6.99995Z" fill="#212529"/>
<path d="M19.1998 6.99995C19.4207 6.99995 19.5998 6.82087 19.5998 6.59995C19.5998 6.37904 19.4207 6.19995 19.1998 6.19995C18.9789 6.19995 18.7998 6.37904 18.7998 6.59995C18.7998 6.82087 18.9789 6.99995 19.1998 6.99995Z" fill="#212529"/>
<path d="M22.1998 5.99995C22.4207 5.99995 22.5998 5.82087 22.5998 5.59995C22.5998 5.37904 22.4207 5.19995 22.1998 5.19995C21.9789 5.19995 21.7998 5.37904 21.7998 5.59995C21.7998 5.82087 21.9789 5.99995 22.1998 5.99995Z" fill="#212529"/>
<path d="M21.1998 12.8C21.4207 12.8 21.5998 12.6209 21.5998 12.4C21.5998 12.1791 21.4207 12 21.1998 12C20.9789 12 20.7998 12.1791 20.7998 12.4C20.7998 12.6209 20.9789 12.8 21.1998 12.8Z" fill="#212529"/>
<path d="M19.1998 12.8C19.4207 12.8 19.5998 12.6209 19.5998 12.4C19.5998 12.1791 19.4207 12 19.1998 12C18.9789 12 18.7998 12.1791 18.7998 12.4C18.7998 12.6209 18.9789 12.8 19.1998 12.8Z" fill="#212529"/>
<path d="M20.1998 11.8C20.4207 11.8 20.5998 11.6209 20.5998 11.4C20.5998 11.1791 20.4207 11 20.1998 11C19.9789 11 19.7998 11.1791 19.7998 11.4C19.7998 11.6209 19.9789 11.8 20.1998 11.8Z" fill="#212529"/>
<path d="M20.1998 9.8C20.4207 9.8 20.5998 9.62091 20.5998 9.4C20.5998 9.17909 20.4207 9 20.1998 9C19.9789 9 19.7998 9.17909 19.7998 9.4C19.7998 9.62091 19.9789 9.8 20.1998 9.8Z" fill="#212529"/>
<path d="M22.1998 11.8C22.4207 11.8 22.5998 11.6209 22.5998 11.4C22.5998 11.1791 22.4207 11 22.1998 11C21.9789 11 21.7998 11.1791 21.7998 11.4C21.7998 11.6209 21.9789 11.8 22.1998 11.8Z" fill="#212529"/>
<path d="M21.1998 10.8C21.4207 10.8 21.5998 10.6209 21.5998 10.4C21.5998 10.1791 21.4207 10 21.1998 10C20.9789 10 20.7998 10.1791 20.7998 10.4C20.7998 10.6209 20.9789 10.8 21.1998 10.8Z" fill="#212529"/>
<path d="M19.1998 10.8C19.4207 10.8 19.5998 10.6209 19.5998 10.4C19.5998 10.1791 19.4207 10 19.1998 10C18.9789 10 18.7998 10.1791 18.7998 10.4C18.7998 10.6209 18.9789 10.8 19.1998 10.8Z" fill="#212529"/>
<path d="M22.1998 9.8C22.4207 9.8 22.5998 9.62091 22.5998 9.4C22.5998 9.17909 22.4207 9 22.1998 9C21.9789 9 21.7998 9.17909 21.7998 9.4C21.7998 9.62091 21.9789 9.8 22.1998 9.8Z" fill="#212529"/>
<path d="M21.1998 16.5998C21.4207 16.5998 21.5998 16.4207 21.5998 16.1998C21.5998 15.9789 21.4207 15.7998 21.1998 15.7998C20.9789 15.7998 20.7998 15.9789 20.7998 16.1998C20.7998 16.4207 20.9789 16.5998 21.1998 16.5998Z" fill="#212529"/>
<path d="M19.1998 16.5998C19.4207 16.5998 19.5998 16.4207 19.5998 16.1998C19.5998 15.9789 19.4207 15.7998 19.1998 15.7998C18.9789 15.7998 18.7998 15.9789 18.7998 16.1998C18.7998 16.4207 18.9789 16.5998 19.1998 16.5998Z" fill="#212529"/>
<path d="M20.1998 15.5998C20.4207 15.5998 20.5998 15.4207 20.5998 15.1998C20.5998 14.9789 20.4207 14.7998 20.1998 14.7998C19.9789 14.7998 19.7998 14.9789 19.7998 15.1998C19.7998 15.4207 19.9789 15.5998 20.1998 15.5998Z" fill="#212529"/>
<path d="M20.1998 13.5998C20.4207 13.5998 20.5998 13.4207 20.5998 13.1998C20.5998 12.9789 20.4207 12.7998 20.1998 12.7998C19.9789 12.7998 19.7998 12.9789 19.7998 13.1998C19.7998 13.4207 19.9789 13.5998 20.1998 13.5998Z" fill="#212529"/>
<path d="M22.1998 15.5998C22.4207 15.5998 22.5998 15.4207 22.5998 15.1998C22.5998 14.9789 22.4207 14.7998 22.1998 14.7998C21.9789 14.7998 21.7998 14.9789 21.7998 15.1998C21.7998 15.4207 21.9789 15.5998 22.1998 15.5998Z" fill="#212529"/>
<path d="M21.1998 14.5998C21.4207 14.5998 21.5998 14.4207 21.5998 14.1998C21.5998 13.9789 21.4207 13.7998 21.1998 13.7998C20.9789 13.7998 20.7998 13.9789 20.7998 14.1998C20.7998 14.4207 20.9789 14.5998 21.1998 14.5998Z" fill="#212529"/>
<path d="M19.1998 14.5998C19.4207 14.5998 19.5998 14.4207 19.5998 14.1998C19.5998 13.9789 19.4207 13.7998 19.1998 13.7998C18.9789 13.7998 18.7998 13.9789 18.7998 14.1998C18.7998 14.4207 18.9789 14.5998 19.1998 14.5998Z" fill="#212529"/>
<path d="M22.1998 13.5998C22.4207 13.5998 22.5998 13.4207 22.5998 13.1998C22.5998 12.9789 22.4207 12.7998 22.1998 12.7998C21.9789 12.7998 21.7998 12.9789 21.7998 13.1998C21.7998 13.4207 21.9789 13.5998 22.1998 13.5998Z" fill="#212529"/>
<path d="M17.3998 5.1999C17.6207 5.1999 17.7998 5.02082 17.7998 4.7999C17.7998 4.57899 17.6207 4.3999 17.3998 4.3999C17.1788 4.3999 16.9998 4.57899 16.9998 4.7999C16.9998 5.02082 17.1788 5.1999 17.3998 5.1999Z" fill="#212529"/>
<path d="M15.3998 5.1999C15.6207 5.1999 15.7998 5.02082 15.7998 4.7999C15.7998 4.57899 15.6207 4.3999 15.3998 4.3999C15.1788 4.3999 14.9998 4.57899 14.9998 4.7999C14.9998 5.02082 15.1788 5.1999 15.3998 5.1999Z" fill="#212529"/>
<path d="M16.3998 4.1999C16.6207 4.1999 16.7998 4.02082 16.7998 3.7999C16.7998 3.57899 16.6207 3.3999 16.3998 3.3999C16.1788 3.3999 15.9998 3.57899 15.9998 3.7999C15.9998 4.02082 16.1788 4.1999 16.3998 4.1999Z" fill="#212529"/>
<path d="M16.3998 2.1999C16.6207 2.1999 16.7998 2.02082 16.7998 1.7999C16.7998 1.57899 16.6207 1.3999 16.3998 1.3999C16.1788 1.3999 15.9998 1.57899 15.9998 1.7999C15.9998 2.02082 16.1788 2.1999 16.3998 2.1999Z" fill="#212529"/>
<path d="M18.3998 4.1999C18.6207 4.1999 18.7998 4.02082 18.7998 3.7999C18.7998 3.57899 18.6207 3.3999 18.3998 3.3999C18.1788 3.3999 17.9998 3.57899 17.9998 3.7999C17.9998 4.02082 18.1788 4.1999 18.3998 4.1999Z" fill="#212529"/>
<path d="M17.3998 3.1999C17.6207 3.1999 17.7998 3.02082 17.7998 2.7999C17.7998 2.57899 17.6207 2.3999 17.3998 2.3999C17.1788 2.3999 16.9998 2.57899 16.9998 2.7999C16.9998 3.02082 17.1788 3.1999 17.3998 3.1999Z" fill="#212529"/>
<path d="M15.3998 3.1999C15.6207 3.1999 15.7998 3.02082 15.7998 2.7999C15.7998 2.57899 15.6207 2.3999 15.3998 2.3999C15.1788 2.3999 14.9998 2.57899 14.9998 2.7999C14.9998 3.02082 15.1788 3.1999 15.3998 3.1999Z" fill="#212529"/>
<path d="M18.3998 2.1999C18.6207 2.1999 18.7998 2.02082 18.7998 1.7999C18.7998 1.57899 18.6207 1.3999 18.3998 1.3999C18.1788 1.3999 17.9998 1.57899 17.9998 1.7999C17.9998 2.02082 18.1788 2.1999 18.3998 2.1999Z" fill="#212529"/>
<path d="M17.3998 8.99995C17.6207 8.99995 17.7998 8.82087 17.7998 8.59995C17.7998 8.37904 17.6207 8.19995 17.3998 8.19995C17.1788 8.19995 16.9998 8.37904 16.9998 8.59995C16.9998 8.82087 17.1788 8.99995 17.3998 8.99995Z" fill="#212529"/>
<path d="M15.3998 8.99995C15.6207 8.99995 15.7998 8.82087 15.7998 8.59995C15.7998 8.37904 15.6207 8.19995 15.3998 8.19995C15.1788 8.19995 14.9998 8.37904 14.9998 8.59995C14.9998 8.82087 15.1788 8.99995 15.3998 8.99995Z" fill="#212529"/>
<path d="M16.3998 7.99995C16.6207 7.99995 16.7998 7.82087 16.7998 7.59995C16.7998 7.37904 16.6207 7.19995 16.3998 7.19995C16.1788 7.19995 15.9998 7.37904 15.9998 7.59995C15.9998 7.82087 16.1788 7.99995 16.3998 7.99995Z" fill="#212529"/>
<path d="M16.3998 5.99995C16.6207 5.99995 16.7998 5.82087 16.7998 5.59995C16.7998 5.37904 16.6207 5.19995 16.3998 5.19995C16.1788 5.19995 15.9998 5.37904 15.9998 5.59995C15.9998 5.82087 16.1788 5.99995 16.3998 5.99995Z" fill="#212529"/>
<path d="M18.3998 7.99995C18.6207 7.99995 18.7998 7.82087 18.7998 7.59995C18.7998 7.37904 18.6207 7.19995 18.3998 7.19995C18.1788 7.19995 17.9998 7.37904 17.9998 7.59995C17.9998 7.82087 18.1788 7.99995 18.3998 7.99995Z" fill="#212529"/>
<path d="M17.3998 6.99995C17.6207 6.99995 17.7998 6.82087 17.7998 6.59995C17.7998 6.37904 17.6207 6.19995 17.3998 6.19995C17.1788 6.19995 16.9998 6.37904 16.9998 6.59995C16.9998 6.82087 17.1788 6.99995 17.3998 6.99995Z" fill="#212529"/>
<path d="M15.3998 6.99995C15.6207 6.99995 15.7998 6.82087 15.7998 6.59995C15.7998 6.37904 15.6207 6.19995 15.3998 6.19995C15.1788 6.19995 14.9998 6.37904 14.9998 6.59995C14.9998 6.82087 15.1788 6.99995 15.3998 6.99995Z" fill="#212529"/>
<path d="M18.3998 5.99995C18.6207 5.99995 18.7998 5.82087 18.7998 5.59995C18.7998 5.37904 18.6207 5.19995 18.3998 5.19995C18.1788 5.19995 17.9998 5.37904 17.9998 5.59995C17.9998 5.82087 18.1788 5.99995 18.3998 5.99995Z" fill="#212529"/>
<path d="M17.3998 12.8C17.6207 12.8 17.7998 12.6209 17.7998 12.4C17.7998 12.1791 17.6207 12 17.3998 12C17.1788 12 16.9998 12.1791 16.9998 12.4C16.9998 12.6209 17.1788 12.8 17.3998 12.8Z" fill="#212529"/>
<path d="M15.3998 12.8C15.6207 12.8 15.7998 12.6209 15.7998 12.4C15.7998 12.1791 15.6207 12 15.3998 12C15.1788 12 14.9998 12.1791 14.9998 12.4C14.9998 12.6209 15.1788 12.8 15.3998 12.8Z" fill="#212529"/>
<path d="M16.3998 11.8C16.6207 11.8 16.7998 11.6209 16.7998 11.4C16.7998 11.1791 16.6207 11 16.3998 11C16.1788 11 15.9998 11.1791 15.9998 11.4C15.9998 11.6209 16.1788 11.8 16.3998 11.8Z" fill="#212529"/>
<path d="M16.3998 9.8C16.6207 9.8 16.7998 9.62091 16.7998 9.4C16.7998 9.17909 16.6207 9 16.3998 9C16.1788 9 15.9998 9.17909 15.9998 9.4C15.9998 9.62091 16.1788 9.8 16.3998 9.8Z" fill="#212529"/>
<path d="M18.3998 11.8C18.6207 11.8 18.7998 11.6209 18.7998 11.4C18.7998 11.1791 18.6207 11 18.3998 11C18.1788 11 17.9998 11.1791 17.9998 11.4C17.9998 11.6209 18.1788 11.8 18.3998 11.8Z" fill="#212529"/>
<path d="M17.3998 10.8C17.6207 10.8 17.7998 10.6209 17.7998 10.4C17.7998 10.1791 17.6207 10 17.3998 10C17.1788 10 16.9998 10.1791 16.9998 10.4C16.9998 10.6209 17.1788 10.8 17.3998 10.8Z" fill="#212529"/>
<path d="M15.3998 10.8C15.6207 10.8 15.7998 10.6209 15.7998 10.4C15.7998 10.1791 15.6207 10 15.3998 10C15.1788 10 14.9998 10.1791 14.9998 10.4C14.9998 10.6209 15.1788 10.8 15.3998 10.8Z" fill="#212529"/>
<path d="M18.3998 9.8C18.6207 9.8 18.7998 9.62091 18.7998 9.4C18.7998 9.17909 18.6207 9 18.3998 9C18.1788 9 17.9998 9.17909 17.9998 9.4C17.9998 9.62091 18.1788 9.8 18.3998 9.8Z" fill="#212529"/>
<path d="M17.3998 16.5998C17.6207 16.5998 17.7998 16.4207 17.7998 16.1998C17.7998 15.9789 17.6207 15.7998 17.3998 15.7998C17.1788 15.7998 16.9998 15.9789 16.9998 16.1998C16.9998 16.4207 17.1788 16.5998 17.3998 16.5998Z" fill="#212529"/>
<path d="M15.3998 16.5998C15.6207 16.5998 15.7998 16.4207 15.7998 16.1998C15.7998 15.9789 15.6207 15.7998 15.3998 15.7998C15.1788 15.7998 14.9998 15.9789 14.9998 16.1998C14.9998 16.4207 15.1788 16.5998 15.3998 16.5998Z" fill="#212529"/>
<path d="M16.3998 15.5998C16.6207 15.5998 16.7998 15.4207 16.7998 15.1998C16.7998 14.9789 16.6207 14.7998 16.3998 14.7998C16.1788 14.7998 15.9998 14.9789 15.9998 15.1998C15.9998 15.4207 16.1788 15.5998 16.3998 15.5998Z" fill="#212529"/>
<path d="M16.3998 13.5998C16.6207 13.5998 16.7998 13.4207 16.7998 13.1998C16.7998 12.9789 16.6207 12.7998 16.3998 12.7998C16.1788 12.7998 15.9998 12.9789 15.9998 13.1998C15.9998 13.4207 16.1788 13.5998 16.3998 13.5998Z" fill="#212529"/>
<path d="M18.3998 15.5998C18.6207 15.5998 18.7998 15.4207 18.7998 15.1998C18.7998 14.9789 18.6207 14.7998 18.3998 14.7998C18.1788 14.7998 17.9998 14.9789 17.9998 15.1998C17.9998 15.4207 18.1788 15.5998 18.3998 15.5998Z" fill="#212529"/>
<path d="M17.3998 14.5998C17.6207 14.5998 17.7998 14.4207 17.7998 14.1998C17.7998 13.9789 17.6207 13.7998 17.3998 13.7998C17.1788 13.7998 16.9998 13.9789 16.9998 14.1998C16.9998 14.4207 17.1788 14.5998 17.3998 14.5998Z" fill="#212529"/>
<path d="M15.3998 14.5998C15.6207 14.5998 15.7998 14.4207 15.7998 14.1998C15.7998 13.9789 15.6207 13.7998 15.3998 13.7998C15.1788 13.7998 14.9998 13.9789 14.9998 14.1998C14.9998 14.4207 15.1788 14.5998 15.3998 14.5998Z" fill="#212529"/>
<path d="M18.3998 13.5998C18.6207 13.5998 18.7998 13.4207 18.7998 13.1998C18.7998 12.9789 18.6207 12.7998 18.3998 12.7998C18.1788 12.7998 17.9998 12.9789 17.9998 13.1998C17.9998 13.4207 18.1788 13.5998 18.3998 13.5998Z" fill="#212529"/>
<path d="M13.5997 5.1999C13.8206 5.1999 13.9997 5.02082 13.9997 4.7999C13.9997 4.57899 13.8206 4.3999 13.5997 4.3999C13.3788 4.3999 13.1997 4.57899 13.1997 4.7999C13.1997 5.02082 13.3788 5.1999 13.5997 5.1999Z" fill="#212529"/>
<path d="M11.5997 5.1999C11.8206 5.1999 11.9997 5.02082 11.9997 4.7999C11.9997 4.57899 11.8206 4.3999 11.5997 4.3999C11.3788 4.3999 11.1997 4.57899 11.1997 4.7999C11.1997 5.02082 11.3788 5.1999 11.5997 5.1999Z" fill="#212529"/>
<path d="M12.5997 4.1999C12.8206 4.1999 12.9997 4.02082 12.9997 3.7999C12.9997 3.57899 12.8206 3.3999 12.5997 3.3999C12.3788 3.3999 12.1997 3.57899 12.1997 3.7999C12.1997 4.02082 12.3788 4.1999 12.5997 4.1999Z" fill="#212529"/>
<path d="M12.5997 2.1999C12.8206 2.1999 12.9997 2.02082 12.9997 1.7999C12.9997 1.57899 12.8206 1.3999 12.5997 1.3999C12.3788 1.3999 12.1997 1.57899 12.1997 1.7999C12.1997 2.02082 12.3788 2.1999 12.5997 2.1999Z" fill="#212529"/>
<path d="M14.5997 4.1999C14.8206 4.1999 14.9997 4.02082 14.9997 3.7999C14.9997 3.57899 14.8206 3.3999 14.5997 3.3999C14.3788 3.3999 14.1997 3.57899 14.1997 3.7999C14.1997 4.02082 14.3788 4.1999 14.5997 4.1999Z" fill="#212529"/>
<path d="M13.5997 3.1999C13.8206 3.1999 13.9997 3.02082 13.9997 2.7999C13.9997 2.57899 13.8206 2.3999 13.5997 2.3999C13.3788 2.3999 13.1997 2.57899 13.1997 2.7999C13.1997 3.02082 13.3788 3.1999 13.5997 3.1999Z" fill="#212529"/>
<path d="M11.5997 3.1999C11.8206 3.1999 11.9997 3.02082 11.9997 2.7999C11.9997 2.57899 11.8206 2.3999 11.5997 2.3999C11.3788 2.3999 11.1997 2.57899 11.1997 2.7999C11.1997 3.02082 11.3788 3.1999 11.5997 3.1999Z" fill="#212529"/>
<path d="M14.5997 2.1999C14.8206 2.1999 14.9997 2.02082 14.9997 1.7999C14.9997 1.57899 14.8206 1.3999 14.5997 1.3999C14.3788 1.3999 14.1997 1.57899 14.1997 1.7999C14.1997 2.02082 14.3788 2.1999 14.5997 2.1999Z" fill="#212529"/>
<path d="M13.5997 8.99995C13.8206 8.99995 13.9997 8.82087 13.9997 8.59995C13.9997 8.37904 13.8206 8.19995 13.5997 8.19995C13.3788 8.19995 13.1997 8.37904 13.1997 8.59995C13.1997 8.82087 13.3788 8.99995 13.5997 8.99995Z" fill="#212529"/>
<path d="M11.5997 8.99995C11.8206 8.99995 11.9997 8.82087 11.9997 8.59995C11.9997 8.37904 11.8206 8.19995 11.5997 8.19995C11.3788 8.19995 11.1997 8.37904 11.1997 8.59995C11.1997 8.82087 11.3788 8.99995 11.5997 8.99995Z" fill="#212529"/>
<path d="M12.5997 7.99995C12.8206 7.99995 12.9997 7.82087 12.9997 7.59995C12.9997 7.37904 12.8206 7.19995 12.5997 7.19995C12.3788 7.19995 12.1997 7.37904 12.1997 7.59995C12.1997 7.82087 12.3788 7.99995 12.5997 7.99995Z" fill="#212529"/>
<path d="M12.5997 5.99995C12.8206 5.99995 12.9997 5.82087 12.9997 5.59995C12.9997 5.37904 12.8206 5.19995 12.5997 5.19995C12.3788 5.19995 12.1997 5.37904 12.1997 5.59995C12.1997 5.82087 12.3788 5.99995 12.5997 5.99995Z" fill="#212529"/>
<path d="M14.5997 7.99995C14.8206 7.99995 14.9997 7.82087 14.9997 7.59995C14.9997 7.37904 14.8206 7.19995 14.5997 7.19995C14.3788 7.19995 14.1997 7.37904 14.1997 7.59995C14.1997 7.82087 14.3788 7.99995 14.5997 7.99995Z" fill="#212529"/>
<path d="M13.5997 6.99995C13.8206 6.99995 13.9997 6.82087 13.9997 6.59995C13.9997 6.37904 13.8206 6.19995 13.5997 6.19995C13.3788 6.19995 13.1997 6.37904 13.1997 6.59995C13.1997 6.82087 13.3788 6.99995 13.5997 6.99995Z" fill="#212529"/>
<path d="M11.5997 6.99995C11.8206 6.99995 11.9997 6.82087 11.9997 6.59995C11.9997 6.37904 11.8206 6.19995 11.5997 6.19995C11.3788 6.19995 11.1997 6.37904 11.1997 6.59995C11.1997 6.82087 11.3788 6.99995 11.5997 6.99995Z" fill="#212529"/>
<path d="M14.5997 5.99995C14.8206 5.99995 14.9997 5.82087 14.9997 5.59995C14.9997 5.37904 14.8206 5.19995 14.5997 5.19995C14.3788 5.19995 14.1997 5.37904 14.1997 5.59995C14.1997 5.82087 14.3788 5.99995 14.5997 5.99995Z" fill="#212529"/>
<path d="M13.5997 12.8C13.8206 12.8 13.9997 12.6209 13.9997 12.4C13.9997 12.1791 13.8206 12 13.5997 12C13.3788 12 13.1997 12.1791 13.1997 12.4C13.1997 12.6209 13.3788 12.8 13.5997 12.8Z" fill="#212529"/>
<path d="M11.5997 12.8C11.8206 12.8 11.9997 12.6209 11.9997 12.4C11.9997 12.1791 11.8206 12 11.5997 12C11.3788 12 11.1997 12.1791 11.1997 12.4C11.1997 12.6209 11.3788 12.8 11.5997 12.8Z" fill="#212529"/>
<path d="M12.5997 11.8C12.8206 11.8 12.9997 11.6209 12.9997 11.4C12.9997 11.1791 12.8206 11 12.5997 11C12.3788 11 12.1997 11.1791 12.1997 11.4C12.1997 11.6209 12.3788 11.8 12.5997 11.8Z" fill="#212529"/>
<path d="M12.5997 9.8C12.8206 9.8 12.9997 9.62091 12.9997 9.4C12.9997 9.17909 12.8206 9 12.5997 9C12.3788 9 12.1997 9.17909 12.1997 9.4C12.1997 9.62091 12.3788 9.8 12.5997 9.8Z" fill="#212529"/>
<path d="M14.5997 11.8C14.8206 11.8 14.9997 11.6209 14.9997 11.4C14.9997 11.1791 14.8206 11 14.5997 11C14.3788 11 14.1997 11.1791 14.1997 11.4C14.1997 11.6209 14.3788 11.8 14.5997 11.8Z" fill="#212529"/>
<path d="M13.5997 10.8C13.8206 10.8 13.9997 10.6209 13.9997 10.4C13.9997 10.1791 13.8206 10 13.5997 10C13.3788 10 13.1997 10.1791 13.1997 10.4C13.1997 10.6209 13.3788 10.8 13.5997 10.8Z" fill="#212529"/>
<path d="M11.5997 10.8C11.8206 10.8 11.9997 10.6209 11.9997 10.4C11.9997 10.1791 11.8206 10 11.5997 10C11.3788 10 11.1997 10.1791 11.1997 10.4C11.1997 10.6209 11.3788 10.8 11.5997 10.8Z" fill="#212529"/>
<path d="M14.5997 9.8C14.8206 9.8 14.9997 9.62091 14.9997 9.4C14.9997 9.17909 14.8206 9 14.5997 9C14.3788 9 14.1997 9.17909 14.1997 9.4C14.1997 9.62091 14.3788 9.8 14.5997 9.8Z" fill="#212529"/>
<path d="M13.5997 16.5998C13.8206 16.5998 13.9997 16.4207 13.9997 16.1998C13.9997 15.9789 13.8206 15.7998 13.5997 15.7998C13.3788 15.7998 13.1997 15.9789 13.1997 16.1998C13.1997 16.4207 13.3788 16.5998 13.5997 16.5998Z" fill="#212529"/>
<path d="M11.5997 16.5998C11.8206 16.5998 11.9997 16.4207 11.9997 16.1998C11.9997 15.9789 11.8206 15.7998 11.5997 15.7998C11.3788 15.7998 11.1997 15.9789 11.1997 16.1998C11.1997 16.4207 11.3788 16.5998 11.5997 16.5998Z" fill="#212529"/>
<path d="M12.5997 15.5998C12.8206 15.5998 12.9997 15.4207 12.9997 15.1998C12.9997 14.9789 12.8206 14.7998 12.5997 14.7998C12.3788 14.7998 12.1997 14.9789 12.1997 15.1998C12.1997 15.4207 12.3788 15.5998 12.5997 15.5998Z" fill="#212529"/>
<path d="M12.5997 13.5998C12.8206 13.5998 12.9997 13.4207 12.9997 13.1998C12.9997 12.9789 12.8206 12.7998 12.5997 12.7998C12.3788 12.7998 12.1997 12.9789 12.1997 13.1998C12.1997 13.4207 12.3788 13.5998 12.5997 13.5998Z" fill="#212529"/>
<path d="M14.5997 15.5998C14.8206 15.5998 14.9997 15.4207 14.9997 15.1998C14.9997 14.9789 14.8206 14.7998 14.5997 14.7998C14.3788 14.7998 14.1997 14.9789 14.1997 15.1998C14.1997 15.4207 14.3788 15.5998 14.5997 15.5998Z" fill="#212529"/>
<path d="M13.5997 14.5998C13.8206 14.5998 13.9997 14.4207 13.9997 14.1998C13.9997 13.9789 13.8206 13.7998 13.5997 13.7998C13.3788 13.7998 13.1997 13.9789 13.1997 14.1998C13.1997 14.4207 13.3788 14.5998 13.5997 14.5998Z" fill="#212529"/>
<path d="M11.5997 14.5998C11.8206 14.5998 11.9997 14.4207 11.9997 14.1998C11.9997 13.9789 11.8206 13.7998 11.5997 13.7998C11.3788 13.7998 11.1997 13.9789 11.1997 14.1998C11.1997 14.4207 11.3788 14.5998 11.5997 14.5998Z" fill="#212529"/>
<path d="M14.5997 13.5998C14.8206 13.5998 14.9997 13.4207 14.9997 13.1998C14.9997 12.9789 14.8206 12.7998 14.5997 12.7998C14.3788 12.7998 14.1997 12.9789 14.1997 13.1998C14.1997 13.4207 14.3788 13.5998 14.5997 13.5998Z" fill="#212529"/>
<path d="M9.7999 5.1999C10.0208 5.1999 10.1999 5.02082 10.1999 4.7999C10.1999 4.57899 10.0208 4.3999 9.7999 4.3999C9.57899 4.3999 9.3999 4.57899 9.3999 4.7999C9.3999 5.02082 9.57899 5.1999 9.7999 5.1999Z" fill="#212529"/>
<path d="M7.7999 5.1999C8.02082 5.1999 8.1999 5.02082 8.1999 4.7999C8.1999 4.57899 8.02082 4.3999 7.7999 4.3999C7.57899 4.3999 7.3999 4.57899 7.3999 4.7999C7.3999 5.02082 7.57899 5.1999 7.7999 5.1999Z" fill="#212529"/>
<path d="M8.7999 4.1999C9.02082 4.1999 9.1999 4.02082 9.1999 3.7999C9.1999 3.57899 9.02082 3.3999 8.7999 3.3999C8.57899 3.3999 8.3999 3.57899 8.3999 3.7999C8.3999 4.02082 8.57899 4.1999 8.7999 4.1999Z" fill="#212529"/>
<path d="M8.7999 2.1999C9.02082 2.1999 9.1999 2.02082 9.1999 1.7999C9.1999 1.57899 9.02082 1.3999 8.7999 1.3999C8.57899 1.3999 8.3999 1.57899 8.3999 1.7999C8.3999 2.02082 8.57899 2.1999 8.7999 2.1999Z" fill="#212529"/>
<path d="M10.7999 4.1999C11.0208 4.1999 11.1999 4.02082 11.1999 3.7999C11.1999 3.57899 11.0208 3.3999 10.7999 3.3999C10.579 3.3999 10.3999 3.57899 10.3999 3.7999C10.3999 4.02082 10.579 4.1999 10.7999 4.1999Z" fill="#212529"/>
<path d="M9.7999 3.1999C10.0208 3.1999 10.1999 3.02082 10.1999 2.7999C10.1999 2.57899 10.0208 2.3999 9.7999 2.3999C9.57899 2.3999 9.3999 2.57899 9.3999 2.7999C9.3999 3.02082 9.57899 3.1999 9.7999 3.1999Z" fill="#212529"/>
<path d="M7.7999 3.1999C8.02082 3.1999 8.1999 3.02082 8.1999 2.7999C8.1999 2.57899 8.02082 2.3999 7.7999 2.3999C7.57899 2.3999 7.3999 2.57899 7.3999 2.7999C7.3999 3.02082 7.57899 3.1999 7.7999 3.1999Z" fill="#212529"/>
<path d="M10.7999 2.1999C11.0208 2.1999 11.1999 2.02082 11.1999 1.7999C11.1999 1.57899 11.0208 1.3999 10.7999 1.3999C10.579 1.3999 10.3999 1.57899 10.3999 1.7999C10.3999 2.02082 10.579 2.1999 10.7999 2.1999Z" fill="#212529"/>
<path d="M9.7999 8.99995C10.0208 8.99995 10.1999 8.82087 10.1999 8.59995C10.1999 8.37904 10.0208 8.19995 9.7999 8.19995C9.57899 8.19995 9.3999 8.37904 9.3999 8.59995C9.3999 8.82087 9.57899 8.99995 9.7999 8.99995Z" fill="#212529"/>
<path d="M7.7999 8.99995C8.02082 8.99995 8.1999 8.82087 8.1999 8.59995C8.1999 8.37904 8.02082 8.19995 7.7999 8.19995C7.57899 8.19995 7.3999 8.37904 7.3999 8.59995C7.3999 8.82087 7.57899 8.99995 7.7999 8.99995Z" fill="#212529"/>
<path d="M8.7999 7.99995C9.02082 7.99995 9.1999 7.82087 9.1999 7.59995C9.1999 7.37904 9.02082 7.19995 8.7999 7.19995C8.57899 7.19995 8.3999 7.37904 8.3999 7.59995C8.3999 7.82087 8.57899 7.99995 8.7999 7.99995Z" fill="#212529"/>
<path d="M8.7999 5.99995C9.02082 5.99995 9.1999 5.82087 9.1999 5.59995C9.1999 5.37904 9.02082 5.19995 8.7999 5.19995C8.57899 5.19995 8.3999 5.37904 8.3999 5.59995C8.3999 5.82087 8.57899 5.99995 8.7999 5.99995Z" fill="#212529"/>
<path d="M10.7999 7.99995C11.0208 7.99995 11.1999 7.82087 11.1999 7.59995C11.1999 7.37904 11.0208 7.19995 10.7999 7.19995C10.579 7.19995 10.3999 7.37904 10.3999 7.59995C10.3999 7.82087 10.579 7.99995 10.7999 7.99995Z" fill="#212529"/>
<path d="M9.7999 6.99995C10.0208 6.99995 10.1999 6.82087 10.1999 6.59995C10.1999 6.37904 10.0208 6.19995 9.7999 6.19995C9.57899 6.19995 9.3999 6.37904 9.3999 6.59995C9.3999 6.82087 9.57899 6.99995 9.7999 6.99995Z" fill="#212529"/>
<path d="M7.7999 6.99995C8.02082 6.99995 8.1999 6.82087 8.1999 6.59995C8.1999 6.37904 8.02082 6.19995 7.7999 6.19995C7.57899 6.19995 7.3999 6.37904 7.3999 6.59995C7.3999 6.82087 7.57899 6.99995 7.7999 6.99995Z" fill="#212529"/>
<path d="M10.7999 5.99995C11.0208 5.99995 11.1999 5.82087 11.1999 5.59995C11.1999 5.37904 11.0208 5.19995 10.7999 5.19995C10.579 5.19995 10.3999 5.37904 10.3999 5.59995C10.3999 5.82087 10.579 5.99995 10.7999 5.99995Z" fill="#212529"/>
<path d="M9.7999 12.8C10.0208 12.8 10.1999 12.6209 10.1999 12.4C10.1999 12.1791 10.0208 12 9.7999 12C9.57899 12 9.3999 12.1791 9.3999 12.4C9.3999 12.6209 9.57899 12.8 9.7999 12.8Z" fill="#212529"/>
<path d="M7.7999 12.8C8.02082 12.8 8.1999 12.6209 8.1999 12.4C8.1999 12.1791 8.02082 12 7.7999 12C7.57899 12 7.3999 12.1791 7.3999 12.4C7.3999 12.6209 7.57899 12.8 7.7999 12.8Z" fill="#212529"/>
<path d="M8.7999 11.8C9.02082 11.8 9.1999 11.6209 9.1999 11.4C9.1999 11.1791 9.02082 11 8.7999 11C8.57899 11 8.3999 11.1791 8.3999 11.4C8.3999 11.6209 8.57899 11.8 8.7999 11.8Z" fill="#212529"/>
<path d="M8.7999 9.8C9.02082 9.8 9.1999 9.62091 9.1999 9.4C9.1999 9.17909 9.02082 9 8.7999 9C8.57899 9 8.3999 9.17909 8.3999 9.4C8.3999 9.62091 8.57899 9.8 8.7999 9.8Z" fill="#212529"/>
<path d="M10.7999 11.8C11.0208 11.8 11.1999 11.6209 11.1999 11.4C11.1999 11.1791 11.0208 11 10.7999 11C10.579 11 10.3999 11.1791 10.3999 11.4C10.3999 11.6209 10.579 11.8 10.7999 11.8Z" fill="#212529"/>
<path d="M9.7999 10.8C10.0208 10.8 10.1999 10.6209 10.1999 10.4C10.1999 10.1791 10.0208 10 9.7999 10C9.57899 10 9.3999 10.1791 9.3999 10.4C9.3999 10.6209 9.57899 10.8 9.7999 10.8Z" fill="#212529"/>
<path d="M7.7999 10.8C8.02082 10.8 8.1999 10.6209 8.1999 10.4C8.1999 10.1791 8.02082 10 7.7999 10C7.57899 10 7.3999 10.1791 7.3999 10.4C7.3999 10.6209 7.57899 10.8 7.7999 10.8Z" fill="#212529"/>
<path d="M10.7999 9.8C11.0208 9.8 11.1999 9.62091 11.1999 9.4C11.1999 9.17909 11.0208 9 10.7999 9C10.579 9 10.3999 9.17909 10.3999 9.4C10.3999 9.62091 10.579 9.8 10.7999 9.8Z" fill="#212529"/>
<path d="M9.7999 16.5998C10.0208 16.5998 10.1999 16.4207 10.1999 16.1998C10.1999 15.9789 10.0208 15.7998 9.7999 15.7998C9.57899 15.7998 9.3999 15.9789 9.3999 16.1998C9.3999 16.4207 9.57899 16.5998 9.7999 16.5998Z" fill="#212529"/>
<path d="M7.7999 16.5998C8.02082 16.5998 8.1999 16.4207 8.1999 16.1998C8.1999 15.9789 8.02082 15.7998 7.7999 15.7998C7.57899 15.7998 7.3999 15.9789 7.3999 16.1998C7.3999 16.4207 7.57899 16.5998 7.7999 16.5998Z" fill="#212529"/>
<path d="M8.7999 15.5998C9.02082 15.5998 9.1999 15.4207 9.1999 15.1998C9.1999 14.9789 9.02082 14.7998 8.7999 14.7998C8.57899 14.7998 8.3999 14.9789 8.3999 15.1998C8.3999 15.4207 8.57899 15.5998 8.7999 15.5998Z" fill="#212529"/>
<path d="M8.7999 13.5998C9.02082 13.5998 9.1999 13.4207 9.1999 13.1998C9.1999 12.9789 9.02082 12.7998 8.7999 12.7998C8.57899 12.7998 8.3999 12.9789 8.3999 13.1998C8.3999 13.4207 8.57899 13.5998 8.7999 13.5998Z" fill="#212529"/>
<path d="M10.7999 15.5998C11.0208 15.5998 11.1999 15.4207 11.1999 15.1998C11.1999 14.9789 11.0208 14.7998 10.7999 14.7998C10.579 14.7998 10.3999 14.9789 10.3999 15.1998C10.3999 15.4207 10.579 15.5998 10.7999 15.5998Z" fill="#212529"/>
<path d="M9.7999 14.5998C10.0208 14.5998 10.1999 14.4207 10.1999 14.1998C10.1999 13.9789 10.0208 13.7998 9.7999 13.7998C9.57899 13.7998 9.3999 13.9789 9.3999 14.1998C9.3999 14.4207 9.57899 14.5998 9.7999 14.5998Z" fill="#212529"/>
<path d="M7.7999 14.5998C8.02082 14.5998 8.1999 14.4207 8.1999 14.1998C8.1999 13.9789 8.02082 13.7998 7.7999 13.7998C7.57899 13.7998 7.3999 13.9789 7.3999 14.1998C7.3999 14.4207 7.57899 14.5998 7.7999 14.5998Z" fill="#212529"/>
<path d="M10.7999 13.5998C11.0208 13.5998 11.1999 13.4207 11.1999 13.1998C11.1999 12.9789 11.0208 12.7998 10.7999 12.7998C10.579 12.7998 10.3999 12.9789 10.3999 13.1998C10.3999 13.4207 10.579 13.5998 10.7999 13.5998Z" fill="#212529"/>
<path d="M5.99985 5.1999C6.22077 5.1999 6.39985 5.02082 6.39985 4.7999C6.39985 4.57899 6.22077 4.3999 5.99985 4.3999C5.77894 4.3999 5.59985 4.57899 5.59985 4.7999C5.59985 5.02082 5.77894 5.1999 5.99985 5.1999Z" fill="#212529"/>
<path d="M3.99985 5.1999C4.22077 5.1999 4.39985 5.02082 4.39985 4.7999C4.39985 4.57899 4.22077 4.3999 3.99985 4.3999C3.77894 4.3999 3.59985 4.57899 3.59985 4.7999C3.59985 5.02082 3.77894 5.1999 3.99985 5.1999Z" fill="#212529"/>
<path d="M4.99985 4.1999C5.22077 4.1999 5.39985 4.02082 5.39985 3.7999C5.39985 3.57899 5.22077 3.3999 4.99985 3.3999C4.77894 3.3999 4.59985 3.57899 4.59985 3.7999C4.59985 4.02082 4.77894 4.1999 4.99985 4.1999Z" fill="#212529"/>
<path d="M4.99985 2.1999C5.22077 2.1999 5.39985 2.02082 5.39985 1.7999C5.39985 1.57899 5.22077 1.3999 4.99985 1.3999C4.77894 1.3999 4.59985 1.57899 4.59985 1.7999C4.59985 2.02082 4.77894 2.1999 4.99985 2.1999Z" fill="#212529"/>
<path d="M6.99985 4.1999C7.22077 4.1999 7.39985 4.02082 7.39985 3.7999C7.39985 3.57899 7.22077 3.3999 6.99985 3.3999C6.77894 3.3999 6.59985 3.57899 6.59985 3.7999C6.59985 4.02082 6.77894 4.1999 6.99985 4.1999Z" fill="#212529"/>
<path d="M5.99985 3.1999C6.22077 3.1999 6.39985 3.02082 6.39985 2.7999C6.39985 2.57899 6.22077 2.3999 5.99985 2.3999C5.77894 2.3999 5.59985 2.57899 5.59985 2.7999C5.59985 3.02082 5.77894 3.1999 5.99985 3.1999Z" fill="#212529"/>
<path d="M3.99985 3.1999C4.22077 3.1999 4.39985 3.02082 4.39985 2.7999C4.39985 2.57899 4.22077 2.3999 3.99985 2.3999C3.77894 2.3999 3.59985 2.57899 3.59985 2.7999C3.59985 3.02082 3.77894 3.1999 3.99985 3.1999Z" fill="#212529"/>
<path d="M6.99985 2.1999C7.22077 2.1999 7.39985 2.02082 7.39985 1.7999C7.39985 1.57899 7.22077 1.3999 6.99985 1.3999C6.77894 1.3999 6.59985 1.57899 6.59985 1.7999C6.59985 2.02082 6.77894 2.1999 6.99985 2.1999Z" fill="#212529"/>
<path d="M5.99985 8.99995C6.22077 8.99995 6.39985 8.82087 6.39985 8.59995C6.39985 8.37904 6.22077 8.19995 5.99985 8.19995C5.77894 8.19995 5.59985 8.37904 5.59985 8.59995C5.59985 8.82087 5.77894 8.99995 5.99985 8.99995Z" fill="#212529"/>
<path d="M3.99985 8.99995C4.22077 8.99995 4.39985 8.82087 4.39985 8.59995C4.39985 8.37904 4.22077 8.19995 3.99985 8.19995C3.77894 8.19995 3.59985 8.37904 3.59985 8.59995C3.59985 8.82087 3.77894 8.99995 3.99985 8.99995Z" fill="#212529"/>
<path d="M4.99985 7.99995C5.22077 7.99995 5.39985 7.82087 5.39985 7.59995C5.39985 7.37904 5.22077 7.19995 4.99985 7.19995C4.77894 7.19995 4.59985 7.37904 4.59985 7.59995C4.59985 7.82087 4.77894 7.99995 4.99985 7.99995Z" fill="#212529"/>
<path d="M4.99985 5.99995C5.22077 5.99995 5.39985 5.82087 5.39985 5.59995C5.39985 5.37904 5.22077 5.19995 4.99985 5.19995C4.77894 5.19995 4.59985 5.37904 4.59985 5.59995C4.59985 5.82087 4.77894 5.99995 4.99985 5.99995Z" fill="#212529"/>
<path d="M6.99985 7.99995C7.22077 7.99995 7.39985 7.82087 7.39985 7.59995C7.39985 7.37904 7.22077 7.19995 6.99985 7.19995C6.77894 7.19995 6.59985 7.37904 6.59985 7.59995C6.59985 7.82087 6.77894 7.99995 6.99985 7.99995Z" fill="#212529"/>
<path d="M5.99985 6.99995C6.22077 6.99995 6.39985 6.82087 6.39985 6.59995C6.39985 6.37904 6.22077 6.19995 5.99985 6.19995C5.77894 6.19995 5.59985 6.37904 5.59985 6.59995C5.59985 6.82087 5.77894 6.99995 5.99985 6.99995Z" fill="#212529"/>
<path d="M3.99985 6.99995C4.22077 6.99995 4.39985 6.82087 4.39985 6.59995C4.39985 6.37904 4.22077 6.19995 3.99985 6.19995C3.77894 6.19995 3.59985 6.37904 3.59985 6.59995C3.59985 6.82087 3.77894 6.99995 3.99985 6.99995Z" fill="#212529"/>
<path d="M6.99985 5.99995C7.22077 5.99995 7.39985 5.82087 7.39985 5.59995C7.39985 5.37904 7.22077 5.19995 6.99985 5.19995C6.77894 5.19995 6.59985 5.37904 6.59985 5.59995C6.59985 5.82087 6.77894 5.99995 6.99985 5.99995Z" fill="#212529"/>
<path d="M5.99985 12.8C6.22077 12.8 6.39985 12.6209 6.39985 12.4C6.39985 12.1791 6.22077 12 5.99985 12C5.77894 12 5.59985 12.1791 5.59985 12.4C5.59985 12.6209 5.77894 12.8 5.99985 12.8Z" fill="#212529"/>
<path d="M3.99985 12.8C4.22077 12.8 4.39985 12.6209 4.39985 12.4C4.39985 12.1791 4.22077 12 3.99985 12C3.77894 12 3.59985 12.1791 3.59985 12.4C3.59985 12.6209 3.77894 12.8 3.99985 12.8Z" fill="#212529"/>
<path d="M4.99985 11.8C5.22077 11.8 5.39985 11.6209 5.39985 11.4C5.39985 11.1791 5.22077 11 4.99985 11C4.77894 11 4.59985 11.1791 4.59985 11.4C4.59985 11.6209 4.77894 11.8 4.99985 11.8Z" fill="#212529"/>
<path d="M4.99985 9.8C5.22077 9.8 5.39985 9.62091 5.39985 9.4C5.39985 9.17909 5.22077 9 4.99985 9C4.77894 9 4.59985 9.17909 4.59985 9.4C4.59985 9.62091 4.77894 9.8 4.99985 9.8Z" fill="#212529"/>
<path d="M6.99985 11.8C7.22077 11.8 7.39985 11.6209 7.39985 11.4C7.39985 11.1791 7.22077 11 6.99985 11C6.77894 11 6.59985 11.1791 6.59985 11.4C6.59985 11.6209 6.77894 11.8 6.99985 11.8Z" fill="#212529"/>
<path d="M5.99985 10.8C6.22077 10.8 6.39985 10.6209 6.39985 10.4C6.39985 10.1791 6.22077 10 5.99985 10C5.77894 10 5.59985 10.1791 5.59985 10.4C5.59985 10.6209 5.77894 10.8 5.99985 10.8Z" fill="#212529"/>
<path d="M3.99985 10.8C4.22077 10.8 4.39985 10.6209 4.39985 10.4C4.39985 10.1791 4.22077 10 3.99985 10C3.77894 10 3.59985 10.1791 3.59985 10.4C3.59985 10.6209 3.77894 10.8 3.99985 10.8Z" fill="#212529"/>
<path d="M6.99985 9.8C7.22077 9.8 7.39985 9.62091 7.39985 9.4C7.39985 9.17909 7.22077 9 6.99985 9C6.77894 9 6.59985 9.17909 6.59985 9.4C6.59985 9.62091 6.77894 9.8 6.99985 9.8Z" fill="#212529"/>
<path d="M5.99985 16.5998C6.22077 16.5998 6.39985 16.4207 6.39985 16.1998C6.39985 15.9789 6.22077 15.7998 5.99985 15.7998C5.77894 15.7998 5.59985 15.9789 5.59985 16.1998C5.59985 16.4207 5.77894 16.5998 5.99985 16.5998Z" fill="#212529"/>
<path d="M3.99985 16.5998C4.22077 16.5998 4.39985 16.4207 4.39985 16.1998C4.39985 15.9789 4.22077 15.7998 3.99985 15.7998C3.77894 15.7998 3.59985 15.9789 3.59985 16.1998C3.59985 16.4207 3.77894 16.5998 3.99985 16.5998Z" fill="#212529"/>
<path d="M4.99985 15.5998C5.22077 15.5998 5.39985 15.4207 5.39985 15.1998C5.39985 14.9789 5.22077 14.7998 4.99985 14.7998C4.77894 14.7998 4.59985 14.9789 4.59985 15.1998C4.59985 15.4207 4.77894 15.5998 4.99985 15.5998Z" fill="#212529"/>
<path d="M4.99985 13.5998C5.22077 13.5998 5.39985 13.4207 5.39985 13.1998C5.39985 12.9789 5.22077 12.7998 4.99985 12.7998C4.77894 12.7998 4.59985 12.9789 4.59985 13.1998C4.59985 13.4207 4.77894 13.5998 4.99985 13.5998Z" fill="#212529"/>
<path d="M6.99985 15.5998C7.22077 15.5998 7.39985 15.4207 7.39985 15.1998C7.39985 14.9789 7.22077 14.7998 6.99985 14.7998C6.77894 14.7998 6.59985 14.9789 6.59985 15.1998C6.59985 15.4207 6.77894 15.5998 6.99985 15.5998Z" fill="#212529"/>
<path d="M5.99985 14.5998C6.22077 14.5998 6.39985 14.4207 6.39985 14.1998C6.39985 13.9789 6.22077 13.7998 5.99985 13.7998C5.77894 13.7998 5.59985 13.9789 5.59985 14.1998C5.59985 14.4207 5.77894 14.5998 5.99985 14.5998Z" fill="#212529"/>
<path d="M3.99985 14.5998C4.22077 14.5998 4.39985 14.4207 4.39985 14.1998C4.39985 13.9789 4.22077 13.7998 3.99985 13.7998C3.77894 13.7998 3.59985 13.9789 3.59985 14.1998C3.59985 14.4207 3.77894 14.5998 3.99985 14.5998Z" fill="#212529"/>
<path d="M6.99985 13.5998C7.22077 13.5998 7.39985 13.4207 7.39985 13.1998C7.39985 12.9789 7.22077 12.7998 6.99985 12.7998C6.77894 12.7998 6.59985 12.9789 6.59985 13.1998C6.59985 13.4207 6.77894 13.5998 6.99985 13.5998Z" fill="#212529"/>
<path d="M2.1998 5.1999C2.42072 5.1999 2.5998 5.02082 2.5998 4.7999C2.5998 4.57899 2.42072 4.3999 2.1998 4.3999C1.97889 4.3999 1.7998 4.57899 1.7998 4.7999C1.7998 5.02082 1.97889 5.1999 2.1998 5.1999Z" fill="#212529"/>
<path d="M0.199805 5.1999C0.420719 5.1999 0.599805 5.02082 0.599805 4.7999C0.599805 4.57899 0.420719 4.3999 0.199805 4.3999C-0.0211092 4.3999 -0.200195 4.57899 -0.200195 4.7999C-0.200195 5.02082 -0.0211092 5.1999 0.199805 5.1999Z" fill="#212529"/>
<path d="M1.1998 4.1999C1.42072 4.1999 1.5998 4.02082 1.5998 3.7999C1.5998 3.57899 1.42072 3.3999 1.1998 3.3999C0.978891 3.3999 0.799805 3.57899 0.799805 3.7999C0.799805 4.02082 0.978891 4.1999 1.1998 4.1999Z" fill="#212529"/>
<path d="M1.1998 2.1999C1.42072 2.1999 1.5998 2.02082 1.5998 1.7999C1.5998 1.57899 1.42072 1.3999 1.1998 1.3999C0.978891 1.3999 0.799805 1.57899 0.799805 1.7999C0.799805 2.02082 0.978891 2.1999 1.1998 2.1999Z" fill="#212529"/>
<path d="M3.1998 4.1999C3.42072 4.1999 3.5998 4.02082 3.5998 3.7999C3.5998 3.57899 3.42072 3.3999 3.1998 3.3999C2.97889 3.3999 2.7998 3.57899 2.7998 3.7999C2.7998 4.02082 2.97889 4.1999 3.1998 4.1999Z" fill="#212529"/>
<path d="M2.1998 3.1999C2.42072 3.1999 2.5998 3.02082 2.5998 2.7999C2.5998 2.57899 2.42072 2.3999 2.1998 2.3999C1.97889 2.3999 1.7998 2.57899 1.7998 2.7999C1.7998 3.02082 1.97889 3.1999 2.1998 3.1999Z" fill="#212529"/>
<path d="M0.199805 3.1999C0.420719 3.1999 0.599805 3.02082 0.599805 2.7999C0.599805 2.57899 0.420719 2.3999 0.199805 2.3999C-0.0211092 2.3999 -0.200195 2.57899 -0.200195 2.7999C-0.200195 3.02082 -0.0211092 3.1999 0.199805 3.1999Z" fill="#212529"/>
<path d="M3.1998 2.1999C3.42072 2.1999 3.5998 2.02082 3.5998 1.7999C3.5998 1.57899 3.42072 1.3999 3.1998 1.3999C2.97889 1.3999 2.7998 1.57899 2.7998 1.7999C2.7998 2.02082 2.97889 2.1999 3.1998 2.1999Z" fill="#212529"/>
<path d="M2.1998 8.99995C2.42072 8.99995 2.5998 8.82087 2.5998 8.59995C2.5998 8.37904 2.42072 8.19995 2.1998 8.19995C1.97889 8.19995 1.7998 8.37904 1.7998 8.59995C1.7998 8.82087 1.97889 8.99995 2.1998 8.99995Z" fill="#212529"/>
<path d="M0.199805 8.99995C0.420719 8.99995 0.599805 8.82087 0.599805 8.59995C0.599805 8.37904 0.420719 8.19995 0.199805 8.19995C-0.0211092 8.19995 -0.200195 8.37904 -0.200195 8.59995C-0.200195 8.82087 -0.0211092 8.99995 0.199805 8.99995Z" fill="#212529"/>
<path d="M1.1998 7.99995C1.42072 7.99995 1.5998 7.82087 1.5998 7.59995C1.5998 7.37904 1.42072 7.19995 1.1998 7.19995C0.978891 7.19995 0.799805 7.37904 0.799805 7.59995C0.799805 7.82087 0.978891 7.99995 1.1998 7.99995Z" fill="#212529"/>
<path d="M1.1998 5.99995C1.42072 5.99995 1.5998 5.82087 1.5998 5.59995C1.5998 5.37904 1.42072 5.19995 1.1998 5.19995C0.978891 5.19995 0.799805 5.37904 0.799805 5.59995C0.799805 5.82087 0.978891 5.99995 1.1998 5.99995Z" fill="#212529"/>
<path d="M3.1998 7.99995C3.42072 7.99995 3.5998 7.82087 3.5998 7.59995C3.5998 7.37904 3.42072 7.19995 3.1998 7.19995C2.97889 7.19995 2.7998 7.37904 2.7998 7.59995C2.7998 7.82087 2.97889 7.99995 3.1998 7.99995Z" fill="#212529"/>
<path d="M2.1998 6.99995C2.42072 6.99995 2.5998 6.82087 2.5998 6.59995C2.5998 6.37904 2.42072 6.19995 2.1998 6.19995C1.97889 6.19995 1.7998 6.37904 1.7998 6.59995C1.7998 6.82087 1.97889 6.99995 2.1998 6.99995Z" fill="#212529"/>
<path d="M0.199805 6.99995C0.420719 6.99995 0.599805 6.82087 0.599805 6.59995C0.599805 6.37904 0.420719 6.19995 0.199805 6.19995C-0.0211092 6.19995 -0.200195 6.37904 -0.200195 6.59995C-0.200195 6.82087 -0.0211092 6.99995 0.199805 6.99995Z" fill="#212529"/>
<path d="M3.1998 5.99995C3.42072 5.99995 3.5998 5.82087 3.5998 5.59995C3.5998 5.37904 3.42072 5.19995 3.1998 5.19995C2.97889 5.19995 2.7998 5.37904 2.7998 5.59995C2.7998 5.82087 2.97889 5.99995 3.1998 5.99995Z" fill="#212529"/>
<path d="M2.1998 12.8C2.42072 12.8 2.5998 12.6209 2.5998 12.4C2.5998 12.1791 2.42072 12 2.1998 12C1.97889 12 1.7998 12.1791 1.7998 12.4C1.7998 12.6209 1.97889 12.8 2.1998 12.8Z" fill="#212529"/>
<path d="M0.199805 12.8C0.420719 12.8 0.599805 12.6209 0.599805 12.4C0.599805 12.1791 0.420719 12 0.199805 12C-0.0211092 12 -0.200195 12.1791 -0.200195 12.4C-0.200195 12.6209 -0.0211092 12.8 0.199805 12.8Z" fill="#212529"/>
<path d="M1.1998 11.8C1.42072 11.8 1.5998 11.6209 1.5998 11.4C1.5998 11.1791 1.42072 11 1.1998 11C0.978891 11 0.799805 11.1791 0.799805 11.4C0.799805 11.6209 0.978891 11.8 1.1998 11.8Z" fill="#212529"/>
<path d="M1.1998 9.8C1.42072 9.8 1.5998 9.62091 1.5998 9.4C1.5998 9.17909 1.42072 9 1.1998 9C0.978891 9 0.799805 9.17909 0.799805 9.4C0.799805 9.62091 0.978891 9.8 1.1998 9.8Z" fill="#212529"/>
<path d="M3.1998 11.8C3.42072 11.8 3.5998 11.6209 3.5998 11.4C3.5998 11.1791 3.42072 11 3.1998 11C2.97889 11 2.7998 11.1791 2.7998 11.4C2.7998 11.6209 2.97889 11.8 3.1998 11.8Z" fill="#212529"/>
<path d="M2.1998 10.8C2.42072 10.8 2.5998 10.6209 2.5998 10.4C2.5998 10.1791 2.42072 10 2.1998 10C1.97889 10 1.7998 10.1791 1.7998 10.4C1.7998 10.6209 1.97889 10.8 2.1998 10.8Z" fill="#212529"/>
<path d="M0.199805 10.8C0.420719 10.8 0.599805 10.6209 0.599805 10.4C0.599805 10.1791 0.420719 10 0.199805 10C-0.0211092 10 -0.200195 10.1791 -0.200195 10.4C-0.200195 10.6209 -0.0211092 10.8 0.199805 10.8Z" fill="#212529"/>
<path d="M3.1998 9.8C3.42072 9.8 3.5998 9.62091 3.5998 9.4C3.5998 9.17909 3.42072 9 3.1998 9C2.97889 9 2.7998 9.17909 2.7998 9.4C2.7998 9.62091 2.97889 9.8 3.1998 9.8Z" fill="#212529"/>
<path d="M2.1998 16.5998C2.42072 16.5998 2.5998 16.4207 2.5998 16.1998C2.5998 15.9789 2.42072 15.7998 2.1998 15.7998C1.97889 15.7998 1.7998 15.9789 1.7998 16.1998C1.7998 16.4207 1.97889 16.5998 2.1998 16.5998Z" fill="#212529"/>
<path d="M0.199805 16.5998C0.420719 16.5998 0.599805 16.4207 0.599805 16.1998C0.599805 15.9789 0.420719 15.7998 0.199805 15.7998C-0.0211092 15.7998 -0.200195 15.9789 -0.200195 16.1998C-0.200195 16.4207 -0.0211092 16.5998 0.199805 16.5998Z" fill="#212529"/>
<path d="M1.1998 15.5998C1.42072 15.5998 1.5998 15.4207 1.5998 15.1998C1.5998 14.9789 1.42072 14.7998 1.1998 14.7998C0.978891 14.7998 0.799805 14.9789 0.799805 15.1998C0.799805 15.4207 0.978891 15.5998 1.1998 15.5998Z" fill="#212529"/>
<path d="M1.1998 13.5998C1.42072 13.5998 1.5998 13.4207 1.5998 13.1998C1.5998 12.9789 1.42072 12.7998 1.1998 12.7998C0.978891 12.7998 0.799805 12.9789 0.799805 13.1998C0.799805 13.4207 0.978891 13.5998 1.1998 13.5998Z" fill="#212529"/>
<path d="M3.1998 15.5998C3.42072 15.5998 3.5998 15.4207 3.5998 15.1998C3.5998 14.9789 3.42072 14.7998 3.1998 14.7998C2.97889 14.7998 2.7998 14.9789 2.7998 15.1998C2.7998 15.4207 2.97889 15.5998 3.1998 15.5998Z" fill="#212529"/>
<path d="M2.1998 14.5998C2.42072 14.5998 2.5998 14.4207 2.5998 14.1998C2.5998 13.9789 2.42072 13.7998 2.1998 13.7998C1.97889 13.7998 1.7998 13.9789 1.7998 14.1998C1.7998 14.4207 1.97889 14.5998 2.1998 14.5998Z" fill="#212529"/>
<path d="M0.199805 14.5998C0.420719 14.5998 0.599805 14.4207 0.599805 14.1998C0.599805 13.9789 0.420719 13.7998 0.199805 13.7998C-0.0211092 13.7998 -0.200195 13.9789 -0.200195 14.1998C-0.200195 14.4207 -0.0211092 14.5998 0.199805 14.5998Z" fill="#212529"/>
<path d="M3.1998 13.5998C3.42072 13.5998 3.5998 13.4207 3.5998 13.1998C3.5998 12.9789 3.42072 12.7998 3.1998 12.7998C2.97889 12.7998 2.7998 12.9789 2.7998 13.1998C2.7998 13.4207 2.97889 13.5998 3.1998 13.5998Z" fill="#212529"/>
</g>
<path d="M7.57989 9.26984L10.1499 15.6898L12.2899 11.8398L13.5699 13.9998L15.2899 5.83984L16.5699 13.9998H20.8499C21.7754 12.8634 22.4349 11.5343 22.7799 10.1098C23.0014 9.37494 23.0762 8.60362 22.9999 7.83984C22.7199 4.59984 20.4299 1.83984 17.2499 1.83984C16.3349 1.84426 15.4345 2.06927 14.6251 2.49577C13.8156 2.92227 13.1209 3.53769 12.5999 4.28984C12.5327 4.39302 12.4408 4.47778 12.3325 4.53646C12.2242 4.59513 12.103 4.62586 11.9799 4.62586C11.8567 4.62586 11.7356 4.59513 11.6273 4.53646C11.519 4.47778 11.4271 4.39302 11.3599 4.28984C10.8576 3.5408 10.177 2.92838 9.37925 2.5077C8.58151 2.08701 7.69171 1.87126 6.78989 1.87984C3.60989 1.87984 1.31989 4.59984 1.03989 7.87984C0.953255 8.63442 1.01439 9.39864 1.21989 10.1298C1.56765 11.5472 2.22697 12.8693 3.14989 13.9998H5.42989L7.57989 9.26984Z" stroke="#2A2527" stroke-width="0.952919" stroke-linecap="round" stroke-linejoin="round"/>
<path d="M16.5699 14.0001L15.2899 5.84009L13.5699 14.0001L12.2899 11.8401L10.1499 15.6901L7.5799 9.27009L5.4299 14.0001H3.1499C3.48857 14.4187 3.85972 14.8099 4.2599 15.1701L11.9299 22.1701L19.7399 15.1701C20.1401 14.8099 20.5112 14.4187 20.8499 14.0001H16.5699Z" stroke="#2A2527" stroke-width="0.952919" stroke-linecap="round" stroke-linejoin="round"/>
</svg>
