<svg width="100" height="100" viewBox="0 0 100 100" fill="none" xmlns="http://www.w3.org/2000/svg">
<mask id="mask0_18_3043" style="mask-type:alpha" maskUnits="userSpaceOnUse" x="3" y="6" width="94" height="86">
<path fill-rule="evenodd" clip-rule="evenodd" d="M49.8333 89.6111C75.5606 89.6111 96.4167 70.8941 96.4167 47.8056C96.4167 24.717 75.5606 6 49.8333 6C24.1061 6 3.25 24.717 3.25 47.8056C3.25 57.2788 6.76101 66.016 12.6789 73.0265C12.1519 78.6342 10.1045 85.1071 8.90898 88.8866C8.38725 90.536 8.02779 91.6724 8.02779 92C9.11569 92 21.1032 88.0365 27.7454 84.622C34.3184 87.8047 41.8408 89.6111 49.8333 89.6111Z" fill="black"/>
</mask>
<g mask="url(#mask0_18_3043)">
<path d="M90.6999 17.92C91.567 17.92 92.2699 17.2171 92.2699 16.35C92.2699 15.4829 91.567 14.78 90.6999 14.78C89.8328 14.78 89.1299 15.4829 89.1299 16.35C89.1299 17.2171 89.8328 17.92 90.6999 17.92Z" fill="#212529"/>
<path d="M82.8698 17.92C83.7369 17.92 84.4398 17.2171 84.4398 16.35C84.4398 15.4829 83.7369 14.78 82.8698 14.78C82.0027 14.78 81.2998 15.4829 81.2998 16.35C81.2998 17.2171 82.0027 17.92 82.8698 17.92Z" fill="#212529"/>
<path d="M86.7797 14.0001C87.6468 14.0001 88.3497 13.2972 88.3497 12.4301C88.3497 11.563 87.6468 10.8601 86.7797 10.8601C85.9126 10.8601 85.2097 11.563 85.2097 12.4301C85.2097 13.2972 85.9126 14.0001 86.7797 14.0001Z" fill="#212529"/>
<path d="M86.7797 6.18004C87.6468 6.18004 88.3497 5.47713 88.3497 4.61004C88.3497 3.74295 87.6468 3.04004 86.7797 3.04004C85.9126 3.04004 85.2097 3.74295 85.2097 4.61004C85.2097 5.47713 85.9126 6.18004 86.7797 6.18004Z" fill="#212529"/>
<path d="M94.6098 14.0001C95.4769 14.0001 96.1798 13.2972 96.1798 12.4301C96.1798 11.563 95.4769 10.8601 94.6098 10.8601C93.7427 10.8601 93.0398 11.563 93.0398 12.4301C93.0398 13.2972 93.7427 14.0001 94.6098 14.0001Z" fill="#212529"/>
<path d="M90.6999 10.09C91.567 10.09 92.2699 9.38704 92.2699 8.51995C92.2699 7.65286 91.567 6.94995 90.6999 6.94995C89.8328 6.94995 89.1299 7.65286 89.1299 8.51995C89.1299 9.38704 89.8328 10.09 90.6999 10.09Z" fill="#212529"/>
<path d="M82.8698 10.09C83.7369 10.09 84.4398 9.38704 84.4398 8.51995C84.4398 7.65286 83.7369 6.94995 82.8698 6.94995C82.0027 6.94995 81.2998 7.65286 81.2998 8.51995C81.2998 9.38704 82.0027 10.09 82.8698 10.09Z" fill="#212529"/>
<path d="M94.6098 6.18004C95.4769 6.18004 96.1798 5.47713 96.1798 4.61004C96.1798 3.74295 95.4769 3.04004 94.6098 3.04004C93.7427 3.04004 93.0398 3.74295 93.0398 4.61004C93.0398 5.47713 93.7427 6.18004 94.6098 6.18004Z" fill="#212529"/>
<path d="M90.6999 32.7901C91.567 32.7901 92.2699 32.0872 92.2699 31.2201C92.2699 30.3531 91.567 29.6501 90.6999 29.6501C89.8328 29.6501 89.1299 30.3531 89.1299 31.2201C89.1299 32.0872 89.8328 32.7901 90.6999 32.7901Z" fill="#212529"/>
<path d="M82.8698 32.7901C83.7369 32.7901 84.4398 32.0872 84.4398 31.2201C84.4398 30.3531 83.7369 29.6501 82.8698 29.6501C82.0027 29.6501 81.2998 30.3531 81.2998 31.2201C81.2998 32.0872 82.0027 32.7901 82.8698 32.7901Z" fill="#212529"/>
<path d="M86.7797 28.8702C87.6468 28.8702 88.3497 28.1673 88.3497 27.3002C88.3497 26.4331 87.6468 25.7302 86.7797 25.7302C85.9126 25.7302 85.2097 26.4331 85.2097 27.3002C85.2097 28.1673 85.9126 28.8702 86.7797 28.8702Z" fill="#212529"/>
<path d="M86.7797 21.0502C87.6468 21.0502 88.3497 20.3472 88.3497 19.4802C88.3497 18.6131 87.6468 17.9102 86.7797 17.9102C85.9126 17.9102 85.2097 18.6131 85.2097 19.4802C85.2097 20.3472 85.9126 21.0502 86.7797 21.0502Z" fill="#212529"/>
<path d="M94.6098 28.8702C95.4769 28.8702 96.1798 28.1673 96.1798 27.3002C96.1798 26.4331 95.4769 25.7302 94.6098 25.7302C93.7427 25.7302 93.0398 26.4331 93.0398 27.3002C93.0398 28.1673 93.7427 28.8702 94.6098 28.8702Z" fill="#212529"/>
<path d="M90.6999 24.9601C91.567 24.9601 92.2699 24.2572 92.2699 23.3901C92.2699 22.523 91.567 21.8201 90.6999 21.8201C89.8328 21.8201 89.1299 22.523 89.1299 23.3901C89.1299 24.2572 89.8328 24.9601 90.6999 24.9601Z" fill="#212529"/>
<path d="M82.8698 24.9601C83.7369 24.9601 84.4398 24.2572 84.4398 23.3901C84.4398 22.523 83.7369 21.8201 82.8698 21.8201C82.0027 21.8201 81.2998 22.523 81.2998 23.3901C81.2998 24.2572 82.0027 24.9601 82.8698 24.9601Z" fill="#212529"/>
<path d="M94.6098 21.0502C95.4769 21.0502 96.1798 20.3472 96.1798 19.4802C96.1798 18.6131 95.4769 17.9102 94.6098 17.9102C93.7427 17.9102 93.0398 18.6131 93.0398 19.4802C93.0398 20.3472 93.7427 21.0502 94.6098 21.0502Z" fill="#212529"/>
<path d="M90.6999 47.66C91.567 47.66 92.2699 46.9571 92.2699 46.09C92.2699 45.2229 91.567 44.52 90.6999 44.52C89.8328 44.52 89.1299 45.2229 89.1299 46.09C89.1299 46.9571 89.8328 47.66 90.6999 47.66Z" fill="#212529"/>
<path d="M82.8698 47.66C83.7369 47.66 84.4398 46.9571 84.4398 46.09C84.4398 45.2229 83.7369 44.52 82.8698 44.52C82.0027 44.52 81.2998 45.2229 81.2998 46.09C81.2998 46.9571 82.0027 47.66 82.8698 47.66Z" fill="#212529"/>
<path d="M86.7797 43.7401C87.6468 43.7401 88.3497 43.0372 88.3497 42.1701C88.3497 41.303 87.6468 40.6001 86.7797 40.6001C85.9126 40.6001 85.2097 41.303 85.2097 42.1701C85.2097 43.0372 85.9126 43.7401 86.7797 43.7401Z" fill="#212529"/>
<path d="M86.7797 35.92C87.6468 35.92 88.3497 35.2171 88.3497 34.35C88.3497 33.4829 87.6468 32.78 86.7797 32.78C85.9126 32.78 85.2097 33.4829 85.2097 34.35C85.2097 35.2171 85.9126 35.92 86.7797 35.92Z" fill="#212529"/>
<path d="M94.6098 43.7401C95.4769 43.7401 96.1798 43.0372 96.1798 42.1701C96.1798 41.303 95.4769 40.6001 94.6098 40.6001C93.7427 40.6001 93.0398 41.303 93.0398 42.1701C93.0398 43.0372 93.7427 43.7401 94.6098 43.7401Z" fill="#212529"/>
<path d="M90.6999 39.8299C91.567 39.8299 92.2699 39.127 92.2699 38.2599C92.2699 37.3929 91.567 36.6899 90.6999 36.6899C89.8328 36.6899 89.1299 37.3929 89.1299 38.2599C89.1299 39.127 89.8328 39.8299 90.6999 39.8299Z" fill="#212529"/>
<path d="M82.8698 39.8299C83.7369 39.8299 84.4398 39.127 84.4398 38.2599C84.4398 37.3929 83.7369 36.6899 82.8698 36.6899C82.0027 36.6899 81.2998 37.3929 81.2998 38.2599C81.2998 39.127 82.0027 39.8299 82.8698 39.8299Z" fill="#212529"/>
<path d="M94.6098 35.92C95.4769 35.92 96.1798 35.2171 96.1798 34.35C96.1798 33.4829 95.4769 32.78 94.6098 32.78C93.7427 32.78 93.0398 33.4829 93.0398 34.35C93.0398 35.2171 93.7427 35.92 94.6098 35.92Z" fill="#212529"/>
<path d="M90.6999 62.5301C91.567 62.5301 92.2699 61.8272 92.2699 60.9601C92.2699 60.093 91.567 59.3901 90.6999 59.3901C89.8328 59.3901 89.1299 60.093 89.1299 60.9601C89.1299 61.8272 89.8328 62.5301 90.6999 62.5301Z" fill="#212529"/>
<path d="M82.8698 62.5301C83.7369 62.5301 84.4398 61.8272 84.4398 60.9601C84.4398 60.093 83.7369 59.3901 82.8698 59.3901C82.0027 59.3901 81.2998 60.093 81.2998 60.9601C81.2998 61.8272 82.0027 62.5301 82.8698 62.5301Z" fill="#212529"/>
<path d="M86.7797 58.6102C87.6468 58.6102 88.3497 57.9073 88.3497 57.0402C88.3497 56.1731 87.6468 55.4702 86.7797 55.4702C85.9126 55.4702 85.2097 56.1731 85.2097 57.0402C85.2097 57.9073 85.9126 58.6102 86.7797 58.6102Z" fill="#212529"/>
<path d="M86.7797 50.7901C87.6468 50.7901 88.3497 50.0872 88.3497 49.2201C88.3497 48.3531 87.6468 47.6501 86.7797 47.6501C85.9126 47.6501 85.2097 48.3531 85.2097 49.2201C85.2097 50.0872 85.9126 50.7901 86.7797 50.7901Z" fill="#212529"/>
<path d="M94.6098 58.6102C95.4769 58.6102 96.1798 57.9073 96.1798 57.0402C96.1798 56.1731 95.4769 55.4702 94.6098 55.4702C93.7427 55.4702 93.0398 56.1731 93.0398 57.0402C93.0398 57.9073 93.7427 58.6102 94.6098 58.6102Z" fill="#212529"/>
<path d="M90.6999 54.7001C91.567 54.7001 92.2699 53.9971 92.2699 53.1301C92.2699 52.263 91.567 51.5601 90.6999 51.5601C89.8328 51.5601 89.1299 52.263 89.1299 53.1301C89.1299 53.9971 89.8328 54.7001 90.6999 54.7001Z" fill="#212529"/>
<path d="M82.8698 54.7001C83.7369 54.7001 84.4398 53.9971 84.4398 53.1301C84.4398 52.263 83.7369 51.5601 82.8698 51.5601C82.0027 51.5601 81.2998 52.263 81.2998 53.1301C81.2998 53.9971 82.0027 54.7001 82.8698 54.7001Z" fill="#212529"/>
<path d="M94.6098 50.7901C95.4769 50.7901 96.1798 50.0872 96.1798 49.2201C96.1798 48.3531 95.4769 47.6501 94.6098 47.6501C93.7427 47.6501 93.0398 48.3531 93.0398 49.2201C93.0398 50.0872 93.7427 50.7901 94.6098 50.7901Z" fill="#212529"/>
<path d="M90.6999 77.4C91.567 77.4 92.2699 76.6971 92.2699 75.83C92.2699 74.9629 91.567 74.26 90.6999 74.26C89.8328 74.26 89.1299 74.9629 89.1299 75.83C89.1299 76.6971 89.8328 77.4 90.6999 77.4Z" fill="#212529"/>
<path d="M82.8698 77.4C83.7369 77.4 84.4398 76.6971 84.4398 75.83C84.4398 74.9629 83.7369 74.26 82.8698 74.26C82.0027 74.26 81.2998 74.9629 81.2998 75.83C81.2998 76.6971 82.0027 77.4 82.8698 77.4Z" fill="#212529"/>
<path d="M86.7797 73.4801C87.6468 73.4801 88.3497 72.7772 88.3497 71.9101C88.3497 71.043 87.6468 70.3401 86.7797 70.3401C85.9126 70.3401 85.2097 71.043 85.2097 71.9101C85.2097 72.7772 85.9126 73.4801 86.7797 73.4801Z" fill="#212529"/>
<path d="M86.7797 65.66C87.6468 65.66 88.3497 64.9571 88.3497 64.09C88.3497 63.2229 87.6468 62.52 86.7797 62.52C85.9126 62.52 85.2097 63.2229 85.2097 64.09C85.2097 64.9571 85.9126 65.66 86.7797 65.66Z" fill="#212529"/>
<path d="M94.6098 73.4801C95.4769 73.4801 96.1798 72.7772 96.1798 71.9101C96.1798 71.043 95.4769 70.3401 94.6098 70.3401C93.7427 70.3401 93.0398 71.043 93.0398 71.9101C93.0398 72.7772 93.7427 73.4801 94.6098 73.4801Z" fill="#212529"/>
<path d="M90.6999 69.5699C91.567 69.5699 92.2699 68.867 92.2699 67.9999C92.2699 67.1328 91.567 66.4299 90.6999 66.4299C89.8328 66.4299 89.1299 67.1328 89.1299 67.9999C89.1299 68.867 89.8328 69.5699 90.6999 69.5699Z" fill="#212529"/>
<path d="M82.8698 69.5699C83.7369 69.5699 84.4398 68.867 84.4398 67.9999C84.4398 67.1328 83.7369 66.4299 82.8698 66.4299C82.0027 66.4299 81.2998 67.1328 81.2998 67.9999C81.2998 68.867 82.0027 69.5699 82.8698 69.5699Z" fill="#212529"/>
<path d="M94.6098 65.66C95.4769 65.66 96.1798 64.9571 96.1798 64.09C96.1798 63.2229 95.4769 62.52 94.6098 62.52C93.7427 62.52 93.0398 63.2229 93.0398 64.09C93.0398 64.9571 93.7427 65.66 94.6098 65.66Z" fill="#212529"/>
<path d="M90.6999 92.2701C91.567 92.2701 92.2699 91.5672 92.2699 90.7001C92.2699 89.833 91.567 89.1301 90.6999 89.1301C89.8328 89.1301 89.1299 89.833 89.1299 90.7001C89.1299 91.5672 89.8328 92.2701 90.6999 92.2701Z" fill="#212529"/>
<path d="M82.8698 92.2701C83.7369 92.2701 84.4398 91.5672 84.4398 90.7001C84.4398 89.833 83.7369 89.1301 82.8698 89.1301C82.0027 89.1301 81.2998 89.833 81.2998 90.7001C81.2998 91.5672 82.0027 92.2701 82.8698 92.2701Z" fill="#212529"/>
<path d="M86.7797 88.3502C87.6468 88.3502 88.3497 87.6473 88.3497 86.7802C88.3497 85.9131 87.6468 85.2102 86.7797 85.2102C85.9126 85.2102 85.2097 85.9131 85.2097 86.7802C85.2097 87.6473 85.9126 88.3502 86.7797 88.3502Z" fill="#212529"/>
<path d="M86.7797 80.5301C87.6468 80.5301 88.3497 79.8272 88.3497 78.9601C88.3497 78.093 87.6468 77.3901 86.7797 77.3901C85.9126 77.3901 85.2097 78.093 85.2097 78.9601C85.2097 79.8272 85.9126 80.5301 86.7797 80.5301Z" fill="#212529"/>
<path d="M94.6098 88.3502C95.4769 88.3502 96.1798 87.6473 96.1798 86.7802C96.1798 85.9131 95.4769 85.2102 94.6098 85.2102C93.7427 85.2102 93.0398 85.9131 93.0398 86.7802C93.0398 87.6473 93.7427 88.3502 94.6098 88.3502Z" fill="#212529"/>
<path d="M90.6999 84.44C91.567 84.44 92.2699 83.7371 92.2699 82.87C92.2699 82.003 91.567 81.3 90.6999 81.3C89.8328 81.3 89.1299 82.003 89.1299 82.87C89.1299 83.7371 89.8328 84.44 90.6999 84.44Z" fill="#212529"/>
<path d="M82.8698 84.44C83.7369 84.44 84.4398 83.7371 84.4398 82.87C84.4398 82.003 83.7369 81.3 82.8698 81.3C82.0027 81.3 81.2998 82.003 81.2998 82.87C81.2998 83.7371 82.0027 84.44 82.8698 84.44Z" fill="#212529"/>
<path d="M94.6098 80.5301C95.4769 80.5301 96.1798 79.8272 96.1798 78.9601C96.1798 78.093 95.4769 77.3901 94.6098 77.3901C93.7427 77.3901 93.0398 78.093 93.0398 78.9601C93.0398 79.8272 93.7427 80.5301 94.6098 80.5301Z" fill="#212529"/>
<path d="M75.83 17.92C76.6971 17.92 77.4 17.2171 77.4 16.35C77.4 15.4829 76.6971 14.78 75.83 14.78C74.9629 14.78 74.26 15.4829 74.26 16.35C74.26 17.2171 74.9629 17.92 75.83 17.92Z" fill="#212529"/>
<path d="M67.9999 17.92C68.867 17.92 69.5699 17.2171 69.5699 16.35C69.5699 15.4829 68.867 14.78 67.9999 14.78C67.1328 14.78 66.4299 15.4829 66.4299 16.35C66.4299 17.2171 67.1328 17.92 67.9999 17.92Z" fill="#212529"/>
<path d="M71.9099 14.0001C72.7769 14.0001 73.4799 13.2972 73.4799 12.4301C73.4799 11.563 72.7769 10.8601 71.9099 10.8601C71.0428 10.8601 70.3398 11.563 70.3398 12.4301C70.3398 13.2972 71.0428 14.0001 71.9099 14.0001Z" fill="#212529"/>
<path d="M71.9099 6.18004C72.7769 6.18004 73.4799 5.47713 73.4799 4.61004C73.4799 3.74295 72.7769 3.04004 71.9099 3.04004C71.0428 3.04004 70.3398 3.74295 70.3398 4.61004C70.3398 5.47713 71.0428 6.18004 71.9099 6.18004Z" fill="#212529"/>
<path d="M79.7399 14.0001C80.607 14.0001 81.3099 13.2972 81.3099 12.4301C81.3099 11.563 80.607 10.8601 79.7399 10.8601C78.8728 10.8601 78.1699 11.563 78.1699 12.4301C78.1699 13.2972 78.8728 14.0001 79.7399 14.0001Z" fill="#212529"/>
<path d="M75.83 10.09C76.6971 10.09 77.4 9.38704 77.4 8.51995C77.4 7.65286 76.6971 6.94995 75.83 6.94995C74.9629 6.94995 74.26 7.65286 74.26 8.51995C74.26 9.38704 74.9629 10.09 75.83 10.09Z" fill="#212529"/>
<path d="M67.9999 10.09C68.867 10.09 69.5699 9.38704 69.5699 8.51995C69.5699 7.65286 68.867 6.94995 67.9999 6.94995C67.1328 6.94995 66.4299 7.65286 66.4299 8.51995C66.4299 9.38704 67.1328 10.09 67.9999 10.09Z" fill="#212529"/>
<path d="M79.7399 6.18004C80.607 6.18004 81.3099 5.47713 81.3099 4.61004C81.3099 3.74295 80.607 3.04004 79.7399 3.04004C78.8728 3.04004 78.1699 3.74295 78.1699 4.61004C78.1699 5.47713 78.8728 6.18004 79.7399 6.18004Z" fill="#212529"/>
<path d="M75.83 32.7901C76.6971 32.7901 77.4 32.0872 77.4 31.2201C77.4 30.3531 76.6971 29.6501 75.83 29.6501C74.9629 29.6501 74.26 30.3531 74.26 31.2201C74.26 32.0872 74.9629 32.7901 75.83 32.7901Z" fill="#212529"/>
<path d="M67.9999 32.7901C68.867 32.7901 69.5699 32.0872 69.5699 31.2201C69.5699 30.3531 68.867 29.6501 67.9999 29.6501C67.1328 29.6501 66.4299 30.3531 66.4299 31.2201C66.4299 32.0872 67.1328 32.7901 67.9999 32.7901Z" fill="#212529"/>
<path d="M71.9099 28.8702C72.7769 28.8702 73.4799 28.1673 73.4799 27.3002C73.4799 26.4331 72.7769 25.7302 71.9099 25.7302C71.0428 25.7302 70.3398 26.4331 70.3398 27.3002C70.3398 28.1673 71.0428 28.8702 71.9099 28.8702Z" fill="#212529"/>
<path d="M71.9099 21.0502C72.7769 21.0502 73.4799 20.3472 73.4799 19.4802C73.4799 18.6131 72.7769 17.9102 71.9099 17.9102C71.0428 17.9102 70.3398 18.6131 70.3398 19.4802C70.3398 20.3472 71.0428 21.0502 71.9099 21.0502Z" fill="#212529"/>
<path d="M79.7399 28.8702C80.607 28.8702 81.3099 28.1673 81.3099 27.3002C81.3099 26.4331 80.607 25.7302 79.7399 25.7302C78.8728 25.7302 78.1699 26.4331 78.1699 27.3002C78.1699 28.1673 78.8728 28.8702 79.7399 28.8702Z" fill="#212529"/>
<path d="M75.83 24.9601C76.6971 24.9601 77.4 24.2572 77.4 23.3901C77.4 22.523 76.6971 21.8201 75.83 21.8201C74.9629 21.8201 74.26 22.523 74.26 23.3901C74.26 24.2572 74.9629 24.9601 75.83 24.9601Z" fill="#212529"/>
<path d="M67.9999 24.9601C68.867 24.9601 69.5699 24.2572 69.5699 23.3901C69.5699 22.523 68.867 21.8201 67.9999 21.8201C67.1328 21.8201 66.4299 22.523 66.4299 23.3901C66.4299 24.2572 67.1328 24.9601 67.9999 24.9601Z" fill="#212529"/>
<path d="M79.7399 21.0502C80.607 21.0502 81.3099 20.3472 81.3099 19.4802C81.3099 18.6131 80.607 17.9102 79.7399 17.9102C78.8728 17.9102 78.1699 18.6131 78.1699 19.4802C78.1699 20.3472 78.8728 21.0502 79.7399 21.0502Z" fill="#212529"/>
<path d="M75.83 47.66C76.6971 47.66 77.4 46.9571 77.4 46.09C77.4 45.2229 76.6971 44.52 75.83 44.52C74.9629 44.52 74.26 45.2229 74.26 46.09C74.26 46.9571 74.9629 47.66 75.83 47.66Z" fill="#212529"/>
<path d="M67.9999 47.66C68.867 47.66 69.5699 46.9571 69.5699 46.09C69.5699 45.2229 68.867 44.52 67.9999 44.52C67.1328 44.52 66.4299 45.2229 66.4299 46.09C66.4299 46.9571 67.1328 47.66 67.9999 47.66Z" fill="#212529"/>
<path d="M71.9099 43.7401C72.7769 43.7401 73.4799 43.0372 73.4799 42.1701C73.4799 41.303 72.7769 40.6001 71.9099 40.6001C71.0428 40.6001 70.3398 41.303 70.3398 42.1701C70.3398 43.0372 71.0428 43.7401 71.9099 43.7401Z" fill="#212529"/>
<path d="M71.9099 35.92C72.7769 35.92 73.4799 35.2171 73.4799 34.35C73.4799 33.4829 72.7769 32.78 71.9099 32.78C71.0428 32.78 70.3398 33.4829 70.3398 34.35C70.3398 35.2171 71.0428 35.92 71.9099 35.92Z" fill="#212529"/>
<path d="M79.7399 43.7401C80.607 43.7401 81.3099 43.0372 81.3099 42.1701C81.3099 41.303 80.607 40.6001 79.7399 40.6001C78.8728 40.6001 78.1699 41.303 78.1699 42.1701C78.1699 43.0372 78.8728 43.7401 79.7399 43.7401Z" fill="#212529"/>
<path d="M75.83 39.8299C76.6971 39.8299 77.4 39.127 77.4 38.2599C77.4 37.3929 76.6971 36.6899 75.83 36.6899C74.9629 36.6899 74.26 37.3929 74.26 38.2599C74.26 39.127 74.9629 39.8299 75.83 39.8299Z" fill="#212529"/>
<path d="M67.9999 39.8299C68.867 39.8299 69.5699 39.127 69.5699 38.2599C69.5699 37.3929 68.867 36.6899 67.9999 36.6899C67.1328 36.6899 66.4299 37.3929 66.4299 38.2599C66.4299 39.127 67.1328 39.8299 67.9999 39.8299Z" fill="#212529"/>
<path d="M79.7399 35.92C80.607 35.92 81.3099 35.2171 81.3099 34.35C81.3099 33.4829 80.607 32.78 79.7399 32.78C78.8728 32.78 78.1699 33.4829 78.1699 34.35C78.1699 35.2171 78.8728 35.92 79.7399 35.92Z" fill="#212529"/>
<path d="M75.83 62.5301C76.6971 62.5301 77.4 61.8272 77.4 60.9601C77.4 60.093 76.6971 59.3901 75.83 59.3901C74.9629 59.3901 74.26 60.093 74.26 60.9601C74.26 61.8272 74.9629 62.5301 75.83 62.5301Z" fill="#212529"/>
<path d="M67.9999 62.5301C68.867 62.5301 69.5699 61.8272 69.5699 60.9601C69.5699 60.093 68.867 59.3901 67.9999 59.3901C67.1328 59.3901 66.4299 60.093 66.4299 60.9601C66.4299 61.8272 67.1328 62.5301 67.9999 62.5301Z" fill="#212529"/>
<path d="M71.9099 58.6102C72.7769 58.6102 73.4799 57.9073 73.4799 57.0402C73.4799 56.1731 72.7769 55.4702 71.9099 55.4702C71.0428 55.4702 70.3398 56.1731 70.3398 57.0402C70.3398 57.9073 71.0428 58.6102 71.9099 58.6102Z" fill="#212529"/>
<path d="M71.9099 50.7901C72.7769 50.7901 73.4799 50.0872 73.4799 49.2201C73.4799 48.3531 72.7769 47.6501 71.9099 47.6501C71.0428 47.6501 70.3398 48.3531 70.3398 49.2201C70.3398 50.0872 71.0428 50.7901 71.9099 50.7901Z" fill="#212529"/>
<path d="M79.7399 58.6102C80.607 58.6102 81.3099 57.9073 81.3099 57.0402C81.3099 56.1731 80.607 55.4702 79.7399 55.4702C78.8728 55.4702 78.1699 56.1731 78.1699 57.0402C78.1699 57.9073 78.8728 58.6102 79.7399 58.6102Z" fill="#212529"/>
<path d="M75.83 54.7001C76.6971 54.7001 77.4 53.9971 77.4 53.1301C77.4 52.263 76.6971 51.5601 75.83 51.5601C74.9629 51.5601 74.26 52.263 74.26 53.1301C74.26 53.9971 74.9629 54.7001 75.83 54.7001Z" fill="#212529"/>
<path d="M67.9999 54.7001C68.867 54.7001 69.5699 53.9971 69.5699 53.1301C69.5699 52.263 68.867 51.5601 67.9999 51.5601C67.1328 51.5601 66.4299 52.263 66.4299 53.1301C66.4299 53.9971 67.1328 54.7001 67.9999 54.7001Z" fill="#212529"/>
<path d="M79.7399 50.7901C80.607 50.7901 81.3099 50.0872 81.3099 49.2201C81.3099 48.3531 80.607 47.6501 79.7399 47.6501C78.8728 47.6501 78.1699 48.3531 78.1699 49.2201C78.1699 50.0872 78.8728 50.7901 79.7399 50.7901Z" fill="#212529"/>
<path d="M75.83 77.4C76.6971 77.4 77.4 76.6971 77.4 75.83C77.4 74.9629 76.6971 74.26 75.83 74.26C74.9629 74.26 74.26 74.9629 74.26 75.83C74.26 76.6971 74.9629 77.4 75.83 77.4Z" fill="#212529"/>
<path d="M67.9999 77.4C68.867 77.4 69.5699 76.6971 69.5699 75.83C69.5699 74.9629 68.867 74.26 67.9999 74.26C67.1328 74.26 66.4299 74.9629 66.4299 75.83C66.4299 76.6971 67.1328 77.4 67.9999 77.4Z" fill="#212529"/>
<path d="M71.9099 73.4801C72.7769 73.4801 73.4799 72.7772 73.4799 71.9101C73.4799 71.043 72.7769 70.3401 71.9099 70.3401C71.0428 70.3401 70.3398 71.043 70.3398 71.9101C70.3398 72.7772 71.0428 73.4801 71.9099 73.4801Z" fill="#212529"/>
<path d="M71.9099 65.66C72.7769 65.66 73.4799 64.9571 73.4799 64.09C73.4799 63.2229 72.7769 62.52 71.9099 62.52C71.0428 62.52 70.3398 63.2229 70.3398 64.09C70.3398 64.9571 71.0428 65.66 71.9099 65.66Z" fill="#212529"/>
<path d="M79.7399 73.4801C80.607 73.4801 81.3099 72.7772 81.3099 71.9101C81.3099 71.043 80.607 70.3401 79.7399 70.3401C78.8728 70.3401 78.1699 71.043 78.1699 71.9101C78.1699 72.7772 78.8728 73.4801 79.7399 73.4801Z" fill="#212529"/>
<path d="M75.83 69.5699C76.6971 69.5699 77.4 68.867 77.4 67.9999C77.4 67.1328 76.6971 66.4299 75.83 66.4299C74.9629 66.4299 74.26 67.1328 74.26 67.9999C74.26 68.867 74.9629 69.5699 75.83 69.5699Z" fill="#212529"/>
<path d="M67.9999 69.5699C68.867 69.5699 69.5699 68.867 69.5699 67.9999C69.5699 67.1328 68.867 66.4299 67.9999 66.4299C67.1328 66.4299 66.4299 67.1328 66.4299 67.9999C66.4299 68.867 67.1328 69.5699 67.9999 69.5699Z" fill="#212529"/>
<path d="M79.7399 65.66C80.607 65.66 81.3099 64.9571 81.3099 64.09C81.3099 63.2229 80.607 62.52 79.7399 62.52C78.8728 62.52 78.1699 63.2229 78.1699 64.09C78.1699 64.9571 78.8728 65.66 79.7399 65.66Z" fill="#212529"/>
<path d="M75.83 92.2701C76.6971 92.2701 77.4 91.5672 77.4 90.7001C77.4 89.833 76.6971 89.1301 75.83 89.1301C74.9629 89.1301 74.26 89.833 74.26 90.7001C74.26 91.5672 74.9629 92.2701 75.83 92.2701Z" fill="#212529"/>
<path d="M67.9999 92.2701C68.867 92.2701 69.5699 91.5672 69.5699 90.7001C69.5699 89.833 68.867 89.1301 67.9999 89.1301C67.1328 89.1301 66.4299 89.833 66.4299 90.7001C66.4299 91.5672 67.1328 92.2701 67.9999 92.2701Z" fill="#212529"/>
<path d="M71.9099 88.3502C72.7769 88.3502 73.4799 87.6473 73.4799 86.7802C73.4799 85.9131 72.7769 85.2102 71.9099 85.2102C71.0428 85.2102 70.3398 85.9131 70.3398 86.7802C70.3398 87.6473 71.0428 88.3502 71.9099 88.3502Z" fill="#212529"/>
<path d="M71.9099 80.5301C72.7769 80.5301 73.4799 79.8272 73.4799 78.9601C73.4799 78.093 72.7769 77.3901 71.9099 77.3901C71.0428 77.3901 70.3398 78.093 70.3398 78.9601C70.3398 79.8272 71.0428 80.5301 71.9099 80.5301Z" fill="#212529"/>
<path d="M79.7399 88.3502C80.607 88.3502 81.3099 87.6473 81.3099 86.7802C81.3099 85.9131 80.607 85.2102 79.7399 85.2102C78.8728 85.2102 78.1699 85.9131 78.1699 86.7802C78.1699 87.6473 78.8728 88.3502 79.7399 88.3502Z" fill="#212529"/>
<path d="M75.83 84.44C76.6971 84.44 77.4 83.7371 77.4 82.87C77.4 82.003 76.6971 81.3 75.83 81.3C74.9629 81.3 74.26 82.003 74.26 82.87C74.26 83.7371 74.9629 84.44 75.83 84.44Z" fill="#212529"/>
<path d="M67.9999 84.44C68.867 84.44 69.5699 83.7371 69.5699 82.87C69.5699 82.003 68.867 81.3 67.9999 81.3C67.1328 81.3 66.4299 82.003 66.4299 82.87C66.4299 83.7371 67.1328 84.44 67.9999 84.44Z" fill="#212529"/>
<path d="M79.7399 80.5301C80.607 80.5301 81.3099 79.8272 81.3099 78.9601C81.3099 78.093 80.607 77.3901 79.7399 77.3901C78.8728 77.3901 78.1699 78.093 78.1699 78.9601C78.1699 79.8272 78.8728 80.5301 79.7399 80.5301Z" fill="#212529"/>
<path d="M60.9599 17.92C61.827 17.92 62.5299 17.2171 62.5299 16.35C62.5299 15.4829 61.827 14.78 60.9599 14.78C60.0928 14.78 59.3899 15.4829 59.3899 16.35C59.3899 17.2171 60.0928 17.92 60.9599 17.92Z" fill="#212529"/>
<path d="M53.1298 17.92C53.9969 17.92 54.6998 17.2171 54.6998 16.35C54.6998 15.4829 53.9969 14.78 53.1298 14.78C52.2627 14.78 51.5598 15.4829 51.5598 16.35C51.5598 17.2171 52.2627 17.92 53.1298 17.92Z" fill="#212529"/>
<path d="M57.0397 14.0001C57.9068 14.0001 58.6097 13.2972 58.6097 12.4301C58.6097 11.563 57.9068 10.8601 57.0397 10.8601C56.1726 10.8601 55.4697 11.563 55.4697 12.4301C55.4697 13.2972 56.1726 14.0001 57.0397 14.0001Z" fill="#212529"/>
<path d="M57.0397 6.18004C57.9068 6.18004 58.6097 5.47713 58.6097 4.61004C58.6097 3.74295 57.9068 3.04004 57.0397 3.04004C56.1726 3.04004 55.4697 3.74295 55.4697 4.61004C55.4697 5.47713 56.1726 6.18004 57.0397 6.18004Z" fill="#212529"/>
<path d="M64.8698 14.0001C65.7369 14.0001 66.4398 13.2972 66.4398 12.4301C66.4398 11.563 65.7369 10.8601 64.8698 10.8601C64.0027 10.8601 63.2998 11.563 63.2998 12.4301C63.2998 13.2972 64.0027 14.0001 64.8698 14.0001Z" fill="#212529"/>
<path d="M60.9599 10.09C61.827 10.09 62.5299 9.38704 62.5299 8.51995C62.5299 7.65286 61.827 6.94995 60.9599 6.94995C60.0928 6.94995 59.3899 7.65286 59.3899 8.51995C59.3899 9.38704 60.0928 10.09 60.9599 10.09Z" fill="#212529"/>
<path d="M53.1298 10.09C53.9969 10.09 54.6998 9.38704 54.6998 8.51995C54.6998 7.65286 53.9969 6.94995 53.1298 6.94995C52.2627 6.94995 51.5598 7.65286 51.5598 8.51995C51.5598 9.38704 52.2627 10.09 53.1298 10.09Z" fill="#212529"/>
<path d="M64.8698 6.18004C65.7369 6.18004 66.4398 5.47713 66.4398 4.61004C66.4398 3.74295 65.7369 3.04004 64.8698 3.04004C64.0027 3.04004 63.2998 3.74295 63.2998 4.61004C63.2998 5.47713 64.0027 6.18004 64.8698 6.18004Z" fill="#212529"/>
<path d="M60.9599 32.7901C61.827 32.7901 62.5299 32.0872 62.5299 31.2201C62.5299 30.3531 61.827 29.6501 60.9599 29.6501C60.0928 29.6501 59.3899 30.3531 59.3899 31.2201C59.3899 32.0872 60.0928 32.7901 60.9599 32.7901Z" fill="#212529"/>
<path d="M53.1298 32.7901C53.9969 32.7901 54.6998 32.0872 54.6998 31.2201C54.6998 30.3531 53.9969 29.6501 53.1298 29.6501C52.2627 29.6501 51.5598 30.3531 51.5598 31.2201C51.5598 32.0872 52.2627 32.7901 53.1298 32.7901Z" fill="#212529"/>
<path d="M57.0397 28.8702C57.9068 28.8702 58.6097 28.1673 58.6097 27.3002C58.6097 26.4331 57.9068 25.7302 57.0397 25.7302C56.1726 25.7302 55.4697 26.4331 55.4697 27.3002C55.4697 28.1673 56.1726 28.8702 57.0397 28.8702Z" fill="#212529"/>
<path d="M57.0397 21.0502C57.9068 21.0502 58.6097 20.3472 58.6097 19.4802C58.6097 18.6131 57.9068 17.9102 57.0397 17.9102C56.1726 17.9102 55.4697 18.6131 55.4697 19.4802C55.4697 20.3472 56.1726 21.0502 57.0397 21.0502Z" fill="#212529"/>
<path d="M64.8698 28.8702C65.7369 28.8702 66.4398 28.1673 66.4398 27.3002C66.4398 26.4331 65.7369 25.7302 64.8698 25.7302C64.0027 25.7302 63.2998 26.4331 63.2998 27.3002C63.2998 28.1673 64.0027 28.8702 64.8698 28.8702Z" fill="#212529"/>
<path d="M60.9599 24.9601C61.827 24.9601 62.5299 24.2572 62.5299 23.3901C62.5299 22.523 61.827 21.8201 60.9599 21.8201C60.0928 21.8201 59.3899 22.523 59.3899 23.3901C59.3899 24.2572 60.0928 24.9601 60.9599 24.9601Z" fill="#212529"/>
<path d="M53.1298 24.9601C53.9969 24.9601 54.6998 24.2572 54.6998 23.3901C54.6998 22.523 53.9969 21.8201 53.1298 21.8201C52.2627 21.8201 51.5598 22.523 51.5598 23.3901C51.5598 24.2572 52.2627 24.9601 53.1298 24.9601Z" fill="#212529"/>
<path d="M64.8698 21.0502C65.7369 21.0502 66.4398 20.3472 66.4398 19.4802C66.4398 18.6131 65.7369 17.9102 64.8698 17.9102C64.0027 17.9102 63.2998 18.6131 63.2998 19.4802C63.2998 20.3472 64.0027 21.0502 64.8698 21.0502Z" fill="#212529"/>
<path d="M60.9599 47.66C61.827 47.66 62.5299 46.9571 62.5299 46.09C62.5299 45.2229 61.827 44.52 60.9599 44.52C60.0928 44.52 59.3899 45.2229 59.3899 46.09C59.3899 46.9571 60.0928 47.66 60.9599 47.66Z" fill="#212529"/>
<path d="M53.1298 47.66C53.9969 47.66 54.6998 46.9571 54.6998 46.09C54.6998 45.2229 53.9969 44.52 53.1298 44.52C52.2627 44.52 51.5598 45.2229 51.5598 46.09C51.5598 46.9571 52.2627 47.66 53.1298 47.66Z" fill="#212529"/>
<path d="M57.0397 43.7401C57.9068 43.7401 58.6097 43.0372 58.6097 42.1701C58.6097 41.303 57.9068 40.6001 57.0397 40.6001C56.1726 40.6001 55.4697 41.303 55.4697 42.1701C55.4697 43.0372 56.1726 43.7401 57.0397 43.7401Z" fill="#212529"/>
<path d="M57.0397 35.92C57.9068 35.92 58.6097 35.2171 58.6097 34.35C58.6097 33.4829 57.9068 32.78 57.0397 32.78C56.1726 32.78 55.4697 33.4829 55.4697 34.35C55.4697 35.2171 56.1726 35.92 57.0397 35.92Z" fill="#212529"/>
<path d="M64.8698 43.7401C65.7369 43.7401 66.4398 43.0372 66.4398 42.1701C66.4398 41.303 65.7369 40.6001 64.8698 40.6001C64.0027 40.6001 63.2998 41.303 63.2998 42.1701C63.2998 43.0372 64.0027 43.7401 64.8698 43.7401Z" fill="#212529"/>
<path d="M60.9599 39.8299C61.827 39.8299 62.5299 39.127 62.5299 38.2599C62.5299 37.3929 61.827 36.6899 60.9599 36.6899C60.0928 36.6899 59.3899 37.3929 59.3899 38.2599C59.3899 39.127 60.0928 39.8299 60.9599 39.8299Z" fill="#212529"/>
<path d="M53.1298 39.8299C53.9969 39.8299 54.6998 39.127 54.6998 38.2599C54.6998 37.3929 53.9969 36.6899 53.1298 36.6899C52.2627 36.6899 51.5598 37.3929 51.5598 38.2599C51.5598 39.127 52.2627 39.8299 53.1298 39.8299Z" fill="#212529"/>
<path d="M64.8698 35.92C65.7369 35.92 66.4398 35.2171 66.4398 34.35C66.4398 33.4829 65.7369 32.78 64.8698 32.78C64.0027 32.78 63.2998 33.4829 63.2998 34.35C63.2998 35.2171 64.0027 35.92 64.8698 35.92Z" fill="#212529"/>
<path d="M60.9599 62.5301C61.827 62.5301 62.5299 61.8272 62.5299 60.9601C62.5299 60.093 61.827 59.3901 60.9599 59.3901C60.0928 59.3901 59.3899 60.093 59.3899 60.9601C59.3899 61.8272 60.0928 62.5301 60.9599 62.5301Z" fill="#212529"/>
<path d="M53.1298 62.5301C53.9969 62.5301 54.6998 61.8272 54.6998 60.9601C54.6998 60.093 53.9969 59.3901 53.1298 59.3901C52.2627 59.3901 51.5598 60.093 51.5598 60.9601C51.5598 61.8272 52.2627 62.5301 53.1298 62.5301Z" fill="#212529"/>
<path d="M57.0397 58.6102C57.9068 58.6102 58.6097 57.9073 58.6097 57.0402C58.6097 56.1731 57.9068 55.4702 57.0397 55.4702C56.1726 55.4702 55.4697 56.1731 55.4697 57.0402C55.4697 57.9073 56.1726 58.6102 57.0397 58.6102Z" fill="#212529"/>
<path d="M57.0397 50.7901C57.9068 50.7901 58.6097 50.0872 58.6097 49.2201C58.6097 48.3531 57.9068 47.6501 57.0397 47.6501C56.1726 47.6501 55.4697 48.3531 55.4697 49.2201C55.4697 50.0872 56.1726 50.7901 57.0397 50.7901Z" fill="#212529"/>
<path d="M64.8698 58.6102C65.7369 58.6102 66.4398 57.9073 66.4398 57.0402C66.4398 56.1731 65.7369 55.4702 64.8698 55.4702C64.0027 55.4702 63.2998 56.1731 63.2998 57.0402C63.2998 57.9073 64.0027 58.6102 64.8698 58.6102Z" fill="#212529"/>
<path d="M60.9599 54.7001C61.827 54.7001 62.5299 53.9971 62.5299 53.1301C62.5299 52.263 61.827 51.5601 60.9599 51.5601C60.0928 51.5601 59.3899 52.263 59.3899 53.1301C59.3899 53.9971 60.0928 54.7001 60.9599 54.7001Z" fill="#212529"/>
<path d="M53.1298 54.7001C53.9969 54.7001 54.6998 53.9971 54.6998 53.1301C54.6998 52.263 53.9969 51.5601 53.1298 51.5601C52.2627 51.5601 51.5598 52.263 51.5598 53.1301C51.5598 53.9971 52.2627 54.7001 53.1298 54.7001Z" fill="#212529"/>
<path d="M64.8698 50.7901C65.7369 50.7901 66.4398 50.0872 66.4398 49.2201C66.4398 48.3531 65.7369 47.6501 64.8698 47.6501C64.0027 47.6501 63.2998 48.3531 63.2998 49.2201C63.2998 50.0872 64.0027 50.7901 64.8698 50.7901Z" fill="#212529"/>
<path d="M60.9599 77.4C61.827 77.4 62.5299 76.6971 62.5299 75.83C62.5299 74.9629 61.827 74.26 60.9599 74.26C60.0928 74.26 59.3899 74.9629 59.3899 75.83C59.3899 76.6971 60.0928 77.4 60.9599 77.4Z" fill="#212529"/>
<path d="M53.1298 77.4C53.9969 77.4 54.6998 76.6971 54.6998 75.83C54.6998 74.9629 53.9969 74.26 53.1298 74.26C52.2627 74.26 51.5598 74.9629 51.5598 75.83C51.5598 76.6971 52.2627 77.4 53.1298 77.4Z" fill="#212529"/>
<path d="M57.0397 73.4801C57.9068 73.4801 58.6097 72.7772 58.6097 71.9101C58.6097 71.043 57.9068 70.3401 57.0397 70.3401C56.1726 70.3401 55.4697 71.043 55.4697 71.9101C55.4697 72.7772 56.1726 73.4801 57.0397 73.4801Z" fill="#212529"/>
<path d="M57.0397 65.66C57.9068 65.66 58.6097 64.9571 58.6097 64.09C58.6097 63.2229 57.9068 62.52 57.0397 62.52C56.1726 62.52 55.4697 63.2229 55.4697 64.09C55.4697 64.9571 56.1726 65.66 57.0397 65.66Z" fill="#212529"/>
<path d="M64.8698 73.4801C65.7369 73.4801 66.4398 72.7772 66.4398 71.9101C66.4398 71.043 65.7369 70.3401 64.8698 70.3401C64.0027 70.3401 63.2998 71.043 63.2998 71.9101C63.2998 72.7772 64.0027 73.4801 64.8698 73.4801Z" fill="#212529"/>
<path d="M60.9599 69.5699C61.827 69.5699 62.5299 68.867 62.5299 67.9999C62.5299 67.1328 61.827 66.4299 60.9599 66.4299C60.0928 66.4299 59.3899 67.1328 59.3899 67.9999C59.3899 68.867 60.0928 69.5699 60.9599 69.5699Z" fill="#212529"/>
<path d="M53.1298 69.5699C53.9969 69.5699 54.6998 68.867 54.6998 67.9999C54.6998 67.1328 53.9969 66.4299 53.1298 66.4299C52.2627 66.4299 51.5598 67.1328 51.5598 67.9999C51.5598 68.867 52.2627 69.5699 53.1298 69.5699Z" fill="#212529"/>
<path d="M64.8698 65.66C65.7369 65.66 66.4398 64.9571 66.4398 64.09C66.4398 63.2229 65.7369 62.52 64.8698 62.52C64.0027 62.52 63.2998 63.2229 63.2998 64.09C63.2998 64.9571 64.0027 65.66 64.8698 65.66Z" fill="#212529"/>
<path d="M60.9599 92.2701C61.827 92.2701 62.5299 91.5672 62.5299 90.7001C62.5299 89.833 61.827 89.1301 60.9599 89.1301C60.0928 89.1301 59.3899 89.833 59.3899 90.7001C59.3899 91.5672 60.0928 92.2701 60.9599 92.2701Z" fill="#212529"/>
<path d="M53.1298 92.2701C53.9969 92.2701 54.6998 91.5672 54.6998 90.7001C54.6998 89.833 53.9969 89.1301 53.1298 89.1301C52.2627 89.1301 51.5598 89.833 51.5598 90.7001C51.5598 91.5672 52.2627 92.2701 53.1298 92.2701Z" fill="#212529"/>
<path d="M57.0397 88.3502C57.9068 88.3502 58.6097 87.6473 58.6097 86.7802C58.6097 85.9131 57.9068 85.2102 57.0397 85.2102C56.1726 85.2102 55.4697 85.9131 55.4697 86.7802C55.4697 87.6473 56.1726 88.3502 57.0397 88.3502Z" fill="#212529"/>
<path d="M57.0397 80.5301C57.9068 80.5301 58.6097 79.8272 58.6097 78.9601C58.6097 78.093 57.9068 77.3901 57.0397 77.3901C56.1726 77.3901 55.4697 78.093 55.4697 78.9601C55.4697 79.8272 56.1726 80.5301 57.0397 80.5301Z" fill="#212529"/>
<path d="M64.8698 88.3502C65.7369 88.3502 66.4398 87.6473 66.4398 86.7802C66.4398 85.9131 65.7369 85.2102 64.8698 85.2102C64.0027 85.2102 63.2998 85.9131 63.2998 86.7802C63.2998 87.6473 64.0027 88.3502 64.8698 88.3502Z" fill="#212529"/>
<path d="M60.9599 84.44C61.827 84.44 62.5299 83.7371 62.5299 82.87C62.5299 82.003 61.827 81.3 60.9599 81.3C60.0928 81.3 59.3899 82.003 59.3899 82.87C59.3899 83.7371 60.0928 84.44 60.9599 84.44Z" fill="#212529"/>
<path d="M53.1298 84.44C53.9969 84.44 54.6998 83.7371 54.6998 82.87C54.6998 82.003 53.9969 81.3 53.1298 81.3C52.2627 81.3 51.5598 82.003 51.5598 82.87C51.5598 83.7371 52.2627 84.44 53.1298 84.44Z" fill="#212529"/>
<path d="M64.8698 80.5301C65.7369 80.5301 66.4398 79.8272 66.4398 78.9601C66.4398 78.093 65.7369 77.3901 64.8698 77.3901C64.0027 77.3901 63.2998 78.093 63.2998 78.9601C63.2998 79.8272 64.0027 80.5301 64.8698 80.5301Z" fill="#212529"/>
<path d="M46.09 17.92C46.9571 17.92 47.66 17.2171 47.66 16.35C47.66 15.4829 46.9571 14.78 46.09 14.78C45.2229 14.78 44.52 15.4829 44.52 16.35C44.52 17.2171 45.2229 17.92 46.09 17.92Z" fill="#212529"/>
<path d="M38.2599 17.92C39.127 17.92 39.8299 17.2171 39.8299 16.35C39.8299 15.4829 39.127 14.78 38.2599 14.78C37.3929 14.78 36.6899 15.4829 36.6899 16.35C36.6899 17.2171 37.3929 17.92 38.2599 17.92Z" fill="#212529"/>
<path d="M42.1699 14.0001C43.0369 14.0001 43.7399 13.2972 43.7399 12.4301C43.7399 11.563 43.0369 10.8601 42.1699 10.8601C41.3028 10.8601 40.5999 11.563 40.5999 12.4301C40.5999 13.2972 41.3028 14.0001 42.1699 14.0001Z" fill="#212529"/>
<path d="M42.1699 6.18004C43.0369 6.18004 43.7399 5.47713 43.7399 4.61004C43.7399 3.74295 43.0369 3.04004 42.1699 3.04004C41.3028 3.04004 40.5999 3.74295 40.5999 4.61004C40.5999 5.47713 41.3028 6.18004 42.1699 6.18004Z" fill="#212529"/>
<path d="M49.9999 14.0001C50.867 14.0001 51.5699 13.2972 51.5699 12.4301C51.5699 11.563 50.867 10.8601 49.9999 10.8601C49.1328 10.8601 48.4299 11.563 48.4299 12.4301C48.4299 13.2972 49.1328 14.0001 49.9999 14.0001Z" fill="#212529"/>
<path d="M46.09 10.09C46.9571 10.09 47.66 9.38704 47.66 8.51995C47.66 7.65286 46.9571 6.94995 46.09 6.94995C45.2229 6.94995 44.52 7.65286 44.52 8.51995C44.52 9.38704 45.2229 10.09 46.09 10.09Z" fill="#212529"/>
<path d="M38.2599 10.09C39.127 10.09 39.8299 9.38704 39.8299 8.51995C39.8299 7.65286 39.127 6.94995 38.2599 6.94995C37.3929 6.94995 36.6899 7.65286 36.6899 8.51995C36.6899 9.38704 37.3929 10.09 38.2599 10.09Z" fill="#212529"/>
<path d="M49.9999 6.18004C50.867 6.18004 51.5699 5.47713 51.5699 4.61004C51.5699 3.74295 50.867 3.04004 49.9999 3.04004C49.1328 3.04004 48.4299 3.74295 48.4299 4.61004C48.4299 5.47713 49.1328 6.18004 49.9999 6.18004Z" fill="#212529"/>
<path d="M46.09 32.7901C46.9571 32.7901 47.66 32.0872 47.66 31.2201C47.66 30.3531 46.9571 29.6501 46.09 29.6501C45.2229 29.6501 44.52 30.3531 44.52 31.2201C44.52 32.0872 45.2229 32.7901 46.09 32.7901Z" fill="#212529"/>
<path d="M38.2599 32.7901C39.127 32.7901 39.8299 32.0872 39.8299 31.2201C39.8299 30.3531 39.127 29.6501 38.2599 29.6501C37.3929 29.6501 36.6899 30.3531 36.6899 31.2201C36.6899 32.0872 37.3929 32.7901 38.2599 32.7901Z" fill="#212529"/>
<path d="M42.1699 28.8702C43.0369 28.8702 43.7399 28.1673 43.7399 27.3002C43.7399 26.4331 43.0369 25.7302 42.1699 25.7302C41.3028 25.7302 40.5999 26.4331 40.5999 27.3002C40.5999 28.1673 41.3028 28.8702 42.1699 28.8702Z" fill="#212529"/>
<path d="M42.1699 21.0502C43.0369 21.0502 43.7399 20.3472 43.7399 19.4802C43.7399 18.6131 43.0369 17.9102 42.1699 17.9102C41.3028 17.9102 40.5999 18.6131 40.5999 19.4802C40.5999 20.3472 41.3028 21.0502 42.1699 21.0502Z" fill="#212529"/>
<path d="M49.9999 28.8702C50.867 28.8702 51.5699 28.1673 51.5699 27.3002C51.5699 26.4331 50.867 25.7302 49.9999 25.7302C49.1328 25.7302 48.4299 26.4331 48.4299 27.3002C48.4299 28.1673 49.1328 28.8702 49.9999 28.8702Z" fill="#212529"/>
<path d="M46.09 24.9601C46.9571 24.9601 47.66 24.2572 47.66 23.3901C47.66 22.523 46.9571 21.8201 46.09 21.8201C45.2229 21.8201 44.52 22.523 44.52 23.3901C44.52 24.2572 45.2229 24.9601 46.09 24.9601Z" fill="#212529"/>
<path d="M38.2599 24.9601C39.127 24.9601 39.8299 24.2572 39.8299 23.3901C39.8299 22.523 39.127 21.8201 38.2599 21.8201C37.3929 21.8201 36.6899 22.523 36.6899 23.3901C36.6899 24.2572 37.3929 24.9601 38.2599 24.9601Z" fill="#212529"/>
<path d="M49.9999 21.0502C50.867 21.0502 51.5699 20.3472 51.5699 19.4802C51.5699 18.6131 50.867 17.9102 49.9999 17.9102C49.1328 17.9102 48.4299 18.6131 48.4299 19.4802C48.4299 20.3472 49.1328 21.0502 49.9999 21.0502Z" fill="#212529"/>
<path d="M46.09 47.66C46.9571 47.66 47.66 46.9571 47.66 46.09C47.66 45.2229 46.9571 44.52 46.09 44.52C45.2229 44.52 44.52 45.2229 44.52 46.09C44.52 46.9571 45.2229 47.66 46.09 47.66Z" fill="#212529"/>
<path d="M38.2599 47.66C39.127 47.66 39.8299 46.9571 39.8299 46.09C39.8299 45.2229 39.127 44.52 38.2599 44.52C37.3929 44.52 36.6899 45.2229 36.6899 46.09C36.6899 46.9571 37.3929 47.66 38.2599 47.66Z" fill="#212529"/>
<path d="M42.1699 43.7401C43.0369 43.7401 43.7399 43.0372 43.7399 42.1701C43.7399 41.303 43.0369 40.6001 42.1699 40.6001C41.3028 40.6001 40.5999 41.303 40.5999 42.1701C40.5999 43.0372 41.3028 43.7401 42.1699 43.7401Z" fill="#212529"/>
<path d="M42.1699 35.92C43.0369 35.92 43.7399 35.2171 43.7399 34.35C43.7399 33.4829 43.0369 32.78 42.1699 32.78C41.3028 32.78 40.5999 33.4829 40.5999 34.35C40.5999 35.2171 41.3028 35.92 42.1699 35.92Z" fill="#212529"/>
<path d="M49.9999 43.7401C50.867 43.7401 51.5699 43.0372 51.5699 42.1701C51.5699 41.303 50.867 40.6001 49.9999 40.6001C49.1328 40.6001 48.4299 41.303 48.4299 42.1701C48.4299 43.0372 49.1328 43.7401 49.9999 43.7401Z" fill="#212529"/>
<path d="M46.09 39.8299C46.9571 39.8299 47.66 39.127 47.66 38.2599C47.66 37.3929 46.9571 36.6899 46.09 36.6899C45.2229 36.6899 44.52 37.3929 44.52 38.2599C44.52 39.127 45.2229 39.8299 46.09 39.8299Z" fill="#212529"/>
<path d="M38.2599 39.8299C39.127 39.8299 39.8299 39.127 39.8299 38.2599C39.8299 37.3929 39.127 36.6899 38.2599 36.6899C37.3929 36.6899 36.6899 37.3929 36.6899 38.2599C36.6899 39.127 37.3929 39.8299 38.2599 39.8299Z" fill="#212529"/>
<path d="M49.9999 35.92C50.867 35.92 51.5699 35.2171 51.5699 34.35C51.5699 33.4829 50.867 32.78 49.9999 32.78C49.1328 32.78 48.4299 33.4829 48.4299 34.35C48.4299 35.2171 49.1328 35.92 49.9999 35.92Z" fill="#212529"/>
<path d="M46.09 62.5301C46.9571 62.5301 47.66 61.8272 47.66 60.9601C47.66 60.093 46.9571 59.3901 46.09 59.3901C45.2229 59.3901 44.52 60.093 44.52 60.9601C44.52 61.8272 45.2229 62.5301 46.09 62.5301Z" fill="#212529"/>
<path d="M38.2599 62.5301C39.127 62.5301 39.8299 61.8272 39.8299 60.9601C39.8299 60.093 39.127 59.3901 38.2599 59.3901C37.3929 59.3901 36.6899 60.093 36.6899 60.9601C36.6899 61.8272 37.3929 62.5301 38.2599 62.5301Z" fill="#212529"/>
<path d="M42.1699 58.6102C43.0369 58.6102 43.7399 57.9073 43.7399 57.0402C43.7399 56.1731 43.0369 55.4702 42.1699 55.4702C41.3028 55.4702 40.5999 56.1731 40.5999 57.0402C40.5999 57.9073 41.3028 58.6102 42.1699 58.6102Z" fill="#212529"/>
<path d="M42.1699 50.7901C43.0369 50.7901 43.7399 50.0872 43.7399 49.2201C43.7399 48.3531 43.0369 47.6501 42.1699 47.6501C41.3028 47.6501 40.5999 48.3531 40.5999 49.2201C40.5999 50.0872 41.3028 50.7901 42.1699 50.7901Z" fill="#212529"/>
<path d="M49.9999 58.6102C50.867 58.6102 51.5699 57.9073 51.5699 57.0402C51.5699 56.1731 50.867 55.4702 49.9999 55.4702C49.1328 55.4702 48.4299 56.1731 48.4299 57.0402C48.4299 57.9073 49.1328 58.6102 49.9999 58.6102Z" fill="#212529"/>
<path d="M46.09 54.7001C46.9571 54.7001 47.66 53.9971 47.66 53.1301C47.66 52.263 46.9571 51.5601 46.09 51.5601C45.2229 51.5601 44.52 52.263 44.52 53.1301C44.52 53.9971 45.2229 54.7001 46.09 54.7001Z" fill="#212529"/>
<path d="M38.2599 54.7001C39.127 54.7001 39.8299 53.9971 39.8299 53.1301C39.8299 52.263 39.127 51.5601 38.2599 51.5601C37.3929 51.5601 36.6899 52.263 36.6899 53.1301C36.6899 53.9971 37.3929 54.7001 38.2599 54.7001Z" fill="#212529"/>
<path d="M49.9999 50.7901C50.867 50.7901 51.5699 50.0872 51.5699 49.2201C51.5699 48.3531 50.867 47.6501 49.9999 47.6501C49.1328 47.6501 48.4299 48.3531 48.4299 49.2201C48.4299 50.0872 49.1328 50.7901 49.9999 50.7901Z" fill="#212529"/>
<path d="M46.09 77.4C46.9571 77.4 47.66 76.6971 47.66 75.83C47.66 74.9629 46.9571 74.26 46.09 74.26C45.2229 74.26 44.52 74.9629 44.52 75.83C44.52 76.6971 45.2229 77.4 46.09 77.4Z" fill="#212529"/>
<path d="M38.2599 77.4C39.127 77.4 39.8299 76.6971 39.8299 75.83C39.8299 74.9629 39.127 74.26 38.2599 74.26C37.3929 74.26 36.6899 74.9629 36.6899 75.83C36.6899 76.6971 37.3929 77.4 38.2599 77.4Z" fill="#212529"/>
<path d="M42.1699 73.4801C43.0369 73.4801 43.7399 72.7772 43.7399 71.9101C43.7399 71.043 43.0369 70.3401 42.1699 70.3401C41.3028 70.3401 40.5999 71.043 40.5999 71.9101C40.5999 72.7772 41.3028 73.4801 42.1699 73.4801Z" fill="#212529"/>
<path d="M42.1699 65.66C43.0369 65.66 43.7399 64.9571 43.7399 64.09C43.7399 63.2229 43.0369 62.52 42.1699 62.52C41.3028 62.52 40.5999 63.2229 40.5999 64.09C40.5999 64.9571 41.3028 65.66 42.1699 65.66Z" fill="#212529"/>
<path d="M49.9999 73.4801C50.867 73.4801 51.5699 72.7772 51.5699 71.9101C51.5699 71.043 50.867 70.3401 49.9999 70.3401C49.1328 70.3401 48.4299 71.043 48.4299 71.9101C48.4299 72.7772 49.1328 73.4801 49.9999 73.4801Z" fill="#212529"/>
<path d="M46.09 69.5699C46.9571 69.5699 47.66 68.867 47.66 67.9999C47.66 67.1328 46.9571 66.4299 46.09 66.4299C45.2229 66.4299 44.52 67.1328 44.52 67.9999C44.52 68.867 45.2229 69.5699 46.09 69.5699Z" fill="#212529"/>
<path d="M38.2599 69.5699C39.127 69.5699 39.8299 68.867 39.8299 67.9999C39.8299 67.1328 39.127 66.4299 38.2599 66.4299C37.3929 66.4299 36.6899 67.1328 36.6899 67.9999C36.6899 68.867 37.3929 69.5699 38.2599 69.5699Z" fill="#212529"/>
<path d="M49.9999 65.66C50.867 65.66 51.5699 64.9571 51.5699 64.09C51.5699 63.2229 50.867 62.52 49.9999 62.52C49.1328 62.52 48.4299 63.2229 48.4299 64.09C48.4299 64.9571 49.1328 65.66 49.9999 65.66Z" fill="#212529"/>
<path d="M46.09 92.2701C46.9571 92.2701 47.66 91.5672 47.66 90.7001C47.66 89.833 46.9571 89.1301 46.09 89.1301C45.2229 89.1301 44.52 89.833 44.52 90.7001C44.52 91.5672 45.2229 92.2701 46.09 92.2701Z" fill="#212529"/>
<path d="M38.2599 92.2701C39.127 92.2701 39.8299 91.5672 39.8299 90.7001C39.8299 89.833 39.127 89.1301 38.2599 89.1301C37.3929 89.1301 36.6899 89.833 36.6899 90.7001C36.6899 91.5672 37.3929 92.2701 38.2599 92.2701Z" fill="#212529"/>
<path d="M42.1699 88.3502C43.0369 88.3502 43.7399 87.6473 43.7399 86.7802C43.7399 85.9131 43.0369 85.2102 42.1699 85.2102C41.3028 85.2102 40.5999 85.9131 40.5999 86.7802C40.5999 87.6473 41.3028 88.3502 42.1699 88.3502Z" fill="#212529"/>
<path d="M42.1699 80.5301C43.0369 80.5301 43.7399 79.8272 43.7399 78.9601C43.7399 78.093 43.0369 77.3901 42.1699 77.3901C41.3028 77.3901 40.5999 78.093 40.5999 78.9601C40.5999 79.8272 41.3028 80.5301 42.1699 80.5301Z" fill="#212529"/>
<path d="M49.9999 88.3502C50.867 88.3502 51.5699 87.6473 51.5699 86.7802C51.5699 85.9131 50.867 85.2102 49.9999 85.2102C49.1328 85.2102 48.4299 85.9131 48.4299 86.7802C48.4299 87.6473 49.1328 88.3502 49.9999 88.3502Z" fill="#212529"/>
<path d="M46.09 84.44C46.9571 84.44 47.66 83.7371 47.66 82.87C47.66 82.003 46.9571 81.3 46.09 81.3C45.2229 81.3 44.52 82.003 44.52 82.87C44.52 83.7371 45.2229 84.44 46.09 84.44Z" fill="#212529"/>
<path d="M38.2599 84.44C39.127 84.44 39.8299 83.7371 39.8299 82.87C39.8299 82.003 39.127 81.3 38.2599 81.3C37.3929 81.3 36.6899 82.003 36.6899 82.87C36.6899 83.7371 37.3929 84.44 38.2599 84.44Z" fill="#212529"/>
<path d="M49.9999 80.5301C50.867 80.5301 51.5699 79.8272 51.5699 78.9601C51.5699 78.093 50.867 77.3901 49.9999 77.3901C49.1328 77.3901 48.4299 78.093 48.4299 78.9601C48.4299 79.8272 49.1328 80.5301 49.9999 80.5301Z" fill="#212529"/>
<path d="M31.2199 17.92C32.087 17.92 32.7899 17.2171 32.7899 16.35C32.7899 15.4829 32.087 14.78 31.2199 14.78C30.3528 14.78 29.6499 15.4829 29.6499 16.35C29.6499 17.2171 30.3528 17.92 31.2199 17.92Z" fill="#212529"/>
<path d="M23.3898 17.92C24.2569 17.92 24.9598 17.2171 24.9598 16.35C24.9598 15.4829 24.2569 14.78 23.3898 14.78C22.5227 14.78 21.8198 15.4829 21.8198 16.35C21.8198 17.2171 22.5227 17.92 23.3898 17.92Z" fill="#212529"/>
<path d="M27.2997 14.0001C28.1668 14.0001 28.8697 13.2972 28.8697 12.4301C28.8697 11.563 28.1668 10.8601 27.2997 10.8601C26.4326 10.8601 25.7297 11.563 25.7297 12.4301C25.7297 13.2972 26.4326 14.0001 27.2997 14.0001Z" fill="#212529"/>
<path d="M27.2997 6.18004C28.1668 6.18004 28.8697 5.47713 28.8697 4.61004C28.8697 3.74295 28.1668 3.04004 27.2997 3.04004C26.4326 3.04004 25.7297 3.74295 25.7297 4.61004C25.7297 5.47713 26.4326 6.18004 27.2997 6.18004Z" fill="#212529"/>
<path d="M35.1298 14.0001C35.9969 14.0001 36.6998 13.2972 36.6998 12.4301C36.6998 11.563 35.9969 10.8601 35.1298 10.8601C34.2627 10.8601 33.5598 11.563 33.5598 12.4301C33.5598 13.2972 34.2627 14.0001 35.1298 14.0001Z" fill="#212529"/>
<path d="M31.2199 10.09C32.087 10.09 32.7899 9.38704 32.7899 8.51995C32.7899 7.65286 32.087 6.94995 31.2199 6.94995C30.3528 6.94995 29.6499 7.65286 29.6499 8.51995C29.6499 9.38704 30.3528 10.09 31.2199 10.09Z" fill="#212529"/>
<path d="M23.3898 10.09C24.2569 10.09 24.9598 9.38704 24.9598 8.51995C24.9598 7.65286 24.2569 6.94995 23.3898 6.94995C22.5227 6.94995 21.8198 7.65286 21.8198 8.51995C21.8198 9.38704 22.5227 10.09 23.3898 10.09Z" fill="#212529"/>
<path d="M35.1298 6.18004C35.9969 6.18004 36.6998 5.47713 36.6998 4.61004C36.6998 3.74295 35.9969 3.04004 35.1298 3.04004C34.2627 3.04004 33.5598 3.74295 33.5598 4.61004C33.5598 5.47713 34.2627 6.18004 35.1298 6.18004Z" fill="#212529"/>
<path d="M31.2199 32.7901C32.087 32.7901 32.7899 32.0872 32.7899 31.2201C32.7899 30.3531 32.087 29.6501 31.2199 29.6501C30.3528 29.6501 29.6499 30.3531 29.6499 31.2201C29.6499 32.0872 30.3528 32.7901 31.2199 32.7901Z" fill="#212529"/>
<path d="M23.3898 32.7901C24.2569 32.7901 24.9598 32.0872 24.9598 31.2201C24.9598 30.3531 24.2569 29.6501 23.3898 29.6501C22.5227 29.6501 21.8198 30.3531 21.8198 31.2201C21.8198 32.0872 22.5227 32.7901 23.3898 32.7901Z" fill="#212529"/>
<path d="M27.2997 28.8702C28.1668 28.8702 28.8697 28.1673 28.8697 27.3002C28.8697 26.4331 28.1668 25.7302 27.2997 25.7302C26.4326 25.7302 25.7297 26.4331 25.7297 27.3002C25.7297 28.1673 26.4326 28.8702 27.2997 28.8702Z" fill="#212529"/>
<path d="M27.2997 21.0502C28.1668 21.0502 28.8697 20.3472 28.8697 19.4802C28.8697 18.6131 28.1668 17.9102 27.2997 17.9102C26.4326 17.9102 25.7297 18.6131 25.7297 19.4802C25.7297 20.3472 26.4326 21.0502 27.2997 21.0502Z" fill="#212529"/>
<path d="M35.1298 28.8702C35.9969 28.8702 36.6998 28.1673 36.6998 27.3002C36.6998 26.4331 35.9969 25.7302 35.1298 25.7302C34.2627 25.7302 33.5598 26.4331 33.5598 27.3002C33.5598 28.1673 34.2627 28.8702 35.1298 28.8702Z" fill="#212529"/>
<path d="M31.2199 24.9601C32.087 24.9601 32.7899 24.2572 32.7899 23.3901C32.7899 22.523 32.087 21.8201 31.2199 21.8201C30.3528 21.8201 29.6499 22.523 29.6499 23.3901C29.6499 24.2572 30.3528 24.9601 31.2199 24.9601Z" fill="#212529"/>
<path d="M23.3898 24.9601C24.2569 24.9601 24.9598 24.2572 24.9598 23.3901C24.9598 22.523 24.2569 21.8201 23.3898 21.8201C22.5227 21.8201 21.8198 22.523 21.8198 23.3901C21.8198 24.2572 22.5227 24.9601 23.3898 24.9601Z" fill="#212529"/>
<path d="M35.1298 21.0502C35.9969 21.0502 36.6998 20.3472 36.6998 19.4802C36.6998 18.6131 35.9969 17.9102 35.1298 17.9102C34.2627 17.9102 33.5598 18.6131 33.5598 19.4802C33.5598 20.3472 34.2627 21.0502 35.1298 21.0502Z" fill="#212529"/>
<path d="M31.2199 47.66C32.087 47.66 32.7899 46.9571 32.7899 46.09C32.7899 45.2229 32.087 44.52 31.2199 44.52C30.3528 44.52 29.6499 45.2229 29.6499 46.09C29.6499 46.9571 30.3528 47.66 31.2199 47.66Z" fill="#212529"/>
<path d="M23.3898 47.66C24.2569 47.66 24.9598 46.9571 24.9598 46.09C24.9598 45.2229 24.2569 44.52 23.3898 44.52C22.5227 44.52 21.8198 45.2229 21.8198 46.09C21.8198 46.9571 22.5227 47.66 23.3898 47.66Z" fill="#212529"/>
<path d="M27.2997 43.7401C28.1668 43.7401 28.8697 43.0372 28.8697 42.1701C28.8697 41.303 28.1668 40.6001 27.2997 40.6001C26.4326 40.6001 25.7297 41.303 25.7297 42.1701C25.7297 43.0372 26.4326 43.7401 27.2997 43.7401Z" fill="#212529"/>
<path d="M27.2997 35.92C28.1668 35.92 28.8697 35.2171 28.8697 34.35C28.8697 33.4829 28.1668 32.78 27.2997 32.78C26.4326 32.78 25.7297 33.4829 25.7297 34.35C25.7297 35.2171 26.4326 35.92 27.2997 35.92Z" fill="#212529"/>
<path d="M35.1298 43.7401C35.9969 43.7401 36.6998 43.0372 36.6998 42.1701C36.6998 41.303 35.9969 40.6001 35.1298 40.6001C34.2627 40.6001 33.5598 41.303 33.5598 42.1701C33.5598 43.0372 34.2627 43.7401 35.1298 43.7401Z" fill="#212529"/>
<path d="M31.2199 39.8299C32.087 39.8299 32.7899 39.127 32.7899 38.2599C32.7899 37.3929 32.087 36.6899 31.2199 36.6899C30.3528 36.6899 29.6499 37.3929 29.6499 38.2599C29.6499 39.127 30.3528 39.8299 31.2199 39.8299Z" fill="#212529"/>
<path d="M23.3898 39.8299C24.2569 39.8299 24.9598 39.127 24.9598 38.2599C24.9598 37.3929 24.2569 36.6899 23.3898 36.6899C22.5227 36.6899 21.8198 37.3929 21.8198 38.2599C21.8198 39.127 22.5227 39.8299 23.3898 39.8299Z" fill="#212529"/>
<path d="M35.1298 35.92C35.9969 35.92 36.6998 35.2171 36.6998 34.35C36.6998 33.4829 35.9969 32.78 35.1298 32.78C34.2627 32.78 33.5598 33.4829 33.5598 34.35C33.5598 35.2171 34.2627 35.92 35.1298 35.92Z" fill="#212529"/>
<path d="M31.2199 62.5301C32.087 62.5301 32.7899 61.8272 32.7899 60.9601C32.7899 60.093 32.087 59.3901 31.2199 59.3901C30.3528 59.3901 29.6499 60.093 29.6499 60.9601C29.6499 61.8272 30.3528 62.5301 31.2199 62.5301Z" fill="#212529"/>
<path d="M23.3898 62.5301C24.2569 62.5301 24.9598 61.8272 24.9598 60.9601C24.9598 60.093 24.2569 59.3901 23.3898 59.3901C22.5227 59.3901 21.8198 60.093 21.8198 60.9601C21.8198 61.8272 22.5227 62.5301 23.3898 62.5301Z" fill="#212529"/>
<path d="M27.2997 58.6102C28.1668 58.6102 28.8697 57.9073 28.8697 57.0402C28.8697 56.1731 28.1668 55.4702 27.2997 55.4702C26.4326 55.4702 25.7297 56.1731 25.7297 57.0402C25.7297 57.9073 26.4326 58.6102 27.2997 58.6102Z" fill="#212529"/>
<path d="M27.2997 50.7901C28.1668 50.7901 28.8697 50.0872 28.8697 49.2201C28.8697 48.3531 28.1668 47.6501 27.2997 47.6501C26.4326 47.6501 25.7297 48.3531 25.7297 49.2201C25.7297 50.0872 26.4326 50.7901 27.2997 50.7901Z" fill="#212529"/>
<path d="M35.1298 58.6102C35.9969 58.6102 36.6998 57.9073 36.6998 57.0402C36.6998 56.1731 35.9969 55.4702 35.1298 55.4702C34.2627 55.4702 33.5598 56.1731 33.5598 57.0402C33.5598 57.9073 34.2627 58.6102 35.1298 58.6102Z" fill="#212529"/>
<path d="M31.2199 54.7001C32.087 54.7001 32.7899 53.9971 32.7899 53.1301C32.7899 52.263 32.087 51.5601 31.2199 51.5601C30.3528 51.5601 29.6499 52.263 29.6499 53.1301C29.6499 53.9971 30.3528 54.7001 31.2199 54.7001Z" fill="#212529"/>
<path d="M23.3898 54.7001C24.2569 54.7001 24.9598 53.9971 24.9598 53.1301C24.9598 52.263 24.2569 51.5601 23.3898 51.5601C22.5227 51.5601 21.8198 52.263 21.8198 53.1301C21.8198 53.9971 22.5227 54.7001 23.3898 54.7001Z" fill="#212529"/>
<path d="M35.1298 50.7901C35.9969 50.7901 36.6998 50.0872 36.6998 49.2201C36.6998 48.3531 35.9969 47.6501 35.1298 47.6501C34.2627 47.6501 33.5598 48.3531 33.5598 49.2201C33.5598 50.0872 34.2627 50.7901 35.1298 50.7901Z" fill="#212529"/>
<path d="M31.2199 77.4C32.087 77.4 32.7899 76.6971 32.7899 75.83C32.7899 74.9629 32.087 74.26 31.2199 74.26C30.3528 74.26 29.6499 74.9629 29.6499 75.83C29.6499 76.6971 30.3528 77.4 31.2199 77.4Z" fill="#212529"/>
<path d="M23.3898 77.4C24.2569 77.4 24.9598 76.6971 24.9598 75.83C24.9598 74.9629 24.2569 74.26 23.3898 74.26C22.5227 74.26 21.8198 74.9629 21.8198 75.83C21.8198 76.6971 22.5227 77.4 23.3898 77.4Z" fill="#212529"/>
<path d="M27.2997 73.4801C28.1668 73.4801 28.8697 72.7772 28.8697 71.9101C28.8697 71.043 28.1668 70.3401 27.2997 70.3401C26.4326 70.3401 25.7297 71.043 25.7297 71.9101C25.7297 72.7772 26.4326 73.4801 27.2997 73.4801Z" fill="#212529"/>
<path d="M27.2997 65.66C28.1668 65.66 28.8697 64.9571 28.8697 64.09C28.8697 63.2229 28.1668 62.52 27.2997 62.52C26.4326 62.52 25.7297 63.2229 25.7297 64.09C25.7297 64.9571 26.4326 65.66 27.2997 65.66Z" fill="#212529"/>
<path d="M35.1298 73.4801C35.9969 73.4801 36.6998 72.7772 36.6998 71.9101C36.6998 71.043 35.9969 70.3401 35.1298 70.3401C34.2627 70.3401 33.5598 71.043 33.5598 71.9101C33.5598 72.7772 34.2627 73.4801 35.1298 73.4801Z" fill="#212529"/>
<path d="M31.2199 69.5699C32.087 69.5699 32.7899 68.867 32.7899 67.9999C32.7899 67.1328 32.087 66.4299 31.2199 66.4299C30.3528 66.4299 29.6499 67.1328 29.6499 67.9999C29.6499 68.867 30.3528 69.5699 31.2199 69.5699Z" fill="#212529"/>
<path d="M23.3898 69.5699C24.2569 69.5699 24.9598 68.867 24.9598 67.9999C24.9598 67.1328 24.2569 66.4299 23.3898 66.4299C22.5227 66.4299 21.8198 67.1328 21.8198 67.9999C21.8198 68.867 22.5227 69.5699 23.3898 69.5699Z" fill="#212529"/>
<path d="M35.1298 65.66C35.9969 65.66 36.6998 64.9571 36.6998 64.09C36.6998 63.2229 35.9969 62.52 35.1298 62.52C34.2627 62.52 33.5598 63.2229 33.5598 64.09C33.5598 64.9571 34.2627 65.66 35.1298 65.66Z" fill="#212529"/>
<path d="M31.2199 92.2701C32.087 92.2701 32.7899 91.5672 32.7899 90.7001C32.7899 89.833 32.087 89.1301 31.2199 89.1301C30.3528 89.1301 29.6499 89.833 29.6499 90.7001C29.6499 91.5672 30.3528 92.2701 31.2199 92.2701Z" fill="#212529"/>
<path d="M23.3898 92.2701C24.2569 92.2701 24.9598 91.5672 24.9598 90.7001C24.9598 89.833 24.2569 89.1301 23.3898 89.1301C22.5227 89.1301 21.8198 89.833 21.8198 90.7001C21.8198 91.5672 22.5227 92.2701 23.3898 92.2701Z" fill="#212529"/>
<path d="M27.2997 88.3502C28.1668 88.3502 28.8697 87.6473 28.8697 86.7802C28.8697 85.9131 28.1668 85.2102 27.2997 85.2102C26.4326 85.2102 25.7297 85.9131 25.7297 86.7802C25.7297 87.6473 26.4326 88.3502 27.2997 88.3502Z" fill="#212529"/>
<path d="M27.2997 80.5301C28.1668 80.5301 28.8697 79.8272 28.8697 78.9601C28.8697 78.093 28.1668 77.3901 27.2997 77.3901C26.4326 77.3901 25.7297 78.093 25.7297 78.9601C25.7297 79.8272 26.4326 80.5301 27.2997 80.5301Z" fill="#212529"/>
<path d="M35.1298 88.3502C35.9969 88.3502 36.6998 87.6473 36.6998 86.7802C36.6998 85.9131 35.9969 85.2102 35.1298 85.2102C34.2627 85.2102 33.5598 85.9131 33.5598 86.7802C33.5598 87.6473 34.2627 88.3502 35.1298 88.3502Z" fill="#212529"/>
<path d="M31.2199 84.44C32.087 84.44 32.7899 83.7371 32.7899 82.87C32.7899 82.003 32.087 81.3 31.2199 81.3C30.3528 81.3 29.6499 82.003 29.6499 82.87C29.6499 83.7371 30.3528 84.44 31.2199 84.44Z" fill="#212529"/>
<path d="M23.3898 84.44C24.2569 84.44 24.9598 83.7371 24.9598 82.87C24.9598 82.003 24.2569 81.3 23.3898 81.3C22.5227 81.3 21.8198 82.003 21.8198 82.87C21.8198 83.7371 22.5227 84.44 23.3898 84.44Z" fill="#212529"/>
<path d="M35.1298 80.5301C35.9969 80.5301 36.6998 79.8272 36.6998 78.9601C36.6998 78.093 35.9969 77.3901 35.1298 77.3901C34.2627 77.3901 33.5598 78.093 33.5598 78.9601C33.5598 79.8272 34.2627 80.5301 35.1298 80.5301Z" fill="#212529"/>
<path d="M16.35 17.92C17.2171 17.92 17.92 17.2171 17.92 16.35C17.92 15.4829 17.2171 14.78 16.35 14.78C15.4829 14.78 14.78 15.4829 14.78 16.35C14.78 17.2171 15.4829 17.92 16.35 17.92Z" fill="#212529"/>
<path d="M8.51995 17.92C9.38704 17.92 10.09 17.2171 10.09 16.35C10.09 15.4829 9.38704 14.78 8.51995 14.78C7.65286 14.78 6.94995 15.4829 6.94995 16.35C6.94995 17.2171 7.65286 17.92 8.51995 17.92Z" fill="#212529"/>
<path d="M12.4299 14.0001C13.297 14.0001 13.9999 13.2972 13.9999 12.4301C13.9999 11.563 13.297 10.8601 12.4299 10.8601C11.5628 10.8601 10.8599 11.563 10.8599 12.4301C10.8599 13.2972 11.5628 14.0001 12.4299 14.0001Z" fill="#212529"/>
<path d="M12.4299 6.18004C13.297 6.18004 13.9999 5.47713 13.9999 4.61004C13.9999 3.74295 13.297 3.04004 12.4299 3.04004C11.5628 3.04004 10.8599 3.74295 10.8599 4.61004C10.8599 5.47713 11.5628 6.18004 12.4299 6.18004Z" fill="#212529"/>
<path d="M20.2599 14.0001C21.127 14.0001 21.8299 13.2972 21.8299 12.4301C21.8299 11.563 21.127 10.8601 20.2599 10.8601C19.3929 10.8601 18.6899 11.563 18.6899 12.4301C18.6899 13.2972 19.3929 14.0001 20.2599 14.0001Z" fill="#212529"/>
<path d="M16.35 10.09C17.2171 10.09 17.92 9.38704 17.92 8.51995C17.92 7.65286 17.2171 6.94995 16.35 6.94995C15.4829 6.94995 14.78 7.65286 14.78 8.51995C14.78 9.38704 15.4829 10.09 16.35 10.09Z" fill="#212529"/>
<path d="M8.51995 10.09C9.38704 10.09 10.09 9.38704 10.09 8.51995C10.09 7.65286 9.38704 6.94995 8.51995 6.94995C7.65286 6.94995 6.94995 7.65286 6.94995 8.51995C6.94995 9.38704 7.65286 10.09 8.51995 10.09Z" fill="#212529"/>
<path d="M20.2599 6.18004C21.127 6.18004 21.8299 5.47713 21.8299 4.61004C21.8299 3.74295 21.127 3.04004 20.2599 3.04004C19.3929 3.04004 18.6899 3.74295 18.6899 4.61004C18.6899 5.47713 19.3929 6.18004 20.2599 6.18004Z" fill="#212529"/>
<path d="M16.35 32.7901C17.2171 32.7901 17.92 32.0872 17.92 31.2201C17.92 30.3531 17.2171 29.6501 16.35 29.6501C15.4829 29.6501 14.78 30.3531 14.78 31.2201C14.78 32.0872 15.4829 32.7901 16.35 32.7901Z" fill="#212529"/>
<path d="M8.51995 32.7901C9.38704 32.7901 10.09 32.0872 10.09 31.2201C10.09 30.3531 9.38704 29.6501 8.51995 29.6501C7.65286 29.6501 6.94995 30.3531 6.94995 31.2201C6.94995 32.0872 7.65286 32.7901 8.51995 32.7901Z" fill="#212529"/>
<path d="M12.4299 28.8702C13.297 28.8702 13.9999 28.1673 13.9999 27.3002C13.9999 26.4331 13.297 25.7302 12.4299 25.7302C11.5628 25.7302 10.8599 26.4331 10.8599 27.3002C10.8599 28.1673 11.5628 28.8702 12.4299 28.8702Z" fill="#212529"/>
<path d="M12.4299 21.0502C13.297 21.0502 13.9999 20.3472 13.9999 19.4802C13.9999 18.6131 13.297 17.9102 12.4299 17.9102C11.5628 17.9102 10.8599 18.6131 10.8599 19.4802C10.8599 20.3472 11.5628 21.0502 12.4299 21.0502Z" fill="#212529"/>
<path d="M20.2599 28.8702C21.127 28.8702 21.8299 28.1673 21.8299 27.3002C21.8299 26.4331 21.127 25.7302 20.2599 25.7302C19.3929 25.7302 18.6899 26.4331 18.6899 27.3002C18.6899 28.1673 19.3929 28.8702 20.2599 28.8702Z" fill="#212529"/>
<path d="M16.35 24.9601C17.2171 24.9601 17.92 24.2572 17.92 23.3901C17.92 22.523 17.2171 21.8201 16.35 21.8201C15.4829 21.8201 14.78 22.523 14.78 23.3901C14.78 24.2572 15.4829 24.9601 16.35 24.9601Z" fill="#212529"/>
<path d="M8.51995 24.9601C9.38704 24.9601 10.09 24.2572 10.09 23.3901C10.09 22.523 9.38704 21.8201 8.51995 21.8201C7.65286 21.8201 6.94995 22.523 6.94995 23.3901C6.94995 24.2572 7.65286 24.9601 8.51995 24.9601Z" fill="#212529"/>
<path d="M20.2599 21.0502C21.127 21.0502 21.8299 20.3472 21.8299 19.4802C21.8299 18.6131 21.127 17.9102 20.2599 17.9102C19.3929 17.9102 18.6899 18.6131 18.6899 19.4802C18.6899 20.3472 19.3929 21.0502 20.2599 21.0502Z" fill="#212529"/>
<path d="M16.35 47.66C17.2171 47.66 17.92 46.9571 17.92 46.09C17.92 45.2229 17.2171 44.52 16.35 44.52C15.4829 44.52 14.78 45.2229 14.78 46.09C14.78 46.9571 15.4829 47.66 16.35 47.66Z" fill="#212529"/>
<path d="M8.51995 47.66C9.38704 47.66 10.09 46.9571 10.09 46.09C10.09 45.2229 9.38704 44.52 8.51995 44.52C7.65286 44.52 6.94995 45.2229 6.94995 46.09C6.94995 46.9571 7.65286 47.66 8.51995 47.66Z" fill="#212529"/>
<path d="M12.4299 43.7401C13.297 43.7401 13.9999 43.0372 13.9999 42.1701C13.9999 41.303 13.297 40.6001 12.4299 40.6001C11.5628 40.6001 10.8599 41.303 10.8599 42.1701C10.8599 43.0372 11.5628 43.7401 12.4299 43.7401Z" fill="#212529"/>
<path d="M12.4299 35.92C13.297 35.92 13.9999 35.2171 13.9999 34.35C13.9999 33.4829 13.297 32.78 12.4299 32.78C11.5628 32.78 10.8599 33.4829 10.8599 34.35C10.8599 35.2171 11.5628 35.92 12.4299 35.92Z" fill="#212529"/>
<path d="M20.2599 43.7401C21.127 43.7401 21.8299 43.0372 21.8299 42.1701C21.8299 41.303 21.127 40.6001 20.2599 40.6001C19.3929 40.6001 18.6899 41.303 18.6899 42.1701C18.6899 43.0372 19.3929 43.7401 20.2599 43.7401Z" fill="#212529"/>
<path d="M16.35 39.8299C17.2171 39.8299 17.92 39.127 17.92 38.2599C17.92 37.3929 17.2171 36.6899 16.35 36.6899C15.4829 36.6899 14.78 37.3929 14.78 38.2599C14.78 39.127 15.4829 39.8299 16.35 39.8299Z" fill="#212529"/>
<path d="M8.51995 39.8299C9.38704 39.8299 10.09 39.127 10.09 38.2599C10.09 37.3929 9.38704 36.6899 8.51995 36.6899C7.65286 36.6899 6.94995 37.3929 6.94995 38.2599C6.94995 39.127 7.65286 39.8299 8.51995 39.8299Z" fill="#212529"/>
<path d="M20.2599 35.92C21.127 35.92 21.8299 35.2171 21.8299 34.35C21.8299 33.4829 21.127 32.78 20.2599 32.78C19.3929 32.78 18.6899 33.4829 18.6899 34.35C18.6899 35.2171 19.3929 35.92 20.2599 35.92Z" fill="#212529"/>
<path d="M16.35 62.5301C17.2171 62.5301 17.92 61.8272 17.92 60.9601C17.92 60.093 17.2171 59.3901 16.35 59.3901C15.4829 59.3901 14.78 60.093 14.78 60.9601C14.78 61.8272 15.4829 62.5301 16.35 62.5301Z" fill="#212529"/>
<path d="M8.51995 62.5301C9.38704 62.5301 10.09 61.8272 10.09 60.9601C10.09 60.093 9.38704 59.3901 8.51995 59.3901C7.65286 59.3901 6.94995 60.093 6.94995 60.9601C6.94995 61.8272 7.65286 62.5301 8.51995 62.5301Z" fill="#212529"/>
<path d="M12.4299 58.6102C13.297 58.6102 13.9999 57.9073 13.9999 57.0402C13.9999 56.1731 13.297 55.4702 12.4299 55.4702C11.5628 55.4702 10.8599 56.1731 10.8599 57.0402C10.8599 57.9073 11.5628 58.6102 12.4299 58.6102Z" fill="#212529"/>
<path d="M12.4299 50.7901C13.297 50.7901 13.9999 50.0872 13.9999 49.2201C13.9999 48.3531 13.297 47.6501 12.4299 47.6501C11.5628 47.6501 10.8599 48.3531 10.8599 49.2201C10.8599 50.0872 11.5628 50.7901 12.4299 50.7901Z" fill="#212529"/>
<path d="M20.2599 58.6102C21.127 58.6102 21.8299 57.9073 21.8299 57.0402C21.8299 56.1731 21.127 55.4702 20.2599 55.4702C19.3929 55.4702 18.6899 56.1731 18.6899 57.0402C18.6899 57.9073 19.3929 58.6102 20.2599 58.6102Z" fill="#212529"/>
<path d="M16.35 54.7001C17.2171 54.7001 17.92 53.9971 17.92 53.1301C17.92 52.263 17.2171 51.5601 16.35 51.5601C15.4829 51.5601 14.78 52.263 14.78 53.1301C14.78 53.9971 15.4829 54.7001 16.35 54.7001Z" fill="#212529"/>
<path d="M8.51995 54.7001C9.38704 54.7001 10.09 53.9971 10.09 53.1301C10.09 52.263 9.38704 51.5601 8.51995 51.5601C7.65286 51.5601 6.94995 52.263 6.94995 53.1301C6.94995 53.9971 7.65286 54.7001 8.51995 54.7001Z" fill="#212529"/>
<path d="M20.2599 50.7901C21.127 50.7901 21.8299 50.0872 21.8299 49.2201C21.8299 48.3531 21.127 47.6501 20.2599 47.6501C19.3929 47.6501 18.6899 48.3531 18.6899 49.2201C18.6899 50.0872 19.3929 50.7901 20.2599 50.7901Z" fill="#212529"/>
<path d="M16.35 77.4C17.2171 77.4 17.92 76.6971 17.92 75.83C17.92 74.9629 17.2171 74.26 16.35 74.26C15.4829 74.26 14.78 74.9629 14.78 75.83C14.78 76.6971 15.4829 77.4 16.35 77.4Z" fill="#212529"/>
<path d="M8.51995 77.4C9.38704 77.4 10.09 76.6971 10.09 75.83C10.09 74.9629 9.38704 74.26 8.51995 74.26C7.65286 74.26 6.94995 74.9629 6.94995 75.83C6.94995 76.6971 7.65286 77.4 8.51995 77.4Z" fill="#212529"/>
<path d="M12.4299 73.4801C13.297 73.4801 13.9999 72.7772 13.9999 71.9101C13.9999 71.043 13.297 70.3401 12.4299 70.3401C11.5628 70.3401 10.8599 71.043 10.8599 71.9101C10.8599 72.7772 11.5628 73.4801 12.4299 73.4801Z" fill="#212529"/>
<path d="M12.4299 65.66C13.297 65.66 13.9999 64.9571 13.9999 64.09C13.9999 63.2229 13.297 62.52 12.4299 62.52C11.5628 62.52 10.8599 63.2229 10.8599 64.09C10.8599 64.9571 11.5628 65.66 12.4299 65.66Z" fill="#212529"/>
<path d="M20.2599 73.4801C21.127 73.4801 21.8299 72.7772 21.8299 71.9101C21.8299 71.043 21.127 70.3401 20.2599 70.3401C19.3929 70.3401 18.6899 71.043 18.6899 71.9101C18.6899 72.7772 19.3929 73.4801 20.2599 73.4801Z" fill="#212529"/>
<path d="M16.35 69.5699C17.2171 69.5699 17.92 68.867 17.92 67.9999C17.92 67.1328 17.2171 66.4299 16.35 66.4299C15.4829 66.4299 14.78 67.1328 14.78 67.9999C14.78 68.867 15.4829 69.5699 16.35 69.5699Z" fill="#212529"/>
<path d="M8.51995 69.5699C9.38704 69.5699 10.09 68.867 10.09 67.9999C10.09 67.1328 9.38704 66.4299 8.51995 66.4299C7.65286 66.4299 6.94995 67.1328 6.94995 67.9999C6.94995 68.867 7.65286 69.5699 8.51995 69.5699Z" fill="#212529"/>
<path d="M20.2599 65.66C21.127 65.66 21.8299 64.9571 21.8299 64.09C21.8299 63.2229 21.127 62.52 20.2599 62.52C19.3929 62.52 18.6899 63.2229 18.6899 64.09C18.6899 64.9571 19.3929 65.66 20.2599 65.66Z" fill="#212529"/>
<path d="M16.35 92.2701C17.2171 92.2701 17.92 91.5672 17.92 90.7001C17.92 89.833 17.2171 89.1301 16.35 89.1301C15.4829 89.1301 14.78 89.833 14.78 90.7001C14.78 91.5672 15.4829 92.2701 16.35 92.2701Z" fill="#212529"/>
<path d="M8.51995 92.2701C9.38704 92.2701 10.09 91.5672 10.09 90.7001C10.09 89.833 9.38704 89.1301 8.51995 89.1301C7.65286 89.1301 6.94995 89.833 6.94995 90.7001C6.94995 91.5672 7.65286 92.2701 8.51995 92.2701Z" fill="#212529"/>
<path d="M12.4299 88.3502C13.297 88.3502 13.9999 87.6473 13.9999 86.7802C13.9999 85.9131 13.297 85.2102 12.4299 85.2102C11.5628 85.2102 10.8599 85.9131 10.8599 86.7802C10.8599 87.6473 11.5628 88.3502 12.4299 88.3502Z" fill="#212529"/>
<path d="M12.4299 80.5301C13.297 80.5301 13.9999 79.8272 13.9999 78.9601C13.9999 78.093 13.297 77.3901 12.4299 77.3901C11.5628 77.3901 10.8599 78.093 10.8599 78.9601C10.8599 79.8272 11.5628 80.5301 12.4299 80.5301Z" fill="#212529"/>
<path d="M20.2599 88.3502C21.127 88.3502 21.8299 87.6473 21.8299 86.7802C21.8299 85.9131 21.127 85.2102 20.2599 85.2102C19.3929 85.2102 18.6899 85.9131 18.6899 86.7802C18.6899 87.6473 19.3929 88.3502 20.2599 88.3502Z" fill="#212529"/>
<path d="M16.35 84.44C17.2171 84.44 17.92 83.7371 17.92 82.87C17.92 82.003 17.2171 81.3 16.35 81.3C15.4829 81.3 14.78 82.003 14.78 82.87C14.78 83.7371 15.4829 84.44 16.35 84.44Z" fill="#212529"/>
<path d="M8.51995 84.44C9.38704 84.44 10.09 83.7371 10.09 82.87C10.09 82.003 9.38704 81.3 8.51995 81.3C7.65286 81.3 6.94995 82.003 6.94995 82.87C6.94995 83.7371 7.65286 84.44 8.51995 84.44Z" fill="#212529"/>
<path d="M20.2599 80.5301C21.127 80.5301 21.8299 79.8272 21.8299 78.9601C21.8299 78.093 21.127 77.3901 20.2599 77.3901C19.3929 77.3901 18.6899 78.093 18.6899 78.9601C18.6899 79.8272 19.3929 80.5301 20.2599 80.5301Z" fill="#212529"/>
<path d="M5.38982 14.0001C6.25691 14.0001 6.95982 13.2972 6.95982 12.4301C6.95982 11.563 6.25691 10.8601 5.38982 10.8601C4.52274 10.8601 3.81982 11.563 3.81982 12.4301C3.81982 13.2972 4.52274 14.0001 5.38982 14.0001Z" fill="#212529"/>
<path d="M5.38982 6.18004C6.25691 6.18004 6.95982 5.47713 6.95982 4.61004C6.95982 3.74295 6.25691 3.04004 5.38982 3.04004C4.52274 3.04004 3.81982 3.74295 3.81982 4.61004C3.81982 5.47713 4.52274 6.18004 5.38982 6.18004Z" fill="#212529"/>
<path d="M5.38982 28.8702C6.25691 28.8702 6.95982 28.1673 6.95982 27.3002C6.95982 26.4331 6.25691 25.7302 5.38982 25.7302C4.52274 25.7302 3.81982 26.4331 3.81982 27.3002C3.81982 28.1673 4.52274 28.8702 5.38982 28.8702Z" fill="#212529"/>
<path d="M5.38982 21.0502C6.25691 21.0502 6.95982 20.3472 6.95982 19.4802C6.95982 18.6131 6.25691 17.9102 5.38982 17.9102C4.52274 17.9102 3.81982 18.6131 3.81982 19.4802C3.81982 20.3472 4.52274 21.0502 5.38982 21.0502Z" fill="#212529"/>
<path d="M5.38982 43.7401C6.25691 43.7401 6.95982 43.0372 6.95982 42.1701C6.95982 41.303 6.25691 40.6001 5.38982 40.6001C4.52274 40.6001 3.81982 41.303 3.81982 42.1701C3.81982 43.0372 4.52274 43.7401 5.38982 43.7401Z" fill="#212529"/>
<path d="M5.38982 35.92C6.25691 35.92 6.95982 35.2171 6.95982 34.35C6.95982 33.4829 6.25691 32.78 5.38982 32.78C4.52274 32.78 3.81982 33.4829 3.81982 34.35C3.81982 35.2171 4.52274 35.92 5.38982 35.92Z" fill="#212529"/>
<path d="M5.38982 58.6102C6.25691 58.6102 6.95982 57.9073 6.95982 57.0402C6.95982 56.1731 6.25691 55.4702 5.38982 55.4702C4.52274 55.4702 3.81982 56.1731 3.81982 57.0402C3.81982 57.9073 4.52274 58.6102 5.38982 58.6102Z" fill="#212529"/>
<path d="M5.38982 50.7901C6.25691 50.7901 6.95982 50.0872 6.95982 49.2201C6.95982 48.3531 6.25691 47.6501 5.38982 47.6501C4.52274 47.6501 3.81982 48.3531 3.81982 49.2201C3.81982 50.0872 4.52274 50.7901 5.38982 50.7901Z" fill="#212529"/>
<path d="M5.38982 73.4801C6.25691 73.4801 6.95982 72.7772 6.95982 71.9101C6.95982 71.043 6.25691 70.3401 5.38982 70.3401C4.52274 70.3401 3.81982 71.043 3.81982 71.9101C3.81982 72.7772 4.52274 73.4801 5.38982 73.4801Z" fill="#212529"/>
<path d="M5.38982 65.66C6.25691 65.66 6.95982 64.9571 6.95982 64.09C6.95982 63.2229 6.25691 62.52 5.38982 62.52C4.52274 62.52 3.81982 63.2229 3.81982 64.09C3.81982 64.9571 4.52274 65.66 5.38982 65.66Z" fill="#212529"/>
<path d="M5.38982 88.3502C6.25691 88.3502 6.95982 87.6473 6.95982 86.7802C6.95982 85.9131 6.25691 85.2102 5.38982 85.2102C4.52274 85.2102 3.81982 85.9131 3.81982 86.7802C3.81982 87.6473 4.52274 88.3502 5.38982 88.3502Z" fill="#212529"/>
<path d="M5.38982 80.5301C6.25691 80.5301 6.95982 79.8272 6.95982 78.9601C6.95982 78.093 6.25691 77.3901 5.38982 77.3901C4.52274 77.3901 3.81982 78.093 3.81982 78.9601C3.81982 79.8272 4.52274 80.5301 5.38982 80.5301Z" fill="#212529"/>
</g>
<path d="M4.99989 94.8199C4.60146 94.817 4.21152 94.7044 3.87285 94.4945C3.53417 94.2845 3.25983 93.9854 3.07989 93.6299C2.87898 93.2283 2.80949 92.7737 2.88128 92.3304C2.95307 91.8871 3.16249 91.4776 3.47989 91.1599C6.92989 87.7099 9.31989 80.3899 10.2399 70.4999C5.46325 63.8438 2.88329 55.8626 2.85989 47.6699C2.85989 24.2399 23.9999 5.17993 49.9999 5.17993C75.9999 5.17993 97.1399 24.2399 97.1399 47.6699C97.1399 71.0999 75.9999 90.1599 49.9999 90.1599C43.5132 90.1812 37.0818 88.9662 31.0499 86.5799C20.4099 92.5799 5.92989 94.7099 5.29989 94.7899C5.20113 94.8098 5.10064 94.8198 4.99989 94.8199ZM49.9999 9.46993C26.3699 9.46993 7.13989 26.6099 7.13989 47.6699C7.14852 55.2415 9.60386 62.6075 14.1399 68.6699C14.447 69.088 14.5926 69.603 14.5499 70.1199C14.0299 76.2399 12.7799 83.9299 9.7699 89.6399C15.0599 88.4999 23.4199 86.2299 29.7699 82.4099C30.0604 82.238 30.3868 82.1359 30.7234 82.1116C31.0601 82.0873 31.3978 82.1415 31.7099 82.2699C37.5023 84.6893 43.7227 85.917 49.9999 85.8799C73.6299 85.8799 92.8599 68.7399 92.8599 47.6699C92.8599 26.5999 73.6299 9.46993 49.9999 9.46993Z" fill="#212529"/>
</svg>
