<svg width="24" height="24" viewBox="0 0 24 24" fill="none" xmlns="http://www.w3.org/2000/svg">
<mask id="mask0_18_1819" style="mask-type:alpha" maskUnits="userSpaceOnUse" x="1" y="2" width="21" height="20">
<path fill-rule="evenodd" clip-rule="evenodd" d="M11.5 21C17.299 21 22 16.7467 22 11.5C22 6.25329 17.299 2 11.5 2C5.70101 2 1 6.25329 1 11.5C1 13.8561 1.94799 16.0119 3.5177 17.6721C3.38313 18.9563 2.92141 20.416 2.64938 21.276C2.52805 21.6595 2.44445 21.9238 2.44445 22C2.70859 22 5.73566 20.9953 7.22645 20.1801C8.53193 20.7071 9.97816 21 11.5 21Z" fill="#3B0000"/>
</mask>
<g mask="url(#mask0_18_1819)">
<path d="M21.4999 4.52003C21.7042 4.52003 21.8699 4.35437 21.8699 4.15003C21.8699 3.94568 21.7042 3.78003 21.4999 3.78003C21.2955 3.78003 21.1299 3.94568 21.1299 4.15003C21.1299 4.35437 21.2955 4.52003 21.4999 4.52003Z" fill="#212529"/>
<path d="M19.6698 4.52003C19.8742 4.52003 20.0398 4.35437 20.0398 4.15003C20.0398 3.94568 19.8742 3.78003 19.6698 3.78003C19.4655 3.78003 19.2998 3.94568 19.2998 4.15003C19.2998 4.35437 19.4655 4.52003 19.6698 4.52003Z" fill="#212529"/>
<path d="M20.5797 3.60011C20.7841 3.60011 20.9497 3.43445 20.9497 3.23011C20.9497 3.02576 20.7841 2.86011 20.5797 2.86011C20.3754 2.86011 20.2097 3.02576 20.2097 3.23011C20.2097 3.43445 20.3754 3.60011 20.5797 3.60011Z" fill="#212529"/>
<path d="M21.4999 2.68995C21.7042 2.68995 21.8699 2.5243 21.8699 2.31995C21.8699 2.11561 21.7042 1.94995 21.4999 1.94995C21.2955 1.94995 21.1299 2.11561 21.1299 2.31995C21.1299 2.5243 21.2955 2.68995 21.4999 2.68995Z" fill="#212529"/>
<path d="M19.6698 2.68995C19.8742 2.68995 20.0398 2.5243 20.0398 2.31995C20.0398 2.11561 19.8742 1.94995 19.6698 1.94995C19.4655 1.94995 19.2998 2.11561 19.2998 2.31995C19.2998 2.5243 19.4655 2.68995 19.6698 2.68995Z" fill="#212529"/>
<path d="M21.4999 7.99C21.7042 7.99 21.8699 7.82435 21.8699 7.62C21.8699 7.41565 21.7042 7.25 21.4999 7.25C21.2955 7.25 21.1299 7.41565 21.1299 7.62C21.1299 7.82435 21.2955 7.99 21.4999 7.99Z" fill="#212529"/>
<path d="M19.6698 7.99C19.8742 7.99 20.0398 7.82435 20.0398 7.62C20.0398 7.41565 19.8742 7.25 19.6698 7.25C19.4655 7.25 19.2998 7.41565 19.2998 7.62C19.2998 7.82435 19.4655 7.99 19.6698 7.99Z" fill="#212529"/>
<path d="M20.5797 7.07008C20.7841 7.07008 20.9497 6.90442 20.9497 6.70008C20.9497 6.49573 20.7841 6.33008 20.5797 6.33008C20.3754 6.33008 20.2097 6.49573 20.2097 6.70008C20.2097 6.90442 20.3754 7.07008 20.5797 7.07008Z" fill="#212529"/>
<path d="M20.5797 5.25001C20.7841 5.25001 20.9497 5.08435 20.9497 4.88001C20.9497 4.67566 20.7841 4.51001 20.5797 4.51001C20.3754 4.51001 20.2097 4.67566 20.2097 4.88001C20.2097 5.08435 20.3754 5.25001 20.5797 5.25001Z" fill="#212529"/>
<path d="M21.4999 6.15992C21.7042 6.15992 21.8699 5.99427 21.8699 5.78992C21.8699 5.58558 21.7042 5.41992 21.4999 5.41992C21.2955 5.41992 21.1299 5.58558 21.1299 5.78992C21.1299 5.99427 21.2955 6.15992 21.4999 6.15992Z" fill="#212529"/>
<path d="M19.6698 6.15992C19.8742 6.15992 20.0398 5.99427 20.0398 5.78992C20.0398 5.58558 19.8742 5.41992 19.6698 5.41992C19.4655 5.41992 19.2998 5.58558 19.2998 5.78992C19.2998 5.99427 19.4655 6.15992 19.6698 6.15992Z" fill="#212529"/>
<path d="M21.4999 11.46C21.7042 11.46 21.8699 11.2943 21.8699 11.09C21.8699 10.8856 21.7042 10.72 21.4999 10.72C21.2955 10.72 21.1299 10.8856 21.1299 11.09C21.1299 11.2943 21.2955 11.46 21.4999 11.46Z" fill="#212529"/>
<path d="M19.6698 11.46C19.8742 11.46 20.0398 11.2943 20.0398 11.09C20.0398 10.8856 19.8742 10.72 19.6698 10.72C19.4655 10.72 19.2998 10.8856 19.2998 11.09C19.2998 11.2943 19.4655 11.46 19.6698 11.46Z" fill="#212529"/>
<path d="M20.5797 10.54C20.7841 10.54 20.9497 10.3744 20.9497 10.17C20.9497 9.9657 20.7841 9.80005 20.5797 9.80005C20.3754 9.80005 20.2097 9.9657 20.2097 10.17C20.2097 10.3744 20.3754 10.54 20.5797 10.54Z" fill="#212529"/>
<path d="M20.5797 8.71998C20.7841 8.71998 20.9497 8.55433 20.9497 8.34998C20.9497 8.14564 20.7841 7.97998 20.5797 7.97998C20.3754 7.97998 20.2097 8.14564 20.2097 8.34998C20.2097 8.55433 20.3754 8.71998 20.5797 8.71998Z" fill="#212529"/>
<path d="M21.4999 9.62989C21.7042 9.62989 21.8699 9.46424 21.8699 9.25989C21.8699 9.05555 21.7042 8.88989 21.4999 8.88989C21.2955 8.88989 21.1299 9.05555 21.1299 9.25989C21.1299 9.46424 21.2955 9.62989 21.4999 9.62989Z" fill="#212529"/>
<path d="M19.6698 9.62989C19.8742 9.62989 20.0398 9.46424 20.0398 9.25989C20.0398 9.05555 19.8742 8.88989 19.6698 8.88989C19.4655 8.88989 19.2998 9.05555 19.2998 9.25989C19.2998 9.46424 19.4655 9.62989 19.6698 9.62989Z" fill="#212529"/>
<path d="M21.4999 14.9299C21.7042 14.9299 21.8699 14.7643 21.8699 14.5599C21.8699 14.3556 21.7042 14.1899 21.4999 14.1899C21.2955 14.1899 21.1299 14.3556 21.1299 14.5599C21.1299 14.7643 21.2955 14.9299 21.4999 14.9299Z" fill="#212529"/>
<path d="M19.6698 14.9299C19.8742 14.9299 20.0398 14.7643 20.0398 14.5599C20.0398 14.3556 19.8742 14.1899 19.6698 14.1899C19.4655 14.1899 19.2998 14.3556 19.2998 14.5599C19.2998 14.7643 19.4655 14.9299 19.6698 14.9299Z" fill="#212529"/>
<path d="M20.5797 14.01C20.7841 14.01 20.9497 13.8444 20.9497 13.64C20.9497 13.4357 20.7841 13.27 20.5797 13.27C20.3754 13.27 20.2097 13.4357 20.2097 13.64C20.2097 13.8444 20.3754 14.01 20.5797 14.01Z" fill="#212529"/>
<path d="M20.5797 12.19C20.7841 12.19 20.9497 12.0243 20.9497 11.82C20.9497 11.6156 20.7841 11.45 20.5797 11.45C20.3754 11.45 20.2097 11.6156 20.2097 11.82C20.2097 12.0243 20.3754 12.19 20.5797 12.19Z" fill="#212529"/>
<path d="M21.4999 13.0999C21.7042 13.0999 21.8699 12.9342 21.8699 12.7299C21.8699 12.5255 21.7042 12.3599 21.4999 12.3599C21.2955 12.3599 21.1299 12.5255 21.1299 12.7299C21.1299 12.9342 21.2955 13.0999 21.4999 13.0999Z" fill="#212529"/>
<path d="M19.6698 13.0999C19.8742 13.0999 20.0398 12.9342 20.0398 12.7299C20.0398 12.5255 19.8742 12.3599 19.6698 12.3599C19.4655 12.3599 19.2998 12.5255 19.2998 12.7299C19.2998 12.9342 19.4655 13.0999 19.6698 13.0999Z" fill="#212529"/>
<path d="M21.4999 18.3999C21.7042 18.3999 21.8699 18.2343 21.8699 18.0299C21.8699 17.8256 21.7042 17.6599 21.4999 17.6599C21.2955 17.6599 21.1299 17.8256 21.1299 18.0299C21.1299 18.2343 21.2955 18.3999 21.4999 18.3999Z" fill="#212529"/>
<path d="M19.6698 18.3999C19.8742 18.3999 20.0398 18.2343 20.0398 18.0299C20.0398 17.8256 19.8742 17.6599 19.6698 17.6599C19.4655 17.6599 19.2998 17.8256 19.2998 18.0299C19.2998 18.2343 19.4655 18.3999 19.6698 18.3999Z" fill="#212529"/>
<path d="M20.5797 17.48C20.7841 17.48 20.9497 17.3143 20.9497 17.11C20.9497 16.9056 20.7841 16.74 20.5797 16.74C20.3754 16.74 20.2097 16.9056 20.2097 17.11C20.2097 17.3143 20.3754 17.48 20.5797 17.48Z" fill="#212529"/>
<path d="M20.5797 15.6599C20.7841 15.6599 20.9497 15.4943 20.9497 15.2899C20.9497 15.0856 20.7841 14.9199 20.5797 14.9199C20.3754 14.9199 20.2097 15.0856 20.2097 15.2899C20.2097 15.4943 20.3754 15.6599 20.5797 15.6599Z" fill="#212529"/>
<path d="M21.4999 16.5698C21.7042 16.5698 21.8699 16.4042 21.8699 16.1998C21.8699 15.9955 21.7042 15.8298 21.4999 15.8298C21.2955 15.8298 21.1299 15.9955 21.1299 16.1998C21.1299 16.4042 21.2955 16.5698 21.4999 16.5698Z" fill="#212529"/>
<path d="M19.6698 16.5698C19.8742 16.5698 20.0398 16.4042 20.0398 16.1998C20.0398 15.9955 19.8742 15.8298 19.6698 15.8298C19.4655 15.8298 19.2998 15.9955 19.2998 16.1998C19.2998 16.4042 19.4655 16.5698 19.6698 16.5698Z" fill="#212529"/>
<path d="M21.4999 21.8701C21.7042 21.8701 21.8699 21.7045 21.8699 21.5001C21.8699 21.2958 21.7042 21.1301 21.4999 21.1301C21.2955 21.1301 21.1299 21.2958 21.1299 21.5001C21.1299 21.7045 21.2955 21.8701 21.4999 21.8701Z" fill="#212529"/>
<path d="M19.6698 21.8701C19.8742 21.8701 20.0398 21.7045 20.0398 21.5001C20.0398 21.2958 19.8742 21.1301 19.6698 21.1301C19.4655 21.1301 19.2998 21.2958 19.2998 21.5001C19.2998 21.7045 19.4655 21.8701 19.6698 21.8701Z" fill="#212529"/>
<path d="M20.5797 20.9502C20.7841 20.9502 20.9497 20.7846 20.9497 20.5802C20.9497 20.3759 20.7841 20.2102 20.5797 20.2102C20.3754 20.2102 20.2097 20.3759 20.2097 20.5802C20.2097 20.7846 20.3754 20.9502 20.5797 20.9502Z" fill="#212529"/>
<path d="M20.5797 19.1301C20.7841 19.1301 20.9497 18.9645 20.9497 18.7601C20.9497 18.5558 20.7841 18.3901 20.5797 18.3901C20.3754 18.3901 20.2097 18.5558 20.2097 18.7601C20.2097 18.9645 20.3754 19.1301 20.5797 19.1301Z" fill="#212529"/>
<path d="M21.4999 20.0401C21.7042 20.0401 21.8699 19.8744 21.8699 19.67C21.8699 19.4657 21.7042 19.3 21.4999 19.3C21.2955 19.3 21.1299 19.4657 21.1299 19.67C21.1299 19.8744 21.2955 20.0401 21.4999 20.0401Z" fill="#212529"/>
<path d="M19.6698 20.0401C19.8742 20.0401 20.0398 19.8744 20.0398 19.67C20.0398 19.4657 19.8742 19.3 19.6698 19.3C19.4655 19.3 19.2998 19.4657 19.2998 19.67C19.2998 19.8744 19.4655 20.0401 19.6698 20.0401Z" fill="#212529"/>
<path d="M20.5797 22.6001C20.7841 22.6001 20.9497 22.4345 20.9497 22.2301C20.9497 22.0258 20.7841 21.8601 20.5797 21.8601C20.3754 21.8601 20.2097 22.0258 20.2097 22.2301C20.2097 22.4345 20.3754 22.6001 20.5797 22.6001Z" fill="#212529"/>
<path d="M18.0299 4.52003C18.2343 4.52003 18.3999 4.35437 18.3999 4.15003C18.3999 3.94568 18.2343 3.78003 18.0299 3.78003C17.8256 3.78003 17.6599 3.94568 17.6599 4.15003C17.6599 4.35437 17.8256 4.52003 18.0299 4.52003Z" fill="#212529"/>
<path d="M16.1998 4.52003C16.4042 4.52003 16.5698 4.35437 16.5698 4.15003C16.5698 3.94568 16.4042 3.78003 16.1998 3.78003C15.9955 3.78003 15.8298 3.94568 15.8298 4.15003C15.8298 4.35437 15.9955 4.52003 16.1998 4.52003Z" fill="#212529"/>
<path d="M17.1097 3.60011C17.3141 3.60011 17.4797 3.43445 17.4797 3.23011C17.4797 3.02576 17.3141 2.86011 17.1097 2.86011C16.9054 2.86011 16.7397 3.02576 16.7397 3.23011C16.7397 3.43445 16.9054 3.60011 17.1097 3.60011Z" fill="#212529"/>
<path d="M18.9398 3.60011C19.1442 3.60011 19.3098 3.43445 19.3098 3.23011C19.3098 3.02576 19.1442 2.86011 18.9398 2.86011C18.7355 2.86011 18.5698 3.02576 18.5698 3.23011C18.5698 3.43445 18.7355 3.60011 18.9398 3.60011Z" fill="#212529"/>
<path d="M18.0299 2.68995C18.2343 2.68995 18.3999 2.5243 18.3999 2.31995C18.3999 2.11561 18.2343 1.94995 18.0299 1.94995C17.8256 1.94995 17.6599 2.11561 17.6599 2.31995C17.6599 2.5243 17.8256 2.68995 18.0299 2.68995Z" fill="#212529"/>
<path d="M16.1998 2.68995C16.4042 2.68995 16.5698 2.5243 16.5698 2.31995C16.5698 2.11561 16.4042 1.94995 16.1998 1.94995C15.9955 1.94995 15.8298 2.11561 15.8298 2.31995C15.8298 2.5243 15.9955 2.68995 16.1998 2.68995Z" fill="#212529"/>
<path d="M18.0299 7.99C18.2343 7.99 18.3999 7.82435 18.3999 7.62C18.3999 7.41565 18.2343 7.25 18.0299 7.25C17.8256 7.25 17.6599 7.41565 17.6599 7.62C17.6599 7.82435 17.8256 7.99 18.0299 7.99Z" fill="#212529"/>
<path d="M16.1998 7.99C16.4042 7.99 16.5698 7.82435 16.5698 7.62C16.5698 7.41565 16.4042 7.25 16.1998 7.25C15.9955 7.25 15.8298 7.41565 15.8298 7.62C15.8298 7.82435 15.9955 7.99 16.1998 7.99Z" fill="#212529"/>
<path d="M17.1097 7.07008C17.3141 7.07008 17.4797 6.90442 17.4797 6.70008C17.4797 6.49573 17.3141 6.33008 17.1097 6.33008C16.9054 6.33008 16.7397 6.49573 16.7397 6.70008C16.7397 6.90442 16.9054 7.07008 17.1097 7.07008Z" fill="#212529"/>
<path d="M17.1097 5.25001C17.3141 5.25001 17.4797 5.08435 17.4797 4.88001C17.4797 4.67566 17.3141 4.51001 17.1097 4.51001C16.9054 4.51001 16.7397 4.67566 16.7397 4.88001C16.7397 5.08435 16.9054 5.25001 17.1097 5.25001Z" fill="#212529"/>
<path d="M18.9398 7.07008C19.1442 7.07008 19.3098 6.90442 19.3098 6.70008C19.3098 6.49573 19.1442 6.33008 18.9398 6.33008C18.7355 6.33008 18.5698 6.49573 18.5698 6.70008C18.5698 6.90442 18.7355 7.07008 18.9398 7.07008Z" fill="#212529"/>
<path d="M18.0299 6.15992C18.2343 6.15992 18.3999 5.99427 18.3999 5.78992C18.3999 5.58558 18.2343 5.41992 18.0299 5.41992C17.8256 5.41992 17.6599 5.58558 17.6599 5.78992C17.6599 5.99427 17.8256 6.15992 18.0299 6.15992Z" fill="#212529"/>
<path d="M16.1998 6.15992C16.4042 6.15992 16.5698 5.99427 16.5698 5.78992C16.5698 5.58558 16.4042 5.41992 16.1998 5.41992C15.9955 5.41992 15.8298 5.58558 15.8298 5.78992C15.8298 5.99427 15.9955 6.15992 16.1998 6.15992Z" fill="#212529"/>
<path d="M18.9398 5.25001C19.1442 5.25001 19.3098 5.08435 19.3098 4.88001C19.3098 4.67566 19.1442 4.51001 18.9398 4.51001C18.7355 4.51001 18.5698 4.67566 18.5698 4.88001C18.5698 5.08435 18.7355 5.25001 18.9398 5.25001Z" fill="#212529"/>
<path d="M18.0299 11.46C18.2343 11.46 18.3999 11.2943 18.3999 11.09C18.3999 10.8856 18.2343 10.72 18.0299 10.72C17.8256 10.72 17.6599 10.8856 17.6599 11.09C17.6599 11.2943 17.8256 11.46 18.0299 11.46Z" fill="#212529"/>
<path d="M16.1998 11.46C16.4042 11.46 16.5698 11.2943 16.5698 11.09C16.5698 10.8856 16.4042 10.72 16.1998 10.72C15.9955 10.72 15.8298 10.8856 15.8298 11.09C15.8298 11.2943 15.9955 11.46 16.1998 11.46Z" fill="#212529"/>
<path d="M17.1097 10.54C17.3141 10.54 17.4797 10.3744 17.4797 10.17C17.4797 9.9657 17.3141 9.80005 17.1097 9.80005C16.9054 9.80005 16.7397 9.9657 16.7397 10.17C16.7397 10.3744 16.9054 10.54 17.1097 10.54Z" fill="#212529"/>
<path d="M17.1097 8.71998C17.3141 8.71998 17.4797 8.55433 17.4797 8.34998C17.4797 8.14564 17.3141 7.97998 17.1097 7.97998C16.9054 7.97998 16.7397 8.14564 16.7397 8.34998C16.7397 8.55433 16.9054 8.71998 17.1097 8.71998Z" fill="#212529"/>
<path d="M18.9398 10.54C19.1442 10.54 19.3098 10.3744 19.3098 10.17C19.3098 9.9657 19.1442 9.80005 18.9398 9.80005C18.7355 9.80005 18.5698 9.9657 18.5698 10.17C18.5698 10.3744 18.7355 10.54 18.9398 10.54Z" fill="#212529"/>
<path d="M18.0299 9.62989C18.2343 9.62989 18.3999 9.46424 18.3999 9.25989C18.3999 9.05555 18.2343 8.88989 18.0299 8.88989C17.8256 8.88989 17.6599 9.05555 17.6599 9.25989C17.6599 9.46424 17.8256 9.62989 18.0299 9.62989Z" fill="#212529"/>
<path d="M16.1998 9.62989C16.4042 9.62989 16.5698 9.46424 16.5698 9.25989C16.5698 9.05555 16.4042 8.88989 16.1998 8.88989C15.9955 8.88989 15.8298 9.05555 15.8298 9.25989C15.8298 9.46424 15.9955 9.62989 16.1998 9.62989Z" fill="#212529"/>
<path d="M18.9398 8.71998C19.1442 8.71998 19.3098 8.55433 19.3098 8.34998C19.3098 8.14564 19.1442 7.97998 18.9398 7.97998C18.7355 7.97998 18.5698 8.14564 18.5698 8.34998C18.5698 8.55433 18.7355 8.71998 18.9398 8.71998Z" fill="#212529"/>
<path d="M18.0299 14.9299C18.2343 14.9299 18.3999 14.7643 18.3999 14.5599C18.3999 14.3556 18.2343 14.1899 18.0299 14.1899C17.8256 14.1899 17.6599 14.3556 17.6599 14.5599C17.6599 14.7643 17.8256 14.9299 18.0299 14.9299Z" fill="#212529"/>
<path d="M16.1998 14.9299C16.4042 14.9299 16.5698 14.7643 16.5698 14.5599C16.5698 14.3556 16.4042 14.1899 16.1998 14.1899C15.9955 14.1899 15.8298 14.3556 15.8298 14.5599C15.8298 14.7643 15.9955 14.9299 16.1998 14.9299Z" fill="#212529"/>
<path d="M17.1097 14.01C17.3141 14.01 17.4797 13.8444 17.4797 13.64C17.4797 13.4357 17.3141 13.27 17.1097 13.27C16.9054 13.27 16.7397 13.4357 16.7397 13.64C16.7397 13.8444 16.9054 14.01 17.1097 14.01Z" fill="#212529"/>
<path d="M17.1097 12.19C17.3141 12.19 17.4797 12.0243 17.4797 11.82C17.4797 11.6156 17.3141 11.45 17.1097 11.45C16.9054 11.45 16.7397 11.6156 16.7397 11.82C16.7397 12.0243 16.9054 12.19 17.1097 12.19Z" fill="#212529"/>
<path d="M18.9398 14.01C19.1442 14.01 19.3098 13.8444 19.3098 13.64C19.3098 13.4357 19.1442 13.27 18.9398 13.27C18.7355 13.27 18.5698 13.4357 18.5698 13.64C18.5698 13.8444 18.7355 14.01 18.9398 14.01Z" fill="#212529"/>
<path d="M18.0299 13.0999C18.2343 13.0999 18.3999 12.9342 18.3999 12.7299C18.3999 12.5255 18.2343 12.3599 18.0299 12.3599C17.8256 12.3599 17.6599 12.5255 17.6599 12.7299C17.6599 12.9342 17.8256 13.0999 18.0299 13.0999Z" fill="#212529"/>
<path d="M16.1998 13.0999C16.4042 13.0999 16.5698 12.9342 16.5698 12.7299C16.5698 12.5255 16.4042 12.3599 16.1998 12.3599C15.9955 12.3599 15.8298 12.5255 15.8298 12.7299C15.8298 12.9342 15.9955 13.0999 16.1998 13.0999Z" fill="#212529"/>
<path d="M18.9398 12.19C19.1442 12.19 19.3098 12.0243 19.3098 11.82C19.3098 11.6156 19.1442 11.45 18.9398 11.45C18.7355 11.45 18.5698 11.6156 18.5698 11.82C18.5698 12.0243 18.7355 12.19 18.9398 12.19Z" fill="#212529"/>
<path d="M18.0299 18.3999C18.2343 18.3999 18.3999 18.2343 18.3999 18.0299C18.3999 17.8256 18.2343 17.6599 18.0299 17.6599C17.8256 17.6599 17.6599 17.8256 17.6599 18.0299C17.6599 18.2343 17.8256 18.3999 18.0299 18.3999Z" fill="#212529"/>
<path d="M16.1998 18.3999C16.4042 18.3999 16.5698 18.2343 16.5698 18.0299C16.5698 17.8256 16.4042 17.6599 16.1998 17.6599C15.9955 17.6599 15.8298 17.8256 15.8298 18.0299C15.8298 18.2343 15.9955 18.3999 16.1998 18.3999Z" fill="#212529"/>
<path d="M17.1097 17.48C17.3141 17.48 17.4797 17.3143 17.4797 17.11C17.4797 16.9056 17.3141 16.74 17.1097 16.74C16.9054 16.74 16.7397 16.9056 16.7397 17.11C16.7397 17.3143 16.9054 17.48 17.1097 17.48Z" fill="#212529"/>
<path d="M17.1097 15.6599C17.3141 15.6599 17.4797 15.4943 17.4797 15.2899C17.4797 15.0856 17.3141 14.9199 17.1097 14.9199C16.9054 14.9199 16.7397 15.0856 16.7397 15.2899C16.7397 15.4943 16.9054 15.6599 17.1097 15.6599Z" fill="#212529"/>
<path d="M18.9398 17.48C19.1442 17.48 19.3098 17.3143 19.3098 17.11C19.3098 16.9056 19.1442 16.74 18.9398 16.74C18.7355 16.74 18.5698 16.9056 18.5698 17.11C18.5698 17.3143 18.7355 17.48 18.9398 17.48Z" fill="#212529"/>
<path d="M18.0299 16.5698C18.2343 16.5698 18.3999 16.4042 18.3999 16.1998C18.3999 15.9955 18.2343 15.8298 18.0299 15.8298C17.8256 15.8298 17.6599 15.9955 17.6599 16.1998C17.6599 16.4042 17.8256 16.5698 18.0299 16.5698Z" fill="#212529"/>
<path d="M16.1998 16.5698C16.4042 16.5698 16.5698 16.4042 16.5698 16.1998C16.5698 15.9955 16.4042 15.8298 16.1998 15.8298C15.9955 15.8298 15.8298 15.9955 15.8298 16.1998C15.8298 16.4042 15.9955 16.5698 16.1998 16.5698Z" fill="#212529"/>
<path d="M18.9398 15.6599C19.1442 15.6599 19.3098 15.4943 19.3098 15.2899C19.3098 15.0856 19.1442 14.9199 18.9398 14.9199C18.7355 14.9199 18.5698 15.0856 18.5698 15.2899C18.5698 15.4943 18.7355 15.6599 18.9398 15.6599Z" fill="#212529"/>
<path d="M18.0299 21.8701C18.2343 21.8701 18.3999 21.7045 18.3999 21.5001C18.3999 21.2958 18.2343 21.1301 18.0299 21.1301C17.8256 21.1301 17.6599 21.2958 17.6599 21.5001C17.6599 21.7045 17.8256 21.8701 18.0299 21.8701Z" fill="#212529"/>
<path d="M16.1998 21.8701C16.4042 21.8701 16.5698 21.7045 16.5698 21.5001C16.5698 21.2958 16.4042 21.1301 16.1998 21.1301C15.9955 21.1301 15.8298 21.2958 15.8298 21.5001C15.8298 21.7045 15.9955 21.8701 16.1998 21.8701Z" fill="#212529"/>
<path d="M17.1097 20.9502C17.3141 20.9502 17.4797 20.7846 17.4797 20.5802C17.4797 20.3759 17.3141 20.2102 17.1097 20.2102C16.9054 20.2102 16.7397 20.3759 16.7397 20.5802C16.7397 20.7846 16.9054 20.9502 17.1097 20.9502Z" fill="#212529"/>
<path d="M17.1097 19.1301C17.3141 19.1301 17.4797 18.9645 17.4797 18.7601C17.4797 18.5558 17.3141 18.3901 17.1097 18.3901C16.9054 18.3901 16.7397 18.5558 16.7397 18.7601C16.7397 18.9645 16.9054 19.1301 17.1097 19.1301Z" fill="#212529"/>
<path d="M18.9398 20.9502C19.1442 20.9502 19.3098 20.7846 19.3098 20.5802C19.3098 20.3759 19.1442 20.2102 18.9398 20.2102C18.7355 20.2102 18.5698 20.3759 18.5698 20.5802C18.5698 20.7846 18.7355 20.9502 18.9398 20.9502Z" fill="#212529"/>
<path d="M18.0299 20.0401C18.2343 20.0401 18.3999 19.8744 18.3999 19.67C18.3999 19.4657 18.2343 19.3 18.0299 19.3C17.8256 19.3 17.6599 19.4657 17.6599 19.67C17.6599 19.8744 17.8256 20.0401 18.0299 20.0401Z" fill="#212529"/>
<path d="M16.1998 20.0401C16.4042 20.0401 16.5698 19.8744 16.5698 19.67C16.5698 19.4657 16.4042 19.3 16.1998 19.3C15.9955 19.3 15.8298 19.4657 15.8298 19.67C15.8298 19.8744 15.9955 20.0401 16.1998 20.0401Z" fill="#212529"/>
<path d="M18.9398 19.1301C19.1442 19.1301 19.3098 18.9645 19.3098 18.7601C19.3098 18.5558 19.1442 18.3901 18.9398 18.3901C18.7355 18.3901 18.5698 18.5558 18.5698 18.7601C18.5698 18.9645 18.7355 19.1301 18.9398 19.1301Z" fill="#212529"/>
<path d="M17.1097 22.6001C17.3141 22.6001 17.4797 22.4345 17.4797 22.2301C17.4797 22.0258 17.3141 21.8601 17.1097 21.8601C16.9054 21.8601 16.7397 22.0258 16.7397 22.2301C16.7397 22.4345 16.9054 22.6001 17.1097 22.6001Z" fill="#212529"/>
<path d="M18.9398 22.6001C19.1442 22.6001 19.3098 22.4345 19.3098 22.2301C19.3098 22.0258 19.1442 21.8601 18.9398 21.8601C18.7355 21.8601 18.5698 22.0258 18.5698 22.2301C18.5698 22.4345 18.7355 22.6001 18.9398 22.6001Z" fill="#212529"/>
<path d="M14.5599 4.52003C14.7643 4.52003 14.9299 4.35437 14.9299 4.15003C14.9299 3.94568 14.7643 3.78003 14.5599 3.78003C14.3556 3.78003 14.1899 3.94568 14.1899 4.15003C14.1899 4.35437 14.3556 4.52003 14.5599 4.52003Z" fill="#212529"/>
<path d="M12.7299 4.52003C12.9342 4.52003 13.0999 4.35437 13.0999 4.15003C13.0999 3.94568 12.9342 3.78003 12.7299 3.78003C12.5255 3.78003 12.3599 3.94568 12.3599 4.15003C12.3599 4.35437 12.5255 4.52003 12.7299 4.52003Z" fill="#212529"/>
<path d="M13.6398 3.60011C13.8441 3.60011 14.0098 3.43445 14.0098 3.23011C14.0098 3.02576 13.8441 2.86011 13.6398 2.86011C13.4354 2.86011 13.2698 3.02576 13.2698 3.23011C13.2698 3.43445 13.4354 3.60011 13.6398 3.60011Z" fill="#212529"/>
<path d="M15.4699 3.60011C15.6742 3.60011 15.8399 3.43445 15.8399 3.23011C15.8399 3.02576 15.6742 2.86011 15.4699 2.86011C15.2655 2.86011 15.0999 3.02576 15.0999 3.23011C15.0999 3.43445 15.2655 3.60011 15.4699 3.60011Z" fill="#212529"/>
<path d="M14.5599 2.68995C14.7643 2.68995 14.9299 2.5243 14.9299 2.31995C14.9299 2.11561 14.7643 1.94995 14.5599 1.94995C14.3556 1.94995 14.1899 2.11561 14.1899 2.31995C14.1899 2.5243 14.3556 2.68995 14.5599 2.68995Z" fill="#212529"/>
<path d="M12.7299 2.68995C12.9342 2.68995 13.0999 2.5243 13.0999 2.31995C13.0999 2.11561 12.9342 1.94995 12.7299 1.94995C12.5255 1.94995 12.3599 2.11561 12.3599 2.31995C12.3599 2.5243 12.5255 2.68995 12.7299 2.68995Z" fill="#212529"/>
<path d="M14.5599 7.99C14.7643 7.99 14.9299 7.82435 14.9299 7.62C14.9299 7.41565 14.7643 7.25 14.5599 7.25C14.3556 7.25 14.1899 7.41565 14.1899 7.62C14.1899 7.82435 14.3556 7.99 14.5599 7.99Z" fill="#212529"/>
<path d="M12.7299 7.99C12.9342 7.99 13.0999 7.82435 13.0999 7.62C13.0999 7.41565 12.9342 7.25 12.7299 7.25C12.5255 7.25 12.3599 7.41565 12.3599 7.62C12.3599 7.82435 12.5255 7.99 12.7299 7.99Z" fill="#212529"/>
<path d="M13.6398 7.07008C13.8441 7.07008 14.0098 6.90442 14.0098 6.70008C14.0098 6.49573 13.8441 6.33008 13.6398 6.33008C13.4354 6.33008 13.2698 6.49573 13.2698 6.70008C13.2698 6.90442 13.4354 7.07008 13.6398 7.07008Z" fill="#212529"/>
<path d="M13.6398 5.25001C13.8441 5.25001 14.0098 5.08435 14.0098 4.88001C14.0098 4.67566 13.8441 4.51001 13.6398 4.51001C13.4354 4.51001 13.2698 4.67566 13.2698 4.88001C13.2698 5.08435 13.4354 5.25001 13.6398 5.25001Z" fill="#212529"/>
<path d="M15.4699 7.07008C15.6742 7.07008 15.8399 6.90442 15.8399 6.70008C15.8399 6.49573 15.6742 6.33008 15.4699 6.33008C15.2655 6.33008 15.0999 6.49573 15.0999 6.70008C15.0999 6.90442 15.2655 7.07008 15.4699 7.07008Z" fill="#212529"/>
<path d="M14.5599 6.15992C14.7643 6.15992 14.9299 5.99427 14.9299 5.78992C14.9299 5.58558 14.7643 5.41992 14.5599 5.41992C14.3556 5.41992 14.1899 5.58558 14.1899 5.78992C14.1899 5.99427 14.3556 6.15992 14.5599 6.15992Z" fill="#212529"/>
<path d="M12.7299 6.15992C12.9342 6.15992 13.0999 5.99427 13.0999 5.78992C13.0999 5.58558 12.9342 5.41992 12.7299 5.41992C12.5255 5.41992 12.3599 5.58558 12.3599 5.78992C12.3599 5.99427 12.5255 6.15992 12.7299 6.15992Z" fill="#212529"/>
<path d="M15.4699 5.25001C15.6742 5.25001 15.8399 5.08435 15.8399 4.88001C15.8399 4.67566 15.6742 4.51001 15.4699 4.51001C15.2655 4.51001 15.0999 4.67566 15.0999 4.88001C15.0999 5.08435 15.2655 5.25001 15.4699 5.25001Z" fill="#212529"/>
<path d="M14.5599 11.46C14.7643 11.46 14.9299 11.2943 14.9299 11.09C14.9299 10.8856 14.7643 10.72 14.5599 10.72C14.3556 10.72 14.1899 10.8856 14.1899 11.09C14.1899 11.2943 14.3556 11.46 14.5599 11.46Z" fill="#212529"/>
<path d="M12.7299 11.46C12.9342 11.46 13.0999 11.2943 13.0999 11.09C13.0999 10.8856 12.9342 10.72 12.7299 10.72C12.5255 10.72 12.3599 10.8856 12.3599 11.09C12.3599 11.2943 12.5255 11.46 12.7299 11.46Z" fill="#212529"/>
<path d="M13.6398 10.54C13.8441 10.54 14.0098 10.3744 14.0098 10.17C14.0098 9.9657 13.8441 9.80005 13.6398 9.80005C13.4354 9.80005 13.2698 9.9657 13.2698 10.17C13.2698 10.3744 13.4354 10.54 13.6398 10.54Z" fill="#212529"/>
<path d="M13.6398 8.71998C13.8441 8.71998 14.0098 8.55433 14.0098 8.34998C14.0098 8.14564 13.8441 7.97998 13.6398 7.97998C13.4354 7.97998 13.2698 8.14564 13.2698 8.34998C13.2698 8.55433 13.4354 8.71998 13.6398 8.71998Z" fill="#212529"/>
<path d="M15.4699 10.54C15.6742 10.54 15.8399 10.3744 15.8399 10.17C15.8399 9.9657 15.6742 9.80005 15.4699 9.80005C15.2655 9.80005 15.0999 9.9657 15.0999 10.17C15.0999 10.3744 15.2655 10.54 15.4699 10.54Z" fill="#212529"/>
<path d="M14.5599 9.62989C14.7643 9.62989 14.9299 9.46424 14.9299 9.25989C14.9299 9.05555 14.7643 8.88989 14.5599 8.88989C14.3556 8.88989 14.1899 9.05555 14.1899 9.25989C14.1899 9.46424 14.3556 9.62989 14.5599 9.62989Z" fill="#212529"/>
<path d="M12.7299 9.62989C12.9342 9.62989 13.0999 9.46424 13.0999 9.25989C13.0999 9.05555 12.9342 8.88989 12.7299 8.88989C12.5255 8.88989 12.3599 9.05555 12.3599 9.25989C12.3599 9.46424 12.5255 9.62989 12.7299 9.62989Z" fill="#212529"/>
<path d="M15.4699 8.71998C15.6742 8.71998 15.8399 8.55433 15.8399 8.34998C15.8399 8.14564 15.6742 7.97998 15.4699 7.97998C15.2655 7.97998 15.0999 8.14564 15.0999 8.34998C15.0999 8.55433 15.2655 8.71998 15.4699 8.71998Z" fill="#212529"/>
<path d="M14.5599 14.9299C14.7643 14.9299 14.9299 14.7643 14.9299 14.5599C14.9299 14.3556 14.7643 14.1899 14.5599 14.1899C14.3556 14.1899 14.1899 14.3556 14.1899 14.5599C14.1899 14.7643 14.3556 14.9299 14.5599 14.9299Z" fill="#212529"/>
<path d="M12.7299 14.9299C12.9342 14.9299 13.0999 14.7643 13.0999 14.5599C13.0999 14.3556 12.9342 14.1899 12.7299 14.1899C12.5255 14.1899 12.3599 14.3556 12.3599 14.5599C12.3599 14.7643 12.5255 14.9299 12.7299 14.9299Z" fill="#212529"/>
<path d="M13.6398 14.01C13.8441 14.01 14.0098 13.8444 14.0098 13.64C14.0098 13.4357 13.8441 13.27 13.6398 13.27C13.4354 13.27 13.2698 13.4357 13.2698 13.64C13.2698 13.8444 13.4354 14.01 13.6398 14.01Z" fill="#212529"/>
<path d="M13.6398 12.19C13.8441 12.19 14.0098 12.0243 14.0098 11.82C14.0098 11.6156 13.8441 11.45 13.6398 11.45C13.4354 11.45 13.2698 11.6156 13.2698 11.82C13.2698 12.0243 13.4354 12.19 13.6398 12.19Z" fill="#212529"/>
<path d="M15.4699 14.01C15.6742 14.01 15.8399 13.8444 15.8399 13.64C15.8399 13.4357 15.6742 13.27 15.4699 13.27C15.2655 13.27 15.0999 13.4357 15.0999 13.64C15.0999 13.8444 15.2655 14.01 15.4699 14.01Z" fill="#212529"/>
<path d="M14.5599 13.0999C14.7643 13.0999 14.9299 12.9342 14.9299 12.7299C14.9299 12.5255 14.7643 12.3599 14.5599 12.3599C14.3556 12.3599 14.1899 12.5255 14.1899 12.7299C14.1899 12.9342 14.3556 13.0999 14.5599 13.0999Z" fill="#212529"/>
<path d="M12.7299 13.0999C12.9342 13.0999 13.0999 12.9342 13.0999 12.7299C13.0999 12.5255 12.9342 12.3599 12.7299 12.3599C12.5255 12.3599 12.3599 12.5255 12.3599 12.7299C12.3599 12.9342 12.5255 13.0999 12.7299 13.0999Z" fill="#212529"/>
<path d="M15.4699 12.19C15.6742 12.19 15.8399 12.0243 15.8399 11.82C15.8399 11.6156 15.6742 11.45 15.4699 11.45C15.2655 11.45 15.0999 11.6156 15.0999 11.82C15.0999 12.0243 15.2655 12.19 15.4699 12.19Z" fill="#212529"/>
<path d="M14.5599 18.3999C14.7643 18.3999 14.9299 18.2343 14.9299 18.0299C14.9299 17.8256 14.7643 17.6599 14.5599 17.6599C14.3556 17.6599 14.1899 17.8256 14.1899 18.0299C14.1899 18.2343 14.3556 18.3999 14.5599 18.3999Z" fill="#212529"/>
<path d="M12.7299 18.3999C12.9342 18.3999 13.0999 18.2343 13.0999 18.0299C13.0999 17.8256 12.9342 17.6599 12.7299 17.6599C12.5255 17.6599 12.3599 17.8256 12.3599 18.0299C12.3599 18.2343 12.5255 18.3999 12.7299 18.3999Z" fill="#212529"/>
<path d="M13.6398 17.48C13.8441 17.48 14.0098 17.3143 14.0098 17.11C14.0098 16.9056 13.8441 16.74 13.6398 16.74C13.4354 16.74 13.2698 16.9056 13.2698 17.11C13.2698 17.3143 13.4354 17.48 13.6398 17.48Z" fill="#212529"/>
<path d="M13.6398 15.6599C13.8441 15.6599 14.0098 15.4943 14.0098 15.2899C14.0098 15.0856 13.8441 14.9199 13.6398 14.9199C13.4354 14.9199 13.2698 15.0856 13.2698 15.2899C13.2698 15.4943 13.4354 15.6599 13.6398 15.6599Z" fill="#212529"/>
<path d="M15.4699 17.48C15.6742 17.48 15.8399 17.3143 15.8399 17.11C15.8399 16.9056 15.6742 16.74 15.4699 16.74C15.2655 16.74 15.0999 16.9056 15.0999 17.11C15.0999 17.3143 15.2655 17.48 15.4699 17.48Z" fill="#212529"/>
<path d="M14.5599 16.5698C14.7643 16.5698 14.9299 16.4042 14.9299 16.1998C14.9299 15.9955 14.7643 15.8298 14.5599 15.8298C14.3556 15.8298 14.1899 15.9955 14.1899 16.1998C14.1899 16.4042 14.3556 16.5698 14.5599 16.5698Z" fill="#212529"/>
<path d="M12.7299 16.5698C12.9342 16.5698 13.0999 16.4042 13.0999 16.1998C13.0999 15.9955 12.9342 15.8298 12.7299 15.8298C12.5255 15.8298 12.3599 15.9955 12.3599 16.1998C12.3599 16.4042 12.5255 16.5698 12.7299 16.5698Z" fill="#212529"/>
<path d="M15.4699 15.6599C15.6742 15.6599 15.8399 15.4943 15.8399 15.2899C15.8399 15.0856 15.6742 14.9199 15.4699 14.9199C15.2655 14.9199 15.0999 15.0856 15.0999 15.2899C15.0999 15.4943 15.2655 15.6599 15.4699 15.6599Z" fill="#212529"/>
<path d="M14.5599 21.8701C14.7643 21.8701 14.9299 21.7045 14.9299 21.5001C14.9299 21.2958 14.7643 21.1301 14.5599 21.1301C14.3556 21.1301 14.1899 21.2958 14.1899 21.5001C14.1899 21.7045 14.3556 21.8701 14.5599 21.8701Z" fill="#212529"/>
<path d="M12.7299 21.8701C12.9342 21.8701 13.0999 21.7045 13.0999 21.5001C13.0999 21.2958 12.9342 21.1301 12.7299 21.1301C12.5255 21.1301 12.3599 21.2958 12.3599 21.5001C12.3599 21.7045 12.5255 21.8701 12.7299 21.8701Z" fill="#212529"/>
<path d="M13.6398 20.9502C13.8441 20.9502 14.0098 20.7846 14.0098 20.5802C14.0098 20.3759 13.8441 20.2102 13.6398 20.2102C13.4354 20.2102 13.2698 20.3759 13.2698 20.5802C13.2698 20.7846 13.4354 20.9502 13.6398 20.9502Z" fill="#212529"/>
<path d="M13.6398 19.1301C13.8441 19.1301 14.0098 18.9645 14.0098 18.7601C14.0098 18.5558 13.8441 18.3901 13.6398 18.3901C13.4354 18.3901 13.2698 18.5558 13.2698 18.7601C13.2698 18.9645 13.4354 19.1301 13.6398 19.1301Z" fill="#212529"/>
<path d="M15.4699 20.9502C15.6742 20.9502 15.8399 20.7846 15.8399 20.5802C15.8399 20.3759 15.6742 20.2102 15.4699 20.2102C15.2655 20.2102 15.0999 20.3759 15.0999 20.5802C15.0999 20.7846 15.2655 20.9502 15.4699 20.9502Z" fill="#212529"/>
<path d="M14.5599 20.0401C14.7643 20.0401 14.9299 19.8744 14.9299 19.67C14.9299 19.4657 14.7643 19.3 14.5599 19.3C14.3556 19.3 14.1899 19.4657 14.1899 19.67C14.1899 19.8744 14.3556 20.0401 14.5599 20.0401Z" fill="#212529"/>
<path d="M12.7299 20.0401C12.9342 20.0401 13.0999 19.8744 13.0999 19.67C13.0999 19.4657 12.9342 19.3 12.7299 19.3C12.5255 19.3 12.3599 19.4657 12.3599 19.67C12.3599 19.8744 12.5255 20.0401 12.7299 20.0401Z" fill="#212529"/>
<path d="M15.4699 19.1301C15.6742 19.1301 15.8399 18.9645 15.8399 18.7601C15.8399 18.5558 15.6742 18.3901 15.4699 18.3901C15.2655 18.3901 15.0999 18.5558 15.0999 18.7601C15.0999 18.9645 15.2655 19.1301 15.4699 19.1301Z" fill="#212529"/>
<path d="M13.6398 22.6001C13.8441 22.6001 14.0098 22.4345 14.0098 22.2301C14.0098 22.0258 13.8441 21.8601 13.6398 21.8601C13.4354 21.8601 13.2698 22.0258 13.2698 22.2301C13.2698 22.4345 13.4354 22.6001 13.6398 22.6001Z" fill="#212529"/>
<path d="M15.4699 22.6001C15.6742 22.6001 15.8399 22.4345 15.8399 22.2301C15.8399 22.0258 15.6742 21.8601 15.4699 21.8601C15.2655 21.8601 15.0999 22.0258 15.0999 22.2301C15.0999 22.4345 15.2655 22.6001 15.4699 22.6001Z" fill="#212529"/>
<path d="M11.09 4.52003C11.2943 4.52003 11.46 4.35437 11.46 4.15003C11.46 3.94568 11.2943 3.78003 11.09 3.78003C10.8856 3.78003 10.72 3.94568 10.72 4.15003C10.72 4.35437 10.8856 4.52003 11.09 4.52003Z" fill="#212529"/>
<path d="M9.25989 4.52003C9.46424 4.52003 9.62989 4.35437 9.62989 4.15003C9.62989 3.94568 9.46424 3.78003 9.25989 3.78003C9.05555 3.78003 8.88989 3.94568 8.88989 4.15003C8.88989 4.35437 9.05555 4.52003 9.25989 4.52003Z" fill="#212529"/>
<path d="M10.1698 3.60011C10.3741 3.60011 10.5398 3.43445 10.5398 3.23011C10.5398 3.02576 10.3741 2.86011 10.1698 2.86011C9.96546 2.86011 9.7998 3.02576 9.7998 3.23011C9.7998 3.43445 9.96546 3.60011 10.1698 3.60011Z" fill="#212529"/>
<path d="M11.9999 3.60011C12.2042 3.60011 12.3699 3.43445 12.3699 3.23011C12.3699 3.02576 12.2042 2.86011 11.9999 2.86011C11.7955 2.86011 11.6299 3.02576 11.6299 3.23011C11.6299 3.43445 11.7955 3.60011 11.9999 3.60011Z" fill="#212529"/>
<path d="M11.09 2.68995C11.2943 2.68995 11.46 2.5243 11.46 2.31995C11.46 2.11561 11.2943 1.94995 11.09 1.94995C10.8856 1.94995 10.72 2.11561 10.72 2.31995C10.72 2.5243 10.8856 2.68995 11.09 2.68995Z" fill="#212529"/>
<path d="M9.25989 2.68995C9.46424 2.68995 9.62989 2.5243 9.62989 2.31995C9.62989 2.11561 9.46424 1.94995 9.25989 1.94995C9.05555 1.94995 8.88989 2.11561 8.88989 2.31995C8.88989 2.5243 9.05555 2.68995 9.25989 2.68995Z" fill="#212529"/>
<path d="M11.09 7.99C11.2943 7.99 11.46 7.82435 11.46 7.62C11.46 7.41565 11.2943 7.25 11.09 7.25C10.8856 7.25 10.72 7.41565 10.72 7.62C10.72 7.82435 10.8856 7.99 11.09 7.99Z" fill="#212529"/>
<path d="M9.25989 7.99C9.46424 7.99 9.62989 7.82435 9.62989 7.62C9.62989 7.41565 9.46424 7.25 9.25989 7.25C9.05555 7.25 8.88989 7.41565 8.88989 7.62C8.88989 7.82435 9.05555 7.99 9.25989 7.99Z" fill="#212529"/>
<path d="M10.1698 7.07008C10.3741 7.07008 10.5398 6.90442 10.5398 6.70008C10.5398 6.49573 10.3741 6.33008 10.1698 6.33008C9.96546 6.33008 9.7998 6.49573 9.7998 6.70008C9.7998 6.90442 9.96546 7.07008 10.1698 7.07008Z" fill="#212529"/>
<path d="M10.1698 5.25001C10.3741 5.25001 10.5398 5.08435 10.5398 4.88001C10.5398 4.67566 10.3741 4.51001 10.1698 4.51001C9.96546 4.51001 9.7998 4.67566 9.7998 4.88001C9.7998 5.08435 9.96546 5.25001 10.1698 5.25001Z" fill="#212529"/>
<path d="M11.9999 7.07008C12.2042 7.07008 12.3699 6.90442 12.3699 6.70008C12.3699 6.49573 12.2042 6.33008 11.9999 6.33008C11.7955 6.33008 11.6299 6.49573 11.6299 6.70008C11.6299 6.90442 11.7955 7.07008 11.9999 7.07008Z" fill="#212529"/>
<path d="M11.09 6.15992C11.2943 6.15992 11.46 5.99427 11.46 5.78992C11.46 5.58558 11.2943 5.41992 11.09 5.41992C10.8856 5.41992 10.72 5.58558 10.72 5.78992C10.72 5.99427 10.8856 6.15992 11.09 6.15992Z" fill="#212529"/>
<path d="M9.25989 6.15992C9.46424 6.15992 9.62989 5.99427 9.62989 5.78992C9.62989 5.58558 9.46424 5.41992 9.25989 5.41992C9.05555 5.41992 8.88989 5.58558 8.88989 5.78992C8.88989 5.99427 9.05555 6.15992 9.25989 6.15992Z" fill="#212529"/>
<path d="M11.9999 5.25001C12.2042 5.25001 12.3699 5.08435 12.3699 4.88001C12.3699 4.67566 12.2042 4.51001 11.9999 4.51001C11.7955 4.51001 11.6299 4.67566 11.6299 4.88001C11.6299 5.08435 11.7955 5.25001 11.9999 5.25001Z" fill="#212529"/>
<path d="M11.09 11.46C11.2943 11.46 11.46 11.2943 11.46 11.09C11.46 10.8856 11.2943 10.72 11.09 10.72C10.8856 10.72 10.72 10.8856 10.72 11.09C10.72 11.2943 10.8856 11.46 11.09 11.46Z" fill="#212529"/>
<path d="M9.25989 11.46C9.46424 11.46 9.62989 11.2943 9.62989 11.09C9.62989 10.8856 9.46424 10.72 9.25989 10.72C9.05555 10.72 8.88989 10.8856 8.88989 11.09C8.88989 11.2943 9.05555 11.46 9.25989 11.46Z" fill="#212529"/>
<path d="M10.1698 10.54C10.3741 10.54 10.5398 10.3744 10.5398 10.17C10.5398 9.9657 10.3741 9.80005 10.1698 9.80005C9.96546 9.80005 9.7998 9.9657 9.7998 10.17C9.7998 10.3744 9.96546 10.54 10.1698 10.54Z" fill="#212529"/>
<path d="M10.1698 8.71998C10.3741 8.71998 10.5398 8.55433 10.5398 8.34998C10.5398 8.14564 10.3741 7.97998 10.1698 7.97998C9.96546 7.97998 9.7998 8.14564 9.7998 8.34998C9.7998 8.55433 9.96546 8.71998 10.1698 8.71998Z" fill="#212529"/>
<path d="M11.9999 10.54C12.2042 10.54 12.3699 10.3744 12.3699 10.17C12.3699 9.9657 12.2042 9.80005 11.9999 9.80005C11.7955 9.80005 11.6299 9.9657 11.6299 10.17C11.6299 10.3744 11.7955 10.54 11.9999 10.54Z" fill="#212529"/>
<path d="M11.09 9.62989C11.2943 9.62989 11.46 9.46424 11.46 9.25989C11.46 9.05555 11.2943 8.88989 11.09 8.88989C10.8856 8.88989 10.72 9.05555 10.72 9.25989C10.72 9.46424 10.8856 9.62989 11.09 9.62989Z" fill="#212529"/>
<path d="M9.25989 9.62989C9.46424 9.62989 9.62989 9.46424 9.62989 9.25989C9.62989 9.05555 9.46424 8.88989 9.25989 8.88989C9.05555 8.88989 8.88989 9.05555 8.88989 9.25989C8.88989 9.46424 9.05555 9.62989 9.25989 9.62989Z" fill="#212529"/>
<path d="M11.9999 8.71998C12.2042 8.71998 12.3699 8.55433 12.3699 8.34998C12.3699 8.14564 12.2042 7.97998 11.9999 7.97998C11.7955 7.97998 11.6299 8.14564 11.6299 8.34998C11.6299 8.55433 11.7955 8.71998 11.9999 8.71998Z" fill="#212529"/>
<path d="M11.09 14.9299C11.2943 14.9299 11.46 14.7643 11.46 14.5599C11.46 14.3556 11.2943 14.1899 11.09 14.1899C10.8856 14.1899 10.72 14.3556 10.72 14.5599C10.72 14.7643 10.8856 14.9299 11.09 14.9299Z" fill="#212529"/>
<path d="M9.25989 14.9299C9.46424 14.9299 9.62989 14.7643 9.62989 14.5599C9.62989 14.3556 9.46424 14.1899 9.25989 14.1899C9.05555 14.1899 8.88989 14.3556 8.88989 14.5599C8.88989 14.7643 9.05555 14.9299 9.25989 14.9299Z" fill="#212529"/>
<path d="M10.1698 14.01C10.3741 14.01 10.5398 13.8444 10.5398 13.64C10.5398 13.4357 10.3741 13.27 10.1698 13.27C9.96546 13.27 9.7998 13.4357 9.7998 13.64C9.7998 13.8444 9.96546 14.01 10.1698 14.01Z" fill="#212529"/>
<path d="M10.1698 12.19C10.3741 12.19 10.5398 12.0243 10.5398 11.82C10.5398 11.6156 10.3741 11.45 10.1698 11.45C9.96546 11.45 9.7998 11.6156 9.7998 11.82C9.7998 12.0243 9.96546 12.19 10.1698 12.19Z" fill="#212529"/>
<path d="M11.9999 14.01C12.2042 14.01 12.3699 13.8444 12.3699 13.64C12.3699 13.4357 12.2042 13.27 11.9999 13.27C11.7955 13.27 11.6299 13.4357 11.6299 13.64C11.6299 13.8444 11.7955 14.01 11.9999 14.01Z" fill="#212529"/>
<path d="M11.09 13.0999C11.2943 13.0999 11.46 12.9342 11.46 12.7299C11.46 12.5255 11.2943 12.3599 11.09 12.3599C10.8856 12.3599 10.72 12.5255 10.72 12.7299C10.72 12.9342 10.8856 13.0999 11.09 13.0999Z" fill="#212529"/>
<path d="M9.25989 13.0999C9.46424 13.0999 9.62989 12.9342 9.62989 12.7299C9.62989 12.5255 9.46424 12.3599 9.25989 12.3599C9.05555 12.3599 8.88989 12.5255 8.88989 12.7299C8.88989 12.9342 9.05555 13.0999 9.25989 13.0999Z" fill="#212529"/>
<path d="M11.9999 12.19C12.2042 12.19 12.3699 12.0243 12.3699 11.82C12.3699 11.6156 12.2042 11.45 11.9999 11.45C11.7955 11.45 11.6299 11.6156 11.6299 11.82C11.6299 12.0243 11.7955 12.19 11.9999 12.19Z" fill="#212529"/>
<path d="M11.09 18.3999C11.2943 18.3999 11.46 18.2343 11.46 18.0299C11.46 17.8256 11.2943 17.6599 11.09 17.6599C10.8856 17.6599 10.72 17.8256 10.72 18.0299C10.72 18.2343 10.8856 18.3999 11.09 18.3999Z" fill="#212529"/>
<path d="M9.25989 18.3999C9.46424 18.3999 9.62989 18.2343 9.62989 18.0299C9.62989 17.8256 9.46424 17.6599 9.25989 17.6599C9.05555 17.6599 8.88989 17.8256 8.88989 18.0299C8.88989 18.2343 9.05555 18.3999 9.25989 18.3999Z" fill="#212529"/>
<path d="M10.1698 17.48C10.3741 17.48 10.5398 17.3143 10.5398 17.11C10.5398 16.9056 10.3741 16.74 10.1698 16.74C9.96546 16.74 9.7998 16.9056 9.7998 17.11C9.7998 17.3143 9.96546 17.48 10.1698 17.48Z" fill="#212529"/>
<path d="M10.1698 15.6599C10.3741 15.6599 10.5398 15.4943 10.5398 15.2899C10.5398 15.0856 10.3741 14.9199 10.1698 14.9199C9.96546 14.9199 9.7998 15.0856 9.7998 15.2899C9.7998 15.4943 9.96546 15.6599 10.1698 15.6599Z" fill="#212529"/>
<path d="M11.9999 17.48C12.2042 17.48 12.3699 17.3143 12.3699 17.11C12.3699 16.9056 12.2042 16.74 11.9999 16.74C11.7955 16.74 11.6299 16.9056 11.6299 17.11C11.6299 17.3143 11.7955 17.48 11.9999 17.48Z" fill="#212529"/>
<path d="M11.09 16.5698C11.2943 16.5698 11.46 16.4042 11.46 16.1998C11.46 15.9955 11.2943 15.8298 11.09 15.8298C10.8856 15.8298 10.72 15.9955 10.72 16.1998C10.72 16.4042 10.8856 16.5698 11.09 16.5698Z" fill="#212529"/>
<path d="M9.25989 16.5698C9.46424 16.5698 9.62989 16.4042 9.62989 16.1998C9.62989 15.9955 9.46424 15.8298 9.25989 15.8298C9.05555 15.8298 8.88989 15.9955 8.88989 16.1998C8.88989 16.4042 9.05555 16.5698 9.25989 16.5698Z" fill="#212529"/>
<path d="M11.9999 15.6599C12.2042 15.6599 12.3699 15.4943 12.3699 15.2899C12.3699 15.0856 12.2042 14.9199 11.9999 14.9199C11.7955 14.9199 11.6299 15.0856 11.6299 15.2899C11.6299 15.4943 11.7955 15.6599 11.9999 15.6599Z" fill="#212529"/>
<path d="M11.09 21.8701C11.2943 21.8701 11.46 21.7045 11.46 21.5001C11.46 21.2958 11.2943 21.1301 11.09 21.1301C10.8856 21.1301 10.72 21.2958 10.72 21.5001C10.72 21.7045 10.8856 21.8701 11.09 21.8701Z" fill="#212529"/>
<path d="M9.25989 21.8701C9.46424 21.8701 9.62989 21.7045 9.62989 21.5001C9.62989 21.2958 9.46424 21.1301 9.25989 21.1301C9.05555 21.1301 8.88989 21.2958 8.88989 21.5001C8.88989 21.7045 9.05555 21.8701 9.25989 21.8701Z" fill="#212529"/>
<path d="M10.1698 20.9502C10.3741 20.9502 10.5398 20.7846 10.5398 20.5802C10.5398 20.3759 10.3741 20.2102 10.1698 20.2102C9.96546 20.2102 9.7998 20.3759 9.7998 20.5802C9.7998 20.7846 9.96546 20.9502 10.1698 20.9502Z" fill="#212529"/>
<path d="M10.1698 19.1301C10.3741 19.1301 10.5398 18.9645 10.5398 18.7601C10.5398 18.5558 10.3741 18.3901 10.1698 18.3901C9.96546 18.3901 9.7998 18.5558 9.7998 18.7601C9.7998 18.9645 9.96546 19.1301 10.1698 19.1301Z" fill="#212529"/>
<path d="M11.9999 20.9502C12.2042 20.9502 12.3699 20.7846 12.3699 20.5802C12.3699 20.3759 12.2042 20.2102 11.9999 20.2102C11.7955 20.2102 11.6299 20.3759 11.6299 20.5802C11.6299 20.7846 11.7955 20.9502 11.9999 20.9502Z" fill="#212529"/>
<path d="M11.09 20.0401C11.2943 20.0401 11.46 19.8744 11.46 19.67C11.46 19.4657 11.2943 19.3 11.09 19.3C10.8856 19.3 10.72 19.4657 10.72 19.67C10.72 19.8744 10.8856 20.0401 11.09 20.0401Z" fill="#212529"/>
<path d="M9.25989 20.0401C9.46424 20.0401 9.62989 19.8744 9.62989 19.67C9.62989 19.4657 9.46424 19.3 9.25989 19.3C9.05555 19.3 8.88989 19.4657 8.88989 19.67C8.88989 19.8744 9.05555 20.0401 9.25989 20.0401Z" fill="#212529"/>
<path d="M11.9999 19.1301C12.2042 19.1301 12.3699 18.9645 12.3699 18.7601C12.3699 18.5558 12.2042 18.3901 11.9999 18.3901C11.7955 18.3901 11.6299 18.5558 11.6299 18.7601C11.6299 18.9645 11.7955 19.1301 11.9999 19.1301Z" fill="#212529"/>
<path d="M10.1698 22.6001C10.3741 22.6001 10.5398 22.4345 10.5398 22.2301C10.5398 22.0258 10.3741 21.8601 10.1698 21.8601C9.96546 21.8601 9.7998 22.0258 9.7998 22.2301C9.7998 22.4345 9.96546 22.6001 10.1698 22.6001Z" fill="#212529"/>
<path d="M11.9999 22.6001C12.2042 22.6001 12.3699 22.4345 12.3699 22.2301C12.3699 22.0258 12.2042 21.8601 11.9999 21.8601C11.7955 21.8601 11.6299 22.0258 11.6299 22.2301C11.6299 22.4345 11.7955 22.6001 11.9999 22.6001Z" fill="#212529"/>
<path d="M7.62 4.52003C7.82435 4.52003 7.99 4.35437 7.99 4.15003C7.99 3.94568 7.82435 3.78003 7.62 3.78003C7.41565 3.78003 7.25 3.94568 7.25 4.15003C7.25 4.35437 7.41565 4.52003 7.62 4.52003Z" fill="#212529"/>
<path d="M5.78992 4.52003C5.99427 4.52003 6.15992 4.35437 6.15992 4.15003C6.15992 3.94568 5.99427 3.78003 5.78992 3.78003C5.58558 3.78003 5.41992 3.94568 5.41992 4.15003C5.41992 4.35437 5.58558 4.52003 5.78992 4.52003Z" fill="#212529"/>
<path d="M6.69983 3.60011C6.90418 3.60011 7.06983 3.43445 7.06983 3.23011C7.06983 3.02576 6.90418 2.86011 6.69983 2.86011C6.49549 2.86011 6.32983 3.02576 6.32983 3.23011C6.32983 3.43445 6.49549 3.60011 6.69983 3.60011Z" fill="#212529"/>
<path d="M8.52991 3.60011C8.73426 3.60011 8.89991 3.43445 8.89991 3.23011C8.89991 3.02576 8.73426 2.86011 8.52991 2.86011C8.32557 2.86011 8.15991 3.02576 8.15991 3.23011C8.15991 3.43445 8.32557 3.60011 8.52991 3.60011Z" fill="#212529"/>
<path d="M7.62 2.68995C7.82435 2.68995 7.99 2.5243 7.99 2.31995C7.99 2.11561 7.82435 1.94995 7.62 1.94995C7.41565 1.94995 7.25 2.11561 7.25 2.31995C7.25 2.5243 7.41565 2.68995 7.62 2.68995Z" fill="#212529"/>
<path d="M5.78992 2.68995C5.99427 2.68995 6.15992 2.5243 6.15992 2.31995C6.15992 2.11561 5.99427 1.94995 5.78992 1.94995C5.58558 1.94995 5.41992 2.11561 5.41992 2.31995C5.41992 2.5243 5.58558 2.68995 5.78992 2.68995Z" fill="#212529"/>
<path d="M7.62 7.99C7.82435 7.99 7.99 7.82435 7.99 7.62C7.99 7.41565 7.82435 7.25 7.62 7.25C7.41565 7.25 7.25 7.41565 7.25 7.62C7.25 7.82435 7.41565 7.99 7.62 7.99Z" fill="#212529"/>
<path d="M5.78992 7.99C5.99427 7.99 6.15992 7.82435 6.15992 7.62C6.15992 7.41565 5.99427 7.25 5.78992 7.25C5.58558 7.25 5.41992 7.41565 5.41992 7.62C5.41992 7.82435 5.58558 7.99 5.78992 7.99Z" fill="#212529"/>
<path d="M6.69983 7.07008C6.90418 7.07008 7.06983 6.90442 7.06983 6.70008C7.06983 6.49573 6.90418 6.33008 6.69983 6.33008C6.49549 6.33008 6.32983 6.49573 6.32983 6.70008C6.32983 6.90442 6.49549 7.07008 6.69983 7.07008Z" fill="#212529"/>
<path d="M6.69983 5.25001C6.90418 5.25001 7.06983 5.08435 7.06983 4.88001C7.06983 4.67566 6.90418 4.51001 6.69983 4.51001C6.49549 4.51001 6.32983 4.67566 6.32983 4.88001C6.32983 5.08435 6.49549 5.25001 6.69983 5.25001Z" fill="#212529"/>
<path d="M8.52991 7.07008C8.73426 7.07008 8.89991 6.90442 8.89991 6.70008C8.89991 6.49573 8.73426 6.33008 8.52991 6.33008C8.32557 6.33008 8.15991 6.49573 8.15991 6.70008C8.15991 6.90442 8.32557 7.07008 8.52991 7.07008Z" fill="#212529"/>
<path d="M7.62 6.15992C7.82435 6.15992 7.99 5.99427 7.99 5.78992C7.99 5.58558 7.82435 5.41992 7.62 5.41992C7.41565 5.41992 7.25 5.58558 7.25 5.78992C7.25 5.99427 7.41565 6.15992 7.62 6.15992Z" fill="#212529"/>
<path d="M5.78992 6.15992C5.99427 6.15992 6.15992 5.99427 6.15992 5.78992C6.15992 5.58558 5.99427 5.41992 5.78992 5.41992C5.58558 5.41992 5.41992 5.58558 5.41992 5.78992C5.41992 5.99427 5.58558 6.15992 5.78992 6.15992Z" fill="#212529"/>
<path d="M8.52991 5.25001C8.73426 5.25001 8.89991 5.08435 8.89991 4.88001C8.89991 4.67566 8.73426 4.51001 8.52991 4.51001C8.32557 4.51001 8.15991 4.67566 8.15991 4.88001C8.15991 5.08435 8.32557 5.25001 8.52991 5.25001Z" fill="#212529"/>
<path d="M7.62 11.46C7.82435 11.46 7.99 11.2943 7.99 11.09C7.99 10.8856 7.82435 10.72 7.62 10.72C7.41565 10.72 7.25 10.8856 7.25 11.09C7.25 11.2943 7.41565 11.46 7.62 11.46Z" fill="#212529"/>
<path d="M5.78992 11.46C5.99427 11.46 6.15992 11.2943 6.15992 11.09C6.15992 10.8856 5.99427 10.72 5.78992 10.72C5.58558 10.72 5.41992 10.8856 5.41992 11.09C5.41992 11.2943 5.58558 11.46 5.78992 11.46Z" fill="#212529"/>
<path d="M6.69983 10.54C6.90418 10.54 7.06983 10.3744 7.06983 10.17C7.06983 9.9657 6.90418 9.80005 6.69983 9.80005C6.49549 9.80005 6.32983 9.9657 6.32983 10.17C6.32983 10.3744 6.49549 10.54 6.69983 10.54Z" fill="#212529"/>
<path d="M6.69983 8.71998C6.90418 8.71998 7.06983 8.55433 7.06983 8.34998C7.06983 8.14564 6.90418 7.97998 6.69983 7.97998C6.49549 7.97998 6.32983 8.14564 6.32983 8.34998C6.32983 8.55433 6.49549 8.71998 6.69983 8.71998Z" fill="#212529"/>
<path d="M8.52991 10.54C8.73426 10.54 8.89991 10.3744 8.89991 10.17C8.89991 9.9657 8.73426 9.80005 8.52991 9.80005C8.32557 9.80005 8.15991 9.9657 8.15991 10.17C8.15991 10.3744 8.32557 10.54 8.52991 10.54Z" fill="#212529"/>
<path d="M7.62 9.62989C7.82435 9.62989 7.99 9.46424 7.99 9.25989C7.99 9.05555 7.82435 8.88989 7.62 8.88989C7.41565 8.88989 7.25 9.05555 7.25 9.25989C7.25 9.46424 7.41565 9.62989 7.62 9.62989Z" fill="#212529"/>
<path d="M5.78992 9.62989C5.99427 9.62989 6.15992 9.46424 6.15992 9.25989C6.15992 9.05555 5.99427 8.88989 5.78992 8.88989C5.58558 8.88989 5.41992 9.05555 5.41992 9.25989C5.41992 9.46424 5.58558 9.62989 5.78992 9.62989Z" fill="#212529"/>
<path d="M8.52991 8.71998C8.73426 8.71998 8.89991 8.55433 8.89991 8.34998C8.89991 8.14564 8.73426 7.97998 8.52991 7.97998C8.32557 7.97998 8.15991 8.14564 8.15991 8.34998C8.15991 8.55433 8.32557 8.71998 8.52991 8.71998Z" fill="#212529"/>
<path d="M7.62 14.9299C7.82435 14.9299 7.99 14.7643 7.99 14.5599C7.99 14.3556 7.82435 14.1899 7.62 14.1899C7.41565 14.1899 7.25 14.3556 7.25 14.5599C7.25 14.7643 7.41565 14.9299 7.62 14.9299Z" fill="#212529"/>
<path d="M5.78992 14.9299C5.99427 14.9299 6.15992 14.7643 6.15992 14.5599C6.15992 14.3556 5.99427 14.1899 5.78992 14.1899C5.58558 14.1899 5.41992 14.3556 5.41992 14.5599C5.41992 14.7643 5.58558 14.9299 5.78992 14.9299Z" fill="#212529"/>
<path d="M6.69983 14.01C6.90418 14.01 7.06983 13.8444 7.06983 13.64C7.06983 13.4357 6.90418 13.27 6.69983 13.27C6.49549 13.27 6.32983 13.4357 6.32983 13.64C6.32983 13.8444 6.49549 14.01 6.69983 14.01Z" fill="#212529"/>
<path d="M6.69983 12.19C6.90418 12.19 7.06983 12.0243 7.06983 11.82C7.06983 11.6156 6.90418 11.45 6.69983 11.45C6.49549 11.45 6.32983 11.6156 6.32983 11.82C6.32983 12.0243 6.49549 12.19 6.69983 12.19Z" fill="#212529"/>
<path d="M8.52991 14.01C8.73426 14.01 8.89991 13.8444 8.89991 13.64C8.89991 13.4357 8.73426 13.27 8.52991 13.27C8.32557 13.27 8.15991 13.4357 8.15991 13.64C8.15991 13.8444 8.32557 14.01 8.52991 14.01Z" fill="#212529"/>
<path d="M7.62 13.0999C7.82435 13.0999 7.99 12.9342 7.99 12.7299C7.99 12.5255 7.82435 12.3599 7.62 12.3599C7.41565 12.3599 7.25 12.5255 7.25 12.7299C7.25 12.9342 7.41565 13.0999 7.62 13.0999Z" fill="#212529"/>
<path d="M5.78992 13.0999C5.99427 13.0999 6.15992 12.9342 6.15992 12.7299C6.15992 12.5255 5.99427 12.3599 5.78992 12.3599C5.58558 12.3599 5.41992 12.5255 5.41992 12.7299C5.41992 12.9342 5.58558 13.0999 5.78992 13.0999Z" fill="#212529"/>
<path d="M8.52991 12.19C8.73426 12.19 8.89991 12.0243 8.89991 11.82C8.89991 11.6156 8.73426 11.45 8.52991 11.45C8.32557 11.45 8.15991 11.6156 8.15991 11.82C8.15991 12.0243 8.32557 12.19 8.52991 12.19Z" fill="#212529"/>
<path d="M7.62 18.3999C7.82435 18.3999 7.99 18.2343 7.99 18.0299C7.99 17.8256 7.82435 17.6599 7.62 17.6599C7.41565 17.6599 7.25 17.8256 7.25 18.0299C7.25 18.2343 7.41565 18.3999 7.62 18.3999Z" fill="#212529"/>
<path d="M5.78992 18.3999C5.99427 18.3999 6.15992 18.2343 6.15992 18.0299C6.15992 17.8256 5.99427 17.6599 5.78992 17.6599C5.58558 17.6599 5.41992 17.8256 5.41992 18.0299C5.41992 18.2343 5.58558 18.3999 5.78992 18.3999Z" fill="#212529"/>
<path d="M6.69983 17.48C6.90418 17.48 7.06983 17.3143 7.06983 17.11C7.06983 16.9056 6.90418 16.74 6.69983 16.74C6.49549 16.74 6.32983 16.9056 6.32983 17.11C6.32983 17.3143 6.49549 17.48 6.69983 17.48Z" fill="#212529"/>
<path d="M6.69983 15.6599C6.90418 15.6599 7.06983 15.4943 7.06983 15.2899C7.06983 15.0856 6.90418 14.9199 6.69983 14.9199C6.49549 14.9199 6.32983 15.0856 6.32983 15.2899C6.32983 15.4943 6.49549 15.6599 6.69983 15.6599Z" fill="#212529"/>
<path d="M8.52991 17.48C8.73426 17.48 8.89991 17.3143 8.89991 17.11C8.89991 16.9056 8.73426 16.74 8.52991 16.74C8.32557 16.74 8.15991 16.9056 8.15991 17.11C8.15991 17.3143 8.32557 17.48 8.52991 17.48Z" fill="#212529"/>
<path d="M7.62 16.5698C7.82435 16.5698 7.99 16.4042 7.99 16.1998C7.99 15.9955 7.82435 15.8298 7.62 15.8298C7.41565 15.8298 7.25 15.9955 7.25 16.1998C7.25 16.4042 7.41565 16.5698 7.62 16.5698Z" fill="#212529"/>
<path d="M5.78992 16.5698C5.99427 16.5698 6.15992 16.4042 6.15992 16.1998C6.15992 15.9955 5.99427 15.8298 5.78992 15.8298C5.58558 15.8298 5.41992 15.9955 5.41992 16.1998C5.41992 16.4042 5.58558 16.5698 5.78992 16.5698Z" fill="#212529"/>
<path d="M8.52991 15.6599C8.73426 15.6599 8.89991 15.4943 8.89991 15.2899C8.89991 15.0856 8.73426 14.9199 8.52991 14.9199C8.32557 14.9199 8.15991 15.0856 8.15991 15.2899C8.15991 15.4943 8.32557 15.6599 8.52991 15.6599Z" fill="#212529"/>
<path d="M7.62 21.8701C7.82435 21.8701 7.99 21.7045 7.99 21.5001C7.99 21.2958 7.82435 21.1301 7.62 21.1301C7.41565 21.1301 7.25 21.2958 7.25 21.5001C7.25 21.7045 7.41565 21.8701 7.62 21.8701Z" fill="#212529"/>
<path d="M5.78992 21.8701C5.99427 21.8701 6.15992 21.7045 6.15992 21.5001C6.15992 21.2958 5.99427 21.1301 5.78992 21.1301C5.58558 21.1301 5.41992 21.2958 5.41992 21.5001C5.41992 21.7045 5.58558 21.8701 5.78992 21.8701Z" fill="#212529"/>
<path d="M6.69983 20.9502C6.90418 20.9502 7.06983 20.7846 7.06983 20.5802C7.06983 20.3759 6.90418 20.2102 6.69983 20.2102C6.49549 20.2102 6.32983 20.3759 6.32983 20.5802C6.32983 20.7846 6.49549 20.9502 6.69983 20.9502Z" fill="#212529"/>
<path d="M6.69983 19.1301C6.90418 19.1301 7.06983 18.9645 7.06983 18.7601C7.06983 18.5558 6.90418 18.3901 6.69983 18.3901C6.49549 18.3901 6.32983 18.5558 6.32983 18.7601C6.32983 18.9645 6.49549 19.1301 6.69983 19.1301Z" fill="#212529"/>
<path d="M8.52991 20.9502C8.73426 20.9502 8.89991 20.7846 8.89991 20.5802C8.89991 20.3759 8.73426 20.2102 8.52991 20.2102C8.32557 20.2102 8.15991 20.3759 8.15991 20.5802C8.15991 20.7846 8.32557 20.9502 8.52991 20.9502Z" fill="#212529"/>
<path d="M7.62 20.0401C7.82435 20.0401 7.99 19.8744 7.99 19.67C7.99 19.4657 7.82435 19.3 7.62 19.3C7.41565 19.3 7.25 19.4657 7.25 19.67C7.25 19.8744 7.41565 20.0401 7.62 20.0401Z" fill="#212529"/>
<path d="M5.78992 20.0401C5.99427 20.0401 6.15992 19.8744 6.15992 19.67C6.15992 19.4657 5.99427 19.3 5.78992 19.3C5.58558 19.3 5.41992 19.4657 5.41992 19.67C5.41992 19.8744 5.58558 20.0401 5.78992 20.0401Z" fill="#212529"/>
<path d="M8.52991 19.1301C8.73426 19.1301 8.89991 18.9645 8.89991 18.7601C8.89991 18.5558 8.73426 18.3901 8.52991 18.3901C8.32557 18.3901 8.15991 18.5558 8.15991 18.7601C8.15991 18.9645 8.32557 19.1301 8.52991 19.1301Z" fill="#212529"/>
<path d="M6.69983 22.6001C6.90418 22.6001 7.06983 22.4345 7.06983 22.2301C7.06983 22.0258 6.90418 21.8601 6.69983 21.8601C6.49549 21.8601 6.32983 22.0258 6.32983 22.2301C6.32983 22.4345 6.49549 22.6001 6.69983 22.6001Z" fill="#212529"/>
<path d="M8.52991 22.6001C8.73426 22.6001 8.89991 22.4345 8.89991 22.2301C8.89991 22.0258 8.73426 21.8601 8.52991 21.8601C8.32557 21.8601 8.15991 22.0258 8.15991 22.2301C8.15991 22.4345 8.32557 22.6001 8.52991 22.6001Z" fill="#212529"/>
<path d="M4.15003 4.52003C4.35437 4.52003 4.52003 4.35437 4.52003 4.15003C4.52003 3.94568 4.35437 3.78003 4.15003 3.78003C3.94568 3.78003 3.78003 3.94568 3.78003 4.15003C3.78003 4.35437 3.94568 4.52003 4.15003 4.52003Z" fill="#212529"/>
<path d="M2.31995 4.52003C2.5243 4.52003 2.68995 4.35437 2.68995 4.15003C2.68995 3.94568 2.5243 3.78003 2.31995 3.78003C2.11561 3.78003 1.94995 3.94568 1.94995 4.15003C1.94995 4.35437 2.11561 4.52003 2.31995 4.52003Z" fill="#212529"/>
<path d="M3.22986 3.60011C3.43421 3.60011 3.59986 3.43445 3.59986 3.23011C3.59986 3.02576 3.43421 2.86011 3.22986 2.86011C3.02552 2.86011 2.85986 3.02576 2.85986 3.23011C2.85986 3.43445 3.02552 3.60011 3.22986 3.60011Z" fill="#212529"/>
<path d="M5.05994 3.60011C5.26429 3.60011 5.42994 3.43445 5.42994 3.23011C5.42994 3.02576 5.26429 2.86011 5.05994 2.86011C4.8556 2.86011 4.68994 3.02576 4.68994 3.23011C4.68994 3.43445 4.8556 3.60011 5.05994 3.60011Z" fill="#212529"/>
<path d="M4.15003 2.68995C4.35437 2.68995 4.52003 2.5243 4.52003 2.31995C4.52003 2.11561 4.35437 1.94995 4.15003 1.94995C3.94568 1.94995 3.78003 2.11561 3.78003 2.31995C3.78003 2.5243 3.94568 2.68995 4.15003 2.68995Z" fill="#212529"/>
<path d="M2.31995 2.68995C2.5243 2.68995 2.68995 2.5243 2.68995 2.31995C2.68995 2.11561 2.5243 1.94995 2.31995 1.94995C2.11561 1.94995 1.94995 2.11561 1.94995 2.31995C1.94995 2.5243 2.11561 2.68995 2.31995 2.68995Z" fill="#212529"/>
<path d="M4.15003 7.99C4.35437 7.99 4.52003 7.82435 4.52003 7.62C4.52003 7.41565 4.35437 7.25 4.15003 7.25C3.94568 7.25 3.78003 7.41565 3.78003 7.62C3.78003 7.82435 3.94568 7.99 4.15003 7.99Z" fill="#212529"/>
<path d="M2.31995 7.99C2.5243 7.99 2.68995 7.82435 2.68995 7.62C2.68995 7.41565 2.5243 7.25 2.31995 7.25C2.11561 7.25 1.94995 7.41565 1.94995 7.62C1.94995 7.82435 2.11561 7.99 2.31995 7.99Z" fill="#212529"/>
<path d="M3.22986 7.07008C3.43421 7.07008 3.59986 6.90442 3.59986 6.70008C3.59986 6.49573 3.43421 6.33008 3.22986 6.33008C3.02552 6.33008 2.85986 6.49573 2.85986 6.70008C2.85986 6.90442 3.02552 7.07008 3.22986 7.07008Z" fill="#212529"/>
<path d="M3.22986 5.25001C3.43421 5.25001 3.59986 5.08435 3.59986 4.88001C3.59986 4.67566 3.43421 4.51001 3.22986 4.51001C3.02552 4.51001 2.85986 4.67566 2.85986 4.88001C2.85986 5.08435 3.02552 5.25001 3.22986 5.25001Z" fill="#212529"/>
<path d="M5.05994 7.07008C5.26429 7.07008 5.42994 6.90442 5.42994 6.70008C5.42994 6.49573 5.26429 6.33008 5.05994 6.33008C4.8556 6.33008 4.68994 6.49573 4.68994 6.70008C4.68994 6.90442 4.8556 7.07008 5.05994 7.07008Z" fill="#212529"/>
<path d="M4.15003 6.15992C4.35437 6.15992 4.52003 5.99427 4.52003 5.78992C4.52003 5.58558 4.35437 5.41992 4.15003 5.41992C3.94568 5.41992 3.78003 5.58558 3.78003 5.78992C3.78003 5.99427 3.94568 6.15992 4.15003 6.15992Z" fill="#212529"/>
<path d="M2.31995 6.15992C2.5243 6.15992 2.68995 5.99427 2.68995 5.78992C2.68995 5.58558 2.5243 5.41992 2.31995 5.41992C2.11561 5.41992 1.94995 5.58558 1.94995 5.78992C1.94995 5.99427 2.11561 6.15992 2.31995 6.15992Z" fill="#212529"/>
<path d="M5.05994 5.25001C5.26429 5.25001 5.42994 5.08435 5.42994 4.88001C5.42994 4.67566 5.26429 4.51001 5.05994 4.51001C4.8556 4.51001 4.68994 4.67566 4.68994 4.88001C4.68994 5.08435 4.8556 5.25001 5.05994 5.25001Z" fill="#212529"/>
<path d="M4.15003 11.46C4.35437 11.46 4.52003 11.2943 4.52003 11.09C4.52003 10.8856 4.35437 10.72 4.15003 10.72C3.94568 10.72 3.78003 10.8856 3.78003 11.09C3.78003 11.2943 3.94568 11.46 4.15003 11.46Z" fill="#212529"/>
<path d="M2.31995 11.46C2.5243 11.46 2.68995 11.2943 2.68995 11.09C2.68995 10.8856 2.5243 10.72 2.31995 10.72C2.11561 10.72 1.94995 10.8856 1.94995 11.09C1.94995 11.2943 2.11561 11.46 2.31995 11.46Z" fill="#212529"/>
<path d="M3.22986 10.54C3.43421 10.54 3.59986 10.3744 3.59986 10.17C3.59986 9.9657 3.43421 9.80005 3.22986 9.80005C3.02552 9.80005 2.85986 9.9657 2.85986 10.17C2.85986 10.3744 3.02552 10.54 3.22986 10.54Z" fill="#212529"/>
<path d="M3.22986 8.71998C3.43421 8.71998 3.59986 8.55433 3.59986 8.34998C3.59986 8.14564 3.43421 7.97998 3.22986 7.97998C3.02552 7.97998 2.85986 8.14564 2.85986 8.34998C2.85986 8.55433 3.02552 8.71998 3.22986 8.71998Z" fill="#212529"/>
<path d="M5.05994 10.54C5.26429 10.54 5.42994 10.3744 5.42994 10.17C5.42994 9.9657 5.26429 9.80005 5.05994 9.80005C4.8556 9.80005 4.68994 9.9657 4.68994 10.17C4.68994 10.3744 4.8556 10.54 5.05994 10.54Z" fill="#212529"/>
<path d="M4.15003 9.62989C4.35437 9.62989 4.52003 9.46424 4.52003 9.25989C4.52003 9.05555 4.35437 8.88989 4.15003 8.88989C3.94568 8.88989 3.78003 9.05555 3.78003 9.25989C3.78003 9.46424 3.94568 9.62989 4.15003 9.62989Z" fill="#212529"/>
<path d="M2.31995 9.62989C2.5243 9.62989 2.68995 9.46424 2.68995 9.25989C2.68995 9.05555 2.5243 8.88989 2.31995 8.88989C2.11561 8.88989 1.94995 9.05555 1.94995 9.25989C1.94995 9.46424 2.11561 9.62989 2.31995 9.62989Z" fill="#212529"/>
<path d="M5.05994 8.71998C5.26429 8.71998 5.42994 8.55433 5.42994 8.34998C5.42994 8.14564 5.26429 7.97998 5.05994 7.97998C4.8556 7.97998 4.68994 8.14564 4.68994 8.34998C4.68994 8.55433 4.8556 8.71998 5.05994 8.71998Z" fill="#212529"/>
<path d="M4.15003 14.9299C4.35437 14.9299 4.52003 14.7643 4.52003 14.5599C4.52003 14.3556 4.35437 14.1899 4.15003 14.1899C3.94568 14.1899 3.78003 14.3556 3.78003 14.5599C3.78003 14.7643 3.94568 14.9299 4.15003 14.9299Z" fill="#212529"/>
<path d="M2.31995 14.9299C2.5243 14.9299 2.68995 14.7643 2.68995 14.5599C2.68995 14.3556 2.5243 14.1899 2.31995 14.1899C2.11561 14.1899 1.94995 14.3556 1.94995 14.5599C1.94995 14.7643 2.11561 14.9299 2.31995 14.9299Z" fill="#212529"/>
<path d="M3.22986 14.01C3.43421 14.01 3.59986 13.8444 3.59986 13.64C3.59986 13.4357 3.43421 13.27 3.22986 13.27C3.02552 13.27 2.85986 13.4357 2.85986 13.64C2.85986 13.8444 3.02552 14.01 3.22986 14.01Z" fill="#212529"/>
<path d="M3.22986 12.19C3.43421 12.19 3.59986 12.0243 3.59986 11.82C3.59986 11.6156 3.43421 11.45 3.22986 11.45C3.02552 11.45 2.85986 11.6156 2.85986 11.82C2.85986 12.0243 3.02552 12.19 3.22986 12.19Z" fill="#212529"/>
<path d="M5.05994 14.01C5.26429 14.01 5.42994 13.8444 5.42994 13.64C5.42994 13.4357 5.26429 13.27 5.05994 13.27C4.8556 13.27 4.68994 13.4357 4.68994 13.64C4.68994 13.8444 4.8556 14.01 5.05994 14.01Z" fill="#212529"/>
<path d="M4.15003 13.0999C4.35437 13.0999 4.52003 12.9342 4.52003 12.7299C4.52003 12.5255 4.35437 12.3599 4.15003 12.3599C3.94568 12.3599 3.78003 12.5255 3.78003 12.7299C3.78003 12.9342 3.94568 13.0999 4.15003 13.0999Z" fill="#212529"/>
<path d="M2.31995 13.0999C2.5243 13.0999 2.68995 12.9342 2.68995 12.7299C2.68995 12.5255 2.5243 12.3599 2.31995 12.3599C2.11561 12.3599 1.94995 12.5255 1.94995 12.7299C1.94995 12.9342 2.11561 13.0999 2.31995 13.0999Z" fill="#212529"/>
<path d="M5.05994 12.19C5.26429 12.19 5.42994 12.0243 5.42994 11.82C5.42994 11.6156 5.26429 11.45 5.05994 11.45C4.8556 11.45 4.68994 11.6156 4.68994 11.82C4.68994 12.0243 4.8556 12.19 5.05994 12.19Z" fill="#212529"/>
<path d="M4.15003 18.3999C4.35437 18.3999 4.52003 18.2343 4.52003 18.0299C4.52003 17.8256 4.35437 17.6599 4.15003 17.6599C3.94568 17.6599 3.78003 17.8256 3.78003 18.0299C3.78003 18.2343 3.94568 18.3999 4.15003 18.3999Z" fill="#212529"/>
<path d="M2.31995 18.3999C2.5243 18.3999 2.68995 18.2343 2.68995 18.0299C2.68995 17.8256 2.5243 17.6599 2.31995 17.6599C2.11561 17.6599 1.94995 17.8256 1.94995 18.0299C1.94995 18.2343 2.11561 18.3999 2.31995 18.3999Z" fill="#212529"/>
<path d="M3.22986 17.48C3.43421 17.48 3.59986 17.3143 3.59986 17.11C3.59986 16.9056 3.43421 16.74 3.22986 16.74C3.02552 16.74 2.85986 16.9056 2.85986 17.11C2.85986 17.3143 3.02552 17.48 3.22986 17.48Z" fill="#212529"/>
<path d="M3.22986 15.6599C3.43421 15.6599 3.59986 15.4943 3.59986 15.2899C3.59986 15.0856 3.43421 14.9199 3.22986 14.9199C3.02552 14.9199 2.85986 15.0856 2.85986 15.2899C2.85986 15.4943 3.02552 15.6599 3.22986 15.6599Z" fill="#212529"/>
<path d="M5.05994 17.48C5.26429 17.48 5.42994 17.3143 5.42994 17.11C5.42994 16.9056 5.26429 16.74 5.05994 16.74C4.8556 16.74 4.68994 16.9056 4.68994 17.11C4.68994 17.3143 4.8556 17.48 5.05994 17.48Z" fill="#212529"/>
<path d="M4.15003 16.5698C4.35437 16.5698 4.52003 16.4042 4.52003 16.1998C4.52003 15.9955 4.35437 15.8298 4.15003 15.8298C3.94568 15.8298 3.78003 15.9955 3.78003 16.1998C3.78003 16.4042 3.94568 16.5698 4.15003 16.5698Z" fill="#212529"/>
<path d="M2.31995 16.5698C2.5243 16.5698 2.68995 16.4042 2.68995 16.1998C2.68995 15.9955 2.5243 15.8298 2.31995 15.8298C2.11561 15.8298 1.94995 15.9955 1.94995 16.1998C1.94995 16.4042 2.11561 16.5698 2.31995 16.5698Z" fill="#212529"/>
<path d="M5.05994 15.6599C5.26429 15.6599 5.42994 15.4943 5.42994 15.2899C5.42994 15.0856 5.26429 14.9199 5.05994 14.9199C4.8556 14.9199 4.68994 15.0856 4.68994 15.2899C4.68994 15.4943 4.8556 15.6599 5.05994 15.6599Z" fill="#212529"/>
<path d="M4.15003 21.8701C4.35437 21.8701 4.52003 21.7045 4.52003 21.5001C4.52003 21.2958 4.35437 21.1301 4.15003 21.1301C3.94568 21.1301 3.78003 21.2958 3.78003 21.5001C3.78003 21.7045 3.94568 21.8701 4.15003 21.8701Z" fill="#212529"/>
<path d="M2.31995 21.8701C2.5243 21.8701 2.68995 21.7045 2.68995 21.5001C2.68995 21.2958 2.5243 21.1301 2.31995 21.1301C2.11561 21.1301 1.94995 21.2958 1.94995 21.5001C1.94995 21.7045 2.11561 21.8701 2.31995 21.8701Z" fill="#212529"/>
<path d="M3.22986 20.9502C3.43421 20.9502 3.59986 20.7846 3.59986 20.5802C3.59986 20.3759 3.43421 20.2102 3.22986 20.2102C3.02552 20.2102 2.85986 20.3759 2.85986 20.5802C2.85986 20.7846 3.02552 20.9502 3.22986 20.9502Z" fill="#212529"/>
<path d="M3.22986 19.1301C3.43421 19.1301 3.59986 18.9645 3.59986 18.7601C3.59986 18.5558 3.43421 18.3901 3.22986 18.3901C3.02552 18.3901 2.85986 18.5558 2.85986 18.7601C2.85986 18.9645 3.02552 19.1301 3.22986 19.1301Z" fill="#212529"/>
<path d="M5.05994 20.9502C5.26429 20.9502 5.42994 20.7846 5.42994 20.5802C5.42994 20.3759 5.26429 20.2102 5.05994 20.2102C4.8556 20.2102 4.68994 20.3759 4.68994 20.5802C4.68994 20.7846 4.8556 20.9502 5.05994 20.9502Z" fill="#212529"/>
<path d="M4.15003 20.0401C4.35437 20.0401 4.52003 19.8744 4.52003 19.67C4.52003 19.4657 4.35437 19.3 4.15003 19.3C3.94568 19.3 3.78003 19.4657 3.78003 19.67C3.78003 19.8744 3.94568 20.0401 4.15003 20.0401Z" fill="#212529"/>
<path d="M2.31995 20.0401C2.5243 20.0401 2.68995 19.8744 2.68995 19.67C2.68995 19.4657 2.5243 19.3 2.31995 19.3C2.11561 19.3 1.94995 19.4657 1.94995 19.67C1.94995 19.8744 2.11561 20.0401 2.31995 20.0401Z" fill="#212529"/>
<path d="M5.05994 19.1301C5.26429 19.1301 5.42994 18.9645 5.42994 18.7601C5.42994 18.5558 5.26429 18.3901 5.05994 18.3901C4.8556 18.3901 4.68994 18.5558 4.68994 18.7601C4.68994 18.9645 4.8556 19.1301 5.05994 19.1301Z" fill="#212529"/>
<path d="M3.22986 22.6001C3.43421 22.6001 3.59986 22.4345 3.59986 22.2301C3.59986 22.0258 3.43421 21.8601 3.22986 21.8601C3.02552 21.8601 2.85986 22.0258 2.85986 22.2301C2.85986 22.4345 3.02552 22.6001 3.22986 22.6001Z" fill="#212529"/>
<path d="M5.05994 22.6001C5.26429 22.6001 5.42994 22.4345 5.42994 22.2301C5.42994 22.0258 5.26429 21.8601 5.05994 21.8601C4.8556 21.8601 4.68994 22.0258 4.68994 22.2301C4.68994 22.4345 4.8556 22.6001 5.05994 22.6001Z" fill="#212529"/>
<path d="M0.679814 4.52003C0.88416 4.52003 1.04981 4.35437 1.04981 4.15003C1.04981 3.94568 0.88416 3.78003 0.679814 3.78003C0.475469 3.78003 0.309814 3.94568 0.309814 4.15003C0.309814 4.35437 0.475469 4.52003 0.679814 4.52003Z" fill="#212529"/>
<path d="M1.58997 3.60011C1.79432 3.60011 1.95997 3.43445 1.95997 3.23011C1.95997 3.02576 1.79432 2.86011 1.58997 2.86011C1.38563 2.86011 1.21997 3.02576 1.21997 3.23011C1.21997 3.43445 1.38563 3.60011 1.58997 3.60011Z" fill="#212529"/>
<path d="M0.679814 2.68995C0.88416 2.68995 1.04981 2.5243 1.04981 2.31995C1.04981 2.11561 0.88416 1.94995 0.679814 1.94995C0.475469 1.94995 0.309814 2.11561 0.309814 2.31995C0.309814 2.5243 0.475469 2.68995 0.679814 2.68995Z" fill="#212529"/>
<path d="M0.679814 7.99C0.88416 7.99 1.04981 7.82435 1.04981 7.62C1.04981 7.41565 0.88416 7.25 0.679814 7.25C0.475469 7.25 0.309814 7.41565 0.309814 7.62C0.309814 7.82435 0.475469 7.99 0.679814 7.99Z" fill="#212529"/>
<path d="M1.58997 7.07008C1.79432 7.07008 1.95997 6.90442 1.95997 6.70008C1.95997 6.49573 1.79432 6.33008 1.58997 6.33008C1.38563 6.33008 1.21997 6.49573 1.21997 6.70008C1.21997 6.90442 1.38563 7.07008 1.58997 7.07008Z" fill="#212529"/>
<path d="M0.679814 6.15992C0.88416 6.15992 1.04981 5.99427 1.04981 5.78992C1.04981 5.58558 0.88416 5.41992 0.679814 5.41992C0.475469 5.41992 0.309814 5.58558 0.309814 5.78992C0.309814 5.99427 0.475469 6.15992 0.679814 6.15992Z" fill="#212529"/>
<path d="M1.58997 5.25001C1.79432 5.25001 1.95997 5.08435 1.95997 4.88001C1.95997 4.67566 1.79432 4.51001 1.58997 4.51001C1.38563 4.51001 1.21997 4.67566 1.21997 4.88001C1.21997 5.08435 1.38563 5.25001 1.58997 5.25001Z" fill="#212529"/>
<path d="M0.679814 11.46C0.88416 11.46 1.04981 11.2943 1.04981 11.09C1.04981 10.8856 0.88416 10.72 0.679814 10.72C0.475469 10.72 0.309814 10.8856 0.309814 11.09C0.309814 11.2943 0.475469 11.46 0.679814 11.46Z" fill="#212529"/>
<path d="M1.58997 10.54C1.79432 10.54 1.95997 10.3744 1.95997 10.17C1.95997 9.9657 1.79432 9.80005 1.58997 9.80005C1.38563 9.80005 1.21997 9.9657 1.21997 10.17C1.21997 10.3744 1.38563 10.54 1.58997 10.54Z" fill="#212529"/>
<path d="M0.679814 9.62989C0.88416 9.62989 1.04981 9.46424 1.04981 9.25989C1.04981 9.05555 0.88416 8.88989 0.679814 8.88989C0.475469 8.88989 0.309814 9.05555 0.309814 9.25989C0.309814 9.46424 0.475469 9.62989 0.679814 9.62989Z" fill="#212529"/>
<path d="M1.58997 8.71998C1.79432 8.71998 1.95997 8.55433 1.95997 8.34998C1.95997 8.14564 1.79432 7.97998 1.58997 7.97998C1.38563 7.97998 1.21997 8.14564 1.21997 8.34998C1.21997 8.55433 1.38563 8.71998 1.58997 8.71998Z" fill="#212529"/>
<path d="M0.679814 14.9299C0.88416 14.9299 1.04981 14.7643 1.04981 14.5599C1.04981 14.3556 0.88416 14.1899 0.679814 14.1899C0.475469 14.1899 0.309814 14.3556 0.309814 14.5599C0.309814 14.7643 0.475469 14.9299 0.679814 14.9299Z" fill="#212529"/>
<path d="M1.58997 14.01C1.79432 14.01 1.95997 13.8444 1.95997 13.64C1.95997 13.4357 1.79432 13.27 1.58997 13.27C1.38563 13.27 1.21997 13.4357 1.21997 13.64C1.21997 13.8444 1.38563 14.01 1.58997 14.01Z" fill="#212529"/>
<path d="M0.679814 13.0999C0.88416 13.0999 1.04981 12.9342 1.04981 12.7299C1.04981 12.5255 0.88416 12.3599 0.679814 12.3599C0.475469 12.3599 0.309814 12.5255 0.309814 12.7299C0.309814 12.9342 0.475469 13.0999 0.679814 13.0999Z" fill="#212529"/>
<path d="M1.58997 12.19C1.79432 12.19 1.95997 12.0243 1.95997 11.82C1.95997 11.6156 1.79432 11.45 1.58997 11.45C1.38563 11.45 1.21997 11.6156 1.21997 11.82C1.21997 12.0243 1.38563 12.19 1.58997 12.19Z" fill="#212529"/>
<path d="M0.679814 18.3999C0.88416 18.3999 1.04981 18.2343 1.04981 18.0299C1.04981 17.8256 0.88416 17.6599 0.679814 17.6599C0.475469 17.6599 0.309814 17.8256 0.309814 18.0299C0.309814 18.2343 0.475469 18.3999 0.679814 18.3999Z" fill="#212529"/>
<path d="M1.58997 17.48C1.79432 17.48 1.95997 17.3143 1.95997 17.11C1.95997 16.9056 1.79432 16.74 1.58997 16.74C1.38563 16.74 1.21997 16.9056 1.21997 17.11C1.21997 17.3143 1.38563 17.48 1.58997 17.48Z" fill="#212529"/>
<path d="M0.679814 16.5698C0.88416 16.5698 1.04981 16.4042 1.04981 16.1998C1.04981 15.9955 0.88416 15.8298 0.679814 15.8298C0.475469 15.8298 0.309814 15.9955 0.309814 16.1998C0.309814 16.4042 0.475469 16.5698 0.679814 16.5698Z" fill="#212529"/>
<path d="M1.58997 15.6599C1.79432 15.6599 1.95997 15.4943 1.95997 15.2899C1.95997 15.0856 1.79432 14.9199 1.58997 14.9199C1.38563 14.9199 1.21997 15.0856 1.21997 15.2899C1.21997 15.4943 1.38563 15.6599 1.58997 15.6599Z" fill="#212529"/>
<path d="M0.679814 21.8701C0.88416 21.8701 1.04981 21.7045 1.04981 21.5001C1.04981 21.2958 0.88416 21.1301 0.679814 21.1301C0.475469 21.1301 0.309814 21.2958 0.309814 21.5001C0.309814 21.7045 0.475469 21.8701 0.679814 21.8701Z" fill="#212529"/>
<path d="M1.58997 20.9502C1.79432 20.9502 1.95997 20.7846 1.95997 20.5802C1.95997 20.3759 1.79432 20.2102 1.58997 20.2102C1.38563 20.2102 1.21997 20.3759 1.21997 20.5802C1.21997 20.7846 1.38563 20.9502 1.58997 20.9502Z" fill="#212529"/>
<path d="M0.679814 20.0401C0.88416 20.0401 1.04981 19.8744 1.04981 19.67C1.04981 19.4657 0.88416 19.3 0.679814 19.3C0.475469 19.3 0.309814 19.4657 0.309814 19.67C0.309814 19.8744 0.475469 20.0401 0.679814 20.0401Z" fill="#212529"/>
<path d="M1.58997 19.1301C1.79432 19.1301 1.95997 18.9645 1.95997 18.7601C1.95997 18.5558 1.79432 18.3901 1.58997 18.3901C1.38563 18.3901 1.21997 18.5558 1.21997 18.7601C1.21997 18.9645 1.38563 19.1301 1.58997 19.1301Z" fill="#212529"/>
<path d="M1.58997 22.6001C1.79432 22.6001 1.95997 22.4345 1.95997 22.2301C1.95997 22.0258 1.79432 21.8601 1.58997 21.8601C1.38563 21.8601 1.21997 22.0258 1.21997 22.2301C1.21997 22.4345 1.38563 22.6001 1.58997 22.6001Z" fill="#212529"/>
</g>
<path d="M12 2C6.2 2 1.5 6.26 1.5 11.46C1.50719 13.329 2.11745 15.1457 3.24 16.64C3.09 18.36 2.68 20.78 1.5 22C3.59769 21.6732 5.62578 20.9972 7.5 20C8.9122 20.5919 10.4288 20.8945 11.96 20.89C17.76 20.89 22.46 16.68 22.46 11.48C22.46 6.28 17.8 2 12 2Z" stroke="#242424" stroke-linecap="round" stroke-linejoin="round"/>
</svg>
